<?xml version="1.0" standalone="no"?>
<!DOCTYPE svg PUBLIC "-//W3C//DTD SVG 1.1//EN" "http://www.w3.org/Graphics/SVG/1.1/DTD/svg11.dtd" >
<svg>
<metadata>
Created by FontForge 20090914 at Sun Mar 12 19:04:14 2017
 By www-data
Typeface and data &#239;&#190;&#169; 1995-1999 Microsoft Corporation. All Rights Reserved.
</metadata>
<defs>
<font id="Tahoma-BoldFauxItalic" horiz-adv-x="0" >
  <font-face 
    font-family="Tahoma"
    font-weight="700"
    font-style="italic"
    font-stretch="normal"
    units-per-em="2048"
    panose-1="2 11 8 4 3 5 4 4 2 4"
    ascent="1638"
    descent="-410"
    x-height="1123"
    cap-height="1489"
    bbox="-1204 -425 3441.87 2182"
    underline-thickness="201"
    underline-position="-44"
    unicode-range="U+0020-U+FFFC"
  />
<missing-glyph horiz-adv-x="2048" 
d="M256 0l319 1536h1536l-319 -1536h-1536zM410 128h1280l266 1280h-1280z" />
    <glyph glyph-name="afii62881" unicode="&#x651;&#x64b;" horiz-adv-x="618" 
d="M728 1407c54 0 101.17 17.832 141.503 53.499s67.5 86.167 81.5 151.5c6.66699 34 10.667 58 12 72l3 31h-94l-1 -7c-1.33301 -8 -2.83301 -20 -4.5 -36s-4.83398 -35.333 -9.50098 -58c-8 -38 -21.333 -66.167 -40 -84.5s-41.667 -27.5 -69 -27.5
c-23.333 0 -40.5 9.5 -51.5 28.5s-12.833 47.5 -5.5 85.5l13 60h-94l-15 -70c-10 -50.667 -26.167 -88.667 -48.5 -114s-47.833 -38 -76.5 -38c-23.333 0 -39.833 6.66699 -49.5 20s-11.834 32 -6.50098 56c3.33301 16.667 7.66602 34.334 12.999 53.001
s9.33301 31.667 12 39l1 7h-96c-2.66699 -8.66699 -6.5 -23.167 -11.5 -43.5s-9.5 -39.5 -13.5 -57.5c-10.667 -53.333 -4.16699 -94.666 19.5 -123.999s60.834 -44 111.501 -44c39.333 0 75 11.5 107 34.5s53.667 47.167 65 72.5
c4.66699 -16.667 16.667 -30.834 36 -42.501s42.666 -17.5 69.999 -17.5zM1017 2019l-594 -100l21 100l593 97zM976.003 1819l-594 -101l21 101l593 96z" />
    <glyph glyph-name="afii62882" unicode="&#x651;&#x64c;" horiz-adv-x="613" arabic-form="isolated" 
d="M716 1363c54 0 101.17 17.832 141.503 53.499s67.5 86.167 81.5 151.5c6.66699 34 10.667 58 12 72l3 31h-94l-2 -7c-0.666992 -8 -1.83398 -20 -3.50098 -36s-4.83398 -35.333 -9.50098 -58c-8 -38 -21.333 -66.167 -40 -84.5s-41.667 -27.5 -69 -27.5
c-23.333 0 -40.666 9.5 -51.999 28.5s-13 47.5 -5 85.5l13 60h-94l-15 -70c-10.667 -50.667 -27 -88.667 -49 -114s-47.333 -38 -76 -38c-23.333 0 -39.833 6.66699 -49.5 20s-12.167 32 -7.5 56c4 16.667 8.66699 34.334 14 53.001s9.33301 31.667 12 39l1 7h-96
c-2.66699 -8.66699 -6.5 -23.167 -11.5 -43.5s-9.5 -39.5 -13.5 -57.5c-11.333 -53.333 -5 -94.666 19 -123.999s61.333 -44 112 -44c39.333 0 74.833 11.5 106.5 34.5s53.167 47.167 64.5 72.5c5.33301 -16.667 17.666 -30.834 36.999 -42.501s42.666 -17.5 69.999 -17.5z
M727.003 1804c-32 10.667 -58.168 29.8311 -78.501 57.498s-26.5 60.5 -18.5 98.5c9.33301 46 32.666 83.833 69.999 113.5s82.333 44.5 135 44.5c45.333 0 81.833 -15.167 109.5 -45.5s36.5 -69.166 26.5 -116.499c-4.66699 -22.667 -15.5 -46.167 -32.5 -70.5
s-32.167 -41.166 -45.5 -50.499l61 -12l-18 -86l-121 28c-69.333 -35.333 -140.833 -62.333 -214.5 -81s-143.5 -30.334 -209.5 -35.001l34 114l22 78c8.66699 30 13.667 48.333 15 55c1.33301 8.66699 1 16 -1 22s-9.33301 9 -22 9c-12 0 -26 -0.5 -42 -1.5
s-27 -1.83301 -33 -2.5l20 96c4 0 19.333 1 46 3s48.334 3 65.001 3c21.333 0 38.333 -6.16699 51 -18.5s16.667 -29.166 12 -50.499c-6 -30.667 -17.333 -73.5 -34 -128.5s-17.667 -81.5 -3 -79.5s41.834 7.16699 81.501 15.5s81.167 21.833 124.5 40.5zM814.002 1860
c16.667 12 30.833 25.501 42.5 40.501s20.167 34.167 25.5 57.5c4 19.333 -0.666992 35 -14 47s-29.666 18 -48.999 18c-23.333 0 -44 -5.5 -62 -16.5s-29 -27.167 -33 -48.5c-4.66699 -22.667 0.666016 -42.334 15.999 -59.001s40 -29.667 74 -39z" />
    <glyph glyph-name="afii62883" unicode="&#x651;&#x64d;" horiz-adv-x="618" arabic-form="isolated" 
d="M812 1810c-27.333 0 -50.6709 5.83398 -70.0039 17.501s-31.666 25.834 -36.999 42.501c-11.333 -25.333 -32.833 -49.5 -64.5 -72.5s-67.167 -34.5 -106.5 -34.5c-50.667 0 -88 14.667 -112 44s-30.333 70.666 -19 123.999c4 18 8.5 37.167 13.5 57.5
s8.83301 34.833 11.5 43.5h96l-1 -7c-2.66699 -7.33301 -6.66699 -20.333 -12 -39s-10 -36.334 -14 -53.001c-4.66699 -24 -2.16699 -42.667 7.5 -56s26.167 -20 49.5 -20c28.667 0 54 12.667 76 38s38.333 63.333 49 114l15 70h94l-13 -60c-8 -38 -6.33301 -66.5 5 -85.5
s28.666 -28.5 51.999 -28.5c27.333 0 50.333 9.16699 69 27.5s32 46.5 40 84.5c4.66699 22.667 7.83398 42 9.50098 58s2.83398 28 3.50098 36l2 7h94l-3 -31c-1.33301 -14 -5.66602 -38 -12.999 -72c-13.333 -65.333 -40.166 -115.833 -80.499 -151.5
s-87.5 -53.5 -141.5 -53.5zM940.995 1652l-593 -97l21 100l593 97zM898.995 1450l-593 -97l21 100l593 97z" />
    <glyph glyph-name="afii62884" unicode="&#x651;&#x64e;" horiz-adv-x="614" arabic-form="isolated" 
d="M770 1618c54 0 101.171 17.832 141.504 53.499s67.5 86.167 81.5 151.5c6.66699 34 10.667 58 12 72l3 31h-94l-2 -7c-0.666992 -8 -1.83398 -20 -3.50098 -36s-4.83398 -35.333 -9.50098 -58c-8 -38 -21.333 -66.167 -40 -84.5s-41.667 -27.5 -69 -27.5
c-23.333 0 -40.5 9.5 -51.5 28.5s-12.833 47.5 -5.5 85.5l13 60h-94l-15 -70c-10.667 -50.667 -27 -88.667 -49 -114s-47.333 -38 -76 -38c-23.333 0 -39.833 6.66699 -49.5 20s-12.167 32 -7.5 56c4 16.667 8.66699 34.334 14 53.001s9.33301 31.667 12 39l1 7h-96
c-2.66699 -8.66699 -6.5 -23.167 -11.5 -43.5s-9.5 -39.5 -13.5 -57.5c-11.333 -53.333 -5 -94.666 19 -123.999s61.333 -44 112 -44c39.333 0 74.833 11.5 106.5 34.5s53.167 47.167 64.5 72.5c5.33301 -16.667 17.666 -30.834 36.999 -42.501s42.666 -17.5 69.999 -17.5z
M1013 2017l-595 -100l21 100l594 97z" />
    <glyph glyph-name="afii62885" unicode="&#x651;&#x64f;" horiz-adv-x="614" arabic-form="isolated" 
d="M715 1353c54 0 101.172 17.832 141.505 53.499s67.166 86.167 80.499 151.5c7.33301 34 11.666 58 12.999 72l3 31h-94l-2 -7c-0.666992 -8 -1.83398 -20 -3.50098 -36s-4.83398 -35.333 -9.50098 -58c-8 -38 -21.333 -66.167 -40 -84.5s-41.667 -27.5 -69 -27.5
c-23.333 0 -40.666 9.5 -51.999 28.5s-13 47.5 -5 85.5l13 60h-94l-15 -70c-10.667 -50.667 -27 -88.667 -49 -114s-47.333 -38 -76 -38c-23.333 0 -39.833 6.66699 -49.5 20s-12.167 32 -7.5 56c4 16.667 8.66699 34.334 14 53.001s9.33301 31.667 12 39l1 7h-96
c-2.66699 -8.66699 -6.5 -23.167 -11.5 -43.5s-9.5 -39.5 -13.5 -57.5c-11.333 -53.333 -5 -94.666 19 -123.999s61.333 -44 112 -44c39.333 0 74.833 11.5 106.5 34.5s53.167 47.167 64.5 72.5c5.33301 -16.667 17.666 -30.834 36.999 -42.501s42.666 -17.5 69.999 -17.5z
M918.005 1737l-121.999 27.998c-67.333 -34.667 -132.833 -61 -196.5 -79s-128.834 -29 -195.501 -33l18 88c52 3.33301 100.667 9.5 146 18.5s92.333 23.833 141 44.5c-32 10.667 -58.167 29.667 -78.5 57s-26.5 60.333 -18.5 99c9.33301 46 32.5 83.833 69.5 113.5
s82.167 44.5 135.5 44.5c45.333 0 81.833 -15.167 109.5 -45.5s36.5 -69.166 26.5 -116.499c-4.66699 -22.667 -15.667 -46.167 -33 -70.5s-32.333 -41.166 -45 -50.499l61 -12zM796.006 1860c16 11.333 30 24.6689 42 40.002s20.667 34.666 26 57.999
c4 19.333 -0.666992 35 -14 47s-29.666 18 -48.999 18c-23.333 0 -44 -5.5 -62 -16.5s-29 -27.167 -33 -48.5c-4.66699 -22.667 0.666016 -42.334 15.999 -59.001s40 -29.667 74 -39z" />
    <glyph glyph-name="afii62886" unicode="&#x651;&#x650;" horiz-adv-x="614" arabic-form="isolated" 
d="M809 1808c-27.333 0 -50.498 5.83398 -69.498 17.501s-31.167 25.834 -36.5 42.501c-11.333 -25.333 -32.833 -49.5 -64.5 -72.5s-67.167 -34.5 -106.5 -34.5c-50.667 0 -88 14.667 -112 44s-30.333 70.666 -19 123.999c3.33301 18 7.66602 37.167 12.999 57.5
s9.33301 34.833 12 43.5h96l-2 -7c-2 -7.33301 -5.83301 -20.333 -11.5 -39s-10.167 -36.334 -13.5 -53.001c-5.33301 -24 -3.16602 -42.667 6.50098 -56s26.167 -20 49.5 -20c28.667 0 54.167 12.667 76.5 38s38.833 63.333 49.5 114l14 70h94l-12 -60
c-8 -38 -6.5 -66.5 4.5 -85.5s28.167 -28.5 51.5 -28.5c27.333 0 50.5 9.16699 69.5 27.5s32.167 46.5 39.5 84.5c5.33301 22.667 8.66602 42 9.99902 58s2.66602 28 3.99902 36l1 7h94c-0.666992 -6.66699 -1.5 -17 -2.5 -31s-5.16699 -38 -12.5 -72
c-13.333 -65.333 -40.333 -115.833 -81 -151.5s-88 -53.5 -142 -53.5zM949.002 1673l-593 -98l21 100l593 97z" />
    <glyph glyph-name="afii64184" unicode="&#xfedf;&#xfee0;&#xfeea;" horiz-adv-x="2486" arabic-form="isolated" 
d="M929 645l50 240.001c-122 -6 -217.5 -26.833 -286.5 -62.5s-109.833 -83.834 -122.5 -144.501c-6 -30.667 1.5 -56.5 22.5 -77.5s50.5 -31.5 88.5 -31.5c38.667 0 80.667 6.66699 126 20s86 32 122 56zM1586 147.001c-32 -42 -79.835 -77.666 -143.502 -106.999
s-135.167 -44 -214.5 -44c-106.667 0 -189.5 33 -248.5 99s-87.5 162 -85.5 288c-38 -34.667 -85.167 -63.167 -141.5 -85.5s-109.5 -33.5 -159.5 -33.5c-126 0 -218.833 38.333 -278.5 115s-76.834 175.667 -51.501 297c32 155.333 116 274.166 252 356.499
s316.333 128.5 541 138.5l263 13l-122 -586c-16 -78 -14.5 -137.167 4.5 -177.5s58.167 -60.5 117.5 -60.5c60.667 0 108.5 19.167 143.5 57.5s61.167 98.5 78.5 180.5l199 956h279l-199 -956c-17.333 -82 -16.166 -142.167 3.50098 -180.5s59.834 -57.5 120.501 -57.5
c64.667 0 114.167 19 148.501 57c34.333 38 60.166 98.333 77.5 181l199 956h278l-199 -956c-40.667 -194.667 -111 -343 -211 -445s-220.333 -153 -361 -153c-80 0 -144.667 15 -194 45s-81.333 64 -96 102zM2024 1746c-27.333 0 -50.665 5.83398 -69.998 17.501
s-31.666 25.834 -36.999 42.501c-11.333 -25.333 -32.833 -49.5 -64.5 -72.5s-67.167 -34.5 -106.5 -34.5c-50.667 0 -88 14.667 -112 44s-30.333 70.666 -19 123.999c3.33301 18 7.66602 37.167 12.999 57.5s9.33301 34.833 12 43.5h96l-2 -7
c-2 -7.33301 -5.83301 -20.333 -11.5 -39s-10.167 -36.334 -13.5 -53.001c-4.66699 -24 -2.33398 -42.667 6.99902 -56s25.666 -20 48.999 -20c28.667 0 54.167 12.667 76.5 38s38.833 63.333 49.5 114l14 70h94l-12 -60c-8 -38 -6.5 -66.5 4.5 -85.5
s28.167 -28.5 51.5 -28.5c27.333 0 50.5 9.16699 69.5 27.5s32.5 46.5 40.5 84.5c4.66699 22.667 7.83398 42 9.5 58c1.66699 16 2.83398 28 3.5 36l2 7h94c-1.33301 -6.66699 -2.5 -17 -3.5 -31s-5.16699 -38 -12.5 -72c-13.333 -65.333 -40.166 -115.833 -80.5 -151.5
c-40.333 -35.667 -87.5 -53.5 -141.5 -53.5z" />
    <glyph glyph-name="afii62834" unicode="&#xfedf;&#xfe82;" horiz-adv-x="1399" arabic-form="isolated" 
d="M1354 563c-20.667 -98.667 -58.499 -184.5 -113.499 -257.5s-119.5 -132.833 -193.5 -179.5c-75.333 -47.333 -156.333 -82.5 -243 -105.5s-173.334 -34.5 -260.001 -34.5c-101.333 0 -185.833 3.33301 -253.5 10s-106.167 10.667 -115.5 12l76 363h8
c8 -1.33301 41.833 -5.5 101.5 -12.5s146.5 -10.5 260.5 -10.5c8.66699 0 16.5 0.333008 23.5 1s11.5 1 13.5 1l-238 1129h305l203 -1082c30 12.667 60 34 90 64s49.667 68 59 114l204 979h279zM869.001 1650c-14.667 -10 -36.166 -21.498 -64.499 -34.498
s-59.5 -19.5 -93.5 -19.5c-26 0 -62.333 10.333 -109 31s-82.667 31 -108 31c-22 0 -50 -8.33301 -84 -25s-59.333 -29.667 -76 -39l21 101c13.333 9.33301 36.666 21.166 69.999 35.499s63 21.5 89 21.5c23.333 0 59 -10.167 107 -30.5s84.667 -30.5 110 -30.5
c28.667 0 59.667 7.66699 93 23s55.333 26.666 66 33.999z" />
    <glyph glyph-name="afii62835" unicode="&#xfee0;&#xfe82;" horiz-adv-x="1493" arabic-form="final" 
d="M1397 0c-70.667 0 -129.331 14.5 -175.998 43.5s-84.334 71.167 -113.001 126.5c-80.667 -62.667 -169.834 -109 -267.501 -139s-196.5 -45 -296.5 -45c-101.333 0 -185.833 3.33301 -253.5 10s-106.167 10.667 -115.5 12l76 363h8c8 -1.33301 41.833 -5.5 101.5 -12.5
s146.5 -10.5 260.5 -10.5c8.66699 0 16.5 0.333008 23.5 1s11.5 1 13.5 1l-238 1129h305l203 -1082c30 12.667 60 34 90 64s49.667 68 59 114l204 979h279l-199 -956c-8.66699 -41.333 -10.5 -76.833 -5.5 -106.5s14.5 -54.167 28.5 -73.5
c15.333 -20 33.833 -34.667 55.5 -44s47.167 -14 76.5 -14h94l-74 -360h-139zM880.003 1650c-14.667 -10 -36.166 -21.498 -64.499 -34.498s-59.5 -19.5 -93.5 -19.5c-26 0 -62.333 10.333 -109 31s-82.667 31 -108 31c-22 0 -50 -8.33301 -84 -25s-59.333 -29.667 -76 -39
l21 101c13.333 9.33301 36.666 21.166 69.999 35.499s63 21.5 89 21.5c23.333 0 59 -10.167 107 -30.5s84.667 -30.5 110 -30.5c28.667 0 59.667 7.66699 93 23s55.333 26.666 66 33.999z" />
    <glyph glyph-name="afii62836" unicode="&#xfedf;&#xfe84;" horiz-adv-x="1399" arabic-form="isolated" 
d="M1354 563c-20.667 -98.667 -58.499 -184.5 -113.499 -257.5s-119.5 -132.833 -193.5 -179.5c-75.333 -47.333 -156.333 -82.5 -243 -105.5s-173.334 -34.5 -260.001 -34.5c-101.333 0 -185.833 3.33301 -253.5 10s-106.167 10.667 -115.5 12l76 363h8
c8 -1.33301 41.833 -5.5 101.5 -12.5s146.5 -10.5 260.5 -10.5c8.66699 0 16.5 0.333008 23.5 1s11.5 1 13.5 1l-238 1129h305l203 -1082c30 12.667 60 34 90 64s49.667 68 59 114l204 979h279zM759.001 1596h-336l19 94h74c-14 8.66699 -24.167 22.667 -30.5 42
s-7.5 39.333 -3.5 60c9.33301 42.667 33 80 71 112s83.667 48 137 48c35.333 0 61 -2 77 -6s27 -7.33301 33 -10l-21 -101h-6c-8 4 -22.667 8.83301 -44 14.5s-40.333 8.5 -57 8.5c-29.333 0 -52.5 -6 -69.5 -18s-27.833 -28 -32.5 -48c-6 -30 4.33301 -54.5 31 -73.5
s61 -28.5 103 -28.5h74z" />
    <glyph glyph-name="afii62837" unicode="&#xfee0;&#xfe84;" horiz-adv-x="1493" arabic-form="final" 
d="M1397 0c-70.667 0 -129.331 14.5 -175.998 43.5s-84.334 71.167 -113.001 126.5c-80.667 -62.667 -169.834 -109 -267.501 -139s-196.5 -45 -296.5 -45c-101.333 0 -185.833 3.33301 -253.5 10s-106.167 10.667 -115.5 12l76 363h8c8 -1.33301 41.833 -5.5 101.5 -12.5
s146.5 -10.5 260.5 -10.5c8.66699 0 16.5 0.333008 23.5 1s11.5 1 13.5 1l-238 1129h305l203 -1082c30 12.667 60 34 90 64s49.667 68 59 114l204 979h279l-199 -956c-8.66699 -41.333 -10.5 -76.833 -5.5 -106.5s14.5 -54.167 28.5 -73.5
c15.333 -20 33.833 -34.667 55.5 -44s47.167 -14 76.5 -14h94l-74 -360h-139zM700.003 1596h-336l19 94h74c-14 8.66699 -24.167 22.667 -30.5 42s-7.5 39.333 -3.5 60c9.33301 42.667 33 80 71 112s83.667 48 137 48c35.333 0 61 -2 77 -6s27 -7.33301 33 -10l-21 -101h-6
c-8 4 -22.667 8.83301 -44 14.5s-40.333 8.5 -57 8.5c-29.333 0 -52.5 -6 -69.5 -18s-27.833 -28 -32.5 -48c-6 -30 4.33301 -54.5 31 -73.5s61 -28.5 103 -28.5h74z" />
    <glyph glyph-name="afii62838" unicode="&#xfedf;&#xfe88;" horiz-adv-x="1399" arabic-form="isolated" 
d="M1354 563c-20.667 -98.667 -58.499 -184.5 -113.499 -257.5s-119.5 -132.833 -193.5 -179.5c-75.333 -47.333 -156.333 -82.5 -243 -105.5s-173.334 -34.5 -260.001 -34.5c-101.333 0 -185.833 3.33301 -253.5 10s-106.167 10.667 -115.5 12l76 363h8
c8 -1.33301 41.833 -5.5 101.5 -12.5s146.5 -10.5 260.5 -10.5c8.66699 0 16.5 0.333008 23.5 1s11.5 1 13.5 1l-238 1129h305l203 -1082c30 12.667 60 34 90 64s49.667 68 59 114l204 979h279zM616.001 -422h-336l19 94h74c-14 8.66699 -24.167 22.667 -30.5 42
s-7.5 39.333 -3.5 60c9.33301 42.667 33 80 71 112s83.667 48 137 48c35.333 0 61 -2 77 -6s27 -7.33301 33 -10l-21 -101h-6c-8 4 -22.667 8.83301 -44 14.5s-40.333 8.5 -57 8.5c-29.333 0 -52.5 -6 -69.5 -18s-27.833 -28 -32.5 -48c-6 -30 4.33301 -54.5 31 -73.5
s61 -28.5 103 -28.5h74z" />
    <glyph glyph-name="afii62839" unicode="&#xfee0;&#xfe88;" horiz-adv-x="1493" arabic-form="final" 
d="M1397 0c-70.667 0 -129.331 14.5 -175.998 43.5s-84.334 71.167 -113.001 126.5c-80.667 -62.667 -169.834 -109 -267.501 -139s-196.5 -45 -296.5 -45c-101.333 0 -185.833 3.33301 -253.5 10s-106.167 10.667 -115.5 12l76 363h8c8 -1.33301 41.833 -5.5 101.5 -12.5
s146.5 -10.5 260.5 -10.5c8.66699 0 16.5 0.333008 23.5 1s11.5 1 13.5 1l-238 1129h305l203 -1082c30 12.667 60 34 90 64s49.667 68 59 114l204 979h279l-199 -956c-8.66699 -41.333 -10.5 -76.833 -5.5 -106.5s14.5 -54.167 28.5 -73.5
c15.333 -20 33.833 -34.667 55.5 -44s47.167 -14 76.5 -14h94l-74 -360h-139zM642.003 -422h-336l19 94h74c-14 8.66699 -24.167 22.667 -30.5 42s-7.5 39.333 -3.5 60c9.33301 42.667 33 80 71 112s83.667 48 137 48c35.333 0 61 -2 77 -6s27 -7.33301 33 -10l-21 -101h-6
c-8 4 -22.667 8.83301 -44 14.5s-40.333 8.5 -57 8.5c-29.333 0 -52.5 -6 -69.5 -18s-27.833 -28 -32.5 -48c-6 -30 4.33301 -54.5 31 -73.5s61 -28.5 103 -28.5h74z" />
    <glyph glyph-name="afii62840" unicode="&#xfedf;&#xfe8e;" horiz-adv-x="1399" arabic-form="isolated" 
d="M1354 563c-20.667 -98.667 -58.499 -184.5 -113.499 -257.5s-119.5 -132.833 -193.5 -179.5c-75.333 -47.333 -156.333 -82.5 -243 -105.5s-173.334 -34.5 -260.001 -34.5c-101.333 0 -185.833 3.33301 -253.5 10s-106.167 10.667 -115.5 12l76 363h8
c8 -1.33301 41.833 -5.5 101.5 -12.5s146.5 -10.5 260.5 -10.5c8.66699 0 16.5 0.333008 23.5 1s11.5 1 13.5 1l-238 1129h305l203 -1082c30 12.667 60 34 90 64s49.667 68 59 114l204 979h279z" />
    <glyph glyph-name="afii62841" unicode="&#xfee0;&#xfe8e;" horiz-adv-x="1493" arabic-form="final" 
d="M1397 0c-70.667 0 -129.331 14.5 -175.998 43.5s-84.334 71.167 -113.001 126.5c-80.667 -62.667 -169.834 -109 -267.501 -139s-196.5 -45 -296.5 -45c-101.333 0 -185.833 3.33301 -253.5 10s-106.167 10.667 -115.5 12l76 363h8c8 -1.33301 41.833 -5.5 101.5 -12.5
s146.5 -10.5 260.5 -10.5c8.66699 0 16.5 0.333008 23.5 1s11.5 1 13.5 1l-238 1129h305l203 -1082c30 12.667 60 34 90 64s49.667 68 59 114l204 979h279l-199 -956c-8.66699 -41.333 -10.5 -76.833 -5.5 -106.5s14.5 -54.167 28.5 -73.5
c15.333 -20 33.833 -34.667 55.5 -44s47.167 -14 76.5 -14h94l-74 -360h-139z" />
    <glyph glyph-name="afii52400" unicode="&#x622;" horiz-adv-x="627" arabic-form="isolated" 
d="M440 -4h-278l646 1556h278zM928 1731c-14.667 -10 -36.166 -21.498 -64.499 -34.498s-59.5 -19.5 -93.5 -19.5c-26 0 -62.333 10.333 -109 31s-82.667 31 -108 31c-22 0 -50 -8.33301 -84 -25s-59.333 -29.667 -76 -39l21 101
c13.333 9.33301 36.666 21.166 69.999 35.499s63 21.5 89 21.5c23.333 0 59 -10.167 107 -30.5s84.667 -30.5 110 -30.5c28.667 0 59.667 7.66699 93 23s55.333 26.666 66 33.999z" />
    <glyph glyph-name="afii57411" unicode="&#x623;" horiz-adv-x="627" arabic-form="isolated" 
d="M440 -4h-278l646 1556h278zM1012 1678h-336l19 94h74c-14 8.66699 -24.167 22.667 -30.5 42s-7.5 39.333 -3.5 60c9.33301 42.667 33 80 71 112s83.667 48 137 48c35.333 0 61 -2 77 -6s27 -7.33301 33 -10l-21 -101h-6c-8 4 -22.667 8.83301 -44 14.5
s-40.333 8.5 -57 8.5c-29.333 0 -52.5 -6 -69.5 -18s-27.833 -28 -32.5 -48c-6 -30 4.33301 -54.5 31 -73.5s61 -28.5 103 -28.5h74z" />
    <glyph glyph-name="afii57412" unicode="&#x624;" horiz-adv-x="1083" arabic-form="isolated" 
d="M1073 274c-56 -136 -136.833 -253.17 -242.5 -351.503s-232.167 -174.5 -379.5 -228.5c-116 -43.333 -232.667 -73.833 -350 -91.5s-240.333 -26.5 -369 -26.5l144 344c56.667 0 130.334 3.33301 221.001 10s168 16.667 232 30c76 15.333 147.667 36.333 215 63
s121.666 61.334 162.999 104.001c-8 -1.33301 -27.833 -4 -59.5 -8s-50.5 -6 -56.5 -6c-136.667 0 -229.667 39.167 -279 117.5s-49.333 176.833 0 295.5c52 126.667 136.833 233.834 254.5 321.501s230.167 131.5 337.5 131.5c128.667 0 211 -64.667 247 -194
s10 -299.666 -78 -510.999zM852 448.997c14 64.667 14.833 115.499 2.5 152.499s-36.5 55.5 -72.5 55.5s-73.167 -12.167 -111.5 -36.5s-64.833 -53.833 -79.5 -88.5c-10.667 -24.667 -6.66699 -47.167 12 -67.5s55 -30.5 109 -30.5c28 0 56.333 1.83301 85 5.5
s47 6.83398 55 9.50098zM976 1188h-336l19 94h74c-14 8.66699 -24.167 22.667 -30.5 42s-7.5 39.333 -3.5 60c9.33301 42.667 33 80 71 112s83.667 48 137 48c35.333 0 61 -2 77 -6s27 -7.33301 33 -10l-21 -101h-6c-8 4 -22.667 8.83301 -44 14.5s-40.333 8.5 -57 8.5
c-29.333 0 -52.5 -6 -69.5 -18s-27.833 -28 -32.5 -48c-6 -30 4.33301 -54.5 31 -73.5s61 -28.5 103 -28.5h74z" />
    <glyph glyph-name="afii57413" unicode="&#x625;" horiz-adv-x="627" arabic-form="isolated" 
d="M440 -4h-278l646 1556h278zM134 -422h-336l19 94h74c-14 8.66699 -24.167 22.667 -30.5 42s-7.5 39.333 -3.5 60c9.33301 42.667 33 80 71 112s83.667 48 137 48c35.333 0 61 -2 77 -6s27 -7.33301 33 -10l-21 -101h-6c-8 4 -22.667 8.83301 -44 14.5
s-40.333 8.5 -57 8.5c-29.333 0 -52.5 -6 -69.5 -18s-27.833 -28 -32.5 -48c-6 -30 4.33301 -54.5 31 -73.5s61 -28.5 103 -28.5h74z" />
    <glyph glyph-name="afii57414" unicode="&#x626;" horiz-adv-x="1991" arabic-form="isolated" 
d="M2246 932l-8.99805 0.000976562c-28 19.333 -79.333 37.166 -154 53.499s-152.334 24.5 -233.001 24.5c-68 0 -124.167 -8.16699 -168.5 -24.5s-71.833 -38.166 -82.5 -65.499c-10.667 -24 15 -46.833 77 -68.5l193 -70.5c31.333 -12.667 63.333 -28.334 96 -47.001
s60.334 -39.667 83.001 -63c20.667 -22.667 34.167 -49 40.5 -79s2.16602 -63.333 -12.501 -100c-65.333 -156 -206 -278 -422 -366s-495 -132 -837 -132c-236 0 -394 42.333 -474 127s-82 219 -6 403c34.667 83.333 70.834 158.5 108.501 225.5s59.167 104.5 64.5 112.5
h272l-8 -18c-6.66699 -10.667 -28.5 -51.334 -65.5 -122.001s-68.167 -136 -93.5 -196c-22.667 -54.667 -11.5 -96.667 33.5 -126s152.5 -44 322.5 -44c254 0 449.833 10.167 587.5 30.5s216.5 54.5 236.5 102.5c9.33301 23.333 -6.83398 44.833 -48.501 64.5
s-106.5 42.834 -194.5 69.501c-38 12 -76.5 28.333 -115.5 49s-68.833 42.334 -89.5 65.001c-20.667 22 -34.334 48.667 -41.001 80s-2 66.333 14 105c48 114 134 210 258 288s259.333 117 406 117c85.333 0 162.833 -7.33301 232.5 -22s124.167 -31.334 163.5 -50.001z
M1055 1079h-336l19 94h74c-14 8.66699 -24.167 22.667 -30.5 42s-7.5 39.333 -3.5 60c9.33301 42.667 33 80 71 112s83.667 48 137 48c35.333 0 61 -2 77 -6s27 -7.33301 33 -10l-21 -101h-6c-8 4 -22.667 8.83301 -44 14.5s-40.333 8.5 -57 8.5
c-29.333 0 -52.5 -6 -69.5 -18s-27.833 -28 -32.5 -48c-6 -30 4.33301 -54.5 31 -73.5s61 -28.5 103 -28.5h74z" />
    <glyph glyph-name="afii57415" unicode="&#x627;" horiz-adv-x="627" arabic-form="isolated" 
d="M440 -4h-278l646 1556h278z" />
    <glyph glyph-name="afii57416" unicode="&#x628;" horiz-adv-x="1901" arabic-form="isolated" 
d="M1893 582c-39.333 -187.333 -137.333 -332.498 -294 -435.498s-374.334 -154.5 -653.001 -154.5c-278 0 -473.167 52.333 -585.5 157s-149.166 249 -110.499 433c12.667 64 29.834 125.333 51.501 184s34.5 92 38.5 100h274l-3 -10c-8 -20 -21.167 -58.167 -39.5 -114.5
s-31.833 -105.5 -40.5 -147.5c-16 -76 18.5 -135 103.5 -177s214.5 -63 388.5 -63c172 0 309.833 21 413.5 63s163.5 101 179.5 177c10.667 52.667 17.667 104.667 21 156s5.33301 86.666 6 105.999l3 10h273c0.666992 -19.333 -1.33301 -60.333 -6 -123
s-11.334 -116.334 -20.001 -161.001zM894 -308.998h-148l30 148h148z" />
    <glyph glyph-name="afii57417" unicode="&#x629;" horiz-adv-x="1114" arabic-form="isolated" 
d="M1130 453c-29.333 -140 -98.333 -253.831 -207 -341.498s-231 -131.5 -367 -131.5c-138.667 0 -243 43.5 -313 130.5s-90.333 201.167 -61 342.5c20 97.333 63 183.666 129 258.999s149.333 140.333 250 195l42 23l-108 127h322l147 -158
c71.333 -74.667 120.833 -147.834 148.5 -219.501s33.5 -147.167 17.5 -226.5zM871 500.002c9.33301 42.667 3.83398 84.167 -16.499 124.5s-53.833 85.5 -100.5 135.5l-14 14l-41 -22c-64.667 -34.667 -116.5 -72.167 -155.5 -112.5s-64.167 -86.833 -75.5 -139.5
c-8.66699 -42 1.66602 -79.167 30.999 -111.5s74 -48.5 134 -48.5c58.667 0 111 16.833 157 50.5s73 70.167 81 109.5zM993.001 1296h-148l30 148h148zM1261 1296h-148l30 148h148z" />
    <glyph glyph-name="afii57418" unicode="&#x62a;" horiz-adv-x="1901" arabic-form="isolated" 
d="M1893 582c-39.333 -187.333 -137.333 -332.498 -294 -435.498s-374.334 -154.5 -653.001 -154.5c-278 0 -473.167 52.333 -585.5 157s-149.166 249 -110.499 433c12.667 64 29.834 125.333 51.501 184s34.5 92 38.5 100h274l-3 -10c-8 -20 -21.167 -58.167 -39.5 -114.5
s-31.833 -105.5 -40.5 -147.5c-16 -76 18.5 -135 103.5 -177s214.5 -63 388.5 -63c172 0 309.833 21 413.5 63s163.5 101 179.5 177c10.667 52.667 17.667 104.667 21 156s5.33301 86.666 6 105.999l3 10h273c0.666992 -19.333 -1.33301 -60.333 -6 -123
s-11.334 -116.334 -20.001 -161.001zM1306 1024h-148l30 148h148zM1574 1024h-148l30 148h148z" />
    <glyph glyph-name="afii57419" unicode="&#x62b;" horiz-adv-x="1901" arabic-form="isolated" 
d="M1893 582c-39.333 -187.333 -137.333 -332.498 -294 -435.498s-374.334 -154.5 -653.001 -154.5c-278 0 -473.167 52.333 -585.5 157s-149.166 249 -110.499 433c12.667 64 29.834 125.333 51.501 184s34.5 92 38.5 100h274l-3 -10c-8 -20 -21.167 -58.167 -39.5 -114.5
s-31.833 -105.5 -40.5 -147.5c-16 -76 18.5 -135 103.5 -177s214.5 -63 388.5 -63c172 0 309.833 21 413.5 63s163.5 101 179.5 177c10.667 52.667 17.667 104.667 21 156s5.33301 86.666 6 105.999l3 10h273c0.666992 -19.333 -1.33301 -60.333 -6 -123
s-11.334 -116.334 -20.001 -161.001zM1297 1024h-148l30 148h148zM1593 1024h-148l30 148h148zM1488 1233h-148l31 148h148z" />
    <glyph glyph-name="afii57420" unicode="&#x62c;" horiz-adv-x="1425" arabic-form="isolated" 
d="M1541 575l-131.998 0.00292969c-128.667 0 -245.5 -9 -350.5 -27s-197.5 -43.667 -277.5 -77c-77.333 -32.667 -141.333 -72.334 -192 -119.001s-87.334 -97.667 -110.001 -153c-32 -78 -25.167 -141.667 20.5 -191s128.5 -74 248.5 -74
c86.667 0 175.167 8.33301 265.5 25s173.5 40 249.5 70h9l-144 -346c-77.333 -34.667 -162 -61.167 -254 -79.5s-183.333 -27.5 -274 -27.5c-184 0 -315.167 57.167 -393.5 171.5s-79.5 264.166 -3.5 449.499c32 75.333 79.167 146.166 141.5 212.499
s136.833 125.833 223.5 178.5c84.667 52 179.5 94.667 284.5 128s215.5 54.666 331.5 63.999c-35.333 12.667 -111 27.834 -227 45.501s-227 26.5 -333 26.5h-67l128 309h84c150.667 0 302.167 -28.333 454.5 -85s276.166 -134 371.499 -232h58zM877.002 156.003h-148
l30 148h148z" />
    <glyph glyph-name="afii57421" unicode="&#x62d;" horiz-adv-x="1425" arabic-form="isolated" 
d="M1541 575l-131.998 0.00292969c-128.667 0 -245.5 -9 -350.5 -27s-197.5 -43.667 -277.5 -77c-77.333 -32.667 -141.333 -72.334 -192 -119.001s-87.334 -97.667 -110.001 -153c-32 -78 -25.167 -141.667 20.5 -191s128.5 -74 248.5 -74
c86.667 0 175.167 8.33301 265.5 25s173.5 40 249.5 70h9l-144 -346c-77.333 -34.667 -162 -61.167 -254 -79.5s-183.333 -27.5 -274 -27.5c-184 0 -315.167 57.167 -393.5 171.5s-79.5 264.166 -3.5 449.499c32 75.333 79.167 146.166 141.5 212.499
s136.833 125.833 223.5 178.5c84.667 52 179.5 94.667 284.5 128s215.5 54.666 331.5 63.999c-35.333 12.667 -111 27.834 -227 45.501s-227 26.5 -333 26.5h-67l128 309h84c150.667 0 302.167 -28.333 454.5 -85s276.166 -134 371.499 -232h58z" />
    <glyph glyph-name="afii57422" unicode="&#x62e;" horiz-adv-x="1425" arabic-form="isolated" 
d="M1541 575l-131.998 0.00292969c-128.667 0 -245.5 -9 -350.5 -27s-197.5 -43.667 -277.5 -77c-77.333 -32.667 -141.333 -72.334 -192 -119.001s-87.334 -97.667 -110.001 -153c-32 -78 -25.167 -141.667 20.5 -191s128.5 -74 248.5 -74
c86.667 0 175.167 8.33301 265.5 25s173.5 40 249.5 70h9l-144 -346c-77.333 -34.667 -162 -61.167 -254 -79.5s-183.333 -27.5 -274 -27.5c-184 0 -315.167 57.167 -393.5 171.5s-79.5 264.166 -3.5 449.499c32 75.333 79.167 146.166 141.5 212.499
s136.833 125.833 223.5 178.5c84.667 52 179.5 94.667 284.5 128s215.5 54.666 331.5 63.999c-35.333 12.667 -111 27.834 -227 45.501s-227 26.5 -333 26.5h-67l128 309h84c150.667 0 302.167 -28.333 454.5 -85s276.166 -134 371.499 -232h58zM1540 1304h-148l30 148h148z
" />
    <glyph glyph-name="afii57423" unicode="&#x62f;" horiz-adv-x="1114" arabic-form="isolated" 
d="M1108 822c48 -57.333 82.3311 -119.499 102.998 -186.499s17 -134.167 -11 -201.5c-57.333 -138 -143.166 -244.833 -257.499 -320.5s-241.5 -113.5 -381.5 -113.5h-481l148 360h479c66.667 0 117 6.83301 151 20.5s56.333 33.5 67 59.5c12 28 12.833 56.167 2.5 84.5
s-28.5 57.166 -54.5 86.499c-27.333 30 -60.5 60.333 -99.5 91s-85.833 65.667 -140.5 105l134 323h8l170.5 -142.5c65.667 -56.333 119.834 -111.5 162.501 -165.5z" />
    <glyph glyph-name="afii57424" unicode="&#x630;" horiz-adv-x="1114" arabic-form="isolated" 
d="M1108 822c48 -57.333 82.3311 -119.499 102.998 -186.499s17 -134.167 -11 -201.5c-57.333 -138 -143.166 -244.833 -257.499 -320.5s-241.5 -113.5 -381.5 -113.5h-481l148 360h479c66.667 0 117 6.83301 151 20.5s56.333 33.5 67 59.5c12 28 12.833 56.167 2.5 84.5
s-28.5 57.166 -54.5 86.499c-27.333 30 -60.5 60.333 -99.5 91s-85.833 65.667 -140.5 105l134 323h8l170.5 -142.5c65.667 -56.333 119.834 -111.5 162.501 -165.5zM979.998 1372h-148l30 148h148z" />
    <glyph glyph-name="afii57425" unicode="&#x631;" horiz-adv-x="946" arabic-form="isolated" 
d="M953 299c-52 -122.667 -125.331 -232.671 -219.998 -330.004s-213.667 -179.333 -357 -246c-111.333 -51.333 -221.5 -88.666 -330.5 -111.999s-213.5 -35 -313.5 -35l152 363c62 0 135.167 5.83301 219.5 17.5s159.833 29.167 226.5 52.5
c78 27.333 145.333 61.833 202 103.5s97.667 92.834 123 153.501c29.333 72.667 45.666 149.834 48.999 231.501s0.666016 141.834 -8.00098 180.501l6 12h293c7.33301 -17.333 10.833 -66 10.5 -146s-17.833 -161.667 -52.5 -245z" />
    <glyph glyph-name="afii57426" unicode="&#x632;" horiz-adv-x="946" arabic-form="isolated" 
d="M953 299c-52 -122.667 -125.331 -232.671 -219.998 -330.004s-213.667 -179.333 -357 -246c-111.333 -51.333 -221.5 -88.666 -330.5 -111.999s-213.5 -35 -313.5 -35l152 363c62 0 135.167 5.83301 219.5 17.5s159.833 29.167 226.5 52.5
c78 27.333 145.333 61.833 202 103.5s97.667 92.834 123 153.501c29.333 72.667 45.666 149.834 48.999 231.501s0.666016 141.834 -8.00098 180.501l6 12h293c7.33301 -17.333 10.833 -66 10.5 -146s-17.833 -161.667 -52.5 -245zM1013 931.996h-148l30 148h148z" />
    <glyph glyph-name="afii57427" unicode="&#x633;" horiz-adv-x="2871" arabic-form="isolated" 
d="M2996 598c-34.667 -84 -77.499 -163.501 -128.499 -238.501s-106.5 -138.833 -166.5 -191.5c-62 -55.333 -126.667 -98.166 -194 -128.499s-138.333 -45.5 -213 -45.5c-72.667 0 -133.167 14.5 -181.5 43.5s-76.5 63.5 -84.5 103.5c-58.667 -50 -121 -87 -187 -111
s-132 -36 -198 -36c-40 0 -74.5 9 -103.5 27s-47.5 41.667 -55.5 71c-88.667 -156 -214.334 -281 -377.001 -375s-333 -141 -511 -141c-92.667 0 -172.667 14.167 -240 42.5s-119 69.833 -155 124.5c-34.667 54.667 -51.334 123.667 -50.001 207s24 177.666 68 282.999
c41.333 98.667 81.833 182.834 121.5 252.501s64.834 113.167 75.501 130.5h284l-4 -6c-5.33301 -8 -32.833 -56 -82.5 -144s-87.834 -164 -114.501 -228c-37.333 -89.333 -31.833 -161.5 16.5 -216.5s125.833 -82.5 232.5 -82.5c118 0 227.333 34 328 102
s174.334 158 221.001 270c38.667 92.667 73.5 182.167 104.5 268.5s47.5 132.833 49.5 139.5h305c-48 -116 -67.833 -205.833 -59.5 -269.5s40.5 -95.5 96.5 -95.5c54 0 106.833 20.5 158.5 61.5s90.167 92.833 115.5 155.5l62 148h278l-62 -150
c-24 -58 -30.667 -107.333 -20 -148s41.334 -61 92 -61c58 0 114 19.167 168 57.5s98.333 98.5 133 180.5l122 293h278z" />
    <glyph glyph-name="afii57428" unicode="&#x634;" horiz-adv-x="2871" arabic-form="isolated" 
d="M2996 598c-34.667 -84 -77.499 -163.501 -128.499 -238.501s-106.5 -138.833 -166.5 -191.5c-62 -55.333 -126.667 -98.166 -194 -128.499s-138.333 -45.5 -213 -45.5c-72.667 0 -133.167 14.5 -181.5 43.5s-76.5 63.5 -84.5 103.5c-58.667 -50 -121 -87 -187 -111
s-132 -36 -198 -36c-40 0 -74.5 9 -103.5 27s-47.5 41.667 -55.5 71c-88.667 -156 -214.334 -281 -377.001 -375s-333 -141 -511 -141c-92.667 0 -172.667 14.167 -240 42.5s-119 69.833 -155 124.5c-34.667 54.667 -51.334 123.667 -50.001 207s24 177.666 68 282.999
c41.333 98.667 81.833 182.834 121.5 252.501s64.834 113.167 75.501 130.5h284l-4 -6c-5.33301 -8 -32.833 -56 -82.5 -144s-87.834 -164 -114.501 -228c-37.333 -89.333 -31.833 -161.5 16.5 -216.5s125.833 -82.5 232.5 -82.5c118 0 227.333 34 328 102
s174.334 158 221.001 270c38.667 92.667 73.5 182.167 104.5 268.5s47.5 132.833 49.5 139.5h305c-48 -116 -67.833 -205.833 -59.5 -269.5s40.5 -95.5 96.5 -95.5c54 0 106.833 20.5 158.5 61.5s90.167 92.833 115.5 155.5l62 148h278l-62 -150
c-24 -58 -30.667 -107.333 -20 -148s41.334 -61 92 -61c58 0 114 19.167 168 57.5s98.333 98.5 133 180.5l122 293h278zM1975 960.999h-148l30 148h148zM2271 960.999h-148l30 148h148zM2166 1170h-148l31 148h148z" />
    <glyph glyph-name="afii57429" unicode="&#x635;" horiz-adv-x="2910" arabic-form="isolated" 
d="M2559 419c49.333 18 89.333 38.501 120 61.501s51.334 47.833 62 74.5c16 39.333 14.833 74.5 -3.5 105.5s-55.166 46.5 -110.5 46.5c-65.333 0 -130.166 -11.5 -194.5 -34.5c-64.333 -23 -128.166 -52.5 -191.5 -88.5c-60.667 -34.667 -117.5 -72.334 -170.5 -113.001
l-140.5 -111h190c93.333 0 177.333 5.33301 252 16s137 25 187 43zM596 -423.999c-199.333 0 -332.998 59.168 -400.998 177.501s-60 278.166 24 479.499c41.333 98.667 83.166 185.167 125.499 259.5s66.166 115.5 71.499 123.5h284l-6 -12
c-23.333 -35.333 -55 -88.833 -95 -160.5s-73.333 -140.167 -100 -205.5c-36 -88 -30.5 -159.833 16.5 -215.5s124.5 -83.5 232.5 -83.5c53.333 0 107.333 8.16699 162 24.5s105 39.166 151 68.499c54 34 100.833 74.333 140.5 121s71.5 99.334 95.5 158.001
c38.667 94 66 164.667 82 212s26 78.333 30 93h285l-10 -38c-11.333 -40 -25.166 -82.333 -41.499 -127s-18.166 -70.667 -5.49902 -78c301.333 268.667 531 444.334 689 527.001s301.667 124 431 124c130 0 219.5 -45 268.5 -135s44.167 -206.667 -14.5 -350
c-32 -74 -79.333 -143.833 -142 -209.5s-136.667 -122.834 -222 -171.501c-85.333 -49.333 -177.5 -88 -276.5 -116s-202.5 -42 -310.5 -42h-635c-102.667 -134 -226.334 -238.167 -371.001 -312.5s-297.334 -111.5 -458.001 -111.5z" />
    <glyph glyph-name="afii57430" unicode="&#x636;" horiz-adv-x="2910" arabic-form="isolated" 
d="M2559 419c49.333 18 89.333 38.501 120 61.501s51.334 47.833 62 74.5c16 39.333 14.833 74.5 -3.5 105.5s-55.166 46.5 -110.5 46.5c-65.333 0 -130.166 -11.5 -194.5 -34.5c-64.333 -23 -128.166 -52.5 -191.5 -88.5c-60.667 -34.667 -117.5 -72.334 -170.5 -113.001
l-140.5 -111h190c93.333 0 177.333 5.33301 252 16s137 25 187 43zM596 -423.999c-199.333 0 -332.998 59.168 -400.998 177.501s-60 278.166 24 479.499c41.333 98.667 83.166 185.167 125.499 259.5s66.166 115.5 71.499 123.5h284l-6 -12
c-23.333 -35.333 -55 -88.833 -95 -160.5s-73.333 -140.167 -100 -205.5c-36 -88 -30.5 -159.833 16.5 -215.5s124.5 -83.5 232.5 -83.5c53.333 0 107.333 8.16699 162 24.5s105 39.166 151 68.499c54 34 100.833 74.333 140.5 121s71.5 99.334 95.5 158.001
c38.667 94 66 164.667 82 212s26 78.333 30 93h285l-10 -38c-11.333 -40 -25.166 -82.333 -41.499 -127s-18.166 -70.667 -5.49902 -78c301.333 268.667 531 444.334 689 527.001s301.667 124 431 124c130 0 219.5 -45 268.5 -135s44.167 -206.667 -14.5 -350
c-32 -74 -79.333 -143.833 -142 -209.5s-136.667 -122.834 -222 -171.501c-85.333 -49.333 -177.5 -88 -276.5 -116s-202.5 -42 -310.5 -42h-635c-102.667 -134 -226.334 -238.167 -371.001 -312.5s-297.334 -111.5 -458.001 -111.5zM2240 1165h-148l30 148h148z" />
    <glyph glyph-name="afii57431" unicode="&#x637;" horiz-adv-x="1663" arabic-form="isolated" 
d="M1492 553c18.667 44 18.334 80.668 -0.999023 110.001s-56.666 44 -111.999 44c-61.333 0 -124.333 -11.833 -189 -35.5s-128.334 -52.834 -191.001 -87.501c-55.333 -30.667 -109.666 -65.167 -162.999 -103.5s-105.333 -78.5 -156 -120.5h197
c93.333 0 177.166 5.5 251.499 16.5s136.166 25.5 185.499 43.5c47.333 18 86.5 38.333 117.5 61s51.167 46.667 60.5 72zM1768 549.001c-32 -75.333 -81.334 -147.667 -148.001 -217s-141.667 -127.333 -225 -174c-86.667 -50 -180 -88.833 -280 -116.5
s-204 -41.5 -312 -41.5h-844l148 360h258l45 31l484 1165h276l-338 -815c104.667 81.333 217.834 148.833 339.501 202.5s234.167 80.5 337.5 80.5c132 0 222.833 -44 272.5 -132s45.167 -202.333 -13.5 -343z" />
    <glyph glyph-name="afii57432" unicode="&#x638;" horiz-adv-x="1663" arabic-form="isolated" 
d="M1492 553c18.667 44 18.334 80.668 -0.999023 110.001s-56.666 44 -111.999 44c-61.333 0 -124.333 -11.833 -189 -35.5s-128.334 -52.834 -191.001 -87.501c-55.333 -30.667 -109.666 -65.167 -162.999 -103.5s-105.333 -78.5 -156 -120.5h197
c93.333 0 177.166 5.5 251.499 16.5s136.166 25.5 185.499 43.5c47.333 18 86.5 38.333 117.5 61s51.167 46.667 60.5 72zM1768 549.001c-32 -75.333 -81.334 -147.667 -148.001 -217s-141.667 -127.333 -225 -174c-86.667 -50 -180 -88.833 -280 -116.5
s-204 -41.5 -312 -41.5h-844l148 360h258l45 31l484 1165h276l-338 -815c104.667 81.333 217.834 148.833 339.501 202.5s234.167 80.5 337.5 80.5c132 0 222.833 -44 272.5 -132s45.167 -202.333 -13.5 -343zM1456 1266h-148l30 148h148z" />
    <glyph glyph-name="afii57433" unicode="&#x639;" horiz-adv-x="1427" arabic-form="isolated" 
d="M1105 -338c-66 -28 -139.665 -49.334 -220.998 -64.001s-174 -22 -278 -22c-206 0 -347 50.833 -423 152.5s-78 239.167 -6 412.5c37.333 91.333 83.666 165 138.999 221s121.666 106 198.999 150c-18 21.333 -29 57.833 -33 109.5s6 105.834 30 162.501
c54.667 132 144 239.167 268 321.5s258.667 123.5 404 123.5c77.333 0 143 -2.83301 197 -8.5s86 -9.16699 96 -10.5l-130 -313h-10c-23.333 2 -62.333 4.83301 -117 8.5s-108 5.5 -160 5.5c-61.333 0 -120.166 -17.833 -176.499 -53.5s-93.833 -75.834 -112.5 -120.501
c-12 -28 -16.667 -52.667 -14 -74s10.334 -37.666 23.001 -48.999l599 136l-110 -267l-480 -108c-84 -18.667 -154.667 -47.5 -212 -86.5s-98 -87.5 -122 -145.5c-26.667 -63.333 -13.834 -114 38.499 -152s139.166 -57 260.499 -57c82 0 169.833 6.83301 263.5 20.5
s167.5 29.5 221.5 47.5h8z" />
    <glyph glyph-name="afii57434" unicode="&#x63a;" horiz-adv-x="1427" arabic-form="isolated" 
d="M1105 -338c-66 -28 -139.665 -49.334 -220.998 -64.001s-174 -22 -278 -22c-206 0 -347 50.833 -423 152.5s-78 239.167 -6 412.5c37.333 91.333 83.666 165 138.999 221s121.666 106 198.999 150c-18 21.333 -29 57.833 -33 109.5s6 105.834 30 162.501
c54.667 132 144 239.167 268 321.5s258.667 123.5 404 123.5c77.333 0 143 -2.83301 197 -8.5s86 -9.16699 96 -10.5l-130 -313h-10c-23.333 2 -62.333 4.83301 -117 8.5s-108 5.5 -160 5.5c-61.333 0 -120.166 -17.833 -176.499 -53.5s-93.833 -75.834 -112.5 -120.501
c-12 -28 -16.667 -52.667 -14 -74s10.334 -37.666 23.001 -48.999l599 136l-110 -267l-480 -108c-84 -18.667 -154.667 -47.5 -212 -86.5s-98 -87.5 -122 -145.5c-26.667 -63.333 -13.834 -114 38.499 -152s139.166 -57 260.499 -57c82 0 169.833 6.83301 263.5 20.5
s167.5 29.5 221.5 47.5h8zM1338 1468h-148l30 148h148z" />
    <glyph glyph-name="afii57441" unicode="&#x641;" horiz-adv-x="2095" arabic-form="isolated" 
d="M2094 590c-22 -105.333 -67.168 -195.83 -135.501 -271.497s-148.833 -136.834 -241.5 -183.501c-96 -48.667 -200.5 -84.667 -313.5 -108s-228.5 -35 -346.5 -35h-45c-298.667 0 -511.5 49.5 -638.5 148.5s-170.167 246.167 -129.5 441.5
c11.333 55.333 28.166 116.166 50.499 182.499s34.5 102.166 36.5 107.499h274l-1 -4c-4 -10 -16.833 -49.5 -38.5 -118.5s-36.167 -120.833 -43.5 -155.5c-16 -76 21.833 -135.333 113.5 -178s242.167 -64 451.5 -64h22c116 0 212.333 3.66699 289 11s139.667 18 189 32
c46.667 13.333 84.167 29.166 112.5 47.499s52.833 40.833 73.5 67.5c-25.333 -2.66699 -46.666 -4.66699 -63.999 -6c-16 -1.33301 -33.667 -2.66602 -53 -3.99902s-36.666 -2 -51.999 -2c-123.333 0 -213 33.667 -269 101s-72.667 155 -50 263
c24.667 118.667 81.5 218.667 170.5 300s181.833 122 278.5 122c136 0 241 -63.167 315 -189.5s89 -294.5 45 -504.5zM1837 772.003c3.33301 54 -10.667 102.669 -42 146.002s-65.333 65 -102 65c-32 0 -60.333 -11.833 -85 -35.5s-40 -50.834 -46 -81.501
c-6.66699 -30 0 -55.167 20 -75.5s49.667 -30.5 89 -30.5c25.333 0 57.333 1.16699 96 3.5s62 5.16602 70 8.49902zM2089 1526h-148l30 148h148z" />
    <glyph glyph-name="afii57442" unicode="&#x642;" horiz-adv-x="2023" arabic-form="isolated" 
d="M2089 455c-56 -136 -131 -255.831 -225 -359.498s-198.333 -189.167 -313 -256.5c-115.333 -68 -237.5 -119.333 -366.5 -154s-261.167 -52 -396.5 -52c-280 0 -464.833 52.167 -554.5 156.5s-95.834 249.166 -18.501 434.499c30.667 73.333 63.5 138.666 98.5 195.999
s53.5 88.666 55.5 93.999h267v-4c-7.33301 -10 -26 -42.333 -56 -97s-57.667 -113.667 -83 -177c-32 -76 -9.16699 -135 68.5 -177s203.167 -63 376.5 -63c94 0 186 11.333 276 34s170.667 52.334 242 89.001c76 38 138.5 78.833 187.5 122.5s82.833 88.167 101.5 133.5
c-23.333 -2.66699 -44.666 -5 -63.999 -7c-15.333 -1.33301 -33 -2.66602 -53 -3.99902s-37.667 -2 -53 -2c-125.333 0 -207.833 35.167 -247.5 105.5s-38.167 156.833 4.5 259.5c45.333 111.333 120.333 209.5 225 294.5s208.667 127.5 312 127.5
c60.667 0 115 -14.833 163 -44.5s84 -73.834 108 -132.501c23.333 -61.333 31.333 -135.333 24 -222s-33.666 -185 -79 -295zM1870 637.002c14 54 9.83496 102.667 -12.498 146s-51.833 65 -88.5 65c-31.333 0 -61.833 -11.833 -91.5 -35.5s-51.167 -50.834 -64.5 -81.501
c-12 -30 -10.5 -55.167 4.5 -75.5s42.5 -30.5 82.5 -30.5c25.333 0 58.166 1.33301 98.499 4s64.166 5.33398 71.499 8.00098zM2151 1391h-148l60 147h148zM1883 1391h-148l60 147h148z" />
    <glyph glyph-name="afii57443" unicode="&#x643;" horiz-adv-x="1749" arabic-form="isolated" 
d="M1833 598c-76 -182 -176.335 -327.168 -301.002 -435.501s-252.334 -162.5 -383.001 -162.5h-563c-66 0 -124.667 5.83301 -176 17.5s-91 31.5 -119 59.5c-31.333 28.667 -48.5 68.667 -51.5 120s12.833 118 47.5 200c20 49.333 41 94.333 63 135l39 72h271l-4 -8
c-2 -3.33301 -11.333 -21.166 -28 -53.499s-29.667 -59.5 -39 -81.5c-13.333 -32.667 -8.16602 -57.667 15.501 -75s66.834 -26 129.501 -26h518c60 0 117.833 21.333 173.5 64s98.834 100.667 129.501 174l398 956h278l-398 -956v0zM1380 902.999
c-22.667 -56.667 -74.665 -101.835 -155.998 -135.502s-175.666 -50.5 -282.999 -50.5l38 94c77.333 0 144.666 7 201.999 21s91.333 34.333 102 61c5.33301 12 3.16602 22 -6.50098 30s-25.167 15 -46.5 21l-68 19c-32.667 8.66699 -55 23.834 -67 45.501
s-10.667 50.834 4 87.501c20 46.667 59.167 84.5 117.5 113.5s131.5 43.5 219.5 43.5l-38 -90c-62 0 -110.333 -5.83301 -145 -17.5s-56 -27.5 -64 -47.5c-5.33301 -12 -2.83301 -22.333 7.5 -31s25.833 -16 46.5 -22l74 -21c27.333 -7.33301 48.666 -19.833 63.999 -37.5
s15 -45.5 -1 -83.5z" />
    <glyph glyph-name="afii57444" unicode="&#x644;" horiz-adv-x="1579" arabic-form="isolated" 
d="M1605 457c-26.667 -62.667 -66.833 -122.329 -120.5 -178.996s-117.834 -105 -192.501 -145c-77.333 -42 -162 -74.667 -254 -98s-196.333 -35 -313 -35c-218.667 0 -357.334 39.667 -416.001 119s-48.667 214.333 30 405c30.667 71.333 65.334 142.666 104.001 213.999
s61.667 112.666 69 123.999h272l-4 -8c-8.66699 -14.667 -32 -58.834 -70 -132.501s-69 -138.834 -93 -195.501c-25.333 -61.333 -16.666 -104.333 26.001 -129s120 -37 232 -37c134.667 0 244 16.5 328 49.5s138 78.833 162 137.5l420 1007h278z" />
    <glyph glyph-name="afii57445" unicode="&#x645;" horiz-adv-x="1386" arabic-form="isolated" 
d="M1449 812c28.667 -44 43.999 -96.5029 45.999 -157.503s-14.333 -131.833 -49 -212.5c-37.333 -90 -82.666 -164.833 -135.999 -224.5s-107.666 -106.5 -162.999 -140.5c-56.667 -33.333 -111.5 -57.166 -164.5 -71.499s-100.5 -21.5 -142.5 -21.5
c-55.333 0 -106.5 10.333 -153.5 31s-84.5 50.334 -112.5 89.001c-126.667 -155.333 -261.834 -274.833 -405.501 -358.5s-301.5 -140.167 -473.5 -169.5l150 358c78 14 149.667 31.833 215 53.5s126.333 53.5 183 95.5c58 42.667 114 97.834 168 165.501
s110.667 157.5 170 269.5c72.667 138 157.167 243.833 253.5 317.5s206.166 110.5 329.499 110.5c64.667 0 121.334 -11.333 170.001 -34s87 -56 115 -100zM1177 466.997c20 48 17.167 89.332 -8.5 123.999s-64.5 52 -116.5 52c-40 0 -79.167 -14.167 -117.5 -42.5
s-66.166 -62.5 -83.499 -102.5c-17.333 -41.333 -13.833 -77.666 10.5 -108.999s63.166 -47 116.499 -47c44 0 84.167 11.333 120.5 34s62.5 53 78.5 91z" />
    <glyph glyph-name="afii57446" unicode="&#x646;" horiz-adv-x="1591" arabic-form="isolated" 
d="M1730 633c-45.333 -110 -102.83 -205.335 -172.497 -286.002s-144.834 -146.334 -225.501 -197.001c-83.333 -51.333 -170 -89.166 -260 -113.499s-181.667 -36.5 -275 -36.5c-90.667 0 -172.5 12.333 -245.5 37s-128.833 62.334 -167.5 113.001
c-40.667 52 -62 118 -64 198s19.667 175 65 285c29.333 69.333 68.833 150 118.5 242l82.5 153h282l-2 -8c-8.66699 -12 -36.667 -59.667 -84 -143s-87.666 -165.333 -120.999 -246c-34.667 -83.333 -21.167 -149.333 40.5 -198s141.5 -73 239.5 -73
c99.333 0 200.666 24 303.999 72s173 114.333 209 199c33.333 81.333 60.666 160.833 81.999 238.5s33.666 127.834 36.999 150.501l2 8h278c-4.66699 -24 -20.667 -82.333 -48 -175s-52.333 -166 -75 -220zM1368 1202h-147l62 148h147z" />
    <glyph glyph-name="afii57447" unicode="&#x647;" horiz-adv-x="1114" arabic-form="isolated" 
d="M1130 453c-29.333 -140 -98.333 -253.831 -207 -341.498s-231 -131.5 -367 -131.5c-138.667 0 -243 43.5 -313 130.5s-90.333 201.167 -61 342.5c20 97.333 63 183.666 129 258.999s149.333 140.333 250 195l42 23l-108 127h322l147 -158
c71.333 -74.667 120.833 -147.834 148.5 -219.501s33.5 -147.167 17.5 -226.5zM871 500.002c9.33301 42.667 3.83398 84.167 -16.499 124.5s-53.833 85.5 -100.5 135.5l-14 14l-41 -22c-64.667 -34.667 -116.5 -72.167 -155.5 -112.5s-64.167 -86.833 -75.5 -139.5
c-8.66699 -42 1.66602 -79.167 30.999 -111.5s74 -48.5 134 -48.5c58.667 0 111 16.833 157 50.5s73 70.167 81 109.5z" />
    <glyph glyph-name="afii57448" unicode="&#x648;" horiz-adv-x="1083" arabic-form="isolated" 
d="M1073 274c-56 -136 -136.833 -253.17 -242.5 -351.503s-232.167 -174.5 -379.5 -228.5c-116 -43.333 -232.667 -73.833 -350 -91.5s-240.333 -26.5 -369 -26.5l144 344c56.667 0 130.334 3.33301 221.001 10s168 16.667 232 30c76 15.333 147.667 36.333 215 63
s121.666 61.334 162.999 104.001c-8 -1.33301 -27.833 -4 -59.5 -8s-50.5 -6 -56.5 -6c-136.667 0 -229.667 39.167 -279 117.5s-49.333 176.833 0 295.5c52 126.667 136.833 233.834 254.5 321.501s230.167 131.5 337.5 131.5c128.667 0 211 -64.667 247 -194
s10 -299.666 -78 -510.999zM852 448.997c14 64.667 14.833 115.499 2.5 152.499s-36.5 55.5 -72.5 55.5s-73.167 -12.167 -111.5 -36.5s-64.833 -53.833 -79.5 -88.5c-10.667 -24.667 -6.66699 -47.167 12 -67.5s55 -30.5 109 -30.5c28 0 56.333 1.83301 85 5.5
s47 6.83398 55 9.50098z" />
    <glyph glyph-name="afii57449" unicode="&#x649;" horiz-adv-x="1991" arabic-form="isolated" 
d="M2246 932l-8.99805 0.000976562c-28 19.333 -79.333 37.166 -154 53.499s-152.334 24.5 -233.001 24.5c-68 0 -124.167 -8.16699 -168.5 -24.5s-71.833 -38.166 -82.5 -65.499c-10.667 -24 15 -46.833 77 -68.5l193 -70.5c31.333 -12.667 63.333 -28.334 96 -47.001
s60.334 -39.667 83.001 -63c20.667 -22.667 34.167 -49 40.5 -79s2.16602 -63.333 -12.501 -100c-65.333 -156 -206 -278 -422 -366s-495 -132 -837 -132c-236 0 -394 42.333 -474 127s-82 219 -6 403c34.667 83.333 70.834 158.5 108.501 225.5s59.167 104.5 64.5 112.5
h272l-8 -18c-6.66699 -10.667 -28.5 -51.334 -65.5 -122.001s-68.167 -136 -93.5 -196c-22.667 -54.667 -11.5 -96.667 33.5 -126s152.5 -44 322.5 -44c254 0 449.833 10.167 587.5 30.5s216.5 54.5 236.5 102.5c9.33301 23.333 -6.83398 44.833 -48.501 64.5
s-106.5 42.834 -194.5 69.501c-38 12 -76.5 28.333 -115.5 49s-68.833 42.334 -89.5 65.001c-20.667 22 -34.334 48.667 -41.001 80s-2 66.333 14 105c48 114 134 210 258 288s259.333 117 406 117c85.333 0 162.833 -7.33301 232.5 -22s124.167 -31.334 163.5 -50.001z" />
    <glyph glyph-name="afii57450" unicode="&#x64a;" horiz-adv-x="1991" arabic-form="isolated" 
d="M2246 932l-8.99805 0.000976562c-28 19.333 -79.333 37.166 -154 53.499s-152.334 24.5 -233.001 24.5c-68 0 -124.167 -8.16699 -168.5 -24.5s-71.833 -38.166 -82.5 -65.499c-10.667 -24 15 -46.833 77 -68.5l193 -70.5c31.333 -12.667 63.333 -28.334 96 -47.001
s60.334 -39.667 83.001 -63c20.667 -22.667 34.167 -49 40.5 -79s2.16602 -63.333 -12.501 -100c-65.333 -156 -206 -278 -422 -366s-495 -132 -837 -132c-236 0 -394 42.333 -474 127s-82 219 -6 403c34.667 83.333 70.834 158.5 108.501 225.5s59.167 104.5 64.5 112.5
h272l-8 -18c-6.66699 -10.667 -28.5 -51.334 -65.5 -122.001s-68.167 -136 -93.5 -196c-22.667 -54.667 -11.5 -96.667 33.5 -126s152.5 -44 322.5 -44c254 0 449.833 10.167 587.5 30.5s216.5 54.5 236.5 102.5c9.33301 23.333 -6.83398 44.833 -48.501 64.5
s-106.5 42.834 -194.5 69.501c-38 12 -76.5 28.333 -115.5 49s-68.833 42.334 -89.5 65.001c-20.667 22 -34.334 48.667 -41.001 80s-2 66.333 14 105c48 114 134 210 258 288s259.333 117 406 117c85.333 0 162.833 -7.33301 232.5 -22s124.167 -31.334 163.5 -50.001z
M669.002 -289.999h-148l30 148h148zM937.002 -289.999h-148l30 148h148z" />
    <glyph glyph-name="afii57506" unicode="&#x67e;" horiz-adv-x="1901" arabic-form="isolated" 
d="M1893 582c-39.333 -187.333 -137.333 -332.498 -294 -435.498s-374.334 -154.5 -653.001 -154.5c-278 0 -473.167 52.333 -585.5 157s-149.166 249 -110.499 433c12.667 64 29.834 125.333 51.501 184s34.5 92 38.5 100h274l-3 -10c-8 -20 -21.167 -58.167 -39.5 -114.5
s-31.833 -105.5 -40.5 -147.5c-16 -76 18.5 -135 103.5 -177s214.5 -63 388.5 -63c172 0 309.833 21 413.5 63s163.5 101 179.5 177c10.667 52.667 17.667 104.667 21 156s5.33301 86.666 6 105.999l3 10h273c0.666992 -19.333 -1.33301 -60.333 -6 -123
s-11.334 -116.334 -20.001 -161.001zM815 -212.998h-148l31 148h148zM1111 -212.998h-148l31 148h148zM919 -421.998h-148l31 148h148z" />
    <glyph glyph-name="afii57507" unicode="&#x686;" horiz-adv-x="1425" arabic-form="isolated" 
d="M1541 575l-131.998 0.00292969c-128.667 0 -245.5 -9 -350.5 -27s-197.5 -43.667 -277.5 -77c-77.333 -32.667 -141.333 -72.334 -192 -119.001s-87.334 -97.667 -110.001 -153c-32 -78 -25.167 -141.667 20.5 -191s128.5 -74 248.5 -74
c86.667 0 175.167 8.33301 265.5 25s173.5 40 249.5 70h9l-144 -346c-77.333 -34.667 -162 -61.167 -254 -79.5s-183.333 -27.5 -274 -27.5c-184 0 -315.167 57.167 -393.5 171.5s-79.5 264.166 -3.5 449.499c32 75.333 79.167 146.166 141.5 212.499
s136.833 125.833 223.5 178.5c84.667 52 179.5 94.667 284.5 128s215.5 54.666 331.5 63.999c-35.333 12.667 -111 27.834 -227 45.501s-227 26.5 -333 26.5h-67l128 309h84c150.667 0 302.167 -28.333 454.5 -85s276.166 -134 371.499 -232h58zM890.002 242.003h-148
l31 148h148zM1186 242.003h-148l31 148h148zM994.002 33.0029h-148l31 148h148z" />
    <glyph glyph-name="afii57508" unicode="&#x698;" horiz-adv-x="946" arabic-form="isolated" 
d="M953 299c-52 -122.667 -125.331 -232.671 -219.998 -330.004s-213.667 -179.333 -357 -246c-111.333 -51.333 -221.5 -88.666 -330.5 -111.999s-213.5 -35 -313.5 -35l152 363c62 0 135.167 5.83301 219.5 17.5s159.833 29.167 226.5 52.5
c78 27.333 145.333 61.833 202 103.5s97.667 92.834 123 153.501c29.333 72.667 45.666 149.834 48.999 231.501s0.666016 141.834 -8.00098 180.501l6 12h293c7.33301 -17.333 10.833 -66 10.5 -146s-17.833 -161.667 -52.5 -245zM843.002 930.996h-148l30 148h148z
M1139 930.996h-148l30 148h148zM1034 1140h-148l31 148h148z" />
    <glyph glyph-name="afii57567" unicode="&#x6a9;" horiz-adv-x="2077" arabic-form="isolated" 
d="M1649 360c46 0 86.499 8.16504 121.499 24.498s57.167 36.166 66.5 59.499c8 19.333 5.83301 40.333 -6.5 63s-36.166 51 -71.499 85l-204 190c-60.667 54.667 -97 101.334 -109 140.001s-8.66699 79.334 10 122.001c24 59.333 69.667 112.333 137 159s151 86 251 118
l831 266l-124 -299l-674 -194c-40.667 -11.333 -71.167 -22.833 -91.5 -34.5s-32.5 -22.167 -36.5 -31.5c-5.33301 -12 0.166992 -27.333 16.5 -46s37.166 -39.334 62.499 -62.001l186 -168c50.667 -46.667 82.5 -96.5 95.5 -149.5s4.83301 -115.833 -24.5 -188.5
c-52 -124 -133.167 -224 -243.5 -300s-226.5 -114 -348.5 -114h-535c-144.667 0 -264.5 13.5 -359.5 40.5s-165.5 65.833 -211.5 116.5c-45.333 50.667 -69.333 112.334 -72 185.001s15.333 155.334 54 248.001c26.667 64.667 56.834 125.167 90.501 181.5
s55.167 90.5 64.5 102.5h266l-4 -10c-14 -23.333 -35 -60.833 -63 -112.5s-52 -101.5 -72 -149.5c-32 -76 -12.333 -135.333 59 -178s203.333 -64 396 -64h543z" />
    <glyph glyph-name="afii57509" unicode="&#x6af;" horiz-adv-x="2077" arabic-form="isolated" 
d="M1649 360c46 0 86.499 8.16504 121.499 24.498s57.167 36.166 66.5 59.499c8 19.333 5.83301 40.333 -6.5 63s-36.166 51 -71.499 85l-204 190c-60.667 54.667 -97 101.334 -109 140.001s-8.66699 79.334 10 122.001c24 59.333 69.667 112.333 137 159s151 86 251 118
l831 266l-124 -299l-674 -194c-40.667 -11.333 -71.167 -22.833 -91.5 -34.5s-32.5 -22.167 -36.5 -31.5c-5.33301 -12 0.166992 -27.333 16.5 -46s37.166 -39.334 62.499 -62.001l186 -168c50.667 -46.667 82.5 -96.5 95.5 -149.5s4.83301 -115.833 -24.5 -188.5
c-52 -124 -133.167 -224 -243.5 -300s-226.5 -114 -348.5 -114h-535c-144.667 0 -264.5 13.5 -359.5 40.5s-165.5 65.833 -211.5 116.5c-45.333 50.667 -69.333 112.334 -72 185.001s15.333 155.334 54 248.001c26.667 64.667 56.834 125.167 90.501 181.5
s55.167 90.5 64.5 102.5h266l-4 -10c-14 -23.333 -35 -60.833 -63 -112.5s-52 -101.5 -72 -149.5c-32 -76 -12.333 -135.333 59 -178s203.333 -64 396 -64h543zM2701 1681l-911 -290l40 100l913 291z" />
    <glyph glyph-name="afii57555" unicode="&#x6cc;" horiz-adv-x="1991" arabic-form="isolated" 
d="M2246 932l-8.99805 0.000976562c-28 19.333 -79.333 37.166 -154 53.499s-152.334 24.5 -233.001 24.5c-68 0 -124.167 -8.16699 -168.5 -24.5s-71.833 -38.166 -82.5 -65.499c-10.667 -24 15 -46.833 77 -68.5l193 -70.5c31.333 -12.667 63.333 -28.334 96 -47.001
s60.334 -39.667 83.001 -63c20.667 -22.667 34.167 -49 40.5 -79s2.16602 -63.333 -12.501 -100c-65.333 -156 -206 -278 -422 -366s-495 -132 -837 -132c-236 0 -394 42.333 -474 127s-82 219 -6 403c34.667 83.333 70.834 158.5 108.501 225.5s59.167 104.5 64.5 112.5
h272l-8 -18c-6.66699 -10.667 -28.5 -51.334 -65.5 -122.001s-68.167 -136 -93.5 -196c-22.667 -54.667 -11.5 -96.667 33.5 -126s152.5 -44 322.5 -44c254 0 449.833 10.167 587.5 30.5s216.5 54.5 236.5 102.5c9.33301 23.333 -6.83398 44.833 -48.501 64.5
s-106.5 42.834 -194.5 69.501c-38 12 -76.5 28.333 -115.5 49s-68.833 42.334 -89.5 65.001c-20.667 22 -34.334 48.667 -41.001 80s-2 66.333 14 105c48 114 134 210 258 288s259.333 117 406 117c85.333 0 162.833 -7.33301 232.5 -22s124.167 -31.334 163.5 -50.001z" />
    <glyph glyph-name="afii62958" unicode="&#x67e;" horiz-adv-x="2107" arabic-form="final" 
d="M2148 0l-200.002 0.000976562c-52 0 -101.667 14.5 -149 43.5s-79 64.5 -95 106.5c-36 -42.667 -84 -78.334 -144 -107.001s-124 -43 -192 -43h-424c-270 0 -463.667 50.5 -581 151.5s-156 247.167 -116 438.5c13.333 64 31.333 125 54 183s36.667 91.667 42 101h266
l-1 -8c-8 -16.667 -21.333 -53 -40 -109s-32.667 -107.667 -42 -155c-16 -75.333 18.833 -134.5 104.5 -177.5s215.5 -64.5 389.5 -64.5h261h161.5c30.333 0 68.833 12.833 115.5 38.5s75.334 64.167 86.001 115.5c12 56 19.833 100.833 23.5 134.5s5.5 54.5 5.5 62.5l2 10
h270c0.666992 -16 -0.666016 -45.833 -3.99902 -89.5s-9 -85.5 -17 -125.5c-8 -38.667 -0.833008 -72.667 21.5 -102s53.833 -44 94.5 -44h182zM886.998 -212.999h-148l31 148h148zM1183 -212.999h-148l31 148h148zM990.998 -421.999h-148l31 148h148z" />
    <glyph glyph-name="afii62956" unicode="&#x67e;" horiz-adv-x="698" arabic-form="initial" 
d="M661 598c-38 -183.333 -108.332 -328.833 -210.999 -436.5s-220 -161.5 -352 -161.5h-139l74 360h94c62 0 116.167 21 162.5 63s77.166 100.333 92.499 175l61 293h279zM82.001 -213h-148l31 148h148zM378.001 -213h-148l31 148h148zM186.001 -422h-148l31 148h148z" />
    <glyph glyph-name="afii52957" unicode="&#x67e;" horiz-adv-x="793" arabic-form="medial" 
d="M834 0l-140.001 -0.000976562c-70.667 0 -129.667 15 -177 45s-78 64 -92 102c-37.333 -45.333 -84.166 -81.166 -140.499 -107.499s-118.5 -39.5 -186.5 -39.5h-139l74 360h94c59.333 0 112.333 20.5 159 61.5s78 99.833 94 176.5l25 123h279l-25 -123
c-14.667 -71.333 -8.66699 -128.833 18 -172.5s72 -65.5 136 -65.5h95zM249.999 -213.001h-148l31 148h148zM545.999 -213.001h-148l31 148h148zM353.999 -422.001h-148l31 148h148z" />
    <glyph glyph-name="afii62961" unicode="&#x686;" horiz-adv-x="1618" arabic-form="final" 
d="M1577 575l-24.999 -120c-6.66699 -31.333 -3.33398 -55 9.99902 -71s36 -24 68 -24h103l-74 -360h-115c-102 -0 -174.333 25.833 -217 77.5s-53 130.834 -31 237.501l54 260h-60c-128.667 0 -243.5 -9 -344.5 -27s-187.5 -43.667 -259.5 -77
c-66 -30.667 -120.167 -69 -162.5 -115s-69.5 -98.333 -81.5 -157c-16 -78 3.33301 -141.667 58 -191s142 -74 262 -74c70 0 144.167 5.33301 222.5 16s152.833 28 223.5 52h9l-72 -346c-78 -28.667 -153 -49.167 -225 -61.5s-149 -18.5 -231 -18.5
c-91.333 0 -173.5 14.333 -246.5 43s-133.833 70.334 -182.5 125.001c-48 54 -81 119.167 -99 195.5s-17.333 162.166 2 257.499c16 75.333 48.333 146.166 97 212.499s110.667 125.833 186 178.5c74 52 160 94.667 258 128s204 54.666 318 63.999
c-54 14.667 -106 26.667 -156 36c-46 8.66699 -107.167 16.834 -183.5 24.501s-154.833 11.5 -235.5 11.5h-67l64 309h59c167.333 0 333.5 -27 498.5 -81s304.5 -132.667 418.5 -236h260l-56 -269h-47zM819.001 250h-148l31 148h148zM1115 250h-148l31 148h148zM923.001 41
h-148l31 148h148z" />
    <glyph glyph-name="afii62959" unicode="&#x686;" horiz-adv-x="1538" arabic-form="initial" 
d="M1557 584l-508.999 -258c-51.333 -25.333 -106.833 -54.333 -166.5 -87s-134.5 -69 -224.5 -109c-84 -37.333 -161.667 -68.333 -233 -93s-138.333 -37 -201 -37h-264l74 360h272c116 0 223.5 14.667 322.5 44s227.833 82.333 386.5 159c-68 34 -152.5 62 -253.5 84
s-204.5 33 -310.5 33h-203l64 309h213c116 0 233.667 -20.667 353 -62s258.666 -115.333 417.999 -222l318 151zM944.001 -90h-148l31 148h148zM1240 -90h-148l31 148h148zM1048 -299h-148l31 148h148z" />
    <glyph glyph-name="afii62960" unicode="&#x686;" horiz-adv-x="1538" arabic-form="medial" 
d="M943 270c-128.667 -68 -259.167 -130 -391.5 -186s-241.833 -84 -328.5 -84h-264l74 360h272c131.333 0 249.333 17.667 354 53s223 85.333 355 150c-68 34 -152.5 62 -253.5 84s-204.5 33 -310.5 33h-203l64 309h213c120.667 0 240.5 -21.333 359.5 -64
s256.167 -116 411.5 -220l318 151l-56 -272l-392 -199c12.667 -8.66699 26.167 -15 40.5 -19s33.833 -6 58.5 -6h389l-74 -360h-346c-110 0 -189.333 21 -238 63s-66 111 -52 207zM588 -213h-148l31 148h148zM884 -213h-148l31 148h148zM692 -422h-148l31 148h148z" />
    <glyph glyph-name="afii62962" unicode="&#x698;" horiz-adv-x="1042" arabic-form="final" 
d="M1083 0l-139 0.00195312c-25.333 0 -54 4 -86 12s-55.333 17 -70 27c-56.667 -90.667 -126 -165.834 -208 -225.501s-168 -106.834 -258 -141.501c-91.333 -35.333 -180.333 -60.166 -267 -74.499s-165 -21.5 -235 -21.5l76 363c62 0 134.167 5.83301 216.5 17.5
s154.5 29.167 216.5 52.5c72 27.333 132 61.833 180 103.5s78.333 92.834 91 153.501c9.33301 44.667 12.833 90.667 10.5 138s-6.83301 89.333 -13.5 126c-8.66699 40.667 -16.834 73.5 -24.501 98.5s-13.167 41.5 -16.5 49.5l3 12h293
c8.66699 -24.667 18.5 -58.334 29.5 -101.001s17.167 -76 18.5 -100c3.33301 -38.667 17.833 -69.834 43.5 -93.501s64.834 -35.5 117.501 -35.5h96zM650 932.002h-148l30 148h148zM946 932.002h-148l30 148h148zM841 1141h-148l31 148h148z" />
    <glyph glyph-name="afii62964" unicode="&#x6a9;" horiz-adv-x="2163" arabic-form="final" 
d="M1575 360c46 0 84.668 8.16504 116.001 24.498s49.333 36.166 54 59.499c4 19.333 -2.5 40.333 -19.5 63s-46.833 51 -89.5 85l-243 190c-72 54.667 -118 101.334 -138 140.001s-25.333 79.334 -16 122.001c12 59.333 46.833 112.333 104.5 159s133.167 86 226.5 118
l776 266l-62 -299l-634 -194c-38 -11.333 -66 -22.833 -84 -34.5s-28 -22.167 -30 -31.5c-2.66699 -12 6 -27.333 26 -46s45 -39.334 75 -62.001l221 -168c60.667 -46.667 103 -96.5 127 -149.5s28.667 -115.833 14 -188.5c15.333 -18 33.166 -31.5 53.499 -40.5
s44.166 -13.5 71.5 -13.5h154l-74 -360h-197c-53.333 0 -100 7.5 -140 22.5s-71.333 34.167 -94 57.5c-42.667 -26.667 -86 -46.667 -130 -60s-94 -20 -150 -20h-535c-144.667 0 -267.167 13.5 -367.5 40.5s-178.833 65.833 -235.5 116.5
c-56 50.667 -92.833 112.334 -110.5 185.001s-16.834 155.334 2.49902 248.001c13.333 64.667 31 125.167 53 181.5s36.333 90.5 43 102.5h266l-2 -10c-9.33301 -23.333 -22.666 -60.833 -39.999 -112.5s-31 -101.5 -41 -149.5c-16 -76 16.167 -135.333 96.5 -178
s216.833 -64 409.5 -64h543z" />
    <glyph glyph-name="afii52305" unicode="&#x6a9;" horiz-adv-x="1139" arabic-form="initial" 
d="M1346 1288l-633.999 -193.998c-38 -11.333 -66 -22.833 -84 -34.5s-28 -22.167 -30 -31.5c-2.66699 -12 6 -27.333 26 -46s45 -39.334 75 -62.001l221 -168c60.667 -46.667 103 -96.5 127 -149.5s28.667 -115.833 14 -188.5c-26 -124 -86.333 -224 -181 -300
s-203 -114 -325 -114h-596l74 360h604c46 0 84.667 8.16699 116 24.5s49.333 36.166 54 59.499c4 19.333 -2.5 40.333 -19.5 63s-46.833 51 -89.5 85l-243 190c-72 54.667 -118 101 -138 139s-25.333 79 -16 123c11.333 55.333 45.666 107.333 102.999 156
s133.333 89 228 121l776 266z" />
    <glyph glyph-name="afii52306" unicode="&#x6a9;" horiz-adv-x="1225" arabic-form="medial" 
d="M1266 0l-196.998 0.00195312c-51.333 0 -97.166 7.33301 -137.499 22s-72.5 34 -96.5 58c-42.667 -26.667 -86 -46.667 -130 -60s-94 -20 -150 -20h-596l74 360h604c46 0 84.667 8.16699 116 24.5s49.333 36.166 54 59.499c4 19.333 -2.5 40.333 -19.5 63
s-46.833 51 -89.5 85l-243 190c-72 54.667 -118 101 -138 139s-25.333 79 -16 123c11.333 55.333 45.666 107.333 102.999 156s133.333 89 228 121l776 266l-62 -299l-634 -194c-38 -11.333 -66 -22.833 -84 -34.5s-28 -22.167 -30 -31.5c-2.66699 -12 6 -27.333 26 -46
s45 -39.334 75 -62.001l221 -168c60.667 -46.667 103 -96.5 127 -149.5s28.667 -115.833 14 -188.5c15.333 -18 33.166 -31.5 53.499 -40.5s44.166 -13.5 71.499 -13.5h154z" />
    <glyph glyph-name="afii62967" unicode="&#x6af;" horiz-adv-x="2163" arabic-form="final" 
d="M1575 360c46 0 84.668 8.16504 116.001 24.498s49.333 36.166 54 59.499c4 19.333 -2.5 40.333 -19.5 63s-46.833 51 -89.5 85l-243 190c-72 54.667 -118 101.334 -138 140.001s-25.333 79.334 -16 122.001c12 59.333 46.833 112.333 104.5 159s133.167 86 226.5 118
l776 266l-62 -299l-634 -194c-38 -11.333 -66 -22.833 -84 -34.5s-28 -22.167 -30 -31.5c-2.66699 -12 6 -27.333 26 -46s45 -39.334 75 -62.001l221 -168c60.667 -46.667 103 -96.5 127 -149.5s28.667 -115.833 14 -188.5c15.333 -18 33.166 -31.5 53.499 -40.5
s44.166 -13.5 71.5 -13.5h154l-74 -360h-197c-53.333 0 -100 7.5 -140 22.5s-71.333 34.167 -94 57.5c-42.667 -26.667 -86 -46.667 -130 -60s-94 -20 -150 -20h-535c-144.667 0 -267.167 13.5 -367.5 40.5s-178.833 65.833 -235.5 116.5
c-56 50.667 -92.833 112.334 -110.5 185.001s-16.834 155.334 2.49902 248.001c13.333 64.667 31 125.167 53 181.5s36.333 90.5 43 102.5h266l-2 -10c-9.33301 -23.333 -22.666 -60.833 -39.999 -112.5s-31 -101.5 -41 -149.5c-16 -76 16.167 -135.333 96.5 -178
s216.833 -64 409.5 -64h543zM2352 1681l-851 -290l20 100l852 291z" />
    <glyph glyph-name="afii62965" unicode="&#x6af;" horiz-adv-x="1139" arabic-form="initial" 
d="M1346 1288l-633.999 -193.998c-38 -11.333 -66 -22.833 -84 -34.5s-28 -22.167 -30 -31.5c-2.66699 -12 6 -27.333 26 -46s45 -39.334 75 -62.001l221 -168c60.667 -46.667 103 -96.5 127 -149.5s28.667 -115.833 14 -188.5c-26 -124 -86.333 -224 -181 -300
s-203 -114 -325 -114h-596l74 360h604c46 0 84.667 8.16699 116 24.5s49.333 36.166 54 59.499c4 19.333 -2.5 40.333 -19.5 63s-46.833 51 -89.5 85l-243 190c-72 54.667 -118 101 -138 139s-25.333 79 -16 123c11.333 55.333 45.666 107.333 102.999 156
s133.333 89 228 121l776 266zM1414 1681l-851 -290l20 100l852 291z" />
    <glyph glyph-name="afii62966" unicode="&#x6af;" horiz-adv-x="1225" arabic-form="medial" 
d="M1267 0l-197 0.00292969c-53.333 0 -100 7.5 -140 22.5s-71.333 34.167 -94 57.5c-42.667 -26.667 -86 -46.667 -130 -60s-94 -20 -150 -20h-597l74 360h605c46 0 84.667 8.16699 116 24.5s49.333 36.166 54 59.499c4 19.333 -2.5 40.5 -19.5 63.5
s-46.833 51.167 -89.5 84.5l-243 190c-71.333 55.333 -117.166 102.166 -137.499 140.499s-25.833 78.833 -16.5 121.5c12 59.333 46.833 112.333 104.5 159s133.167 86 226.5 118l776 266l-62 -299l-634 -194c-35.333 -10.667 -62.666 -22 -81.999 -34s-30 -22.667 -32 -32
c-2.66699 -12 6 -27.333 26 -46s45 -39.334 75 -62.001l221 -168c60.667 -46.667 103 -96.5 127 -149.5s28.667 -115.833 14 -188.5c15.333 -18 33.166 -31.5 53.499 -40.5s44.166 -13.5 71.499 -13.5h154zM1415 1681l-851 -290l20 100l852 291z" />
    <glyph glyph-name="Ufba4" unicode="&#x6c0;" horiz-adv-x="1114" arabic-form="isolated" 
d="M1130 453c-29.333 -140 -98.333 -253.831 -207 -341.498s-231 -131.5 -367 -131.5c-138.667 0 -243 43.5 -313 130.5s-90.333 201.167 -61 342.5c20 97.333 63 183.666 129 258.999s149.333 140.333 250 195l42 23l-108 127h322l147 -158
c71.333 -74.667 120.833 -147.834 148.5 -219.501s33.5 -147.167 17.5 -226.5zM871 500.002c9.33301 42.667 3.83398 84.167 -16.499 124.5s-53.833 85.5 -100.5 135.5l-14 14l-41 -22c-64.667 -34.667 -116.5 -72.167 -155.5 -112.5s-64.167 -86.833 -75.5 -139.5
c-8.66699 -42 1.66602 -79.167 30.999 -111.5s74 -48.5 134 -48.5c58.667 0 111 16.833 157 50.5s73 70.167 81 109.5zM712.001 1267h-336l19 94h74c-14 8.66699 -24.167 22.667 -30.5 42s-7.5 39.333 -3.5 60c9.33301 42.667 33 80 71 112s83.667 48 137 48
c35.333 0 61 -2 77 -6s27 -7.33301 33 -10l-21 -101h-6c-8 4 -22.667 8.83301 -44 14.5s-40.333 8.5 -57 8.5c-29.333 0 -52.5 -6 -69.5 -18s-27.833 -28 -32.5 -48c-6 -30 4.33301 -54.5 31 -73.5s61 -28.5 103 -28.5h74z" />
    <glyph glyph-name="Ufba5" unicode="&#x6c0;" horiz-adv-x="1362" arabic-form="final" 
d="M1403 0l-137.002 -0.00195312c-61.333 0 -113.166 10.833 -155.499 32.5s-76.833 50.5 -103.5 86.5s-46.167 76.333 -58.5 121s-20.166 92.334 -23.499 143.001c-46.667 -35.333 -102.5 -64 -167.5 -86s-123.5 -33 -175.5 -33c-126 0 -218.667 38.333 -278 115
s-76.333 175.667 -51 297c16 76 47.167 143.833 93.5 203.5s105.833 110.834 178.5 153.501c72 41.333 155.5 73.333 250.5 96s198.833 36.667 311.5 42l263 13l-122 -586c-16 -76 -9 -134.667 21 -176s74 -62 132 -62h96zM958.998 644.998l49.999 239.999
c-131.333 -11.333 -235.666 -32.666 -312.999 -63.999s-122.666 -79 -135.999 -143c-6 -30.667 1.5 -56.5 22.5 -77.5s50.5 -31.5 88.5 -31.5c51.333 0 104.666 8.33301 159.999 25s98 33.667 128 51zM786.997 1317h-336l19 94h74c-14 8.66699 -24.167 22.667 -30.5 42
s-7.5 39.333 -3.5 60c9.33301 42.667 33 80 71 112s83.667 48 137 48c35.333 0 61 -2 77 -6s27 -7.33301 33 -10l-21 -101h-6c-8 4 -22.667 8.83301 -44 14.5s-40.333 8.5 -57 8.5c-29.333 0 -52.5 -6 -69.5 -18s-27.833 -28 -32.5 -48c-6 -30 4.33301 -54.5 31 -73.5
s61 -28.5 103 -28.5h74z" />
    <glyph glyph-name="afii52364" unicode="&#x6cc;" horiz-adv-x="2247" arabic-form="final" 
d="M2288 0l-98.999 0.000976562c-35.333 0 -67.5 9.33301 -96.5 28s-55.833 42.667 -80.5 72c-24 30.667 -47 66 -69 106l-61 115l-58.5 118c-19.667 38.667 -40.5 73 -62.5 103c-22 31.333 -45.333 56 -70 74s-51.667 27 -81 27c-34.667 0 -67.167 -11 -97.5 -33
s-47.5 -43 -51.5 -63c-4 -21.333 10.5 -46.333 43.5 -75l94.5 -82c47.333 -40.667 81.333 -80.334 102 -119.001s27 -77 19 -115c-30.667 -148.667 -130.834 -266.5 -300.501 -353.5s-391.5 -130.5 -665.5 -130.5c-242.667 0 -410.834 44.167 -504.501 132.5
s-121.5 222.5 -83.5 402.5c14.667 73.333 32.667 142.5 54 207.5s36.666 107.167 45.999 126.5h274l-2 -11c-6 -14.667 -19.167 -52.167 -39.5 -112.5s-38.5 -129.833 -54.5 -208.5c-12.667 -59.333 8.33301 -103.5 63 -132.5s162.667 -43.5 324 -43.5
c194.667 0 342.834 10.5 444.501 31.5s156.834 52.167 165.501 93.5c6.66699 30 -5.66602 59 -36.999 87s-64 55.333 -98 82c-36.667 29.333 -68.834 61.833 -96.501 97.5s-36.5 77.167 -26.5 124.5c20 96 77.5 181 172.5 255s198.833 111 311.5 111
c45.333 0 85 -8.33301 119 -25s64.333 -37.334 91 -62.001c30 -28 55.833 -59 77.5 -93s41.5 -66.667 59.5 -98l56.5 -101.5c18.333 -33.667 36.833 -63.167 55.5 -88.5c20.667 -27.333 41 -48.666 61 -63.999s44 -23 72 -23h103z" />
    <glyph glyph-name="uniFBFE" unicode="&#x6cc;" horiz-adv-x="698" arabic-form="initial" 
d="M661 598c-38 -183.333 -108.332 -328.833 -210.999 -436.5s-220 -161.5 -352 -161.5h-139l74 360h94c62 0 116.167 21 162.5 63s77.166 100.333 92.499 175l61 293h279zM155.001 -292h-148l30 148h148zM423.001 -292h-148l30 148h148z" />
    <glyph glyph-name="afii52399" unicode="&#x621;" horiz-adv-x="866" arabic-form="isolated" 
d="M790 147l-656 -190.001l54 262l106 33c-29.333 12 -55.5 40.333 -78.5 85s-29.5 90 -19.5 136c20 96.667 69 176.5 147 239.5s169.667 94.5 275 94.5c50 0 93.833 -2.5 131.5 -7.5s69.834 -10.833 96.501 -17.5l-53 -256h-8
c-20.667 4.66699 -51.334 10.334 -92.001 17.001s-78.667 10 -114 10c-41.333 0 -74.833 -8.16699 -100.5 -24.5s-40.834 -36.833 -45.501 -61.5c-7.33301 -34 3.33398 -62 32.001 -84s69 -36.333 121 -43l259 70z" />
    <glyph glyph-name="afii62753" unicode="&#x622;" horiz-adv-x="698" arabic-form="final" 
d="M739 0h-139c-134.667 -0 -230 54.833 -286 164.5s-65.333 254.167 -28 433.5l199 956h278l-199 -956c-8.66699 -41.333 -10.5 -76.833 -5.5 -106.5s14.5 -54.167 28.5 -73.5c15.333 -18.667 33.833 -33 55.5 -43s47.167 -15 76.5 -15h94zM928 1731
c-14.667 -10 -36.166 -21.498 -64.499 -34.498s-59.5 -19.5 -93.5 -19.5c-26 0 -62.333 10.333 -109 31s-82.667 31 -108 31c-22 0 -50 -8.33301 -84 -25s-59.333 -29.667 -76 -39l21 101c13.333 9.33301 36.666 21.166 69.999 35.499s63 21.5 89 21.5
c23.333 0 59 -10.167 107 -30.5s84.667 -30.5 110 -30.5c28.667 0 59.667 7.66699 93 23s55.333 26.666 66 33.999z" />
    <glyph glyph-name="afii62754" unicode="&#x623;" horiz-adv-x="698" arabic-form="final" 
d="M739 0h-139c-134.667 -0 -230 54.833 -286 164.5s-65.333 254.167 -28 433.5l199 956h278l-199 -956c-8.66699 -41.333 -10.5 -76.833 -5.5 -106.5s14.5 -54.167 28.5 -73.5c15.333 -18.667 33.833 -33 55.5 -43s47.167 -15 76.5 -15h94zM803 1678h-336l19 94h74
c-14 8.66699 -24.167 22.667 -30.5 42s-7.5 39.333 -3.5 60c9.33301 42.667 33 80 71 112s83.667 48 137 48c35.333 0 61 -2 77 -6s27 -7.33301 33 -10l-21 -101h-6c-8 4 -22.667 8.83301 -44 14.5s-40.333 8.5 -57 8.5c-29.333 0 -52.5 -6 -69.5 -18s-27.833 -28 -32.5 -48
c-6 -30 4.33301 -54.5 31 -73.5s61 -28.5 103 -28.5h74z" />
    <glyph glyph-name="afii62755" unicode="&#x624;" horiz-adv-x="1157" arabic-form="final" 
d="M773 383c10 90.667 3.83301 162.5 -18.5 215.5s-51.166 79.5 -86.499 79.5c-36 0 -69.333 -14.333 -100 -43s-50.334 -63 -59.001 -103c-8 -40 14.5 -73.667 67.5 -101s118.5 -43.333 196.5 -48zM1198 0l-45 -0.000976562c-36.667 0 -78.667 2.33301 -126 7
s-76 7.66699 -86 9c-60.667 -90.667 -137.167 -165.167 -229.5 -223.5s-189.166 -103.166 -290.499 -134.499c-100.667 -31.333 -200 -52.833 -298 -64.5s-189.333 -17.5 -274 -17.5l72 344c123.333 0 232 7.83301 326 23.5s169 32.5 225 50.5
c65.333 20.667 110.166 37.5 134.499 50.5s39.166 20.833 44.499 23.5c-163.333 18.667 -280.166 70.167 -350.499 154.5s-93.166 185.5 -68.499 303.5c26 124 87.667 230.5 185 319.5s201.333 133.5 312 133.5c124 0 216.833 -57 278.5 -171s80.167 -261 55.5 -441
c10.667 -1.33301 35.667 -2.83301 75 -4.5s67.666 -2.5 84.999 -2.5h49zM951 1188h-336l19 94h74c-14 8.66699 -24.167 22.667 -30.5 42s-7.5 39.333 -3.5 60c9.33301 42.667 33 80 71 112s83.667 48 137 48c35.333 0 61 -2 77 -6s27 -7.33301 33 -10l-21 -101h-6
c-8 4 -22.667 8.83301 -44 14.5s-40.333 8.5 -57 8.5c-29.333 0 -52.5 -6 -69.5 -18s-27.833 -28 -32.5 -48c-6 -30 4.33301 -54.5 31 -73.5s61 -28.5 103 -28.5h74z" />
    <glyph glyph-name="afii62756" unicode="&#x625;" horiz-adv-x="698" arabic-form="final" 
d="M739 0h-139c-134.667 -0 -230 54.833 -286 164.5s-65.333 254.167 -28 433.5l199 956h278l-199 -956c-8.66699 -41.333 -10.5 -76.833 -5.5 -106.5s14.5 -54.167 28.5 -73.5c15.333 -18.667 33.833 -33 55.5 -43s47.167 -15 76.5 -15h94zM427 -423h-336l19 94h74
c-14 8.66699 -24.167 22.667 -30.5 42s-7.5 39.333 -3.5 60c9.33301 42.667 33 80 71 112s83.667 48 137 48c35.333 0 61 -2 77 -6s27 -7.33301 33 -10l-21 -101h-6c-8 4 -22.667 8.83301 -44 14.5s-40.333 8.5 -57 8.5c-29.333 0 -52.5 -6 -69.5 -18s-27.833 -28 -32.5 -48
c-6 -30 4.33301 -54.5 31 -73.5s61 -28.5 103 -28.5h74z" />
    <glyph glyph-name="afii62759" unicode="&#x626;" horiz-adv-x="2247" arabic-form="final" 
d="M2288 0l-98.999 0.000976562c-35.333 0 -67.5 9.33301 -96.5 28s-55.833 42.667 -80.5 72c-24 30.667 -47 66 -69 106l-61 115l-58.5 118c-19.667 38.667 -40.5 73 -62.5 103c-22 31.333 -45.333 56 -70 74s-51.667 27 -81 27c-34.667 0 -67.167 -11 -97.5 -33
s-47.5 -43 -51.5 -63c-4 -21.333 10.5 -46.333 43.5 -75l94.5 -82c47.333 -40.667 81.333 -80.334 102 -119.001s27 -77 19 -115c-30.667 -148.667 -130.834 -266.5 -300.501 -353.5s-391.5 -130.5 -665.5 -130.5c-242.667 0 -410.834 44.167 -504.501 132.5
s-121.5 222.5 -83.5 402.5c14.667 73.333 32.667 142.5 54 207.5s36.666 107.167 45.999 126.5h274l-2 -11c-6 -14.667 -19.167 -52.167 -39.5 -112.5s-38.5 -129.833 -54.5 -208.5c-12.667 -59.333 8.33301 -103.5 63 -132.5s162.667 -43.5 324 -43.5
c194.667 0 342.834 10.5 444.501 31.5s156.834 52.167 165.501 93.5c6.66699 30 -5.66602 59 -36.999 87s-64 55.333 -98 82c-36.667 29.333 -68.834 61.833 -96.501 97.5s-36.5 77.167 -26.5 124.5c20 96 77.5 181 172.5 255s198.833 111 311.5 111
c45.333 0 85 -8.33301 119 -25s64.333 -37.334 91 -62.001c30 -28 55.833 -59 77.5 -93s41.5 -66.667 59.5 -98l56.5 -101.5c18.333 -33.667 36.833 -63.167 55.5 -88.5c20.667 -27.333 41 -48.666 61 -63.999s44 -23 72 -23h103zM1013 710.001h-336l19 94h74
c-14 8.66699 -24.167 22.667 -30.5 42s-7.5 39.333 -3.5 60c9.33301 42.667 33 80 71 112s83.667 48 137 48c35.333 0 61 -2 77 -6s27 -7.33301 33 -10l-21 -101h-6c-8 4 -22.667 8.83301 -44 14.5s-40.333 8.5 -57 8.5c-29.333 0 -52.5 -6 -69.5 -18s-27.833 -28 -32.5 -48
c-6 -30 4.33301 -54.5 31 -73.5s61 -28.5 103 -28.5h74z" />
    <glyph glyph-name="afii62757" unicode="&#x626;" horiz-adv-x="698" arabic-form="initial" 
d="M661 598c-38 -183.333 -108.332 -328.833 -210.999 -436.5s-220 -161.5 -352 -161.5h-139l74 360h94c62 0 116.167 21 162.5 63s77.166 100.333 92.499 175l61 293h279zM734.001 1130h-336l19 94h74c-14 8.66699 -24.167 22.667 -30.5 42s-7.5 39.333 -3.5 60
c9.33301 42.667 33 80 71 112s83.667 48 137 48c35.333 0 61 -2 77 -6s27 -7.33301 33 -10l-21 -101h-6c-8 4 -22.667 8.83301 -44 14.5s-40.333 8.5 -57 8.5c-29.333 0 -52.5 -6 -69.5 -18s-27.833 -28 -32.5 -48c-6 -30 4.33301 -54.5 31 -73.5s61 -28.5 103 -28.5h74z
" />
    <glyph glyph-name="afii62758" unicode="&#x626;" horiz-adv-x="793" arabic-form="medial" 
d="M834 0l-140.001 -0.000976562c-70.667 0 -129.667 15 -177 45s-78 64 -92 102c-37.333 -45.333 -84.166 -81.166 -140.499 -107.499s-118.5 -39.5 -186.5 -39.5h-139l74 360h94c59.333 0 112.333 20.5 159 61.5s78 99.833 94 176.5l25 123h279l-25 -123
c-14.667 -71.333 -8.66699 -128.833 18 -172.5s72 -65.5 136 -65.5h95zM756.999 962.999h-336l19 94h74c-14 8.66699 -24.167 22.667 -30.5 42s-7.5 39.333 -3.5 60c9.33301 42.667 33 80 71 112s83.667 48 137 48c35.333 0 61 -2 77 -6s27 -7.33301 33 -10l-21 -101h-6
c-8 4 -22.667 8.83301 -44 14.5s-40.333 8.5 -57 8.5c-29.333 0 -52.5 -6 -69.5 -18s-27.833 -28 -32.5 -48c-6 -30 4.33301 -54.5 31 -73.5s61 -28.5 103 -28.5h74z" />
    <glyph glyph-name="afii62760" unicode="&#x627;" horiz-adv-x="698" arabic-form="final" 
d="M739 0h-139c-134.667 -0 -230 54.833 -286 164.5s-65.333 254.167 -28 433.5l199 956h278l-199 -956c-8.66699 -41.333 -10.5 -76.833 -5.5 -106.5s14.5 -54.167 28.5 -73.5c15.333 -18.667 33.833 -33 55.5 -43s47.167 -15 76.5 -15h94z" />
    <glyph glyph-name="afii62763" unicode="&#x628;" horiz-adv-x="2107" arabic-form="final" 
d="M2148 0l-200.002 0.000976562c-52 0 -101.667 14.5 -149 43.5s-79 64.5 -95 106.5c-36 -42.667 -84 -78.334 -144 -107.001s-124 -43 -192 -43h-424c-270 0 -463.667 50.5 -581 151.5s-156 247.167 -116 438.5c13.333 64 31.333 125 54 183s36.667 91.667 42 101h266
l-1 -8c-8 -16.667 -21.333 -53 -40 -109s-32.667 -107.667 -42 -155c-16 -75.333 18.833 -134.5 104.5 -177.5s215.5 -64.5 389.5 -64.5h261h161.5c30.333 0 68.833 12.833 115.5 38.5s75.334 64.167 86.001 115.5c12 56 19.833 100.833 23.5 134.5s5.5 54.5 5.5 62.5l2 10
h270c0.666992 -16 -0.666016 -45.833 -3.99902 -89.5s-9 -85.5 -17 -125.5c-8 -38.667 -0.833008 -72.667 21.5 -102s53.833 -44 94.5 -44h182zM1083 -293.999h-148l30 148h148z" />
    <glyph glyph-name="afii62761" unicode="&#x628;" horiz-adv-x="698" arabic-form="initial" 
d="M661 598c-38 -183.333 -108.332 -328.833 -210.999 -436.5s-220 -161.5 -352 -161.5h-139l74 360h94c62 0 116.167 21 162.5 63s77.166 100.333 92.499 175l61 293h279zM242.001 -294h-148l30 148h148z" />
    <glyph glyph-name="afii62762" unicode="&#x628;" horiz-adv-x="793" arabic-form="medial" 
d="M834 0l-140.001 -0.000976562c-70.667 0 -129.667 15 -177 45s-78 64 -92 102c-37.333 -45.333 -84.166 -81.166 -140.499 -107.499s-118.5 -39.5 -186.5 -39.5h-139l74 360h94c59.333 0 112.333 20.5 159 61.5s78 99.833 94 176.5l25 123h279l-25 -123
c-14.667 -71.333 -8.66699 -128.833 18 -172.5s72 -65.5 136 -65.5h95zM339.999 -294.001h-148l30 148h148z" />
    <glyph glyph-name="afii62764" unicode="&#x629;" horiz-adv-x="1362" arabic-form="final" 
d="M1403 0l-137.002 -0.00195312c-61.333 0 -113.166 10.833 -155.499 32.5s-76.833 50.5 -103.5 86.5s-46.167 76.333 -58.5 121s-20.166 92.334 -23.499 143.001c-46.667 -35.333 -102.5 -64 -167.5 -86s-123.5 -33 -175.5 -33c-126 0 -218.667 38.333 -278 115
s-76.333 175.667 -51 297c16 76 47.167 143.833 93.5 203.5s105.833 110.834 178.5 153.501c72 41.333 155.5 73.333 250.5 96s198.833 36.667 311.5 42l263 13l-122 -586c-16 -76 -9 -134.667 21 -176s74 -62 132 -62h96zM958.998 644.998l49.999 239.999
c-131.333 -11.333 -235.666 -32.666 -312.999 -63.999s-122.666 -79 -135.999 -143c-6 -30.667 1.5 -56.5 22.5 -77.5s50.5 -31.5 88.5 -31.5c51.333 0 104.666 8.33301 159.999 25s98 33.667 128 51zM830.997 1409h-148l30 148h148zM1099 1409h-148l30 148h148z" />
    <glyph glyph-name="afii62767" unicode="&#x62a;" horiz-adv-x="2107" arabic-form="final" 
d="M2148 0l-200.002 0.000976562c-52 0 -101.667 14.5 -149 43.5s-79 64.5 -95 106.5c-36 -42.667 -84 -78.334 -144 -107.001s-124 -43 -192 -43h-424c-270 0 -463.667 50.5 -581 151.5s-156 247.167 -116 438.5c13.333 64 31.333 125 54 183s36.667 91.667 42 101h266
l-1 -8c-8 -16.667 -21.333 -53 -40 -109s-32.667 -107.667 -42 -155c-16 -75.333 18.833 -134.5 104.5 -177.5s215.5 -64.5 389.5 -64.5h261h161.5c30.333 0 68.833 12.833 115.5 38.5s75.334 64.167 86.001 115.5c12 56 19.833 100.833 23.5 134.5s5.5 54.5 5.5 62.5l2 10
h270c0.666992 -16 -0.666016 -45.833 -3.99902 -89.5s-9 -85.5 -17 -125.5c-8 -38.667 -0.833008 -72.667 21.5 -102s53.833 -44 94.5 -44h182zM1181 1024h-148l30 148h148zM1449 1024h-148l30 148h148z" />
    <glyph glyph-name="afii62765" unicode="&#x62a;" horiz-adv-x="698" arabic-form="initial" 
d="M661 598c-38 -183.333 -108.332 -328.833 -210.999 -436.5s-220 -161.5 -352 -161.5h-139l74 360h94c62 0 116.167 21 162.5 63s77.166 100.333 92.499 175l61 293h279zM449.001 1135h-148l30 148h148zM717.001 1135h-148l30 148h148z" />
    <glyph glyph-name="afii62766" unicode="&#x62a;" horiz-adv-x="793" arabic-form="medial" 
d="M834 0l-140.001 -0.000976562c-70.667 0 -129.667 15 -177 45s-78 64 -92 102c-37.333 -45.333 -84.166 -81.166 -140.499 -107.499s-118.5 -39.5 -186.5 -39.5h-139l74 360h94c59.333 0 112.333 20.5 159 61.5s78 99.833 94 176.5l25 123h279l-25 -123
c-14.667 -71.333 -8.66699 -128.833 18 -172.5s72 -65.5 136 -65.5h95zM503.999 962.999h-148l30 148h148zM771.999 962.999h-148l30 148h148z" />
    <glyph glyph-name="afii62770" unicode="&#x62b;" horiz-adv-x="2107" arabic-form="final" 
d="M2148 0l-200.002 0.000976562c-52 0 -101.667 14.5 -149 43.5s-79 64.5 -95 106.5c-36 -42.667 -84 -78.334 -144 -107.001s-124 -43 -192 -43h-424c-270 0 -463.667 50.5 -581 151.5s-156 247.167 -116 438.5c13.333 64 31.333 125 54 183s36.667 91.667 42 101h266
l-1 -8c-8 -16.667 -21.333 -53 -40 -109s-32.667 -107.667 -42 -155c-16 -75.333 18.833 -134.5 104.5 -177.5s215.5 -64.5 389.5 -64.5h261h161.5c30.333 0 68.833 12.833 115.5 38.5s75.334 64.167 86.001 115.5c12 56 19.833 100.833 23.5 134.5s5.5 54.5 5.5 62.5l2 10
h270c0.666992 -16 -0.666016 -45.833 -3.99902 -89.5s-9 -85.5 -17 -125.5c-8 -38.667 -0.833008 -72.667 21.5 -102s53.833 -44 94.5 -44h182zM1203 1024h-148l30 148h148zM1499 1024h-148l30 148h148zM1394 1233h-148l31 148h148z" />
    <glyph glyph-name="afii62768" unicode="&#x62b;" horiz-adv-x="698" arabic-form="initial" 
d="M661 598c-38 -183.333 -108.332 -328.833 -210.999 -436.5s-220 -161.5 -352 -161.5h-139l74 360h94c62 0 116.167 21 162.5 63s77.166 100.333 92.499 175l61 293h279zM448.001 1135h-148l30 148h148zM744.001 1135h-148l30 148h148zM639.001 1344h-148l31 148h148z" />
    <glyph glyph-name="afii62769" unicode="&#x62b;" horiz-adv-x="793" arabic-form="medial" 
d="M834 0l-140.001 -0.000976562c-70.667 0 -129.667 15 -177 45s-78 64 -92 102c-37.333 -45.333 -84.166 -81.166 -140.499 -107.499s-118.5 -39.5 -186.5 -39.5h-139l74 360h94c59.333 0 112.333 20.5 159 61.5s78 99.833 94 176.5l25 123h279l-25 -123
c-14.667 -71.333 -8.66699 -128.833 18 -172.5s72 -65.5 136 -65.5h95zM476.999 962.999h-148l30 148h148zM772.999 962.999h-148l30 148h148zM667.999 1172h-148l31 148h148z" />
    <glyph glyph-name="afii62773" unicode="&#x62c;" horiz-adv-x="1618" arabic-form="final" 
d="M1577 575l-24.999 -120c-6.66699 -31.333 -3.33398 -55 9.99902 -71s36 -24 68 -24h103l-74 -360h-115c-102 -0 -174.333 25.833 -217 77.5s-53 130.834 -31 237.501l54 260h-60c-128.667 0 -243.5 -9 -344.5 -27s-187.5 -43.667 -259.5 -77
c-66 -30.667 -120.167 -69 -162.5 -115s-69.5 -98.333 -81.5 -157c-16 -78 3.33301 -141.667 58 -191s142 -74 262 -74c70 0 144.167 5.33301 222.5 16s152.833 28 223.5 52h9l-72 -346c-78 -28.667 -153 -49.167 -225 -61.5s-149 -18.5 -231 -18.5
c-91.333 0 -173.5 14.333 -246.5 43s-133.833 70.334 -182.5 125.001c-48 54 -81 119.167 -99 195.5s-17.333 162.166 2 257.499c16 75.333 48.333 146.166 97 212.499s110.667 125.833 186 178.5c74 52 160 94.667 258 128s204 54.666 318 63.999
c-54 14.667 -106 26.667 -156 36c-46 8.66699 -107.167 16.834 -183.5 24.501s-154.833 11.5 -235.5 11.5h-67l64 309h59c167.333 0 333.5 -27 498.5 -81s304.5 -132.667 418.5 -236h260l-56 -269h-47zM877.001 160h-148l30 148h148z" />
    <glyph glyph-name="afii62771" unicode="&#x62c;" horiz-adv-x="1538" arabic-form="initial" 
d="M1557 584l-508.999 -258c-51.333 -25.333 -106.833 -54.333 -166.5 -87s-134.5 -69 -224.5 -109c-84 -37.333 -161.667 -68.333 -233 -93s-138.333 -37 -201 -37h-264l74 360h272c116 0 223.5 14.667 322.5 44s227.833 82.333 386.5 159c-68 34 -152.5 62 -253.5 84
s-204.5 33 -310.5 33h-203l64 309h213c116 0 233.667 -20.667 353 -62s258.666 -115.333 417.999 -222l318 151zM1246 -75h-148l30 148h148z" />
    <glyph glyph-name="afii62772" unicode="&#x62c;" horiz-adv-x="1538" arabic-form="medial" 
d="M943 270c-128.667 -68 -259.167 -130 -391.5 -186s-241.833 -84 -328.5 -84h-264l74 360h272c131.333 0 249.333 17.667 354 53s223 85.333 355 150c-68 34 -152.5 62 -253.5 84s-204.5 33 -310.5 33h-203l64 309h213c120.667 0 240.5 -21.333 359.5 -64
s256.167 -116 411.5 -220l318 151l-56 -272l-392 -199c12.667 -8.66699 26.167 -15 40.5 -19s33.833 -6 58.5 -6h389l-74 -360h-346c-110 0 -189.333 21 -238 63s-66 111 -52 207zM677 -292h-148l30 148h148z" />
    <glyph glyph-name="afii62776" unicode="&#x62d;" horiz-adv-x="1618" arabic-form="final" 
d="M1577 575l-24.999 -120c-6.66699 -31.333 -3.33398 -55 9.99902 -71s36 -24 68 -24h103l-74 -360h-115c-102 -0 -174.333 25.833 -217 77.5s-53 130.834 -31 237.501l54 260h-60c-128.667 0 -243.5 -9 -344.5 -27s-187.5 -43.667 -259.5 -77
c-66 -30.667 -120.167 -69 -162.5 -115s-69.5 -98.333 -81.5 -157c-16 -78 3.33301 -141.667 58 -191s142 -74 262 -74c70 0 144.167 5.33301 222.5 16s152.833 28 223.5 52h9l-72 -346c-78 -28.667 -153 -49.167 -225 -61.5s-149 -18.5 -231 -18.5
c-91.333 0 -173.5 14.333 -246.5 43s-133.833 70.334 -182.5 125.001c-48 54 -81 119.167 -99 195.5s-17.333 162.166 2 257.499c16 75.333 48.333 146.166 97 212.499s110.667 125.833 186 178.5c74 52 160 94.667 258 128s204 54.666 318 63.999
c-54 14.667 -106 26.667 -156 36c-46 8.66699 -107.167 16.834 -183.5 24.501s-154.833 11.5 -235.5 11.5h-67l64 309h59c167.333 0 333.5 -27 498.5 -81s304.5 -132.667 418.5 -236h260l-56 -269h-47z" />
    <glyph glyph-name="afii62774" unicode="&#x62d;" horiz-adv-x="1538" arabic-form="initial" 
d="M1557 584l-508.999 -258c-51.333 -25.333 -106.833 -54.333 -166.5 -87s-134.5 -69 -224.5 -109c-84 -37.333 -161.667 -68.333 -233 -93s-138.333 -37 -201 -37h-264l74 360h272c116 0 223.5 14.667 322.5 44s227.833 82.333 386.5 159c-68 34 -152.5 62 -253.5 84
s-204.5 33 -310.5 33h-203l64 309h213c116 0 233.667 -20.667 353 -62s258.666 -115.333 417.999 -222l318 151z" />
    <glyph glyph-name="afii62775" unicode="&#x62d;" horiz-adv-x="1538" arabic-form="medial" 
d="M943 270c-128.667 -68 -259.167 -130 -391.5 -186s-241.833 -84 -328.5 -84h-264l74 360h272c131.333 0 249.333 17.667 354 53s223 85.333 355 150c-68 34 -152.5 62 -253.5 84s-204.5 33 -310.5 33h-203l64 309h213c120.667 0 240.5 -21.333 359.5 -64
s256.167 -116 411.5 -220l318 151l-56 -272l-392 -199c12.667 -8.66699 26.167 -15 40.5 -19s33.833 -6 58.5 -6h389l-74 -360h-346c-110 0 -189.333 21 -238 63s-66 111 -52 207z" />
    <glyph glyph-name="afii62779" unicode="&#x62e;" horiz-adv-x="1618" arabic-form="final" 
d="M1577 575l-24.999 -120c-6.66699 -31.333 -3.33398 -55 9.99902 -71s36 -24 68 -24h103l-74 -360h-115c-102 -0 -174.333 25.833 -217 77.5s-53 130.834 -31 237.501l54 260h-60c-128.667 0 -243.5 -9 -344.5 -27s-187.5 -43.667 -259.5 -77
c-66 -30.667 -120.167 -69 -162.5 -115s-69.5 -98.333 -81.5 -157c-16 -78 3.33301 -141.667 58 -191s142 -74 262 -74c70 0 144.167 5.33301 222.5 16s152.833 28 223.5 52h9l-72 -346c-78 -28.667 -153 -49.167 -225 -61.5s-149 -18.5 -231 -18.5
c-91.333 0 -173.5 14.333 -246.5 43s-133.833 70.334 -182.5 125.001c-48 54 -81 119.167 -99 195.5s-17.333 162.166 2 257.499c16 75.333 48.333 146.166 97 212.499s110.667 125.833 186 178.5c74 52 160 94.667 258 128s204 54.666 318 63.999
c-54 14.667 -106 26.667 -156 36c-46 8.66699 -107.167 16.834 -183.5 24.501s-154.833 11.5 -235.5 11.5h-67l64 309h59c167.333 0 333.5 -27 498.5 -81s304.5 -132.667 418.5 -236h260l-56 -269h-47zM1322 1305h-148l30 148h148z" />
    <glyph glyph-name="afii62777" unicode="&#x62e;" horiz-adv-x="1538" arabic-form="initial" 
d="M1557 584l-508.999 -258c-51.333 -25.333 -106.833 -54.333 -166.5 -87s-134.5 -69 -224.5 -109c-84 -37.333 -161.667 -68.333 -233 -93s-138.333 -37 -201 -37h-264l74 360h272c116 0 223.5 14.667 322.5 44s227.833 82.333 386.5 159c-68 34 -152.5 62 -253.5 84
s-204.5 33 -310.5 33h-203l64 309h213c116 0 233.667 -20.667 353 -62s258.666 -115.333 417.999 -222l318 151zM1182 1133h-148l30 148h148z" />
    <glyph glyph-name="afii62778" unicode="&#x62e;" horiz-adv-x="1538" arabic-form="medial" 
d="M943 270c-128.667 -68 -259.167 -130 -391.5 -186s-241.833 -84 -328.5 -84h-264l74 360h272c131.333 0 249.333 17.667 354 53s223 85.333 355 150c-68 34 -152.5 62 -253.5 84s-204.5 33 -310.5 33h-203l64 309h213c120.667 0 240.5 -21.333 359.5 -64
s256.167 -116 411.5 -220l318 151l-56 -272l-392 -199c12.667 -8.66699 26.167 -15 40.5 -19s33.833 -6 58.5 -6h389l-74 -360h-346c-110 0 -189.333 21 -238 63s-66 111 -52 207zM1181 1231h-148l30 148h148z" />
    <glyph glyph-name="afii62780" unicode="&#x62f;" horiz-adv-x="1178" arabic-form="final" 
d="M1219 0h-232.002c-64 0 -115 11.5 -153 34.5s-64.333 57.833 -79 104.5c-40.667 -51.333 -86.834 -87.333 -138.501 -108s-108.5 -31 -170.5 -31h-344l74 360h355c50 0 93 8.83301 129 26.5s56.333 37.5 61 59.5c1.33301 6 1.83301 15.167 1.5 27.5
s-1.16602 24.5 -2.49902 36.5l-56 637h311l44 -539c2.66699 -32 6.83398 -65.833 12.501 -101.5s11.834 -62.167 18.501 -79.5c8.66699 -21.333 20.167 -37.833 34.5 -49.5s33.833 -17.5 58.5 -17.5h150z" />
    <glyph glyph-name="afii62781" unicode="&#x630;" horiz-adv-x="1178" arabic-form="final" 
d="M1219 0h-232.002c-64 0 -115 11.5 -153 34.5s-64.333 57.833 -79 104.5c-40.667 -51.333 -86.834 -87.333 -138.501 -108s-108.5 -31 -170.5 -31h-344l74 360h355c50 0 93 8.83301 129 26.5s56.333 37.5 61 59.5c1.33301 6 1.83301 15.167 1.5 27.5
s-1.16602 24.5 -2.49902 36.5l-56 637h311l44 -539c2.66699 -32 6.83398 -65.833 12.501 -101.5s11.834 -62.167 18.501 -79.5c8.66699 -21.333 20.167 -37.833 34.5 -49.5s33.833 -17.5 58.5 -17.5h150zM929.998 1389h-148l30 148h148z" />
    <glyph glyph-name="afii62782" unicode="&#x631;" horiz-adv-x="1042" arabic-form="final" 
d="M1083 0l-139 0.00195312c-25.333 0 -54 4 -86 12s-55.333 17 -70 27c-56.667 -90.667 -126 -165.834 -208 -225.501s-168 -106.834 -258 -141.501c-91.333 -35.333 -180.333 -60.166 -267 -74.499s-165 -21.5 -235 -21.5l76 363c62 0 134.167 5.83301 216.5 17.5
s154.5 29.167 216.5 52.5c72 27.333 132 61.833 180 103.5s78.333 92.834 91 153.501c9.33301 44.667 12.833 90.667 10.5 138s-6.83301 89.333 -13.5 126c-8.66699 40.667 -16.834 73.5 -24.501 98.5s-13.167 41.5 -16.5 49.5l3 12h293
c8.66699 -24.667 18.5 -58.334 29.5 -101.001s17.167 -76 18.5 -100c3.33301 -38.667 17.833 -69.834 43.5 -93.501s64.834 -35.5 117.501 -35.5h96z" />
    <glyph glyph-name="afii62783" unicode="&#x632;" horiz-adv-x="1042" arabic-form="final" 
d="M1083 0l-139 0.00195312c-25.333 0 -54 4 -86 12s-55.333 17 -70 27c-56.667 -90.667 -126 -165.834 -208 -225.501s-168 -106.834 -258 -141.501c-91.333 -35.333 -180.333 -60.166 -267 -74.499s-165 -21.5 -235 -21.5l76 363c62 0 134.167 5.83301 216.5 17.5
s154.5 29.167 216.5 52.5c72 27.333 132 61.833 180 103.5s78.333 92.834 91 153.501c9.33301 44.667 12.833 90.667 10.5 138s-6.83301 89.333 -13.5 126c-8.66699 40.667 -16.834 73.5 -24.501 98.5s-13.167 41.5 -16.5 49.5l3 12h293
c8.66699 -24.667 18.5 -58.334 29.5 -101.001s17.167 -76 18.5 -100c3.33301 -38.667 17.833 -69.834 43.5 -93.501s64.834 -35.5 117.501 -35.5h96zM820 932.002h-148l30 148h148z" />
    <glyph glyph-name="afii62786" unicode="&#x633;" horiz-adv-x="3004" arabic-form="final" 
d="M3045 0l-138.996 -0.000976562c-75.333 0 -136.166 14.167 -182.5 42.5c-46.333 28.333 -75.5 61.833 -87.5 100.5c-34.667 -44 -86.334 -79.833 -155.001 -107.5s-140.667 -41.5 -216 -41.5c-66 0 -122.667 14.5 -170 43.5s-79.333 63.5 -96 103.5
c-47.333 -49.333 -101.5 -86.166 -162.5 -110.499s-124.833 -36.5 -191.5 -36.5c-40 0 -76.333 9 -109 27s-56.334 41.667 -71.001 71c-58 -161.333 -159.333 -287.666 -304 -378.999s-303.334 -137 -476.001 -137c-92.667 0 -175.667 14.167 -249 42.5
s-133.666 69.833 -180.999 124.5c-46 54.667 -77 123.667 -93 207s-13 177.666 9 282.999c20 96.667 43.5 182.334 70.5 257.001s42.5 116.667 46.5 126h284l-3 -12c-10.667 -21.333 -29.667 -71.166 -57 -149.499s-48 -150.5 -62 -216.5c-20 -95.333 3.33301 -169 70 -221
s147 -78 241 -78c114.667 0 216.167 33.667 304.5 101s144.166 157.666 167.499 270.999c19.333 92.667 35.166 179.5 47.499 260.5s19.5 130.167 21.5 147.5h305c-24 -116 -25.167 -205.833 -3.5 -269.5s60.5 -95.5 116.5 -95.5c54 0 102.5 20.5 145.5 61.5
s70.833 92.833 83.5 155.5l31 148h278l-31 -150c-12 -58 -8.33301 -107.333 11 -148s54.333 -61 105 -61c57.333 0 109.333 21.667 156 65s77.334 99.666 92 168.999l62 297h278l-62 -299c-16 -74.667 -8 -132 24 -172s75.333 -60 130 -60h96z" />
    <glyph glyph-name="afii62784" unicode="&#x633;" horiz-adv-x="2247" arabic-form="initial" 
d="M2206 592c-40 -192 -114.169 -339.668 -222.502 -443.001s-237.833 -155 -388.5 -155c-66 0 -122.5 14.5 -169.5 43.5s-79.167 63.5 -96.5 103.5c-41.333 -43.333 -89.333 -78.666 -144 -105.999s-125.334 -41 -212.001 -41c-66 0 -122.667 14.5 -170 43.5
s-79.333 63.5 -96 103.5c-42 -43.333 -92.333 -77.666 -151 -102.999s-126 -38 -202 -38h-395l74 360h395c54.667 0 103.334 19.5 146.001 58.5s70.334 89.833 83.001 152.5l31 148h278l-31 -150c-12 -57.333 -8.33301 -106.5 11 -147.5s54.333 -61.5 105 -61.5
c57.333 0 106.333 19.333 147 58s67.667 89.667 81 153l31 148h279l-31 -150c-12 -58 -8.5 -107.333 10.5 -148s53.833 -61 104.5 -61c57.333 0 110.333 21.667 159 65s80.334 99.666 95.001 168.999l62 297h279z" />
    <glyph glyph-name="afii62785" unicode="&#x633;" horiz-adv-x="2335" arabic-form="medial" 
d="M2376 0l-140.006 -0.000976562c-75.333 0 -136.166 14.167 -182.499 42.5s-75.5 61.833 -87.5 100.5c-31.333 -41.333 -81.666 -76.5 -150.999 -105.5s-142.666 -43.5 -219.999 -43.5c-66 0 -122.5 14.5 -169.5 43.5s-79.167 63.5 -96.5 103.5
c-36.667 -41.333 -85.667 -76.166 -147 -104.499s-131 -42.5 -209 -42.5c-66 0 -122.667 14.5 -170 43.5s-79.333 63.5 -96 103.5c-46 -47.333 -98.667 -82.666 -158 -105.999s-124.333 -35 -195 -35h-395l74 360h395c54.667 0 103.334 19.5 146.001 58.5
s70.334 89.833 83.001 152.5l31 148h278l-31 -150c-12 -57.333 -8.33301 -106.5 11 -147.5s54.333 -61.5 105 -61.5c57.333 0 106.333 19.333 147 58s67.667 89.667 81 153l31 148h279l-31 -150c-12 -58 -8.5 -107.333 10.5 -148s53.833 -61 104.5 -61
c57.333 0 109.333 21.667 156 65s77.334 99.666 92.001 168.999l62 297h279l-62 -299c-16 -74.667 -8.16699 -132 23.5 -172s74.834 -60 129.5 -60h97z" />
    <glyph glyph-name="afii62789" unicode="&#x634;" horiz-adv-x="3004" arabic-form="final" 
d="M3045 0l-138.996 -0.000976562c-75.333 0 -136.166 14.167 -182.5 42.5c-46.333 28.333 -75.5 61.833 -87.5 100.5c-34.667 -44 -86.334 -79.833 -155.001 -107.5s-140.667 -41.5 -216 -41.5c-66 0 -122.667 14.5 -170 43.5s-79.333 63.5 -96 103.5
c-47.333 -49.333 -101.5 -86.166 -162.5 -110.499s-124.833 -36.5 -191.5 -36.5c-40 0 -76.333 9 -109 27s-56.334 41.667 -71.001 71c-58 -161.333 -159.333 -287.666 -304 -378.999s-303.334 -137 -476.001 -137c-92.667 0 -175.667 14.167 -249 42.5
s-133.666 69.833 -180.999 124.5c-46 54.667 -77 123.667 -93 207s-13 177.666 9 282.999c20 96.667 43.5 182.334 70.5 257.001s42.5 116.667 46.5 126h284l-3 -12c-10.667 -21.333 -29.667 -71.166 -57 -149.499s-48 -150.5 -62 -216.5c-20 -95.333 3.33301 -169 70 -221
s147 -78 241 -78c114.667 0 216.167 33.667 304.5 101s144.166 157.666 167.499 270.999c19.333 92.667 35.166 179.5 47.499 260.5s19.5 130.167 21.5 147.5h305c-24 -116 -25.167 -205.833 -3.5 -269.5s60.5 -95.5 116.5 -95.5c54 0 102.5 20.5 145.5 61.5
s70.833 92.833 83.5 155.5l31 148h278l-31 -150c-12 -58 -8.33301 -107.333 11 -148s54.333 -61 105 -61c57.333 0 109.333 21.667 156 65s77.334 99.666 92 168.999l62 297h278l-62 -299c-16 -74.667 -8 -132 24 -172s75.333 -60 130 -60h96zM2069 960.999h-148l30 148h148
zM2365 960.999h-148l30 148h148zM2260 1170h-148l31 148h148z" />
    <glyph glyph-name="afii62787" unicode="&#x634;" horiz-adv-x="2247" arabic-form="initial" 
d="M2206 592c-40 -192 -114.169 -339.668 -222.502 -443.001s-237.833 -155 -388.5 -155c-66 0 -122.5 14.5 -169.5 43.5s-79.167 63.5 -96.5 103.5c-41.333 -43.333 -89.333 -78.666 -144 -105.999s-125.334 -41 -212.001 -41c-66 0 -122.667 14.5 -170 43.5
s-79.333 63.5 -96 103.5c-42 -43.333 -92.333 -77.666 -151 -102.999s-126 -38 -202 -38h-395l74 360h395c54.667 0 103.334 19.5 146.001 58.5s70.334 89.833 83.001 152.5l31 148h278l-31 -150c-12 -57.333 -8.33301 -106.5 11 -147.5s54.333 -61.5 105 -61.5
c57.333 0 106.333 19.333 147 58s67.667 89.667 81 153l31 148h279l-31 -150c-12 -58 -8.5 -107.333 10.5 -148s53.833 -61 104.5 -61c57.333 0 110.333 21.667 159 65s80.334 99.666 95.001 168.999l62 297h279zM1430 960.999h-148l30 148h148zM1726 960.999h-148l30 148
h148zM1621 1170h-148l31 148h148z" />
    <glyph glyph-name="afii62788" unicode="&#x634;" horiz-adv-x="2335" arabic-form="medial" 
d="M2376 0l-140.006 -0.000976562c-75.333 0 -136.166 14.167 -182.499 42.5s-75.5 61.833 -87.5 100.5c-31.333 -41.333 -81.666 -76.5 -150.999 -105.5s-142.666 -43.5 -219.999 -43.5c-66 0 -122.5 14.5 -169.5 43.5s-79.167 63.5 -96.5 103.5
c-36.667 -41.333 -85.667 -76.166 -147 -104.499s-131 -42.5 -209 -42.5c-66 0 -122.667 14.5 -170 43.5s-79.333 63.5 -96 103.5c-46 -47.333 -98.667 -82.666 -158 -105.999s-124.333 -35 -195 -35h-395l74 360h395c54.667 0 103.334 19.5 146.001 58.5
s70.334 89.833 83.001 152.5l31 148h278l-31 -150c-12 -57.333 -8.33301 -106.5 11 -147.5s54.333 -61.5 105 -61.5c57.333 0 106.333 19.333 147 58s67.667 89.667 81 153l31 148h279l-31 -150c-12 -58 -8.5 -107.333 10.5 -148s53.833 -61 104.5 -61
c57.333 0 109.333 21.667 156 65s77.334 99.666 92.001 168.999l62 297h279l-62 -299c-16 -74.667 -8.16699 -132 23.5 -172s74.834 -60 129.5 -60h97zM1394.99 960.999h-148l30 148h148zM1690.99 960.999h-148l30 148h148zM1585.99 1170h-148l31 148h148z" />
    <glyph glyph-name="afii62792" unicode="&#x635;" horiz-adv-x="3043" arabic-form="final" 
d="M3084 0l-139.002 0.00195312c-77.333 0 -140.666 15.167 -189.999 45.5s-83 77.833 -101 142.5c-82 -58.667 -172.833 -104.667 -272.5 -138s-210.167 -50 -331.5 -50h-625c-74.667 -134 -176.5 -238.167 -305.5 -312.5s-273.833 -111.5 -434.5 -111.5
c-92.667 0 -175.667 14.167 -249 42.5s-133.666 69.833 -180.999 124.5c-46 54.667 -77 123.667 -93 207s-13 177.666 9 282.999c20 95.333 43.5 180.666 70.5 255.999s42.5 117.666 46.5 126.999h284l-3 -12c-10.667 -21.333 -29.667 -71.166 -57 -149.499
s-48 -150.5 -62 -216.5c-18 -88 2.33301 -159.833 61 -215.5s142 -83.5 250 -83.5c53.333 0 105.666 8.16699 156.999 24.5s97 39.166 137 68.499c46.667 34 85 74.333 115 121s51 99.334 63 158.001c19.333 94 31.833 165.833 37.5 215.5s9.16699 79.5 10.5 89.5h285
c-0.666992 -8.66699 -2.5 -31 -5.5 -67s-6.5 -68 -10.5 -96c-2.66699 -14 -3.66699 -28.667 -3 -44s5.33398 -25.333 14.001 -30c87.333 95.333 169.5 180.5 246.5 255.5s152.833 140.5 227.5 196.5c79.333 58.667 161.5 105.5 246.5 140.5s172.833 52.5 263.5 52.5
c120 0 214.5 -39.5 283.5 -118.5s95.5 -183.5 79.5 -313.5l-6 -35c-6.66699 -62.667 5.66602 -111.167 37 -145.5c31.333 -34.333 72.333 -51.5 123 -51.5h96zM2473 418.002c44.667 17.333 79.834 37.1699 105.501 59.5029s41.167 46.166 46.5 71.499
c8.66699 43.333 -0.333008 80.5 -27 111.5s-65.667 46.5 -117 46.5c-64 0 -126.5 -11.833 -187.5 -35.5s-118.5 -52.834 -172.5 -87.501c-54.667 -34.667 -104.834 -72.334 -150.501 -113.001s-85.167 -77.667 -118.5 -111h198c94 0 177.167 5.5 249.5 16.5
s130.166 24.833 173.5 41.5z" />
    <glyph glyph-name="afii62790" unicode="&#x635;" horiz-adv-x="1905" arabic-form="initial" 
d="M1894 539c-15.333 -73.333 -48.167 -143.167 -98.5 -209.5s-112.5 -123.5 -186.5 -171.5c-76 -49.333 -160.667 -88 -254 -116s-194 -42 -302 -42h-541c-42.667 0 -79.5 7.16699 -110.5 21.5s-51.833 39.833 -62.5 76.5c-28.667 -35.333 -60.167 -60.5 -94.5 -75.5
s-81.166 -22.5 -140.499 -22.5h-145l74 360h135c26.667 0 49.334 7.5 68.001 22.5s31 37.167 37 66.5l23 112h279l-22 -108c-4.66699 -22 -6.33398 -38.667 -5.00098 -50s6.33301 -19.333 15 -24c72.667 80 151.167 161.833 235.5 245.5s162.5 152.5 234.5 206.5
c79.333 59.333 161 106.333 245 141s171 52 261 52c132.667 0 232.167 -45.667 298.5 -137s85.166 -207.333 56.499 -348zM1467 416.999c44.667 17.333 79.8311 37.5029 105.498 60.5029s41.167 48.167 46.5 75.5c8.66699 38.667 0.666992 74 -24 106s-64.667 48 -120 48
c-63.333 0 -125 -11.833 -185 -35.5s-117.667 -52.834 -173 -87.501c-54 -34.667 -102.833 -71.334 -146.5 -110.001s-84.5 -76.667 -122.5 -114h195c94.667 0 177.834 5.16699 249.501 15.5s129.834 24.166 174.501 41.499z" />
    <glyph glyph-name="afii62791" unicode="&#x635;" horiz-adv-x="2023" arabic-form="medial" 
d="M2064 0l-153.003 0.00195312c-93.333 0 -162.833 13.833 -208.5 41.5s-73.167 67.834 -82.5 120.501c-81.333 -52.667 -169.833 -92.834 -265.5 -120.501s-196.167 -41.5 -301.5 -41.5h-541c-42.667 0 -79.5 7.16699 -110.5 21.5s-51.833 39.833 -62.5 76.5
c-28.667 -35.333 -60.167 -60.5 -94.5 -75.5s-81.166 -22.5 -140.499 -22.5h-145l74 360h135c26.667 0 49.334 7.5 68.001 22.5s31 37.167 37 66.5l23 112h279l-22 -108c-4.66699 -22 -6.33398 -38.667 -5.00098 -50s6.33301 -19.333 15 -24
c87.333 95.333 169.5 180.5 246.5 255.5s152.833 140.5 227.5 196.5c79.333 58.667 161.5 105.5 246.5 140.5s172.833 52.5 263.5 52.5c126 0 224.333 -43.333 295 -130s90.667 -205 60 -355c-5.33301 -22.667 -13.666 -48.834 -24.999 -78.501s-23.333 -54.834 -36 -75.501
c12.667 -8.66699 26.334 -15 41.001 -19s34.667 -6 60 -6h196zM1476 417.002c46.667 18.667 82.168 39.335 106.501 62.002s39.166 47.334 44.499 74.001c8.66699 38.667 0.666992 74 -24 106s-64.667 48 -120 48c-64 0 -126 -11.833 -186 -35.5
s-117.333 -52.834 -172 -87.501c-54 -34.667 -102.833 -71.334 -146.5 -110.001s-84.5 -76.667 -122.5 -114h197c94.667 0 177.667 5.16699 249 15.5s129.333 24.166 174 41.499z" />
    <glyph glyph-name="afii62795" unicode="&#x636;" horiz-adv-x="3043" arabic-form="final" 
d="M3084 0l-139.002 0.00195312c-77.333 0 -140.666 15.167 -189.999 45.5s-83 77.833 -101 142.5c-82 -58.667 -172.833 -104.667 -272.5 -138s-210.167 -50 -331.5 -50h-625c-74.667 -134 -176.5 -238.167 -305.5 -312.5s-273.833 -111.5 -434.5 -111.5
c-92.667 0 -175.667 14.167 -249 42.5s-133.666 69.833 -180.999 124.5c-46 54.667 -77 123.667 -93 207s-13 177.666 9 282.999c20 95.333 43.5 180.666 70.5 255.999s42.5 117.666 46.5 126.999h284l-3 -12c-10.667 -21.333 -29.667 -71.166 -57 -149.499
s-48 -150.5 -62 -216.5c-18 -88 2.33301 -159.833 61 -215.5s142 -83.5 250 -83.5c53.333 0 105.666 8.16699 156.999 24.5s97 39.166 137 68.499c46.667 34 85 74.333 115 121s51 99.334 63 158.001c19.333 94 31.833 165.833 37.5 215.5s9.16699 79.5 10.5 89.5h285
c-0.666992 -8.66699 -2.5 -31 -5.5 -67s-6.5 -68 -10.5 -96c-2.66699 -14 -3.66699 -28.667 -3 -44s5.33398 -25.333 14.001 -30c87.333 95.333 169.5 180.5 246.5 255.5s152.833 140.5 227.5 196.5c79.333 58.667 161.5 105.5 246.5 140.5s172.833 52.5 263.5 52.5
c120 0 214.5 -39.5 283.5 -118.5s95.5 -183.5 79.5 -313.5l-6 -35c-6.66699 -62.667 5.66602 -111.167 37 -145.5c31.333 -34.333 72.333 -51.5 123 -51.5h96zM2473 418.002c44.667 17.333 79.834 37.1699 105.501 59.5029s41.167 46.166 46.5 71.499
c8.66699 43.333 -0.333008 80.5 -27 111.5s-65.667 46.5 -117 46.5c-64 0 -126.5 -11.833 -187.5 -35.5s-118.5 -52.834 -172.5 -87.501c-54.667 -34.667 -104.834 -72.334 -150.501 -113.001s-85.167 -77.667 -118.5 -111h198c94 0 177.167 5.5 249.5 16.5
s130.166 24.833 173.5 41.5zM2020 1167.01h-148l30 148h148z" />
    <glyph glyph-name="afii62793" unicode="&#x636;" horiz-adv-x="1905" arabic-form="initial" 
d="M1894 539c-15.333 -73.333 -48.167 -143.167 -98.5 -209.5s-112.5 -123.5 -186.5 -171.5c-76 -49.333 -160.667 -88 -254 -116s-194 -42 -302 -42h-541c-42.667 0 -79.5 7.16699 -110.5 21.5s-51.833 39.833 -62.5 76.5c-28.667 -35.333 -60.167 -60.5 -94.5 -75.5
s-81.166 -22.5 -140.499 -22.5h-145l74 360h135c26.667 0 49.334 7.5 68.001 22.5s31 37.167 37 66.5l23 112h279l-22 -108c-4.66699 -22 -6.33398 -38.667 -5.00098 -50s6.33301 -19.333 15 -24c72.667 80 151.167 161.833 235.5 245.5s162.5 152.5 234.5 206.5
c79.333 59.333 161 106.333 245 141s171 52 261 52c132.667 0 232.167 -45.667 298.5 -137s85.166 -207.333 56.499 -348zM1467 416.999c44.667 17.333 79.8311 37.5029 105.498 60.5029s41.167 48.167 46.5 75.5c8.66699 38.667 0.666992 74 -24 106s-64.667 48 -120 48
c-63.333 0 -125 -11.833 -185 -35.5s-117.667 -52.834 -173 -87.501c-54 -34.667 -102.833 -71.334 -146.5 -110.001s-84.5 -76.667 -122.5 -114h195c94.667 0 177.834 5.16699 249.501 15.5s129.834 24.166 174.501 41.499zM899.996 1165h-148l30 148h148z" />
    <glyph glyph-name="afii62794" unicode="&#x636;" horiz-adv-x="2023" arabic-form="medial" 
d="M2064 0l-153.003 0.00195312c-93.333 0 -162.833 13.833 -208.5 41.5s-73.167 67.834 -82.5 120.501c-81.333 -52.667 -169.833 -92.834 -265.5 -120.501s-196.167 -41.5 -301.5 -41.5h-541c-42.667 0 -79.5 7.16699 -110.5 21.5s-51.833 39.833 -62.5 76.5
c-28.667 -35.333 -60.167 -60.5 -94.5 -75.5s-81.166 -22.5 -140.499 -22.5h-145l74 360h135c26.667 0 49.334 7.5 68.001 22.5s31 37.167 37 66.5l23 112h279l-22 -108c-4.66699 -22 -6.33398 -38.667 -5.00098 -50s6.33301 -19.333 15 -24
c87.333 95.333 169.5 180.5 246.5 255.5s152.833 140.5 227.5 196.5c79.333 58.667 161.5 105.5 246.5 140.5s172.833 52.5 263.5 52.5c126 0 224.333 -43.333 295 -130s90.667 -205 60 -355c-5.33301 -22.667 -13.666 -48.834 -24.999 -78.501s-23.333 -54.834 -36 -75.501
c12.667 -8.66699 26.334 -15 41.001 -19s34.667 -6 60 -6h196zM1476 417.002c46.667 18.667 82.168 39.335 106.501 62.002s39.166 47.334 44.499 74.001c8.66699 38.667 0.666992 74 -24 106s-64.667 48 -120 48c-64 0 -126 -11.833 -186 -35.5
s-117.333 -52.834 -172 -87.501c-54 -34.667 -102.833 -71.334 -146.5 -110.001s-84.5 -76.667 -122.5 -114h197c94.667 0 177.667 5.16699 249 15.5s129.333 24.166 174 41.499zM1023 1165h-148l30 148h148z" />
    <glyph glyph-name="afii62798" unicode="&#x637;" horiz-adv-x="1765" arabic-form="final" 
d="M1227 420c44 18 78.999 38.334 104.999 61.001s41.333 46.667 46 72c9.33301 44 1.33301 80.667 -24 110s-65.666 44 -120.999 44c-61.333 0 -122 -11.833 -182 -35.5s-117.667 -52.834 -173 -87.501c-48.667 -30.667 -95.667 -65.167 -141 -103.5s-89 -78.5 -131 -120.5
h197c93.333 0 176 5.5 248 16.5s130.667 25.5 176 43.5zM1815 0.000976562l-154.001 0.000976562c-94.667 0 -164.5 14 -209.5 42s-72.167 68 -81.5 120c-80 -52.667 -168.167 -92.834 -264.5 -120.501s-197.166 -41.5 -302.499 -41.5h-844l74 360h258l38 31l242 1165h276
l-169 -815c87.333 80.667 186.166 148 296.499 202s217.833 81 322.5 81c132 0 231.833 -43.833 299.5 -131.5s86.834 -202.167 57.501 -343.5c-8 -38 -20.5 -74.5 -37.5 -109.5s-22.333 -54.667 -16 -59s16.833 -8.83301 31.5 -13.5s34.667 -7 60 -7h197z" />
    <glyph glyph-name="afii62796" unicode="&#x637;" horiz-adv-x="1663" arabic-form="initial" 
d="M1492 553c18.667 44 18.334 80.668 -0.999023 110.001s-56.666 44 -111.999 44c-61.333 0 -124.333 -11.833 -189 -35.5s-128.334 -52.834 -191.001 -87.501c-55.333 -30.667 -109.666 -65.167 -162.999 -103.5s-105.333 -78.5 -156 -120.5h197
c93.333 0 177.166 5.5 251.499 16.5s136.166 25.5 185.499 43.5c47.333 18 86.5 38.333 117.5 61s51.167 46.667 60.5 72zM1768 549.001c-32 -75.333 -81.334 -147.667 -148.001 -217s-141.667 -127.333 -225 -174c-86.667 -50 -180 -88.833 -280 -116.5
s-204 -41.5 -312 -41.5h-844l148 360h258l45 31l484 1165h276l-338 -815c104.667 81.333 217.834 148.833 339.501 202.5s234.167 80.5 337.5 80.5c132 0 222.833 -44 272.5 -132s45.167 -202.333 -13.5 -343z" />
    <glyph glyph-name="afii62797" unicode="&#x637;" horiz-adv-x="1765" arabic-form="medial" 
d="M1227 420c44 18 78.999 38.334 104.999 61.001s41.333 46.667 46 72c9.33301 44 1.33301 80.667 -24 110s-65.666 44 -120.999 44c-61.333 0 -122 -11.833 -182 -35.5s-117.667 -52.834 -173 -87.501c-48.667 -30.667 -95.667 -65.167 -141 -103.5s-89 -78.5 -131 -120.5
h197c93.333 0 176 5.5 248 16.5s130.667 25.5 176 43.5zM1815 0.000976562l-154.001 0.000976562c-94.667 0 -164.5 14 -209.5 42s-72.167 68 -81.5 120c-80 -52.667 -168.167 -92.834 -264.5 -120.501s-197.166 -41.5 -302.499 -41.5h-844l74 360h258l38 31l242 1165h276
l-169 -815c87.333 80.667 186.166 148 296.499 202s217.833 81 322.5 81c132 0 231.833 -43.833 299.5 -131.5s86.834 -202.167 57.501 -343.5c-8 -38 -20.5 -74.5 -37.5 -109.5s-22.333 -54.667 -16 -59s16.833 -8.83301 31.5 -13.5s34.667 -7 60 -7h197z" />
    <glyph glyph-name="afii62801" unicode="&#x638;" horiz-adv-x="1765" arabic-form="final" 
d="M1227 420c44 18 78.999 38.334 104.999 61.001s41.333 46.667 46 72c9.33301 44 1.33301 80.667 -24 110s-65.666 44 -120.999 44c-61.333 0 -122 -11.833 -182 -35.5s-117.667 -52.834 -173 -87.501c-48.667 -30.667 -95.667 -65.167 -141 -103.5s-89 -78.5 -131 -120.5
h197c93.333 0 176 5.5 248 16.5s130.667 25.5 176 43.5zM1815 0.000976562l-154.001 0.000976562c-94.667 0 -164.5 14 -209.5 42s-72.167 68 -81.5 120c-80 -52.667 -168.167 -92.834 -264.5 -120.501s-197.166 -41.5 -302.499 -41.5h-844l74 360h258l38 31l242 1165h276
l-169 -815c87.333 80.667 186.166 148 296.499 202s217.833 81 322.5 81c132 0 231.833 -43.833 299.5 -131.5s86.834 -202.167 57.501 -343.5c-8 -38 -20.5 -74.5 -37.5 -109.5s-22.333 -54.667 -16 -59s16.833 -8.83301 31.5 -13.5s34.667 -7 60 -7h197zM1119 1167h-148
l30 148h148z" />
    <glyph glyph-name="afii62799" unicode="&#x638;" horiz-adv-x="1663" arabic-form="initial" 
d="M1492 553c18.667 44 18.334 80.668 -0.999023 110.001s-56.666 44 -111.999 44c-61.333 0 -124.333 -11.833 -189 -35.5s-128.334 -52.834 -191.001 -87.501c-55.333 -30.667 -109.666 -65.167 -162.999 -103.5s-105.333 -78.5 -156 -120.5h197
c93.333 0 177.166 5.5 251.499 16.5s136.166 25.5 185.499 43.5c47.333 18 86.5 38.333 117.5 61s51.167 46.667 60.5 72zM1768 549.001c-32 -75.333 -81.334 -147.667 -148.001 -217s-141.667 -127.333 -225 -174c-86.667 -50 -180 -88.833 -280 -116.5
s-204 -41.5 -312 -41.5h-844l148 360h258l45 31l484 1165h276l-338 -815c104.667 81.333 217.834 148.833 339.501 202.5s234.167 80.5 337.5 80.5c132 0 222.833 -44 272.5 -132s45.167 -202.333 -13.5 -343zM1193 1266h-148l30 148h148z" />
    <glyph glyph-name="afii62800" unicode="&#x638;" horiz-adv-x="1765" arabic-form="medial" 
d="M1227 420c44 18 78.999 38.334 104.999 61.001s41.333 46.667 46 72c9.33301 44 1.33301 80.667 -24 110s-65.666 44 -120.999 44c-61.333 0 -122 -11.833 -182 -35.5s-117.667 -52.834 -173 -87.501c-48.667 -30.667 -95.667 -65.167 -141 -103.5s-89 -78.5 -131 -120.5
h197c93.333 0 176 5.5 248 16.5s130.667 25.5 176 43.5zM1815 0.000976562l-154.001 0.000976562c-94.667 0 -164.5 14 -209.5 42s-72.167 68 -81.5 120c-80 -52.667 -168.167 -92.834 -264.5 -120.501s-197.166 -41.5 -302.499 -41.5h-844l74 360h258l38 31l242 1165h276
l-169 -815c87.333 80.667 186.166 148 296.499 202s217.833 81 322.5 81c132 0 231.833 -43.833 299.5 -131.5s86.834 -202.167 57.501 -343.5c-8 -38 -20.5 -74.5 -37.5 -109.5s-22.333 -54.667 -16 -59s16.833 -8.83301 31.5 -13.5s34.667 -7 60 -7h197zM1119 1167h-148
l30 148h148z" />
    <glyph glyph-name="afii62804" unicode="&#x639;" horiz-adv-x="1384" arabic-form="final" 
d="M896 -424l-207.004 -0.00390625c-92.667 0 -176.834 11.5 -252.501 34.5s-138.167 56.5 -187.5 100.5c-49.333 44.667 -83.666 99.834 -102.999 165.501s-20 141.5 -2 227.5c8.66699 42 24.334 80 47.001 114s49.667 65.333 81 94c28 25.333 58.667 48 92 68
s65.333 37.333 96 52l9 4c-15.333 14.667 -31.5 32 -48.5 52s-34.833 47.333 -53.5 82c-16.667 29.333 -29.667 61 -39 95s-10.666 66.333 -3.99902 97c8 37.333 26.167 73.5 54.5 108.5s68.833 68.833 121.5 101.5c48.667 30.667 107.5 55.834 176.5 75.501
s143.833 29.5 224.5 29.5s151 -10 211 -30s108.333 -45.333 145 -76c38.667 -30.667 66 -64.667 82 -102s20.333 -73.666 13 -108.999c-13.333 -61.333 -53.666 -120.166 -120.999 -176.499s-148 -102.833 -242 -139.5l-91 -34c18 -12 43.833 -23.333 77.5 -34
s74.5 -16 122.5 -16h401l-74 -360h-329c-47.333 0 -90.666 6 -129.999 18s-73.666 26.667 -102.999 44c-30 18 -58.167 39.167 -84.5 63.5s-47.166 44.5 -62.499 60.5l-82 84c-18 -8.66699 -45.667 -30.167 -83 -64.5s-59.333 -66.5 -66 -96.5
c-6.66699 -33.333 -3.83398 -61.5 8.49902 -84.5s31.833 -40.833 58.5 -53.5c28 -13.333 59.167 -22.333 93.5 -27s73.166 -7 116.499 -7h209zM1064 726.996c3.33301 18.667 -16.835 38.6689 -60.502 60.002s-95.5 32 -155.5 32c-63.333 0 -119.666 -11.333 -168.999 -34
s-75.666 -42 -78.999 -58c-6 -29.333 6.33301 -63.333 37 -102s56.667 -65.334 78 -80.001l32 -23l57 19c65.333 21.333 123.5 50.666 174.5 87.999s79.5 70 85.5 98z" />
    <glyph glyph-name="afii62802" unicode="&#x639;" horiz-adv-x="1391" arabic-form="initial" 
d="M1328 184c-238 -63.333 -434.835 -109.833 -590.502 -139.5s-271.167 -44.5 -346.5 -44.5h-432l74 360h301c-16.667 20 -29.5 54.833 -38.5 104.5s-9.16699 95.5 -0.5 137.5c30.667 148.667 105.5 270.834 224.5 366.501s256.833 143.5 413.5 143.5
c76.667 0 155.334 -9.5 236.001 -28.5s138 -37.5 172 -55.5l-64 -309h-12c-44.667 18 -107.167 35.5 -187.5 52.5s-147.5 25.5 -201.5 25.5c-78.667 0 -146.667 -20.5 -204 -61.5s-91.666 -88.833 -102.999 -143.5c-10 -48 -3.83301 -90.833 18.5 -128.5
s51.5 -65.167 87.5 -82.5c115.333 13.333 242 35.166 380 65.499l343 75.5z" />
    <glyph glyph-name="afii62803" unicode="&#x639;" horiz-adv-x="1208" arabic-form="medial" 
d="M1249 0h-317.005c-61.333 -0 -118.5 13.833 -171.5 41.5s-96.167 60.834 -129.5 99.501c-53.333 -43.333 -111.166 -77.666 -173.499 -102.999s-124.166 -38 -185.499 -38h-313l74 360h317c12.667 0 25.834 1.83301 39.501 5.5s23.167 7.5 28.5 11.5
c-22 17.333 -45.333 39 -70 65s-46.334 52 -65.001 78c-20.667 28.667 -37.167 57.667 -49.5 87s-16.166 55.666 -11.499 78.999c10.667 51.333 36.167 97 76.5 137s89.5 74 147.5 102c51.333 25.333 109.5 45.5 174.5 60.5s128.5 22.5 190.5 22.5
c60 0 119 -6.83301 177 -20.5s110 -33.834 156 -60.501s81.333 -60 106 -100s31.667 -85.667 21 -137c-5.33301 -24 -20.666 -51 -45.999 -81s-54 -58.333 -86 -85c-28 -24 -62.167 -51.167 -102.5 -81.5s-72.166 -53.5 -95.499 -69.5c2 -4 8.66699 -7.16699 20 -9.5
s25 -3.5 41 -3.5h321zM863.995 552c34 21.333 61.1719 39.5029 81.5049 54.5029s31.5 27.167 33.5 36.5c3.33301 15.333 -1.83398 29 -15.501 41s-31.834 22.333 -54.501 31c-23.333 8.66699 -48.5 15.167 -75.5 19.5s-52.833 6.5 -77.5 6.5
c-57.333 0 -113.833 -9.83301 -169.5 -29.5s-85.834 -41.834 -90.501 -66.501c-2 -8 4.66699 -20.5 20 -37.5s34 -35.167 56 -54.5c20.667 -17.333 43.667 -35.333 69 -54s44 -31.334 56 -38.001c19.333 8.66699 45.166 21.667 77.499 39s62.166 34.666 89.499 51.999z" />
    <glyph glyph-name="afii62807" unicode="&#x63a;" horiz-adv-x="1384" arabic-form="final" 
d="M896 -424l-207.004 -0.00390625c-92.667 0 -176.834 11.5 -252.501 34.5s-138.167 56.5 -187.5 100.5c-49.333 44.667 -83.666 99.834 -102.999 165.501s-20 141.5 -2 227.5c8.66699 42 24.334 80 47.001 114s49.667 65.333 81 94c28 25.333 58.667 48 92 68
s65.333 37.333 96 52l9 4c-15.333 14.667 -31.5 32 -48.5 52s-34.833 47.333 -53.5 82c-16.667 29.333 -29.667 61 -39 95s-10.666 66.333 -3.99902 97c8 37.333 26.167 73.5 54.5 108.5s68.833 68.833 121.5 101.5c48.667 30.667 107.5 55.834 176.5 75.501
s143.833 29.5 224.5 29.5s151 -10 211 -30s108.333 -45.333 145 -76c38.667 -30.667 66 -64.667 82 -102s20.333 -73.666 13 -108.999c-13.333 -61.333 -53.666 -120.166 -120.999 -176.499s-148 -102.833 -242 -139.5l-91 -34c18 -12 43.833 -23.333 77.5 -34
s74.5 -16 122.5 -16h401l-74 -360h-329c-47.333 0 -90.666 6 -129.999 18s-73.666 26.667 -102.999 44c-30 18 -58.167 39.167 -84.5 63.5s-47.166 44.5 -62.499 60.5l-82 84c-18 -8.66699 -45.667 -30.167 -83 -64.5s-59.333 -66.5 -66 -96.5
c-6.66699 -33.333 -3.83398 -61.5 8.49902 -84.5s31.833 -40.833 58.5 -53.5c28 -13.333 59.167 -22.333 93.5 -27s73.166 -7 116.499 -7h209zM1064 726.996c3.33301 18.667 -16.835 38.6689 -60.502 60.002s-95.5 32 -155.5 32c-63.333 0 -119.666 -11.333 -168.999 -34
s-75.666 -42 -78.999 -58c-6 -29.333 6.33301 -63.333 37 -102s56.667 -65.334 78 -80.001l32 -23l57 19c65.333 21.333 123.5 50.666 174.5 87.999s79.5 70 85.5 98zM1017 1317h-148l30 148h148z" />
    <glyph glyph-name="afii62805" unicode="&#x63a;" horiz-adv-x="1391" arabic-form="initial" 
d="M1328 184c-238 -63.333 -434.835 -109.833 -590.502 -139.5s-271.167 -44.5 -346.5 -44.5h-432l74 360h301c-16.667 20 -29.5 54.833 -38.5 104.5s-9.16699 95.5 -0.5 137.5c30.667 148.667 105.5 270.834 224.5 366.501s256.833 143.5 413.5 143.5
c76.667 0 155.334 -9.5 236.001 -28.5s138 -37.5 172 -55.5l-64 -309h-12c-44.667 18 -107.167 35.5 -187.5 52.5s-147.5 25.5 -201.5 25.5c-78.667 0 -146.667 -20.5 -204 -61.5s-91.666 -88.833 -102.999 -143.5c-10 -48 -3.83301 -90.833 18.5 -128.5
s51.5 -65.167 87.5 -82.5c115.333 13.333 242 35.166 380 65.499l343 75.5zM1039 1354h-148l30 148h148z" />
    <glyph glyph-name="afii62806" unicode="&#x63a;" horiz-adv-x="1208" arabic-form="medial" 
d="M1249 0h-317.005c-61.333 -0 -118.5 13.833 -171.5 41.5s-96.167 60.834 -129.5 99.501c-53.333 -43.333 -111.166 -77.666 -173.499 -102.999s-124.166 -38 -185.499 -38h-313l74 360h317c12.667 0 25.834 1.83301 39.501 5.5s23.167 7.5 28.5 11.5
c-22 17.333 -45.333 39 -70 65s-46.334 52 -65.001 78c-20.667 28.667 -37.167 57.667 -49.5 87s-16.166 55.666 -11.499 78.999c10.667 51.333 36.167 97 76.5 137s89.5 74 147.5 102c51.333 25.333 109.5 45.5 174.5 60.5s128.5 22.5 190.5 22.5
c60 0 119 -6.83301 177 -20.5s110 -33.834 156 -60.501s81.333 -60 106 -100s31.667 -85.667 21 -137c-5.33301 -24 -20.666 -51 -45.999 -81s-54 -58.333 -86 -85c-28 -24 -62.167 -51.167 -102.5 -81.5s-72.166 -53.5 -95.499 -69.5c2 -4 8.66699 -7.16699 20 -9.5
s25 -3.5 41 -3.5h321zM863.995 552c34 21.333 61.1719 39.5029 81.5049 54.5029s31.5 27.167 33.5 36.5c3.33301 15.333 -1.83398 29 -15.501 41s-31.834 22.333 -54.501 31c-23.333 8.66699 -48.5 15.167 -75.5 19.5s-52.833 6.5 -77.5 6.5
c-57.333 0 -113.833 -9.83301 -169.5 -29.5s-85.834 -41.834 -90.501 -66.501c-2 -8 4.66699 -20.5 20 -37.5s34 -35.167 56 -54.5c20.667 -17.333 43.667 -35.333 69 -54s44 -31.334 56 -38.001c19.333 8.66699 45.166 21.667 77.499 39s62.166 34.666 89.499 51.999z
M925 1249h-148l30 148h148z" />
    <glyph glyph-name="afii62810" unicode="&#x641;" horiz-adv-x="2154" arabic-form="final" 
d="M2195 0l-304.999 0.00195312c-62 0 -118.667 8.5 -170 25.5s-96.333 41.167 -135 72.5c-56 -31.333 -114.167 -55.5 -174.5 -72.5s-118.833 -25.5 -175.5 -25.5h-291c-262 0 -453.5 49.167 -574.5 147.5s-161.167 245.833 -120.5 442.5c14 66 32.167 128.833 54.5 188.5
s34.166 91.5 35.499 95.5h272l-1 -8c-6.66699 -14.667 -19 -49.667 -37 -105s-32 -108.333 -42 -159c-16 -75.333 20.167 -134.5 108.5 -177.5s214.5 -64.5 378.5 -64.5h322c-28 25.333 -51.833 64 -71.5 116s-24.5 102.333 -14.5 151
c22 105.333 82.167 195.166 180.5 269.499s209.5 111.5 333.5 111.5c123.333 0 219.833 -37 289.5 -111s92.834 -167 69.5 -279c-10.667 -52 -39.5 -104.333 -86.5 -157s-82.5 -86.334 -106.5 -101.001h335zM1744 468.002c20.667 20 37.501 38.834 50.501 56.501
s21.833 38.167 26.5 61.5c8.66699 40.667 1 73.667 -23 99s-53.667 38 -89 38c-38 0 -72.833 -13 -104.5 -39s-51.834 -58.667 -60.501 -98c-3.33301 -18.667 -2 -38.5 4 -59.5s15 -40.5 27 -58.5c8.66699 -14.667 20.5 -29 35.5 -43s26.833 -22 35.5 -24
c12 3.33301 27.5 11.666 46.5 24.999s36.167 27.333 51.5 42zM1890 1249h-148l30 148h148z" />
    <glyph glyph-name="afii62808" unicode="&#x641;" horiz-adv-x="1110" arabic-form="initial" 
d="M1059 1116c36 -61.333 59.3301 -135.334 69.9971 -222.001s4.66699 -185.334 -18 -296.001c-19.333 -93.333 -57.666 -177.666 -114.999 -252.999s-123.333 -138 -198 -188c-76.667 -51.333 -156.334 -90.333 -239.001 -117s-161 -40 -235 -40h-365l74 360h342
c90 0 171.833 13.667 245.5 41s129.834 66.333 168.501 117c-80.667 -8 -136.667 -12 -168 -12c-62 0 -115.667 8.83301 -161 26.5s-82 43.834 -110 78.501c-26.667 32.667 -44.167 71 -52.5 115s-7.16602 92 3.50098 144c24 114 79.5 212.833 166.5 296.5
s181.5 125.5 283.5 125.5c62.667 0 120.334 -14.5 173.001 -43.5s97.667 -73.167 135 -132.5zM853.997 779.999c3.33301 54 -10.666 102.669 -41.999 146.002s-65.333 65 -102 65c-32 0 -60.333 -11.833 -85 -35.5s-40.334 -50.834 -47.001 -81.501
c-6 -30 0.833008 -55.167 20.5 -75.5s49.167 -30.5 88.5 -30.5c25.333 0 57.5 1.16699 96.5 3.5s62.5 5.16602 70.5 8.49902zM826.998 1533h-148l30 148h148z" />
    <glyph glyph-name="afii62809" unicode="&#x641;" horiz-adv-x="1171" arabic-form="medial" 
d="M1212 0l-180.002 -0.00195312c-47.333 0 -91.5 5.16699 -132.5 15.5s-78.833 23.5 -113.5 39.5c-34.667 16.667 -65.334 33.667 -92.001 51s-52.334 35.333 -77.001 54l-96 -53c-30 -16.667 -68.667 -34 -116 -52s-89.833 -31.667 -127.5 -41s-84.5 -14 -140.5 -14h-178
l74 360h104c55.333 0 107.833 4.5 157.5 13.5s67.334 21.5 53.001 37.5s-27.5 44.667 -39.5 86s-12.333 90 -1 146c11.333 55.333 30.833 104.833 58.5 148.5s62.834 82.834 105.501 117.501c42 32.667 90.667 58.334 146 77.001s114.333 28 177 28c128 0 221 -36 279 -108
s75 -165.667 51 -281c-9.33301 -46 -29.166 -89.5 -59.499 -130.5s-65.5 -76.833 -105.5 -107.5c25.333 -6 48 -10.667 68 -14c24 -3.33301 47.333 -6.33301 70 -9s50.334 -4 83.001 -4h106zM845.998 611.998c6 30 -1 56.666 -21 79.999s-49.333 35 -88 35
c-44 0 -80 -11.833 -108 -35.5s-45 -50.167 -51 -79.5c-5.33301 -25.333 5.16699 -50.333 31.5 -75s52.5 -42.667 78.5 -54c38 16 72.667 35.833 104 59.5s49.333 46.834 54 69.501zM909.998 1255h-148l30 148h148z" />
    <glyph glyph-name="afii62813" unicode="&#x642;" horiz-adv-x="2165" arabic-form="final" 
d="M1781 383c10 90 3.66797 161.667 -18.999 215s-51.334 80 -86.001 80c-36.667 0 -70.167 -14.333 -100.5 -43s-49.833 -63 -58.5 -103c-8 -40 14.5 -73.667 67.5 -101s118.5 -43.333 196.5 -48zM1949 16c-61.333 -91.333 -128.33 -165.835 -200.997 -223.502
s-154.334 -102.5 -245.001 -134.5c-86 -30.667 -182.167 -52 -288.5 -64s-226.833 -18 -361.5 -18c-268.667 0 -461.834 50.333 -579.501 151s-156.5 247 -116.5 439c16 76.667 35.167 142.667 57.5 198s35.166 86.333 38.499 93h266l-2 -8c-6 -14 -18 -47.667 -36 -101
s-33 -110 -45 -170c-16 -75.333 19 -134 105 -176s216 -63 390 -63c124 0 232 6.66699 324 20s167.667 28 227 44c64 18 108.333 32.667 133 44s39.334 18.333 44.001 21c-163.333 18.667 -280.333 70.334 -351 155.001s-93.667 185.667 -69 303
c25.333 122.667 86.833 228.834 184.5 318.501s202.167 134.5 313.5 134.5c119.333 0 210.833 -54 274.5 -162s83.5 -258 59.5 -450c6 -1.33301 29 -2.83301 69 -4.5s70.333 -2.5 91 -2.5h49l-74 -360h-45c-36.667 0 -77.334 2 -122.001 6s-74.667 7.33301 -90 10z
M1644 1221h-148l30 148h148zM1912 1221h-148l30 148h148z" />
    <glyph glyph-name="afii62811" unicode="&#x642;" horiz-adv-x="1110" arabic-form="initial" 
d="M1059 1116c36 -61.333 59.3301 -135.334 69.9971 -222.001s4.66699 -185.334 -18 -296.001c-19.333 -93.333 -57.666 -177.666 -114.999 -252.999s-123.333 -138 -198 -188c-76.667 -51.333 -156.334 -90.333 -239.001 -117s-161 -40 -235 -40h-365l74 360h342
c90 0 171.833 13.667 245.5 41s129.834 66.333 168.501 117c-80.667 -8 -136.667 -12 -168 -12c-62 0 -115.667 8.83301 -161 26.5s-82 43.834 -110 78.501c-26.667 32.667 -44.167 71 -52.5 115s-7.16602 92 3.50098 144c24 114 79.5 212.833 166.5 296.5
s181.5 125.5 283.5 125.5c62.667 0 120.334 -14.5 173.001 -43.5s97.667 -73.167 135 -132.5zM853.997 779.999c3.33301 54 -10.666 102.669 -41.999 146.002s-65.333 65 -102 65c-32 0 -60.333 -11.833 -85 -35.5s-40.334 -50.834 -47.001 -81.501
c-6 -30 0.833008 -55.167 20.5 -75.5s49.167 -30.5 88.5 -30.5c25.333 0 57.5 1.16699 96.5 3.5s62.5 5.16602 70.5 8.49902zM684.998 1534h-148l30 148h148zM952.998 1534h-148l30 148h148z" />
    <glyph glyph-name="afii62812" unicode="&#x642;" horiz-adv-x="1171" arabic-form="medial" 
d="M1212 0l-180.002 -0.00195312c-47.333 0 -91.5 5.16699 -132.5 15.5s-78.833 23.5 -113.5 39.5c-34.667 16.667 -65.334 33.667 -92.001 51s-52.334 35.333 -77.001 54l-96 -53c-30 -16.667 -68.667 -34 -116 -52s-89.833 -31.667 -127.5 -41s-84.5 -14 -140.5 -14h-178
l74 360h104c55.333 0 107.833 4.5 157.5 13.5s67.334 21.5 53.001 37.5s-27.5 44.667 -39.5 86s-12.333 90 -1 146c11.333 55.333 30.833 104.833 58.5 148.5s62.834 82.834 105.501 117.501c42 32.667 90.667 58.334 146 77.001s114.333 28 177 28c128 0 221 -36 279 -108
s75 -165.667 51 -281c-9.33301 -46 -29.166 -89.5 -59.499 -130.5s-65.5 -76.833 -105.5 -107.5c25.333 -6 48 -10.667 68 -14c24 -3.33301 47.333 -6.33301 70 -9s50.334 -4 83.001 -4h106zM845.998 611.998c6 30 -1 56.666 -21 79.999s-49.333 35 -88 35
c-44 0 -80 -11.833 -108 -35.5s-45 -50.167 -51 -79.5c-5.33301 -25.333 5.16699 -50.333 31.5 -75s52.5 -42.667 78.5 -54c38 16 72.667 35.833 104 59.5s49.333 46.834 54 69.501zM758.998 1202h-148l30 148h148zM1027 1202h-148l30 148h148z" />
    <glyph glyph-name="afii62816" unicode="&#x643;" horiz-adv-x="1843" arabic-form="final" 
d="M1745 0c-71.333 0 -130.498 15 -177.498 45s-77.5 64 -91.5 102c-30 -38.667 -74 -72.834 -132 -102.501s-123 -44.5 -195 -44.5h-563c-66 0 -125.833 5.83301 -179.5 17.5s-97.5 31.5 -131.5 59.5c-36.667 28.667 -61.834 68.667 -75.501 120s-11.834 118 5.49902 200
c10 49.333 21.667 94.333 35 135s21.333 64.667 24 72h271l-2 -8c-1.33301 -3.33301 -7 -21.166 -17 -53.499s-17.333 -59.5 -22 -81.5c-6.66699 -32.667 3.66602 -57.667 30.999 -75s72.333 -26 135 -26h518c60 0 113.333 21.333 160 64s77.667 100.667 93 174l199 956h278
l-199 -956c-15.333 -74.667 -8.66602 -133 20.001 -175s73.667 -63 135 -63h94l-74 -360h-139zM1193 903c-11.333 -56.667 -54.1641 -101.833 -128.497 -135.5s-165.166 -50.5 -272.499 -50.5l19 94c77.333 0 143.166 7 197.499 21s84.166 34.333 89.499 61
c2.66699 12 -1.66602 22 -12.999 30s-28.333 15 -51 21l-72 19c-34 8 -59.333 23 -76 45s-21.334 51.333 -14.001 88c10 46.667 41.167 84.5 93.5 113.5s122.5 43.5 210.5 43.5l-19 -90c-62 0 -109.167 -5.83301 -141.5 -17.5s-50.5 -27.5 -54.5 -47.5
c-2.66699 -12 1.66602 -22.5 12.999 -31.5s28.666 -16.167 51.999 -21.5l79 -21c28.667 -6.66699 52.5 -19 71.5 -37s24.5 -46 16.5 -84z" />
    <glyph glyph-name="afii57410" unicode="&#x643;" horiz-adv-x="1139" arabic-form="initial" 
d="M1346 1288l-633.999 -193.998c-38 -11.333 -66 -22.833 -84 -34.5s-28 -22.167 -30 -31.5c-2.66699 -12 6 -27.333 26 -46s45 -39.334 75 -62.001l221 -168c60.667 -46.667 103 -96.5 127 -149.5s28.667 -115.833 14 -188.5c-26 -124 -86.333 -224 -181 -300
s-203 -114 -325 -114h-596l74 360h604c46 0 84.667 8.16699 116 24.5s49.333 36.166 54 59.499c4 19.333 -2.5 40.333 -19.5 63s-46.833 51 -89.5 85l-243 190c-72 54.667 -118 101 -138 139s-25.333 79 -16 123c11.333 55.333 45.666 107.333 102.999 156
s133.333 89 228 121l776 266z" />
    <glyph glyph-name="afii62815" unicode="&#x643;" horiz-adv-x="1225" arabic-form="medial" 
d="M1266 0l-196.998 0.00195312c-51.333 0 -97.166 7.33301 -137.499 22s-72.5 34 -96.5 58c-42.667 -26.667 -86 -46.667 -130 -60s-94 -20 -150 -20h-596l74 360h604c46 0 84.667 8.16699 116 24.5s49.333 36.166 54 59.499c4 19.333 -2.5 40.333 -19.5 63
s-46.833 51 -89.5 85l-243 190c-72 54.667 -118 101 -138 139s-25.333 79 -16 123c11.333 55.333 45.666 107.333 102.999 156s133.333 89 228 121l776 266l-62 -299l-634 -194c-38 -11.333 -66 -22.833 -84 -34.5s-28 -22.167 -30 -31.5c-2.66699 -12 6 -27.333 26 -46
s45 -39.334 75 -62.001l221 -168c60.667 -46.667 103 -96.5 127 -149.5s28.667 -115.833 14 -188.5c15.333 -18 33.166 -31.5 53.499 -40.5s44.166 -13.5 71.499 -13.5h154z" />
    <glyph glyph-name="afii62819" unicode="&#x644;" horiz-adv-x="1675" arabic-form="final" 
d="M1716 0l-138.996 0.00292969c-38.667 0 -72.167 3.66699 -100.5 11s-46.833 14.666 -55.5 21.999c-42.667 -146 -131.334 -258.667 -266.001 -338s-307.667 -119 -519 -119c-218.667 0 -365.334 39.667 -440.001 119s-92.334 214.333 -53.001 405
c15.333 71.333 35.666 144.166 60.999 218.499s39 114.166 41 119.499h272l-2 -8l-42.5 -133c-23.667 -74.667 -41.167 -139.667 -52.5 -195c-12.667 -60.667 5 -103.334 53 -128.001s128 -37 240 -37c134 0 239.667 16.333 317 49s122 78.334 134 137.001l298 1431h278
l-199 -956c-14.667 -70.667 -8.5 -128 18.5 -172s72.5 -66 136.5 -66h94z" />
    <glyph glyph-name="afii62817" unicode="&#x644;" horiz-adv-x="698" arabic-form="initial" 
d="M661 598c-36.667 -175.333 -105.333 -318.833 -206 -430.5s-219.667 -167.5 -357 -167.5h-139l74 360h94c28 0 55.5 4.83301 82.5 14.5s51.5 24.167 73.5 43.5c24.667 21.333 45 45.833 61 73.5s28.667 63.167 38 106.5l199 956h279z" />
    <glyph glyph-name="afii62818" unicode="&#x644;" horiz-adv-x="797" arabic-form="medial" 
d="M834 0l-140.001 -0.000976562c-70.667 0 -129.667 15 -177 45s-78 64 -92 102c-37.333 -45.333 -84.166 -81.166 -140.499 -107.499s-118.5 -39.5 -186.5 -39.5h-139l74 360h94c59.333 0 112.333 20.5 159 61.5s78 99.833 94 176.5l199 956h279l-199 -956
c-14.667 -71.333 -8.66699 -128.833 18 -172.5s72 -65.5 136 -65.5h95z" />
    <glyph glyph-name="afii62822" unicode="&#x645;" horiz-adv-x="1511" arabic-form="final" 
d="M1552 0l-41.001 -0.00195312c-59.333 0 -110.833 17.333 -154.5 52s-82.167 80 -115.5 136c-48 -63.333 -106.667 -113.166 -176 -149.499s-143 -54.5 -221 -54.5c-55.333 0 -108.666 10.333 -159.999 31s-95 50.334 -131 89.001
c-94.667 -155.333 -205.167 -274.833 -331.5 -358.5s-272.5 -140.167 -438.5 -169.5l75 358c75.333 14 143.5 31.833 204.5 53.5s115.5 53.5 163.5 95.5c49.333 42.667 94 97.834 134 165.501s78 157.5 114 269.5c44 138.667 106.5 244.334 187.5 317.001
s183.167 109.667 306.5 111c88 1.33301 164 -17.834 228 -57.501s113 -108.5 147 -206.5c16.667 -46.667 34.167 -91.834 52.5 -135.501s35.5 -77.834 51.5 -102.501c20 -29.333 41.5 -50.666 64.5 -63.999s49.167 -20 78.5 -20h36zM1080 466.998
c10 48 -1.33203 89.332 -33.999 123.999s-75 52 -127 52c-40 0 -76.333 -14.167 -109 -42.5s-53.334 -62.5 -62.001 -102.5c-8.66699 -41.333 2.33301 -77.666 33 -108.999s72.667 -47 126 -47c44 0 81.833 11.333 113.5 34s51.5 53 59.5 91z" />
    <glyph glyph-name="afii62820" unicode="&#x645;" horiz-adv-x="1221" arabic-form="initial" 
d="M1186 426c-26.667 -128.667 -88.165 -234.499 -184.498 -317.499s-203.5 -124.5 -321.5 -124.5c-58.667 0 -112.5 10.167 -161.5 30.5s-90.833 48.833 -125.5 85.5c-46.667 -33.333 -94.334 -58.333 -143.001 -75s-106 -25 -172 -25h-119l74 360h123
c44.667 0 78.667 15.833 102 47.5s40.666 68.5 51.999 110.5c32.667 126 94 228.833 184 308.5s193.333 119.5 310 119.5c64 0 123.167 -12.333 177.5 -37s98.5 -58.667 132.5 -102c36.667 -44 62 -98.333 76 -163s12.667 -137.334 -4 -218.001zM916.002 467.001
c10 48.667 -1.49805 90.166 -34.498 124.499s-74.833 51.5 -125.5 51.5c-40.667 0 -77.334 -14.167 -110.001 -42.5s-53.334 -62.5 -62.001 -102.5c-8.66699 -41.333 2.33301 -77.666 33 -108.999s72.667 -47 126 -47c44 0 81.833 11.333 113.5 34s51.5 53 59.5 91z" />
    <glyph glyph-name="afii62821" unicode="&#x645;" horiz-adv-x="1350" arabic-form="medial" 
d="M1389 0l-40.999 0.000976562c-60 0 -111.667 17 -155 51s-82 79.667 -116 137c-48 -63.333 -106.667 -113.166 -176 -149.499s-143 -54.5 -221 -54.5c-58.667 0 -112.5 10.167 -161.5 30.5s-90.833 48.833 -125.5 85.5c-46.667 -33.333 -94.334 -58.333 -143.001 -75
s-106 -25 -172 -25h-119l74 360h123c36.667 0 67.5 12.167 92.5 36.5s45.5 64.833 61.5 121.5c32.667 126 94 228.833 184 308.5s193.333 119.5 310 119.5c99.333 0 179 -21.833 239 -65.5s105.333 -109.834 136 -198.501c16.667 -46.667 34.167 -91.834 52.5 -135.501
s35.5 -77.834 51.5 -102.501c20 -29.333 41.5 -50.666 64.5 -63.999s49.167 -20 78.5 -20h37zM916.001 467.001c10 48.667 -1.49805 90.166 -34.498 124.499s-74.833 51.5 -125.5 51.5c-40.667 0 -77.334 -14.167 -110.001 -42.5s-53.334 -62.5 -62.001 -102.5
c-8.66699 -41.333 2.33301 -77.666 33 -108.999s72.667 -47 126 -47c44 0 81.833 11.333 113.5 34s51.5 53 59.5 91z" />
    <glyph glyph-name="afii62825" unicode="&#x646;" horiz-adv-x="1729" arabic-form="final" 
d="M1769 0l-226.997 -0.00195312c-13.333 0 -26.833 0.833008 -40.5 2.5s-28.834 4.83398 -45.501 9.50098c-57.333 -136 -152.833 -242.667 -286.5 -320s-287.5 -116 -461.5 -116c-96.667 0 -184 11.167 -262 33.5s-141.667 58.5 -191 108.5
c-50 50.667 -83.333 116 -100 196s-13.334 177 9.99902 291c18.667 90.667 41.5 173 68.5 247s42.167 115 45.5 123h282l-2 -8c-15.333 -33.333 -35.833 -87.666 -61.5 -162.999s-44.5 -142.333 -56.5 -201c-18 -86 2.66699 -151.5 62 -196.5s151.666 -67.5 276.999 -67.5
c124 0 226 21.5 306 64.5s129.333 109.5 148 199.5c17.333 84 29.5 159.333 36.5 226s9.5 112.667 7.5 138l2 8h309c-16 -76 -16.5 -130.833 -1.5 -164.5s39.5 -50.5 73.5 -50.5h182zM1039 816.998h-147l31 148h147z" />
    <glyph glyph-name="afii62823" unicode="&#x646;" horiz-adv-x="698" arabic-form="initial" 
d="M661 598c-38 -183.333 -108.332 -328.833 -210.999 -436.5s-220 -161.5 -352 -161.5h-139l74 360h94c62 0 116.167 21 162.5 63s77.166 100.333 92.499 175l61 293h279zM649.001 1135h-148l30 148h148z" />
    <glyph glyph-name="afii62824" unicode="&#x646;" horiz-adv-x="793" arabic-form="medial" 
d="M834 0l-140.001 -0.000976562c-70.667 0 -129.667 15 -177 45s-78 64 -92 102c-37.333 -45.333 -84.166 -81.166 -140.499 -107.499s-118.5 -39.5 -186.5 -39.5h-139l74 360h94c59.333 0 112.333 20.5 159 61.5s78 99.833 94 176.5l25 123h279l-25 -123
c-14.667 -71.333 -8.66699 -128.833 18 -172.5s72 -65.5 136 -65.5h95zM664.999 962.999h-148l30 148h148z" />
    <glyph glyph-name="afii62828" unicode="&#x647;" horiz-adv-x="1362" arabic-form="final" 
d="M1403 0l-137.002 -0.00195312c-61.333 0 -113.166 10.833 -155.499 32.5s-76.833 50.5 -103.5 86.5s-46.167 76.333 -58.5 121s-20.166 92.334 -23.499 143.001c-46.667 -35.333 -102.5 -64 -167.5 -86s-123.5 -33 -175.5 -33c-126 0 -218.667 38.333 -278 115
s-76.333 175.667 -51 297c16 76 47.167 143.833 93.5 203.5s105.833 110.834 178.5 153.501c72 41.333 155.5 73.333 250.5 96s198.833 36.667 311.5 42l263 13l-122 -586c-16 -76 -9 -134.667 21 -176s74 -62 132 -62h96zM958.998 644.998l49.999 239.999
c-131.333 -11.333 -235.666 -32.666 -312.999 -63.999s-122.666 -79 -135.999 -143c-6 -30.667 1.5 -56.5 22.5 -77.5s50.5 -31.5 88.5 -31.5c51.333 0 104.666 8.33301 159.999 25s98 33.667 128 51z" />
    <glyph glyph-name="afii57470" unicode="&#x647;" horiz-adv-x="1593" arabic-form="initial" 
d="M698 1360l237 0.000976562c180 0 341 -96.833 483 -290.5s191.333 -395.834 148 -606.501c-30 -144.667 -95.167 -258 -195.5 -340s-223.5 -123 -369.5 -123h-1042l74 360h234c-8.66699 31.333 -8 71 2 119c28 134 87.833 241 179.5 321s199.834 120 324.501 120
c124 0 215.5 -40.167 274.5 -120.5s74.5 -187.166 46.5 -320.499c-8.66699 -40.667 -23.667 -80.334 -45 -119.001h117c32 0 59 9.16699 81 27.5s36 42.833 42 73.5c34 162.667 4.16699 303 -89.5 421s-201.834 177 -324.501 177h-239zM658 360.001
c41.333 0 76.502 10.833 105.502 32.5s47.167 50.5 54.5 86.5c8 38 2.16699 70.667 -17.5 98s-49.834 41 -90.501 41c-42 0 -77.833 -13.167 -107.5 -39.5s-48.834 -59.5 -57.501 -99.5c-7.33301 -35.333 -1 -64 19 -86s51.333 -33 94 -33z" />
    <glyph glyph-name="afii62827" unicode="&#x647;" horiz-adv-x="1186" arabic-form="medial" 
d="M1227 0l-50.999 0.000976562c-118 0 -235.167 -37 -351.5 -111s-222.833 -178.333 -319.5 -313h-397l93 447c-80.667 -15.333 -149 -23 -205 -23h-37l74 360h61c54 0 113.667 2.33301 179 7l30 145c30 143.333 88.833 258.666 176.5 345.999s184.5 131 290.5 131
c96.667 0 172 -34.667 226 -104s70 -156 48 -260c-20.667 -100.667 -82.334 -198 -185.001 -292s-225.667 -168 -369 -222l-45 -215c121.333 142 254 254.833 398 338.5s277.333 125.5 400 125.5h58zM553.001 416.001c59.333 14.667 108.333 40.334 147 77.001
s63 77.667 73 123c12.667 62 -5 93 -53 93c-33.333 0 -62.833 -16.833 -88.5 -50.5s-44.5 -79.834 -56.5 -138.501z" />
    <glyph glyph-name="afii62829" unicode="&#x648;" horiz-adv-x="1157" arabic-form="final" 
d="M773 383c10 90.667 3.83301 162.5 -18.5 215.5s-51.166 79.5 -86.499 79.5c-36 0 -69.333 -14.333 -100 -43s-50.334 -63 -59.001 -103c-8 -40 14.5 -73.667 67.5 -101s118.5 -43.333 196.5 -48zM1198 0l-45 -0.000976562c-36.667 0 -78.667 2.33301 -126 7
s-76 7.66699 -86 9c-60.667 -90.667 -137.167 -165.167 -229.5 -223.5s-189.166 -103.166 -290.499 -134.499c-100.667 -31.333 -200 -52.833 -298 -64.5s-189.333 -17.5 -274 -17.5l72 344c123.333 0 232 7.83301 326 23.5s169 32.5 225 50.5
c65.333 20.667 110.166 37.5 134.499 50.5s39.166 20.833 44.499 23.5c-163.333 18.667 -280.166 70.167 -350.499 154.5s-93.166 185.5 -68.499 303.5c26 124 87.667 230.5 185 319.5s201.333 133.5 312 133.5c124 0 216.833 -57 278.5 -171s80.167 -261 55.5 -441
c10.667 -1.33301 35.667 -2.83301 75 -4.5s67.666 -2.5 84.999 -2.5h49z" />
    <glyph glyph-name="afii62830" unicode="&#x649;" horiz-adv-x="2247" arabic-form="final" 
d="M2288 0l-98.999 0.000976562c-35.333 0 -67.5 9.33301 -96.5 28s-55.833 42.667 -80.5 72c-24 30.667 -47 66 -69 106l-61 115l-58.5 118c-19.667 38.667 -40.5 73 -62.5 103c-22 31.333 -45.333 56 -70 74s-51.667 27 -81 27c-34.667 0 -67.167 -11 -97.5 -33
s-47.5 -43 -51.5 -63c-4 -21.333 10.5 -46.333 43.5 -75l94.5 -82c47.333 -40.667 81.333 -80.334 102 -119.001s27 -77 19 -115c-30.667 -148.667 -130.834 -266.5 -300.501 -353.5s-391.5 -130.5 -665.5 -130.5c-242.667 0 -410.834 44.167 -504.501 132.5
s-121.5 222.5 -83.5 402.5c14.667 73.333 32.667 142.5 54 207.5s36.666 107.167 45.999 126.5h274l-2 -11c-6 -14.667 -19.167 -52.167 -39.5 -112.5s-38.5 -129.833 -54.5 -208.5c-12.667 -59.333 8.33301 -103.5 63 -132.5s162.667 -43.5 324 -43.5
c194.667 0 342.834 10.5 444.501 31.5s156.834 52.167 165.501 93.5c6.66699 30 -5.66602 59 -36.999 87s-64 55.333 -98 82c-36.667 29.333 -68.834 61.833 -96.501 97.5s-36.5 77.167 -26.5 124.5c20 96 77.5 181 172.5 255s198.833 111 311.5 111
c45.333 0 85 -8.33301 119 -25s64.333 -37.334 91 -62.001c30 -28 55.833 -59 77.5 -93s41.5 -66.667 59.5 -98l56.5 -101.5c18.333 -33.667 36.833 -63.167 55.5 -88.5c20.667 -27.333 41 -48.666 61 -63.999s44 -23 72 -23h103z" />
    <glyph glyph-name="afii62833" unicode="&#x64a;" horiz-adv-x="2345" arabic-form="final" 
d="M2386 0l-97.9951 0.000976562c-44 0 -83 11.667 -117 35s-64.333 54.666 -91 93.999c-24 35.333 -47.333 79.333 -70 132s-43 102.667 -61 150l-58.5 149.5c-22.333 56.333 -43.5 100.833 -63.5 133.5c-24.667 40 -50.834 71.5 -78.501 94.5s-61.167 34.5 -100.5 34.5
c-34.667 0 -67.167 -11 -97.5 -33s-47.5 -43 -51.5 -63c-4.66699 -21.333 9.66602 -47.333 42.999 -78l86 -79c53.333 -51.333 87.166 -94.833 101.499 -130.5s17.833 -70.167 10.5 -103.5c-13.333 -64 -42 -126 -86 -186s-103.667 -111.333 -179 -154
c-81.333 -46 -178.333 -81.333 -291 -106s-243.334 -37 -392.001 -37c-245.333 0 -414.166 44 -506.499 132s-119.833 222 -82.5 402c18 87.333 37.833 162.166 59.5 224.499s35.167 98.833 40.5 109.5h274l-2 -10c-4 -10 -16.5 -46.167 -37.5 -108.5
s-39.833 -133.5 -56.5 -213.5c-7.33301 -36 -3.16602 -65.5 12.501 -88.5s40.5 -40.833 74.5 -53.5s76.333 -21.5 127 -26.5s108.667 -7.5 174 -7.5c194.667 0 340.167 10.5 436.5 31.5s148.833 52.167 157.5 93.5c5.33301 27.333 -3.83398 54 -27.501 80
s-56.834 56 -99.501 90c-50 40.667 -83.833 78.334 -101.5 113.001s-22.5 70.667 -14.5 108c9.33301 46 28.333 90.667 57 134s65 82.666 109 117.999c41.333 33.333 90.166 60.833 146.499 82.5s113.5 32.5 171.5 32.5c52 0 98 -10.667 138 -32s75 -49 105 -83
c30 -33.333 57.333 -72.666 82 -117.999s46.667 -90.333 66 -135l55.5 -129c21 -50 41.167 -91.333 60.5 -124c21.333 -38 44 -66.667 68 -86s50.333 -29 79 -29h102zM503.005 -275.999h148l-31 -148h-148zM771.005 -275.999h148l-31 -148h-148z" />
    <glyph glyph-name="afii62831" unicode="&#x64a;" horiz-adv-x="698" arabic-form="initial" 
d="M661 598c-38 -183.333 -108.332 -328.833 -210.999 -436.5s-220 -161.5 -352 -161.5h-139l74 360h94c62 0 116.167 21 162.5 63s77.166 100.333 92.499 175l61 293h279zM70.001 -294h-148l30 148h148zM338.001 -294h-148l30 148h148z" />
    <glyph glyph-name="afii62832" unicode="&#x64a;" horiz-adv-x="793" arabic-form="medial" 
d="M834 0l-140.001 -0.000976562c-70.667 0 -129.667 15 -177 45s-78 64 -92 102c-37.333 -45.333 -84.166 -81.166 -140.499 -107.499s-118.5 -39.5 -186.5 -39.5h-139l74 360h94c59.333 0 112.333 20.5 159 61.5s78 99.833 94 176.5l25 123h279l-25 -123
c-14.667 -71.333 -8.66699 -128.833 18 -172.5s72 -65.5 136 -65.5h95zM202.999 -294.001h-148l30 148h148zM470.999 -294.001h-148l30 148h148z" />
    <glyph glyph-name=".notdef" horiz-adv-x="2048" 
d="M256 0l319 1536h1536l-319 -1536h-1536zM410 128h1280l266 1280h-1280z" />
    <glyph glyph-name="space" unicode=" " horiz-adv-x="600" 
 />
    <glyph glyph-name="space" unicode="&#xa0;" horiz-adv-x="600" 
 />
    <glyph glyph-name="exclam" unicode="!" horiz-adv-x="702" 
d="M859 1489l-261 -1060h-316l179 1060h398zM548 0h-394l54 264h394z" />
    <glyph glyph-name="quotedbl" unicode="&#x22;" horiz-adv-x="1002" 
d="M1197 1556l-182 -589h-206l62 589h326zM776 1556l-182 -589h-206l62 589h326z" />
    <glyph glyph-name="numbersign" unicode="#" horiz-adv-x="1676" 
d="M1740 913h-304l-151 -328h271l-48 -230h-329l-163 -355h-232l162 355h-254l-162 -355h-235l162 355h-259l48 230h317l150 328h-282l48 230h339l159 346h236l-159 -346h253l159 346h236l-160 -346h246zM1206 915h-258l-153 -332h258z" />
    <glyph glyph-name="dollar" unicode="$" horiz-adv-x="1304" 
d="M1315 429c-12 -56 -34.832 -109.001 -68.499 -159.001s-75.167 -93.667 -124.5 -131c-49.333 -38 -107 -69.5 -173 -94.5s-137.333 -39.5 -214 -43.5l-76 -362h-164l75 357c-72 0.666992 -150.167 9.66699 -234.5 27s-149.5 39 -195.5 65l60 290h32
c28 -20.667 80.833 -44.5 158.5 -71.5s157.5 -42.167 239.5 -45.5l57 277l-84 22c-48.667 12.667 -94.5 28 -137.5 46s-79.833 42.667 -110.5 74c-30.667 30.667 -51.834 67.834 -63.501 111.501s-10.5 99.834 3.5 168.501c20.667 100 80.167 185.167 178.5 255.5
s223.833 112.833 376.5 127.5l48 233h164l-48 -231c60 -2 127.167 -10.833 201.5 -26.5s130.166 -32.5 167.499 -50.5l-60 -288h-32c-42 30 -90 53.667 -144 71s-118 28 -192 32l-53 -254l84 -19c132.667 -30 226.334 -73.833 281.001 -131.5s70.667 -140.834 48 -249.501z
M759.001 847.999l48 234.001c-38 -3.33301 -72.5 -14.333 -103.5 -33s-50.167 -45.667 -57.5 -81c-6 -28.667 -3 -52.334 9 -71.001s46.667 -35 104 -49zM953.001 390c6.66699 33.333 0.333008 60.667 -19 82s-54 37 -104 47l-53 -256c42.667 4 80.5 15.833 113.5 35.5
s53.833 50.167 62.5 91.5z" />
    <glyph glyph-name="percent" unicode="%" horiz-adv-x="2455" 
d="M1189 1036c-34.667 -165.333 -97.166 -288.166 -187.499 -368.499s-205.5 -120.5 -345.5 -120.5c-144 0 -244.333 40 -301 120s-68 201.667 -34 365s96.667 285.166 188 365.499s207.666 120.5 348.999 120.5c144 0 243.5 -40.167 298.5 -120.5
s65.833 -200.833 32.5 -361.5zM2057 1489l-1089 -1489h-264l1089 1489h264zM2441 458c-34.667 -165.333 -97.166 -288.166 -187.499 -368.499s-205.5 -120.5 -345.5 -120.5c-144 0 -244.333 40 -301 120s-68 201.667 -34 365s96.667 285.166 188 365.499
s207.666 120.5 348.999 120.5c144 0 243.5 -40.167 298.5 -120.5s65.833 -200.833 32.5 -361.5zM903.002 1033c8.66699 42 14.834 80.333 18.501 115s2.5 63.667 -3.5 87c-5.33301 23.333 -16.5 40.833 -33.5 52.5s-40.5 17.5 -70.5 17.5
c-32 0 -58.167 -5.83301 -78.5 -17.5s-38.833 -29.5 -55.5 -53.5c-14.667 -21.333 -27.667 -50.333 -39 -87s-21.333 -75 -30 -115c-10 -49.333 -16.667 -88.5 -20 -117.5s-2 -56.833 4 -83.5c5.33301 -23.333 16.5 -41.166 33.5 -53.499s40.833 -18.5 71.5 -18.5
c30 0 56 6 78 18s40.667 30 56 54c14 21.333 26.667 48.666 38 81.999s21.666 73.333 30.999 120zM2155 455c8.66699 42 14.834 80.333 18.501 115s2.5 63.667 -3.5 87s-17.333 40.833 -34 52.5s-40 17.5 -70 17.5c-32 0 -58.333 -5.83301 -79 -17.5s-39 -29.5 -55 -53.5
c-14.667 -21.333 -27.834 -50.333 -39.501 -87s-21.5 -75 -29.5 -115c-10 -49.333 -16.833 -88.5 -20.5 -117.5s-2.16699 -56.833 4.5 -83.5c5.33301 -23.333 16.5 -41.166 33.5 -53.499s40.833 -18.5 71.5 -18.5c30 0 56 6 78 18s40.667 30 56 54
c14 21.333 26.667 48.666 38 81.999s21.666 73.333 31 120z" />
    <glyph glyph-name="ampersand" unicode="&#x26;" horiz-adv-x="1600" 
d="M1658 0l-444.998 -0.000976562l-104 126c-82 -56.667 -162.167 -97 -240.5 -121s-157.5 -36 -237.5 -36c-172 0 -298.333 42.5 -379 127.5s-106.667 195.833 -78 332.5c12 58 30.167 107.667 54.5 149s52.5 78.666 84.5 111.999c30 31.333 63.167 58.833 99.5 82.5
s71.5 44.167 105.5 61.5c-24 22.667 -45 44.834 -63 66.501s-32.667 45.834 -44 72.501c-12 26 -19.5 54.167 -22.5 84.5s-0.166992 65.833 8.5 106.5c8.66699 43.333 26 85.666 52 126.999s62.667 79.666 110 114.999c44 32.667 101.667 59.834 173 81.501
s151.333 32.5 240 32.5c79.333 0 146.166 -8.33301 200.499 -25s98.166 -39 131.499 -67c32.667 -28 55 -61.833 67 -101.5s13.333 -82.5 4 -128.5c-6.66699 -29.333 -18.334 -62.666 -35.001 -99.999s-38.667 -71 -66 -101c-34 -36.667 -74.833 -69.5 -122.5 -98.5
s-105.5 -54.167 -173.5 -75.5l228 -276l67 322h349l-23 -111c-5.33301 -27.333 -15.166 -61.166 -29.499 -101.499s-29.166 -74.833 -44.499 -103.5c-16.667 -32.667 -37.334 -66.334 -62.001 -101.001s-54 -67.667 -88 -99l287 -333zM1005 1154
c7.33301 33.333 8.66699 60.333 4 81s-13 36.667 -25 48c-10 10.667 -22.5 17.334 -37.5 20.001s-26.833 4 -35.5 4c-10 0 -21.167 -1.33301 -33.5 -4s-27.5 -9.66699 -45.5 -21c-14 -8.66699 -27.667 -23 -41 -43s-23 -43.667 -29 -71
c-8 -39.333 -2.33301 -76.166 17 -110.499s48.333 -70.833 87 -109.5c38 29.333 68.667 60.666 92 93.999s39 70.666 47 111.999zM979.003 294.999l-321 378.998c-14 -15.333 -31.167 -40.5 -51.5 -75.5s-34.5 -71.833 -42.5 -110.5
c-9.33301 -44 -9.83301 -82.167 -1.5 -114.5s22.166 -59.166 41.499 -80.499c20 -21.333 43.667 -37.333 71 -48s56 -16 86 -16c41.333 0 78.833 4.83301 112.5 14.5s68.834 26.834 105.501 51.501z" />
    <glyph glyph-name="quotesingle" unicode="'" horiz-adv-x="564" 
d="M768 1556l-182 -589h-206l62 589h326z" />
    <glyph glyph-name="parenleft" unicode="(" horiz-adv-x="930" 
d="M764 -412l-367.002 0.00195312c-42.667 67.333 -79.667 136.666 -111 207.999s-55 148 -71 230c-15.333 76.667 -22.166 161.667 -20.499 255s12.834 190.333 33.501 291c23.333 110 53.333 209.667 90 299s77.667 171 123 245
c48.667 80.667 103.5 156.834 164.5 228.501s127.833 142.167 200.5 211.5h367l-6 -29c-64 -48.667 -127 -103.834 -189 -165.501s-122.333 -133.834 -181 -216.501c-56.667 -79.333 -107.5 -167.333 -152.5 -264s-79.167 -199.667 -102.5 -309
c-23.333 -114 -32.5 -217.333 -27.5 -310s19.5 -180.334 43.5 -263.001c24 -78.667 54.5 -150.167 91.5 -214.5s77.167 -120.166 120.5 -167.499z" />
    <glyph glyph-name="parenright" unicode=")" horiz-adv-x="930" 
d="M937 572c-20.667 -100.667 -49.499 -197.503 -86.499 -290.503s-79.167 -178.167 -126.5 -255.5c-50.667 -82 -106.334 -158.667 -167.001 -230s-126.334 -140.666 -197.001 -207.999h-366l6 29c62.667 47.333 126 103 190 167s123.667 135.667 179 215
c58.667 82.667 109.834 170.334 153.501 263.001s77.167 196 100.5 310c23.333 109.333 32.5 212.333 27.5 309s-19.167 184.667 -42.5 264c-25.333 82.667 -56 154.834 -92 216.501s-76 116.834 -120 165.501l6 29h367c43.333 -69.333 80.833 -139.833 112.5 -211.5
s55.167 -147.834 70.5 -228.501c13.333 -74 20 -155.667 20 -245s-11.667 -189 -35 -299z" />
    <glyph glyph-name="asterisk" unicode="*" horiz-adv-x="1304" 
d="M1312 861l-135 -152l-268 213l-61 -348h-200l76 338l-347 -204l-70 154l386 203l-299 205l132 154l262 -207l64 339h199l-76 -339l350 206l71 -154l-388 -203z" />
    <glyph glyph-name="plus" unicode="+" horiz-adv-x="1676" 
d="M1591 528h-512l-105 -508h-264l105 508h-512l54 258h512l106 508h264l-106 -508h512z" />
    <glyph glyph-name="comma" unicode="," horiz-adv-x="640" 
d="M639 393l-508 -763h-212l354 763h366z" />
    <glyph glyph-name="hyphen" unicode="-" horiz-adv-x="883" 
d="M987 518h-663l116 278h663z" />
    <glyph glyph-name="hyphen" unicode="&#xad;" horiz-adv-x="883" 
d="M987 518h-663l116 278h663z" />
    <glyph glyph-name="period" unicode="." horiz-adv-x="640" 
d="M497 0h-354l81 393h354z" />
    <glyph glyph-name="slash" unicode="/" horiz-adv-x="1182" 
d="M1321 1556l-984 -1880h-287l981 1880h290z" />
    <glyph glyph-name="zero" unicode="0" horiz-adv-x="1304" 
d="M1380 745c-26.667 -128.667 -60.3291 -241.33 -100.996 -337.997s-90.334 -177.334 -149.001 -242.001s-127.834 -113.5 -207.501 -146.5s-172.167 -49.5 -277.5 -49.5c-104.667 0 -189.834 16.5 -255.501 49.5s-114.834 82.5 -147.501 148.5
c-31.333 65.333 -47.5 145.833 -48.5 241.5s11.833 207.5 38.5 335.5c27.333 132 61 244.667 101 338s90.667 173.666 152 240.999c60 66 130 115.167 210 147.5s170.667 48.5 272 48.5c107.333 0 193.333 -16.833 258 -50.5s113.334 -83.834 146.001 -150.501
c31.333 -65.333 47.166 -146 47.499 -242s-12.5 -206.333 -38.5 -331zM1005 745.004c38.667 184 50.501 313.165 35.501 387.498s-58.5 111.5 -130.5 111.5c-71.333 0 -130 -37.167 -176 -111.5s-88.333 -204.166 -127 -389.499c-38 -181.333 -49.5 -309.833 -34.5 -385.5
s58.167 -113.5 129.5 -113.5s130.166 37.833 176.499 113.5s88.5 204.834 126.5 387.501z" />
    <glyph glyph-name="one" unicode="1" horiz-adv-x="1304" 
d="M1179 0h-984l54 260h314l163 787h-314l51 243c46 0 92.167 3 138.5 9s84.833 15.667 115.5 29c35.333 16 64.5 37.5 87.5 64.5s40.167 60.5 51.5 100.5h326l-256 -1233h307z" />
    <glyph glyph-name="two" unicode="2" horiz-adv-x="1304" 
d="M1245 0l-1094 0.000976562l50 243c108 73.333 205.667 142.666 293 207.999s165 127.333 233 186c88.667 76.667 155.334 144 200.001 202s73.334 117.667 86.001 179c14.667 69.333 5.16699 122.5 -28.5 159.5s-87.5 55.5 -161.5 55.5
c-38 0 -74.833 -4.66699 -110.5 -14s-72.5 -21.333 -110.5 -36c-36.667 -15.333 -68.667 -31 -96 -47l-62 -36h-29l68 325c46 20 115.833 40.5 209.5 61.5s181.834 31.5 264.501 31.5c176.667 0 302.334 -39.333 377.001 -118s97.334 -189.334 68.001 -332.001
c-18.667 -88 -57.334 -174.167 -116.001 -258.5s-146.334 -174.833 -263.001 -271.5c-72 -59.333 -141.167 -112.166 -207.5 -158.499l-143.5 -98.5h631z" />
    <glyph glyph-name="three" unicode="3" horiz-adv-x="1304" 
d="M1301 451c-14.667 -72.667 -41.832 -139 -81.499 -199s-89.834 -111 -150.501 -153c-61.333 -42 -129.833 -74.167 -205.5 -96.5s-164.5 -33.5 -266.5 -33.5c-116 0 -213.5 9.66699 -292.5 29s-141.833 41 -188.5 65l67 323h36
c47.333 -34.667 105.166 -64.667 173.499 -90s132.833 -38 193.5 -38c36 0 75.833 3.16699 119.5 9.5s82.167 20.166 115.5 41.499c26 16.667 48.333 37.167 67 61.5s32.667 58.833 42 103.5c9.33301 44 6.83301 77.833 -7.5 101.5s-36.5 40.834 -66.5 51.501
c-30 11.333 -67.167 17.666 -111.5 18.999s-83.5 2 -117.5 2h-64l55 262h59c45.333 0 87.333 2 126 6s72.667 12 102 24c29.333 12.667 53.833 30.334 73.5 53.001s33.5 53.334 41.5 92.001c6 30 4 54.5 -6 73.5s-24 33.833 -42 44.5c-22 12 -48.5 20 -79.5 24
s-57.833 6 -80.5 6c-36.667 0 -75 -4.33301 -115 -13s-79.333 -19.667 -118 -33c-30 -10.667 -62.167 -24.5 -96.5 -41.5s-59.5 -29.833 -75.5 -38.5h-31l66 319c56 22 129.667 43.167 221 63.5s182.333 30.5 273 30.5c88.667 0 163.834 -7.66699 225.501 -23
s112.5 -37.666 152.5 -66.999c44 -31.333 73.667 -71.166 89 -119.499s16.666 -102.833 3.99902 -163.5c-17.333 -84.667 -57.166 -158.834 -119.499 -222.501s-135.5 -104.834 -219.5 -123.501l-3 -14c34 -5.33301 66.667 -14.333 98 -27s60 -33.334 86 -62.001
c24.667 -26 42.5 -59.5 53.5 -100.5s10.5 -89.833 -1.5 -146.5z" />
    <glyph glyph-name="four" unicode="4" horiz-adv-x="1304" 
d="M1334 347h-201l-73 -351h-361l73 351h-655l57 278l823 864h373l-182 -874h201zM827 615l106 507l-483 -507h377z" />
    <glyph glyph-name="five" unicode="5" horiz-adv-x="1304" 
d="M1315 504c-16 -77.333 -44.0039 -148.998 -84.0039 -214.998s-91.333 -123 -154 -171c-62 -47.333 -131.5 -84 -208.5 -110s-167.833 -39 -272.5 -39c-110.667 0.666992 -203.834 10.167 -279.501 28.5s-137.167 38.833 -184.5 61.5l67 325h34l56 -36
c20.667 -13.333 48.334 -27.333 83.001 -42c32.667 -14 66.167 -25.5 100.5 -34.5s73.833 -13.5 118.5 -13.5c38.667 0 81.334 4.83301 128.001 14.5s86.334 27.167 119.001 52.5c24 20 44.333 42.333 61 67s29.334 57.667 38.001 99c6.66699 34.667 5.5 64.5 -3.5 89.5
s-23.5 45.167 -43.5 60.5c-29.333 22.667 -67.333 37.167 -114 43.5s-87.334 9.5 -122.001 9.5c-54.667 0 -108.834 -4.33301 -162.501 -13s-100.5 -18 -140.5 -28h-32l174 836h986l-58 -281h-633l-52 -248c20.667 1.33301 44.834 2.5 72.501 3.5s49.167 1.5 64.5 1.5
c71.333 0 135.833 -7.16699 193.5 -21.5s106.834 -36.5 147.501 -66.5c48.667 -36.667 82.334 -85.834 101.001 -147.501s18.667 -136.834 0 -225.501z" />
    <glyph glyph-name="six" unicode="6" horiz-adv-x="1304" 
d="M1341 507c-32.667 -156.667 -109.166 -285.501 -229.499 -386.501s-267.166 -151.5 -440.499 -151.5c-86.667 0 -161.334 12.5 -224.001 37.5s-112.667 61.833 -150 110.5c-44.667 57.333 -72.667 131.333 -84 222s-3.66602 199 23.001 325
c26.667 130.667 64.667 246.667 114 348s113.666 191 192.999 269c76 74 167.333 131.833 274 173.5s227 62.5 361 62.5c48.667 0 96.834 -3.16699 144.501 -9.5s80.167 -11.5 97.5 -15.5l-61 -293h-27c-16 8.66699 -42.833 18.5 -80.5 29.5s-82.167 16.5 -133.5 16.5
c-116.667 0 -213 -30.667 -289 -92s-133.333 -149.333 -172 -264c55.333 31.333 110.166 56.333 164.499 75s113.166 28 176.499 28c53.333 0 102 -7.16699 146 -21.5s81.333 -35.166 112 -62.499c43.333 -39.333 73.5 -91 90.5 -155s15.167 -146 -5.5 -246z
M860.001 281.999c24.667 24 44.9971 50.167 60.9971 78.5s30 71.166 42 128.499c10 48 12.333 87.667 7 119s-17 56.333 -35 75c-18.667 18.667 -41.167 31.5 -67.5 38.5s-55.166 10.5 -86.499 10.5c-26 0 -53.5 -3.33301 -82.5 -10s-56.833 -15 -83.5 -25
c-1.33301 -6.66699 -3.83301 -17.667 -7.5 -33l-13.5 -58c-17.333 -85.333 -24 -154 -20 -206s14.667 -91.333 32 -118c12.667 -21.333 29.334 -36.666 50.001 -45.999s43.334 -14 68.001 -14c20 0 42.667 5 68 15s48 25 68 45z" />
    <glyph glyph-name="seven" unicode="7" horiz-adv-x="1304" 
d="M1460 1193l-882 -1193h-416l916 1208h-710l58 281h1095z" />
    <glyph glyph-name="eight" unicode="8" horiz-adv-x="1304" 
d="M1327 415c-13.333 -64 -38.833 -123.5 -76.5 -178.5s-86.167 -102.5 -145.5 -142.5c-58.667 -40 -127 -71.333 -205 -94s-164 -34 -258 -34c-100 0 -185.167 11.5 -255.5 34.5s-125.5 54.167 -165.5 93.5c-39.333 39.333 -64.666 85.666 -75.999 138.999
s-11 109.666 1 168.999c18 85.333 56.333 156.333 115 213s136.667 104 234 142l1 6c-78.667 42.667 -129 94.334 -151 155.001s-25 128.334 -9 203.001c11.333 54.667 34 106 68 154s78.667 91 134 129c53.333 36 117 64.833 191 86.5s154.333 32.5 241 32.5
c92 0 170.167 -9.83301 234.5 -29.5s115.166 -45.5 152.499 -77.5c38.667 -32.667 65.167 -72.167 79.5 -118.5s15.833 -96.5 4.5 -150.5c-14.667 -70.667 -48.5 -134.5 -101.5 -191.5s-125.833 -104.833 -218.5 -143.5l-1 -6c90.667 -40 152.5 -92.5 185.5 -157.5
s40.167 -142.833 21.5 -233.5zM1070 1103c10.667 50.667 2.49805 91.166 -24.502 121.499s-69.167 45.5 -126.5 45.5c-54.667 0 -101.834 -13.667 -141.501 -41s-63.5 -61 -71.5 -101s-4.5 -72.167 10.5 -96.5s41.833 -46.833 80.5 -67.5
c16.667 -9.33301 36.834 -19 60.501 -29l94.5 -39c32.667 34 58.334 66.833 77.001 98.5s32.334 67.834 41.001 108.501zM953.998 398.999c10.667 48.667 8.33008 86 -7.00293 112s-53.666 55.333 -114.999 88c-17.333 9.33301 -42.666 21 -75.999 35s-63 27 -89 39
c-31.333 -26 -61.166 -58.167 -89.499 -96.5s-47.166 -80.5 -56.499 -126.5c-14.667 -69.333 -4.16699 -124.666 31.5 -165.999s89.5 -62 161.5 -62c19.333 0 42.166 3.16699 68.499 9.5s50.5 16.166 72.5 29.499c24.667 15.333 45.5 33.333 62.5 54s29.167 48.667 36.5 84z
" />
    <glyph glyph-name="nine" unicode="9" horiz-adv-x="1304" 
d="M1378 828c-26.667 -126.667 -65.6699 -242.67 -117.003 -348.003s-115.666 -195.666 -192.999 -270.999c-80 -76.667 -171.833 -135.5 -275.5 -176.5s-224.5 -61.5 -362.5 -61.5c-46.667 0 -94.667 3 -144 9s-81.666 11.333 -96.999 16l61 293h29
c16.667 -9.33301 41 -19.333 73 -30s78.333 -16 139 -16c48.667 0 97 6.5 145 19.5s91.333 33.5 130 61.5c40 29.333 75.833 66 107.5 110s58.5 99 80.5 165c-60 -33.333 -114.667 -58.833 -164 -76.5s-108 -26.5 -176 -26.5c-51.333 0 -99.166 6.83301 -143.499 20.5
s-82.833 34.834 -115.5 63.501c-42.667 40 -72.5 91.5 -89.5 154.5s-15.167 144.5 5.5 244.5c16 77.333 44 148.833 84 214.5s89.333 122.834 148 171.501c58 48 124.833 85.667 200.5 113s156.5 41 242.5 41c86.667 0 161.167 -12.167 223.5 -36.5
s112.5 -61.5 150.5 -111.5c44 -56.667 71.167 -129.667 81.5 -219s2.5 -197.333 -23.5 -324zM1019 883.997c16.667 80.667 23.6689 147.168 21.002 199.501s-13.334 93.166 -32.001 122.499c-12.667 21.333 -28.834 36.666 -48.501 45.999s-42.167 14 -67.5 14
c-22 0 -44.5 -4.5 -67.5 -13.5s-46.5 -24.5 -70.5 -46.5c-21.333 -19.333 -41.833 -47.666 -61.5 -84.999s-34.167 -78.333 -43.5 -123c-10 -48 -12 -87.5 -6 -118.5s17.667 -55.833 35 -74.5c17.333 -18 39 -30.667 65 -38s55.667 -11 89 -11c28 0 57.5 3.83301 88.5 11.5
s56.5 15.5 76.5 23.5c1.33301 7.33301 4 17.833 8 31.5s8.66699 34.167 14 61.5z" />
    <glyph glyph-name="colon" unicode=":" horiz-adv-x="744" 
d="M700 730h-354l82 393h354zM549 0h-354l81 393h354z" />
    <glyph glyph-name="semicolon" unicode=";" horiz-adv-x="744" 
d="M851 730h-354l164 393h354zM772 393l-666 -763h-211l511 763h366z" />
    <glyph glyph-name="semicolon" unicode="&#x37e;" horiz-adv-x="744" 
d="M851 730h-354l164 393h354zM772 393l-666 -763h-211l511 763h366z" />
    <glyph glyph-name="less" unicode="&#x3c;" horiz-adv-x="1676" 
d="M1467 14l-1173 533l46 220l1395 533l-58 -276l-975 -368l823 -366z" />
    <glyph glyph-name="equal" unicode="=" horiz-adv-x="1676" 
d="M1613 776h-1228l53 258h1228zM1510 280h-1228l53 258h1228z" />
    <glyph glyph-name="greater" unicode="&#x3e;" horiz-adv-x="1676" 
d="M1608 547l-1395 -533l58 276l975 367l-823 367l58 276l1173 -533z" />
    <glyph glyph-name="question" unicode="?" horiz-adv-x="1160" 
d="M1318 1126c-14 -66 -36.3291 -125.164 -66.9961 -177.497s-68 -97.833 -112 -136.5c-43.333 -38 -92.833 -72 -148.5 -102s-116.834 -57.333 -183.501 -82l-47 -228h-342l69 335c39.333 10 83.666 23.667 132.999 41s94 38.666 134 63.999c42 26 78.333 56.333 109 91
s51 75.667 61 123c13.333 66 2.16602 114 -33.501 144s-90.834 45 -165.501 45c-56 0 -118 -12.333 -186 -37s-122.667 -49.334 -164 -74.001h-29l62 301c46.667 18.667 113 37.667 199 57s176 29 270 29c84 0 156.167 -9.83301 216.5 -29.5s109.5 -47.167 147.5 -82.5
c36.667 -35.333 61.5 -76.833 74.5 -124.5s13.833 -99.834 2.5 -156.501zM705.004 0.00292969h-394l54 264h394z" />
    <glyph glyph-name="at" unicode="@" horiz-adv-x="1884" 
d="M1888 663c-18.667 -91.333 -51.3389 -186.166 -98.0059 -284.499s-95.667 -178.166 -147 -239.499h-488l2 78l-59 -34c-19.333 -10.667 -40 -19.667 -62 -27c-25.333 -8.66699 -48.333 -15 -69 -19s-48.334 -6 -83.001 -6c-50.667 0 -95.667 11.333 -135 34
s-70.666 55.334 -93.999 98.001c-22.667 41.333 -36.5 94.166 -41.5 158.499s0.5 134.166 16.5 209.499c16 77.333 41.833 147.666 77.5 210.999s77.5 118 125.5 164c44.667 42 94 75.333 148 100s107.667 37 161 37c42.667 0 78.834 -8.66699 108.501 -26
s51.834 -35 66.501 -53l12 61l222 1l-168 -808h150c28 44 54.5 96 79.5 156s43.833 121 56.5 183c22.667 109.333 27.834 205 15.501 287s-38.833 150.667 -79.5 206c-42 56 -96 97.5 -162 124.5s-140.667 40.5 -224 40.5c-78.667 0 -156.334 -15 -233.001 -45
s-150.667 -74.667 -222 -134c-68.667 -57.333 -129 -128 -181 -212s-88.333 -177 -109 -279c-22.667 -108.667 -26.667 -205.334 -12 -290.001s44.334 -155.667 89.001 -213c42.667 -56.667 97.334 -99.5 164.001 -128.5s139.667 -43.5 219 -43.5c56 0 118 5 186 15
s131.333 23.333 190 40l-45 -213c-63.333 -14 -123.833 -24.333 -181.5 -31s-121.5 -10 -191.5 -10c-118 0 -223.167 21.167 -315.5 63.5s-166.833 101.833 -223.5 178.5c-57.333 77.333 -95.166 170 -113.499 278s-14.166 226.667 12.501 356
c25.333 122.667 70.333 237 135 343s142.667 198.667 234 278c90 78 190.333 139.167 301 183.5s223.334 66.5 338.001 66.5c114 0 216 -20.667 306 -62s163 -99.333 219 -174c57.333 -74.667 95.666 -164.167 114.999 -268.5s15.333 -221.166 -12 -350.499zM1174 404
l105.001 504c-24 14 -46.833 24.167 -68.5 30.5s-47.167 9.5 -76.5 9.5c-64.667 0 -120.334 -28.667 -167.001 -86s-80 -133.333 -100 -228c-21.333 -104.667 -22.833 -182.5 -4.5 -233.5s60.5 -76.5 126.5 -76.5c34.667 0 66.167 6.83301 94.5 20.5s58.5 33.5 90.5 59.5z
" />
    <glyph glyph-name="A" unicode="A" horiz-adv-x="1402" 
d="M-6 0l812 1489h408l194 -1489h-385l-30 304h-468l-156 -304h-375zM967 574l-50 491l-254 -491h304z" />
    <glyph glyph-name="B" unicode="B" horiz-adv-x="1405" 
d="M1439 456c-15.333 -74 -42.8311 -138.998 -82.498 -194.998s-86.834 -102.333 -141.501 -139c-65.333 -44 -133.333 -75.333 -204 -94s-157.667 -28 -261 -28h-596l309 1489h526c109.333 0 191.333 -4.16699 246 -12.5s104 -25.833 148 -52.5
c47.333 -28.667 79.166 -67 95.499 -115s17.833 -103.333 4.5 -166c-15.333 -72.667 -47 -137.334 -95 -194.001s-106.667 -98.334 -176 -125.001l-2 -8c88 -19.333 153.5 -58.833 196.5 -118.5s53.833 -140.167 32.5 -241.5zM1088 1068
c4.66699 24 3.50195 48.667 -3.49805 74s-22.5 43.666 -46.5 54.999c-22 10.667 -49.833 16.5 -83.5 17.5s-83.834 1.5 -150.501 1.5h-26l-65 -315h47c64 0 109 0.666992 135 2s54 8.33301 84 21c32.667 14 57.167 33.333 73.5 58s28.166 53.334 35.499 86.001z
M1056 463.002c9.33301 46 7.33301 82 -6 108s-37.333 45.667 -72 59c-20.667 8.66699 -50.667 13.5 -90 14.5s-92.333 1.5 -159 1.5h-69l-78 -373h20c97.333 0 164.833 0.666992 202.5 2s77.5 10.333 119.5 27c37.333 14.667 66.833 36.167 88.5 64.5s36.167 60.5 43.5 96.5
z" />
    <glyph glyph-name="C" unicode="C" horiz-adv-x="1367" 
d="M789 -29c-223.333 0 -386.502 67.5 -489.502 202.5s-129.167 324.833 -78.5 569.5c49.333 236 154.333 424.167 315 564.5s352.667 210.5 576 210.5c59.333 0 112 -3.33301 158 -10s89.333 -16 130 -28c32 -10 66.167 -23.667 102.5 -41s65.5 -32.333 87.5 -45l-73 -355
h-38c-14.667 16 -33.5 35.167 -56.5 57.5s-49.5 44.166 -79.5 65.499s-64.333 39.5 -103 54.5s-80.667 22.5 -126 22.5c-54 0 -105.333 -8.5 -154 -25.5s-97.667 -46.5 -147 -88.5c-44.667 -38 -85.667 -89.333 -123 -154s-65 -141 -83 -229
c-19.333 -92.667 -23.166 -170.5 -11.499 -233.5s33.5 -113.833 65.5 -152.5c30.667 -37.333 68 -64.333 112 -81s89.667 -25 137 -25c49.333 0 98.166 8.16699 146.499 24.5s89.833 34.5 124.5 54.5c37.333 20.667 71 41.667 101 63l78 57h34l-73 -350l-104 -43.5
c-39.333 -16.333 -79.333 -30.166 -120 -41.499c-49.333 -14 -95.166 -24.667 -137.499 -32s-99.166 -11 -170.499 -11z" />
    <glyph glyph-name="D" unicode="D" horiz-adv-x="1551" 
d="M1638 743c-28.667 -138.667 -84.833 -262.833 -168.5 -372.5s-177.834 -193.834 -282.501 -252.501c-88 -50 -178.833 -82.167 -272.5 -96.5s-191.834 -21.5 -294.501 -21.5h-466l309 1489h462c104.667 0 201.334 -6.66699 290.001 -20s167.667 -45.666 237 -96.999
c84.667 -62.667 144.334 -147.167 179.001 -253.5s37 -231.5 7 -375.5zM1255 746.001c20 98 20.499 181.833 1.49902 251.5s-59.5 124.167 -121.5 163.5c-44.667 28 -94.667 43.333 -150 46s-121.666 4 -198.999 4h-7l-193 -932h7c84 0 155 1.5 213 4.5
s116.667 20.833 176 53.5c69.333 38.667 127 92 173 160s79.333 151 100 249z" />
    <glyph glyph-name="E" unicode="E" horiz-adv-x="1260" 
d="M154 0l309 1489h1007l-59 -284h-635l-54 -261h585l-59 -284h-585l-78 -376h635l-59 -284h-1007z" />
    <glyph glyph-name="F" unicode="F" horiz-adv-x="1190" 
d="M1401 1205h-625l-58 -281h575l-59 -284h-575l-133 -640h-372l309 1489h997z" />
    <glyph glyph-name="G" unicode="G" horiz-adv-x="1526" 
d="M1415 85c-70.667 -26.667 -160.831 -52.666 -270.498 -77.999s-215.167 -38 -316.5 -38c-234 0 -406.5 67.5 -517.5 202.5s-140.5 326.5 -88.5 574.5c48 233.333 156.167 420.333 324.5 561s373.166 211 614.499 211c124.667 0 223.5 -11.833 296.5 -35.5
s147.167 -55.834 222.5 -96.501l-73 -349h-34l-65.5 59.5c-28.333 25.667 -56.5 47.5 -84.5 65.5c-32.667 21.333 -72 39.666 -118 54.999s-96.333 23 -151 23c-64 0 -124.333 -10 -181 -30s-110 -50.667 -160 -92c-48 -40 -89.833 -90.667 -125.5 -152
s-61.834 -132.666 -78.501 -213.999c-36 -174 -19 -302.333 51 -385s180.667 -124 332 -124c13.333 0 29 0.333008 47 1s34 1.66699 48 3l61 292h-289l58 279h651z" />
    <glyph glyph-name="H" unicode="H" horiz-adv-x="1565" 
d="M1411 0h-374l137 660h-509l-137 -660h-374l309 1489h374l-113 -545h509l113 545h374z" />
    <glyph glyph-name="I" unicode="I" horiz-adv-x="990" 
d="M896 0h-802l54 260h214l201 969h-214l54 260h802l-54 -260h-214l-201 -969h214z" />
    <glyph glyph-name="J" unicode="J" horiz-adv-x="1025" 
d="M980 437c-13.333 -64.667 -36.8311 -125.501 -70.498 -182.501s-77.167 -105.5 -130.5 -145.5c-59.333 -45.333 -125.166 -78.666 -197.499 -99.999s-152.833 -32 -241.5 -32c-66 0 -127.5 2.5 -184.5 7.5s-106.5 12.167 -148.5 21.5l63 302h34
c27.333 -12 56.166 -23.167 86.499 -33.5s71.166 -15.5 122.499 -15.5c66 0 118.833 9.33301 158.5 28s70.167 44.667 91.5 78c22.667 32.667 39.167 70.5 49.5 113.5s21.166 90.833 32.499 143.5l124 597h-341l56 270h715z" />
    <glyph glyph-name="K" unicode="K" horiz-adv-x="1426" 
d="M1459 0h-452l-281 605l-94 -102l-104 -503h-374l309 1489h374l-137 -661l613 661h433l-675 -691z" />
    <glyph glyph-name="L" unicode="L" horiz-adv-x="1172" 
d="M1148 0h-994l309 1489h374l-250 -1205h620z" />
    <glyph glyph-name="M" unicode="M" horiz-adv-x="1829" 
d="M1675 0h-372l205 987l-404 -637h-255l-138 637l-205 -987h-352l309 1489h431l177 -735l482 735h431z" />
    <glyph glyph-name="N" unicode="N" horiz-adv-x="1578" 
d="M1430 0h-360l-359 1038l-215 -1038h-342l309 1489h459l298 -853l177 853h342z" />
    <glyph glyph-name="O" unicode="O" horiz-adv-x="1577" 
d="M1664 744c-50 -240.667 -153.667 -430 -311 -568s-348 -207 -572 -207c-224.667 0 -386.5 69.833 -485.5 209.5s-123.833 328.167 -74.5 565.5c50 239.333 153.5 428.5 310.5 567.5s347.833 208.5 572.5 208.5c224 0 385.833 -69.167 485.5 -207.5
s124.5 -327.833 74.5 -568.5zM1278 745c18.667 88.667 25.335 164.165 20.002 226.498s-19.333 113.5 -42 153.5c-23.333 40.667 -53.333 69.834 -90 87.501s-76.667 26.5 -120 26.5c-46 0 -89.333 -8.16699 -130 -24.5s-82.667 -45.5 -126 -87.5
c-38.667 -38.667 -74.167 -90 -106.5 -154s-57.833 -140.333 -76.5 -229c-18.667 -91.333 -25.334 -167.166 -20.001 -227.499s19.333 -110.833 42 -151.5c23.333 -41.333 53.5 -70.833 90.5 -88.5s77.167 -26.5 120.5 -26.5c44 0 88.667 9.5 134 28.5s87.333 48.5 126 88.5
c40.667 43.333 75.667 93.833 105 151.5s53.666 133.167 72.999 226.5z" />
    <glyph glyph-name="P" unicode="P" horiz-adv-x="1346" 
d="M1511 1019c-14 -69.333 -38.5 -135.334 -73.5 -198.001s-77.5 -115 -127.5 -157c-31.333 -26 -64.333 -50 -99 -72s-72 -40.667 -112 -56s-82.333 -27.333 -127 -36s-93.667 -13 -147 -13h-196l-101 -487h-374l309 1489h578c86 0 158.5 -7.83301 217.5 -23.5
s110.5 -40.5 154.5 -74.5c48 -37.333 80.833 -87.166 98.5 -149.499s17.5 -136.5 -0.5 -222.5zM1125 1010c9.33301 42 7.16895 78.168 -6.49805 108.501s-33.5 51.166 -59.5 62.499c-32 15.333 -64 24.166 -96 26.499s-75.667 3.5 -131 3.5h-53l-92 -446h26
c35.333 0 68.666 0.333008 99.999 1s59 3 83 7c20.667 3.33301 43.167 9.83301 67.5 19.5s43.833 20.5 58.5 32.5c30.667 24.667 53.167 50.334 67.5 77.001s26.166 62.667 35.499 108z" />
    <glyph glyph-name="Q" unicode="Q" horiz-adv-x="1577" 
d="M1426 -394c-42.667 -10 -84.5 -17.3311 -125.5 -21.998s-104.5 -7 -190.5 -7c-78.667 0 -143.5 9.83301 -194.5 29.5s-91.167 47.5 -120.5 83.5c-29.333 35.333 -48.166 77.333 -56.499 126s-7.83301 101 1.5 157c-208.667 9.33301 -359.334 82.333 -452.001 219
s-115 320.667 -67 552c50 239.333 153.5 428.5 310.5 567.5s347.833 208.5 572.5 208.5c224 0 385.833 -69.167 485.5 -207.5s124.5 -327.833 74.5 -568.5c-36 -175.333 -103.667 -325.833 -203 -451.5s-221 -214.834 -365 -267.501
c-14 -72.667 -8.33301 -122.834 17 -150.501s77 -41.5 155 -41.5c30 0 62.667 4.5 98 13.5s61.333 17.5 78 25.5h37zM1100 367.002c40.667 43.333 75.668 93.8311 105.001 151.498s53.666 133.167 72.999 226.5c18.667 88.667 25.334 164.167 20.001 226.5
s-19.333 113.5 -42 153.5c-23.333 40.667 -53.333 69.834 -90 87.501s-76.667 26.5 -120 26.5c-46 0 -89.333 -8.16699 -130 -24.5s-82.667 -45.5 -126 -87.5c-38.667 -38.667 -74.167 -90 -106.5 -154s-57.833 -140.333 -76.5 -229
c-18.667 -91.333 -25.334 -167.166 -20.001 -227.499s19.333 -110.833 42 -151.5c23.333 -41.333 53.5 -70.833 90.5 -88.5s77.167 -26.5 120.5 -26.5c44 0 88.667 9.5 134 28.5s87.333 48.5 126 88.5z" />
    <glyph glyph-name="R" unicode="R" horiz-adv-x="1487" 
d="M1531 0h-455.999l-302 546h-134l-113 -546h-372l309 1489h599c82.667 0 153.667 -5.16699 213 -15.5s111.333 -31.833 156 -64.5c46.667 -34 80.167 -77.167 100.5 -129.5s22.166 -118.833 5.49902 -199.5c-24 -114 -69 -206.5 -135 -277.5s-146.333 -127.5 -241 -169.5z
M1143 1033c8 37.333 7.66797 69.5 -0.999023 96.5s-28.334 47.833 -59.001 62.5c-21.333 10 -46 16.333 -74 19s-63.333 4 -106 4h-125l-83 -401h107c52 0 96.833 3.16699 134.5 9.5s71.167 19.833 100.5 40.5c28 18.667 50.5 41 67.5 67s29.833 60 38.5 102z" />
    <glyph glyph-name="S" unicode="S" horiz-adv-x="1297" 
d="M608 -27c-114 0 -211.835 11.0039 -293.502 33.0039s-156.167 49.333 -223.5 82l73 354h34c62 -63.333 134.333 -112 217 -146s166.334 -51 251.001 -51c21.333 0 50 2.33301 86 7s65.667 12 89 22c28.667 11.333 54.167 27.166 76.5 47.499s36.833 47.166 43.5 80.499
c8 37.333 -0.333008 67.666 -25 90.999s-56 40.333 -94 51c-48 13.333 -99.667 26 -155 38s-106 26.667 -152 44c-107.333 40.667 -178.833 95.334 -214.5 164.001s-42.834 154.667 -21.501 258c29.333 139.333 112 252.166 248 338.499s292.333 129.5 469 129.5
c88.667 0 174.834 -9 258.501 -27s157.167 -42.333 220.5 -73l-71 -340h-33c-45.333 47.333 -104.5 87.333 -177.5 120s-151.5 49 -235.5 49c-32.667 0 -62.5 -2.33301 -89.5 -7s-56.167 -13.667 -87.5 -27c-25.333 -10.667 -48.666 -26.5 -69.999 -47.5
s-34.666 -44.5 -39.999 -70.5c-8 -38 -0.833008 -68.167 21.5 -90.5s70.166 -42.5 143.499 -60.5l138 -33c44 -10.667 90.333 -25.334 139 -44.001c96 -37.333 162.5 -87.5 199.5 -150.5s44.833 -146.167 23.5 -249.5c-30.667 -148 -113.5 -267 -248.5 -357
s-301.5 -135 -499.5 -135z" />
    <glyph glyph-name="T" unicode="T" horiz-adv-x="1254" 
d="M440 0l250 1205h-440l59 284h1254l-59 -284h-440l-250 -1205h-374z" />
    <glyph glyph-name="U" unicode="U" horiz-adv-x="1513" 
d="M749 -31c-200 0 -343.833 48.332 -431.5 144.999s-112.167 238 -73.5 424l198 951h374l-193 -929c-21.333 -103.333 -17.833 -180.333 10.5 -231s86.5 -76 174.5 -76c86 0 154.167 24.333 204.5 73s86.833 126.667 109.5 234l193 929h374l-197 -950
c-38.667 -183.333 -120.667 -324.166 -246 -422.499s-291 -147.5 -497 -147.5z" />
    <glyph glyph-name="V" unicode="V" horiz-adv-x="1382" 
d="M1707 1489l-821 -1489h-390l-203 1489h388l114 -1009l534 1009h378z" />
    <glyph glyph-name="W" unicode="W" horiz-adv-x="2105" 
d="M2384 1489l-686 -1489h-410l-48 921l-423 -921h-410l-68 1489h388l-3 -999l458 999h371l29 -999l424 999h378z" />
    <glyph glyph-name="X" unicode="X" horiz-adv-x="1402" 
d="M1414 0h-434l-188 475l-390 -475h-414l638 750l-310 739h433l175 -449l368 449h415l-617 -724z" />
    <glyph glyph-name="Y" unicode="Y" horiz-adv-x="1373" 
d="M1701 1489l-694 -867l-129 -622h-374l125 603l-339 886h426l181 -532l392 532h412z" />
    <glyph glyph-name="Z" unicode="Z" horiz-adv-x="1275" 
d="M1235 0h-1181l58 279l877 926h-649l59 284h1105l-59 -284l-875 -921h724z" />
    <glyph glyph-name="bracketleft" unicode="[" horiz-adv-x="930" 
d="M712 -392h-628l405 1948h628l-49 -236h-325l-307 -1476h325z" />
    <glyph glyph-name="backslash" unicode="\" horiz-adv-x="1182" 
d="M1006 -324h-287l-202 1880h290z" />
    <glyph glyph-name="bracketright" unicode="]" horiz-adv-x="930" 
d="M681 -392h-628l49 236h325l307 1476h-325l49 236h628z" />
    <glyph glyph-name="asciicircum" unicode="^" horiz-adv-x="1676" 
d="M1643 674h-312l-258 537l-450 -539h-311l699 817h240z" />
    <glyph glyph-name="underscore" unicode="_" horiz-adv-x="1304" 
d="M1248 -345h-1335l42 201h1335z" />
    <glyph glyph-name="grave" unicode="`" horiz-adv-x="1118" 
d="M1074 1283h-238l-218 393h331z" />
    <glyph glyph-name="a" unicode="a" horiz-adv-x="1226" 
d="M813 293l49.002 234.002c-60.667 -6 -109.834 -11.167 -147.501 -15.5s-75.167 -12.833 -112.5 -25.5c-33.333 -10.667 -60.666 -26.834 -81.999 -48.501s-36 -50.5 -44 -86.5c-10.667 -52.667 -3.83398 -88.834 20.499 -108.501s64.166 -29.5 119.499 -29.5
c30.667 0 63.5 7 98.5 21s67.833 33.667 98.5 59zM777.002 119.002l-75.5049 -53.999c-22.333 -16 -51.166 -32 -86.499 -48c-34.667 -15.333 -67.667 -27 -99 -35s-73.666 -12 -126.999 -12c-99.333 0 -174.833 33.333 -226.5 100s-67.167 150.667 -46.5 252
c17.333 83.333 48 150.666 92 201.999s100.667 92 170 122c69.333 30.667 149.333 52 240 64s187.334 21.333 290.001 28l1 6c13.333 62 -0.5 104.833 -41.5 128.5s-107.167 35.5 -198.5 35.5c-41.333 0 -91.166 -7.5 -149.499 -22.5s-116.166 -34.167 -173.499 -57.5h-30
l56 271c36.667 10 95.167 21.833 175.5 35.5s159.833 20.5 238.5 20.5c193.333 0 327.5 -32.167 402.5 -96.5s98.5 -162.5 70.5 -294.5l-158 -764h-348z" />
    <glyph glyph-name="b" unicode="b" horiz-adv-x="1294" 
d="M995 570c23.333 112 23.001 191.999 -0.999023 239.999s-71.333 72 -142 72c-31.333 0 -63.5 -5 -96.5 -15s-66.833 -25 -101.5 -45l-117 -564c21.333 -9.33301 43.5 -15.666 66.5 -18.999s46.167 -5 69.5 -5c84.667 0 153.667 28 207 84s91.666 140 114.999 252z
M1354 576.999c-36.667 -178.667 -111.833 -323.168 -225.5 -433.501s-237.5 -165.5 -371.5 -165.5c-56 0 -103.333 6.33301 -142 19s-78.667 32.334 -120 59.001l-26 -56h-335l323 1556h350l-114 -550c60 44 119.5 79.667 178.5 107s123.5 41 193.5 41
c130.667 0 221 -51 271 -153s56 -243.333 18 -424z" />
    <glyph glyph-name="c" unicode="c" horiz-adv-x="1080" 
d="M678 -30c-92.667 0 -175.001 11.6641 -247.001 34.9971s-131.333 59.333 -178 108c-46 48.667 -77 109.834 -93 183.501s-13.667 160.5 7 260.5c22.667 107.333 58.834 198.666 108.501 273.999s108.5 137.333 176.5 186c66 46.667 139 81.167 219 103.5
s161 33.5 243 33.5c62 0 122.5 -7.16699 181.5 -21.5s116.833 -37.166 173.5 -68.499l-63 -300h-45c-10.667 13.333 -24.667 28 -42 44s-36.333 30.667 -57 44c-22.667 14 -49 25.833 -79 35.5s-64.667 14.5 -104 14.5c-89.333 0 -165 -31.167 -227 -93.5
s-104 -146.166 -126 -251.499c-23.333 -112.667 -14.5 -196.667 26.5 -252s104.833 -83 191.5 -83c44 0 83.667 5 119 15s66.333 22 93 36s49.834 28.5 69.501 43.5l51.5 40.5h45l-63 -300l-75 -30c-28.667 -11.333 -57.667 -20.666 -87 -27.999
c-36 -9.33301 -69.333 -16.5 -100 -21.5s-70.334 -7.5 -119.001 -7.5z" />
    <glyph glyph-name="d" unicode="d" horiz-adv-x="1289" 
d="M1155 0h-350.001l24 117l-90 -60c-33.333 -21.333 -62.333 -37.333 -87 -48c-30.667 -13.333 -60.334 -23.333 -89.001 -30s-62 -10 -100 -10c-128 0 -218.333 53 -271 159s-60.667 247.667 -24 425c20.667 98 51.167 183 91.5 255s88.5 134.667 144.5 188
c50.667 48.667 107.834 87.167 171.501 115.5s127.834 42.5 192.501 42.5c58.667 0 105.667 -6.16699 141 -18.5s75.333 -31.5 120 -57.5l99 478h350zM868.999 310l115.002 550.999c-16 8.66699 -37.333 15.834 -64 21.501s-50 8.5 -70 8.5c-84 0 -153.333 -29.333 -208 -88
s-93 -140.667 -115 -246c-22.667 -110.667 -22.334 -190.667 0.999023 -240s72.666 -74 147.999 -74c30.667 0 63 6 97 18s66 28.333 96 49z" />
    <glyph glyph-name="e" unicode="e" horiz-adv-x="1216" 
d="M702 -30c-212 0 -363.997 50.6689 -455.997 152.002s-118.333 245.666 -79 432.999c38 183.333 121 329.666 249 438.999s286.667 164 476 164c172 0 291.667 -46.333 359 -139s83.333 -225.334 48 -398.001l-27 -126h-767c-7.33301 -52 -5.33301 -95.5 6 -130.5
s30.333 -62.833 57 -83.5c25.333 -20.667 57.166 -35.5 95.499 -44.5s81.166 -13.5 128.499 -13.5c40.667 0 81.5 4.5 122.5 13.5s79.5 20.833 115.5 35.5c31.333 12.667 60.666 26.334 87.999 41.001s50 27.667 68 39h37l-60 -289l-85.5 -31.5
c-25.667 -9.66699 -60.167 -19.5 -103.5 -29.5c-40 -10 -80.833 -17.833 -122.5 -23.5s-91.5 -8.5 -149.5 -8.5zM971.003 706.002c13.333 74 7.83398 130.333 -16.499 169s-69.833 58 -136.5 58c-68 0 -125.333 -20.333 -172 -61s-79.334 -96 -98.001 -166h423z" />
    <glyph glyph-name="f" unicode="f" horiz-adv-x="783" 
d="M1120 1292h-27c-12.667 4 -32.5 9.16699 -59.5 15.5s-53.167 9.5 -78.5 9.5c-70.667 0 -121.5 -13 -152.5 -39s-53.833 -74.667 -68.5 -146l-2 -9h278l-51 -244h-266l-182 -879h-350l182 879h-140l51 244h140l6 31c28.667 137.333 86.167 240.333 172.5 309
s202.5 103 348.5 103c50.667 0 97.667 -1.83301 141 -5.5s80.333 -8.5 111 -14.5z" />
    <glyph glyph-name="g" unicode="g" horiz-adv-x="1289" 
d="M878 354l106.002 509c-16 8 -36 14.667 -60 20s-48.667 8 -74 8c-84 0 -152.833 -27.167 -206.5 -81.5s-90.5 -130.166 -110.5 -227.499c-10.667 -48.667 -16.334 -89.834 -17.001 -123.501s5 -63.5 17 -89.5c11.333 -25.333 29.166 -44.5 53.499 -57.5
s57.5 -19.5 99.5 -19.5c31.333 0 63.333 5.33301 96 16s64.667 26 96 46zM1181 129c-21.333 -104 -54.499 -192.333 -99.499 -265s-97.833 -129.334 -158.5 -170.001c-60.667 -41.333 -129.167 -71.166 -205.5 -89.499s-158.833 -27.5 -247.5 -27.5
c-74.667 0 -144.5 4.83301 -209.5 14.5s-120.833 20.834 -167.5 33.501l58 281h41c16 -6.66699 35 -14 57 -22s44.333 -15.333 67 -22c27.333 -7.33301 54.166 -13.333 80.499 -18s53.833 -7 82.5 -7c59.333 0 110 6.16699 152 18.5s75.333 29.833 100 52.5
c25.333 23.333 45.166 50.833 59.499 82.5s26.5 71.5 36.5 119.5l5 21c-46.667 -34.667 -98 -62.5 -154 -83.5s-111.333 -31.5 -166 -31.5c-145.333 0 -247.666 47.333 -306.999 142s-69 238.667 -29 432c18.667 88 47.334 167 86.001 237s85 129.667 139 179
c50.667 47.333 108 83.833 172 109.5s127.667 38.5 191 38.5c57.333 0 107.166 -7.33301 149.499 -22s79.833 -34.334 112.5 -59.001l23 50h339z" />
    <glyph glyph-name="h" unicode="h" horiz-adv-x="1311" 
d="M1186 0l-352 -0.000976562l115 557c9.33301 45.333 17 90.5 23 135.5s6 78.167 0 99.5c-6.66699 25.333 -20.167 43.5 -40.5 54.5s-49.5 16.5 -87.5 16.5c-28.667 0 -58.834 -5.33301 -90.501 -16s-66.5 -27.667 -104.5 -51l-165 -796h-350l323 1556h350l-116 -557
c67.333 48.667 131 86.667 191 114s123 41 189 41c114.667 0 194.834 -36.167 240.501 -108.5s54.167 -177.166 25.5 -314.499z" />
    <glyph glyph-name="i" unicode="i" horiz-adv-x="618" 
d="M484 0h-350l233 1123h350zM760 1283h-370l57 273h370z" />
    <glyph glyph-name="j" unicode="j" horiz-adv-x="743" 
d="M604 -20c-26 -126.667 -84.001 -225.501 -174.001 -296.501s-194.667 -106.5 -314 -106.5c-64 0 -121.333 2.83301 -172 8.5s-87.334 11.5 -110.001 17.5l54 258h27c20.667 -7.33301 44.334 -13.166 71.001 -17.499s48.334 -6.5 65.001 -6.5
c67.333 0 117.333 20.667 150 62s59 109.333 79 204l161 776h-202l51 244h552zM874.999 1283h-373l57 273h373z" />
    <glyph glyph-name="k" unicode="k" horiz-adv-x="1234" 
d="M1258 0h-416l-203 489l-69 -73l-86 -416h-350l323 1556h350l-181 -872l423 439h413l-494 -484z" />
    <glyph glyph-name="l" unicode="l" horiz-adv-x="618" 
d="M484 0h-350l323 1556h350z" />
    <glyph glyph-name="m" unicode="m" horiz-adv-x="1953" 
d="M1476 0l116.003 561c11.333 55.333 20 102 26 140s6.66699 69 2 93c-5.33301 24 -17.333 41.5 -36 52.5s-47 16.5 -85 16.5c-26.667 0 -54.167 -5.83301 -82.5 -17.5s-60.166 -28.167 -95.499 -49.5l-165 -796h-352l116 561c11.333 54.667 19.833 101.167 25.5 139.5
s6.16699 69.5 1.5 93.5c-5.33301 24 -17.333 41.5 -36 52.5s-46.667 16.5 -84 16.5c-28.667 0 -58 -6.66699 -88 -20s-60 -29 -90 -47l-165 -796h-350l233 1123h350l-26 -124c67.333 48.667 129.166 86.667 185.499 114s116.166 41 179.499 41
c68.667 0 125.667 -16.333 171 -49s75 -81.334 89 -146.001c80 62.667 153.333 110.834 220 144.501s130.667 50.5 192 50.5c52 0 97 -8.33301 135 -25s68 -41.667 90 -75c23.333 -36 37.666 -78.833 42.999 -128.5s-0.333984 -114.5 -17.001 -194.5l-151 -731h-352z" />
    <glyph glyph-name="n" unicode="n" horiz-adv-x="1311" 
d="M1186 0l-352 -0.000976562l115 557c9.33301 45.333 17 90.5 23 135.5s6 78.167 0 99.5c-6.66699 25.333 -20.167 43.5 -40.5 54.5s-49.5 16.5 -87.5 16.5c-28.667 0 -58.834 -5.33301 -90.501 -16s-66.5 -27.667 -104.5 -51l-165 -796h-350l233 1123h350l-26 -124
c67.333 48.667 131 86.667 191 114s123 41 189 41c114.667 0 194.834 -36.167 240.501 -108.5s54.167 -177.166 25.5 -314.499z" />
    <glyph glyph-name="o" unicode="o" horiz-adv-x="1264" 
d="M1328 561c-38 -184.667 -118.668 -330.169 -242.001 -436.502s-277.333 -159.5 -462 -159.5c-183.333 0 -314.666 53.167 -393.999 159.5s-100 251.833 -62 436.5c38.667 186.667 119.834 332.834 243.501 438.501s277.167 158.5 460.5 158.5
c184 0 315.667 -53.167 395 -159.5s99.666 -252.166 60.999 -437.499zM968.999 558.998c14 66.667 20 122.167 18 166.5s-10 79.833 -24 106.5c-14.667 28 -33.834 47.5 -57.501 58.5s-52.167 16.5 -85.5 16.5c-31.333 0 -60.666 -4.83301 -87.999 -14.5
s-54.333 -28.167 -81 -55.5c-26 -26 -49.667 -61.667 -71 -107s-39 -102.333 -53 -171c-14.667 -68.667 -20.667 -124.167 -18 -166.5s10.334 -76.166 23.001 -101.499c13.333 -26 32.666 -45 57.999 -57s55 -18 89 -18c28 0 57.833 6 89.5 18s58.5 30 80.5 54
c26.667 28.667 49.5 63.167 68.5 103.5s36.167 96.166 51.5 167.499z" />
    <glyph glyph-name="p" unicode="p" horiz-adv-x="1289" 
d="M1354 577c-36.667 -179.333 -112 -324.001 -226 -434.001s-237.667 -165 -371 -165c-56 0 -103.333 6.33301 -142 19s-78.667 32.334 -120 59.001l-97 -468h-350l319 1535h350l-24 -117c60 44 119.5 79.667 178.5 107s123.5 41 193.5 41c130 0 220 -51.667 270 -155
s56.333 -244 19 -422zM995 569.999c22.667 109.333 22.3301 188.667 -1.00293 238s-70.666 74 -141.999 74c-31.333 0 -63.5 -5 -96.5 -15s-66.833 -25 -101.5 -45l-117 -565c16.667 -8 35.834 -13.667 57.501 -17s47.834 -5 78.501 -5c85.333 0 154.5 27.833 207.5 83.5
s91.167 139.5 114.5 251.5z" />
    <glyph glyph-name="q" unicode="q" horiz-adv-x="1289" 
d="M1069 -412h-350l108 522c-28.667 -20 -58.334 -39.5 -89.001 -58.5s-59 -33.833 -85 -44.5c-32.667 -14 -62 -23.833 -88 -29.5s-60 -8.5 -102 -8.5c-127.333 0 -217.5 53 -270.5 159s-61.167 247.667 -24.5 425c20.667 98 51.167 183 91.5 255s88.5 134.667 144.5 188
c50.667 48.667 107.834 87.167 171.501 115.5s127.834 42.5 192.501 42.5c55.333 0 102.166 -7 140.499 -21s77.5 -34 117.5 -60l23 50h339zM869 310l115.002 550.999c-16 8.66699 -37.333 15.834 -64 21.501s-50 8.5 -70 8.5c-84 0 -153.333 -29.333 -208 -88
s-93 -140.667 -115 -246c-22.667 -110.667 -22.334 -190.667 0.999023 -240s72.666 -74 147.999 -74c30.667 0 63 6 97 18s66 28.333 96 49z" />
    <glyph glyph-name="r" unicode="r" horiz-adv-x="888" 
d="M1052 792l-28.998 0.00195312c-12 4.66699 -30.5 8.16699 -55.5 10.5s-52.833 3.5 -83.5 3.5c-36.667 0 -76.334 -5.33301 -119.001 -16s-84.334 -23.334 -125.001 -38.001l-156 -752h-350l233 1123h350l-33 -161c18.667 14.667 44.5 33.167 77.5 55.5
s62.5 40.166 88.5 53.499c28.667 15.333 61 28.5 97 39.5s69 16.5 99 16.5c11.333 0 23.833 -0.333008 37.5 -1s26.167 -1.66699 37.5 -3z" />
    <glyph glyph-name="s" unicode="s" horiz-adv-x="1054" 
d="M469 -31c-82.667 0 -158.998 9 -228.998 27s-126.333 39 -169 63l61 296h29l48.5 -42c18.333 -15.333 44.833 -31.333 79.5 -48c29.333 -15.333 63.333 -28.5 102 -39.5s82 -16.5 130 -16.5c49.333 0 94.5 7.66699 135.5 23s64.833 39.666 71.5 72.999
c5.33301 26 0.666016 45.667 -14.001 59s-45.667 26 -93 38c-25.333 6.66699 -57.5 13.834 -96.5 21.501s-73.167 16.5 -102.5 26.5c-82 27.333 -139.667 67.833 -173 121.5s-41 124.167 -23 211.5c10.667 50 32.167 97.167 64.5 141.5s74.166 83.833 125.499 118.5
c52 34 112.833 61 182.5 81s145.834 30 228.501 30c78.667 0 149.5 -7.83301 212.5 -23.5s114.833 -34.5 155.5 -56.5l-59 -284h-28c-10 9.33301 -26.5 21.833 -49.5 37.5s-45.5 29.167 -67.5 40.5c-26.667 13.333 -57.167 24.333 -91.5 33s-70.5 13 -108.5 13
c-50.667 0 -95.334 -8.66699 -134.001 -26s-61 -40.333 -67 -69c-5.33301 -25.333 -0.833008 -45.333 13.5 -60s48.833 -29 103.5 -43c28.667 -7.33301 61.834 -14.5 99.501 -21.5s73.167 -16.5 106.5 -28.5c75.333 -26 128.5 -64.167 159.5 -114.5
s37.833 -117.166 20.5 -200.499c-10.667 -52.667 -33.334 -102.834 -68.001 -150.501s-78 -87.834 -130 -120.501c-55.333 -35.333 -117.5 -62.666 -186.5 -81.999s-148.833 -29 -239.5 -29z" />
    <glyph glyph-name="t" unicode="t" horiz-adv-x="851" 
d="M559 -22c-142.667 0 -240.331 29.3311 -292.998 87.998s-65.334 154.667 -38.001 288l109 525h-134l51 244h134l67 321h350l-67 -321h337l-51 -244h-337l-82 -398c-8.66699 -39.333 -15.667 -73.666 -21 -102.999s-5.33301 -55.666 0 -78.999
c4 -23.333 16.5 -41.833 37.5 -55.5s54.167 -20.5 99.5 -20.5c18.667 0 44 4 76 12s54.667 15.333 68 22h30l-51 -247c-40.667 -10 -82.834 -17.833 -126.501 -23.5s-96.5 -8.5 -158.5 -8.5z" />
    <glyph glyph-name="u" unicode="u" horiz-adv-x="1311" 
d="M1177 0l-349.999 0.000976562l25 124c-71.333 -50.667 -135 -89.167 -191 -115.5s-119 -39.5 -189 -39.5c-111.333 0 -190.833 35.167 -238.5 105.5s-56.834 176.166 -27.501 317.499l152 731h352l-116 -557c-12 -58 -20.333 -105.333 -25 -142s-4 -67.667 2 -93
c6 -23.333 19 -41 39 -53s50 -18 90 -18c24.667 0 55 6 91 18s70.333 28.333 103 49l166 796h350z" />
    <glyph glyph-name="v" unicode="v" horiz-adv-x="1185" 
d="M1418 1123l-636 -1123h-382l-167 1123h368l76 -743l381 743h360z" />
    <glyph glyph-name="w" unicode="w" horiz-adv-x="1822" 
d="M2040 1123l-561 -1123h-372l-47 726l-348 -726h-372l-92 1123h368l18 -743l367 743h309l47 -743l323 743h360z" />
    <glyph glyph-name="x" unicode="x" horiz-adv-x="1238" 
d="M1242 0h-410l-147 323l-287 -323h-402l529 561l-289 562h410l144 -317l277 317h403l-522 -553z" />
    <glyph glyph-name="y" unicode="y" horiz-adv-x="1179" 
d="M1415 1123l-886 -1535h-376l261 439l-184 1096h368l90 -704l367 704h360z" />
    <glyph glyph-name="z" unicode="z" horiz-adv-x="1077" 
d="M1030 0h-982l48 231l666 629h-512l55 263h947l-47 -227l-668 -628h548z" />
    <glyph glyph-name="braceleft" unicode="{" horiz-adv-x="1276" 
d="M1057 -392l-263.999 -0.00195312c-129.333 0 -224.833 32.833 -286.5 98.5s-79.5 161.834 -53.5 288.501l31 149c24 112.667 16 193.667 -24 243s-121.333 74 -244 74h-65l51 242h65c122.667 0 214 24.667 274 74s102 130.333 126 243l31 149
c26 126.667 83.5 222.834 172.5 288.501s198.167 98.5 327.5 98.5h264l-46 -220h-109c-40 0 -76.667 -3 -110 -9s-63 -17.333 -89 -34c-26 -17.333 -48.167 -42.5 -66.5 -75.5s-32.833 -75.5 -43.5 -127.5l-23 -113c-20 -96 -64.167 -175.5 -132.5 -238.5
s-151.5 -111.167 -249.5 -144.5l-5 -24c84.667 -33.333 147.834 -81.5 189.501 -144.5s52.5 -142.5 32.5 -238.5l-23 -113c-10.667 -52 -13.834 -94.5 -9.50098 -127.5s16.166 -58.167 35.499 -75.5c17.333 -17.333 41.833 -28.833 73.5 -34.5s67.5 -8.5 107.5 -8.5h109z
" />
    <glyph glyph-name="bar" unicode="|" horiz-adv-x="1304" 
d="M710 -392h-281l405 1948h281z" />
    <glyph glyph-name="braceright" unicode="}" horiz-adv-x="1276" 
d="M1315 461l-65.001 0.00195312c-122.667 0 -214 -24.667 -274 -74s-102 -130.333 -126 -243l-31 -149c-26 -126.667 -83.5 -222.834 -172.5 -288.501s-198.167 -98.5 -327.5 -98.5h-264l46 220h109c40 0 76.667 3 110 9s63 17.333 89 34c26 17.333 48.167 42.5 66.5 75.5
s32.833 75.5 43.5 127.5l23 113c20 96 64.167 175.5 132.5 238.5s151.5 111.167 249.5 144.5l5 24c-84.667 33.333 -147.834 81.5 -189.501 144.5s-52.5 142.5 -32.5 238.5l23 113c10.667 52 13.834 94.5 9.50098 127.5s-16.166 58.167 -35.499 75.5
c-18 16.667 -42.667 28 -74 34s-67 9 -107 9h-109l46 220h264c129.333 0 224.833 -32.833 286.5 -98.5s79.5 -161.834 53.5 -288.501l-31 -149c-24 -112.667 -16 -193.667 24 -243s121.333 -74 244 -74h65z" />
    <glyph glyph-name="asciitilde" unicode="~" horiz-adv-x="1676" 
d="M1750 989c-44 -210 -112.828 -371.499 -206.495 -484.499s-209.167 -169.5 -346.5 -169.5c-45.333 0 -84 5.33301 -116 16s-60 25 -84 43c-24.667 20 -44.834 40.667 -60.501 62l-50.5 72c-14.667 22.667 -28.167 45.5 -40.5 68.5s-25.5 44.167 -39.5 63.5
c-12.667 17.333 -27.5 32.166 -44.5 44.499s-34.833 18.5 -53.5 18.5c-37.333 0 -68 -9.16699 -92 -27.5s-45.333 -44.833 -64 -79.5c-19.333 -36.667 -35.666 -79.667 -48.999 -129s-26.333 -100.666 -39 -153.999h-260c44.667 216 114.167 379 208.5 489
s209.166 165 344.499 165c44 0 82.167 -5.5 114.5 -16.5s61.166 -25.833 86.499 -44.5c24 -18 45.667 -39.667 65 -65s35 -47.666 47 -66.999l40 -69.5c13.333 -23.667 26.666 -44.5 39.999 -62.5c13.333 -18.667 27.833 -33.834 43.5 -45.501s33.167 -17.5 52.5 -17.5
c36 0 66.667 9.33301 92 28s46.666 45 63.999 79c19.333 36.667 35.666 79.667 48.999 129s26.333 100.666 39 153.999h260z" />
    <glyph glyph-name="exclamdown" unicode="&#xa1;" horiz-adv-x="702" 
d="M802 1225h-394l55 264h394zM550 0h-398l261 1060h316z" />
    <glyph glyph-name="cent" unicode="&#xa2;" horiz-adv-x="1304" 
d="M708 -16c-86 6 -159.668 22.332 -221.001 48.999s-111.666 63.667 -150.999 111c-39.333 48.667 -65.5 108.167 -78.5 178.5s-9.83301 151.833 9.5 244.5c20.667 98 53.667 183.667 99 257s99 134.333 161 183c60.667 47.333 127.667 83.333 201 108
s148.333 39.667 225 45l65 315h164l-66 -319c66.667 -8 123 -21.5 169 -40.5s77.333 -32.833 94 -41.5l-62 -295h-45c-16.667 20 -43.667 44 -81 72s-81 47.333 -131 58l-140 -676c56 8.66699 107.167 25.834 153.5 51.501s83.833 51.5 112.5 77.5h45l-62 -295
c-34 -14 -77.833 -29.5 -131.5 -46.5s-108.5 -28.167 -164.5 -33.5l-73 -348h-164zM764.999 235.999l139.002 672c-71.333 -16 -132.333 -54.833 -183 -116.5s-85.334 -136.5 -104.001 -224.5c-19.333 -93.333 -15.333 -168 12 -224s72.666 -91.667 135.999 -107z" />
    <glyph glyph-name="sterling" unicode="&#xa3;" horiz-adv-x="1304" 
d="M1207 0l-1087 -0.00195312l57 277c78 21.333 137 57.5 177 108.5s69.667 123.5 89 217.5h-166l44 213h166l55 265c27.333 130 95.5 235.333 204.5 316s235.5 121 379.5 121c84 0 152.833 -5.66699 206.5 -17s94.167 -21.666 121.5 -30.999l-63 -306h-35
c-26.667 24.667 -59.834 44.834 -99.501 60.501s-81.5 23.5 -125.5 23.5c-60 0 -113 -19.833 -159 -59.5s-76.333 -95.167 -91 -166.5l-43 -206h373l-44 -213h-373c-5.33301 -26 -15.666 -56.833 -30.999 -92.5s-31.333 -65.167 -48 -88.5
c-18.667 -26.667 -40.167 -51.5 -64.5 -74.5s-51.166 -41.5 -80.499 -55.5l-2 -11h697z" />
    <glyph glyph-name="currency" unicode="&#xa4;" horiz-adv-x="1304" 
d="M1244 283l-186.001 -155.001l-159 199c-30 -14.667 -59.667 -26 -89 -34s-62.666 -12 -99.999 -12c-38.667 1.33301 -71.167 5.83301 -97.5 13.5s-50.833 18.5 -73.5 32.5l-242 -201l-125 157l244 200c-8.66699 26 -13.667 53.5 -15 82.5s1.66699 60.167 9 93.5
c7.33301 35.333 17.833 67.833 31.5 97.5s31.834 58.834 54.501 87.501l-158 202l181 151l160 -201c31.333 15.333 61 26.333 89 33s61.667 10 101 10c33.333 0.666992 63.666 -2.83301 90.999 -10.5s52.333 -18.167 75 -31.5l243 200l124 -156l-243 -200
c9.33301 -24.667 15 -52.5 17 -83.5s-0.333008 -63.167 -7 -96.5c-8 -36 -19 -68.833 -33 -98.5s-30.333 -56.5 -49 -80.5zM947.999 661.999c9.33301 45.333 1.66602 83.666 -23.001 114.999s-59.667 47 -105 47c-44.667 0.666992 -86.167 -14.833 -124.5 -46.5
s-62.166 -70.167 -71.499 -115.5c-8.66699 -43.333 -0.5 -81.166 24.5 -113.499s59.5 -48.5 103.5 -48.5c46 0.666992 87.833 16.667 125.5 48s61.167 69.333 70.5 114z" />
    <glyph glyph-name="yen" unicode="&#xa5;" horiz-adv-x="1304" 
d="M1592 1489l-623 -807l-12 -57h315l-44 -213h-313l-85 -412h-358l85 412h-313l44 213h315l8 38l-281 826h406l131 -487l333 487h392z" />
    <glyph glyph-name="brokenbar" unicode="&#xa6;" horiz-adv-x="1304" 
d="M949 758h-281l166 798h281zM710 -392h-281l166 798h281z" />
    <glyph glyph-name="section" unicode="&#xa7;" horiz-adv-x="1304" 
d="M1329 602c-14 -66.667 -44.6582 -127.501 -91.9912 -182.501s-107.333 -102.167 -180 -141.5l-1 -7c55.333 -35.333 91.333 -76.333 108 -123s18.667 -99.334 6 -158.001c-10.667 -54 -34.167 -104.667 -70.5 -152s-82.833 -87.666 -139.5 -120.999
c-62 -36 -128 -63.167 -198 -81.5s-154 -27.5 -252 -27.5c-64 0 -136.833 5.5 -218.5 16.5s-143.834 24.5 -186.501 40.5l59 286h22c26.667 -18.667 69.5 -38.167 128.5 -58.5s121.167 -30.5 186.5 -30.5c84 0 146.667 11 188 33s65.666 52 72.999 90
c5.33301 26 2.83301 47.333 -7.5 64s-27.5 31.334 -51.5 44.001c-26.667 13.333 -59.334 26.333 -98.001 39s-80.334 27.334 -125.001 44.001c-103.333 38.667 -177.833 85.167 -223.5 139.5s-59.5 124.5 -41.5 210.5c13.333 66 43.166 126.167 89.499 180.5
s106.833 102.166 181.5 143.499l2 7c-56.667 36.667 -93.334 79 -110.001 127s-18.667 102.667 -6 164c10.667 49.333 33.667 96.333 69 141s81.666 84.667 138.999 120c56.667 34 123.667 61 201 81s160.666 30 249.999 30c68.667 0 139.5 -5.16699 212.5 -15.5
s133.833 -24.166 182.5 -41.499l-60 -286h-22c-26.667 18.667 -68.834 38.167 -126.501 58.5s-116.834 30.5 -177.501 30.5c-70 0 -129.333 -11.5 -178 -34.5s-76.667 -52.5 -84 -88.5c-5.33301 -26 -2.5 -47.167 8.5 -63.5s28.833 -30.833 53.5 -43.5
c25.333 -12.667 56.333 -25.334 93 -38.001l130 -46c103.333 -38 177.833 -84.333 223.5 -139s59.834 -125 42.501 -211zM961.009 546.999c8 37.333 2.33203 67.833 -17.001 91.5s-49.666 44.5 -90.999 62.5c-14 6 -33 13.5 -57 22.5s-51.667 18.5 -83 28.5
c-27.333 -18.667 -54.166 -43 -80.499 -73s-43.166 -62.667 -50.499 -98c-8 -38 -1.83301 -68.833 18.5 -92.5s50.166 -44.167 89.499 -61.5c16 -6.66699 37.167 -15 63.5 -25s52.166 -19 77.499 -27c22 14 47.167 36.5 75.5 67.5s46.5 65.833 54.5 104.5z" />
    <glyph glyph-name="dieresis" unicode="&#xa8;" horiz-adv-x="1118" 
d="M1206 1283h-287l57 273h287zM725 1283h-287l57 273h287z" />
    <glyph glyph-name="copyright" unicode="&#xa9;" horiz-adv-x="1902" 
d="M1952 655c-50 -238.667 -177.001 -442.5 -381.001 -611.5s-425.333 -253.5 -664 -253.5s-425 84.5 -559 253.5s-176 372.833 -126 611.5c49.333 238.667 176.166 442.5 380.499 611.5s425.833 253.5 664.5 253.5s424.834 -84.5 558.501 -253.5
s175.834 -372.833 126.501 -611.5zM1761 655c38.667 186 6 345.667 -98 479s-249 200 -435 200s-358.667 -66.667 -518 -200s-258.333 -293 -297 -479s-6 -345.667 98 -479s249 -200 435 -200s358.667 66.667 518 200s258.333 293 297 479zM1326 277l-60.0029 -24.502
c-20.667 -8.33301 -45 -16.166 -73 -23.499c-28.667 -8 -54.167 -14 -76.5 -18s-49.833 -6 -82.5 -6c-62 0 -119 9.33301 -171 28s-95 46.667 -129 84c-34 38.667 -57.167 86 -69.5 142s-10.166 123 6.50098 201c15.333 74 40.666 139 75.999 195s78 104 128 144
c48.667 38.667 103.334 68.167 164.001 88.5s122.334 30.5 185.001 30.5c50 0 97.167 -6.83301 141.5 -20.5s84.5 -30.5 120.5 -50.5l-42 -204h-20c-11.333 10 -23.5 20.167 -36.5 30.5s-30.167 21.5 -51.5 33.5c-18.667 10 -40.5 18.667 -65.5 26s-51.167 11 -78.5 11
c-70.667 0 -130.167 -24.167 -178.5 -72.5s-82.166 -118.833 -101.499 -211.5c-19.333 -90.667 -14.5 -160.167 14.5 -208.5s78.167 -72.5 147.5 -72.5c30.667 0 60.5 3.83301 89.5 11.5s54.167 16.5 75.5 26.5c25.333 12 46.833 23.333 64.5 34s32.5 20.334 44.5 29.001h20
z" />
    <glyph glyph-name="ordfeminine" unicode="&#xaa;" horiz-adv-x="1040" 
d="M1036 596l-277.998 -0.000976562l20 95l-61 -43.5c-17.333 -12.333 -40.333 -24.833 -69 -37.5c-28 -12.667 -54.5 -22.167 -79.5 -28.5s-58.833 -9.5 -101.5 -9.5c-77.333 0 -137.333 26.333 -180 79s-55.334 120.334 -38.001 203.001
c14 68.667 38.333 122.834 73 162.501s80 71.834 136 96.501c53.333 23.333 115.5 40.166 186.5 50.499s150.167 18.166 237.5 23.499l1 4c10.667 50 -0.333008 84.5 -33 103.5s-85.334 28.5 -158.001 28.5c-44.667 0 -93.5 -8.5 -146.5 -25.5s-90.833 -29.833 -113.5 -38.5
h-24l45 216c30 8 77.167 17.5 141.5 28.5s127.833 16.5 190.5 16.5c148.667 0 254.667 -24.667 318 -74s83.333 -129 60 -239zM807.002 830.999l39 187c-35.333 -3.33301 -73.166 -7.83301 -113.499 -13.5s-72.166 -12.167 -95.499 -19.5
c-26 -8.66699 -47.667 -21.667 -65 -39s-29 -40.333 -35 -69c-8.66699 -41.333 -4 -70 14 -86s50.667 -24 98 -24c25.333 0 52.166 5.83301 80.499 17.5s54.166 27.167 77.499 46.5z" />
    <glyph glyph-name="guillemotleft" unicode="&#xab;" horiz-adv-x="1440" 
d="M1288 148l-467 446l27 129l652 445l-61 -296l-326 -214l237 -214zM718 148l-467 446l27 129l652 445l-61 -296l-326 -214l237 -214z" />
    <glyph glyph-name="logicalnot" unicode="&#xac;" horiz-adv-x="1676" 
d="M1482 50h-274l106 508h-1004l53 258h1278z" />
    <glyph glyph-name="registered" unicode="&#xae;" horiz-adv-x="1902" 
d="M1952 655c-50 -238.667 -177.001 -442.5 -381.001 -611.5s-425.333 -253.5 -664 -253.5s-425 84.5 -559 253.5s-176 372.833 -126 611.5c49.333 238.667 176.166 442.5 380.499 611.5s425.833 253.5 664.5 253.5s424.834 -84.5 558.501 -253.5
s175.834 -372.833 126.501 -611.5zM1761 655c38.667 186 6 345.667 -98 479s-249 200 -435 200s-358.667 -66.667 -518 -200s-258.333 -293 -297 -479s-6 -345.667 98 -479s249 -200 435 -200s358.667 66.667 518 200s258.333 293 297 479zM1469 245l-261 0.000976562
l-185 316h-82l-66 -316h-204l179 861h314c58 0 104.333 -2.33301 139 -7s67.334 -16.667 98.001 -36c33.333 -22.667 55.5 -49.334 66.5 -80.001s11.833 -69.667 2.5 -117c-13.333 -64 -41.333 -116 -84 -156s-93.334 -71.333 -152.001 -94zM1239 850.001
c4 18 3.83008 34.4971 -0.50293 49.4971s-14.166 27.167 -29.499 36.5c-13.333 8.66699 -29.5 14.334 -48.5 17.001s-43.5 4 -73.5 4h-64l-50 -243h49c30.667 0 59.5 2.5 86.5 7.5s49.167 13.5 66.5 25.5c16.667 10.667 30.334 24.334 41.001 41.001
s18.334 37.334 23.001 62.001z" />
    <glyph glyph-name="macron" unicode="&#xaf;" horiz-adv-x="1304" 
d="M1659 1632h-1336l42 201h1336z" />
    <glyph glyph-name="degree" unicode="&#xb0;" horiz-adv-x="1064" 
d="M1170 1117c-24 -113.333 -83.333 -208.833 -178 -286.5s-198.667 -116.5 -312 -116.5s-201.333 38.833 -264 116.5s-82 173.167 -58 286.5c23.333 113.333 82.5 208.833 177.5 286.5s199.167 116.5 312.5 116.5c114 0 202 -38.833 264 -116.5s81.333 -173.167 58 -286.5z
M951 1117c10.667 52.667 2.00293 97.667 -25.9971 135s-68.667 56 -122 56c-52.667 0 -100.834 -18.5 -144.501 -55.5s-70.834 -82.167 -81.501 -135.5c-11.333 -54.667 -2.66602 -100.167 26.001 -136.5s69 -54.5 121 -54.5c53.333 0 101.666 18.5 144.999 55.5
s70.666 82.167 81.999 135.5z" />
    <glyph glyph-name="plusminus" unicode="&#xb1;" horiz-adv-x="1676" 
d="M1482 0h-1288l53 258h513l83 400h-513l54 258h512l106 508h264l-106 -508h512l-54 -258h-513l-83 -400h513z" />
    <glyph glyph-name="twosuperior" unicode="&#xb2;" horiz-adv-x="1104" 
d="M1085 566l-791 0.000976562l39 189l160 89.5c54 31 101.333 60.5 142 88.5c81.333 55.333 135.5 100.166 162.5 134.499s44.833 71.5 53.5 111.5c8 38.667 0.666992 68.667 -22 90s-59.334 32 -110.001 32c-46.667 0 -94.667 -9.83301 -144 -29.5s-88 -36.5 -116 -50.5
h-23l50 237c50 16 105 30.167 165 42.5s124 18.5 192 18.5c122.667 0 211.334 -24.667 266.001 -74s72.334 -120 53.001 -212c-12 -58 -35.833 -111.667 -71.5 -161s-97.167 -107 -184.5 -173c-26.667 -20 -55.334 -39.833 -86.001 -59.5l-106 -67.5h414z" />
    <glyph glyph-name="threesuperior" unicode="&#xb3;" horiz-adv-x="1104" 
d="M1115 828c-18.667 -89.333 -67.501 -159.335 -146.501 -210.002s-190.833 -76 -335.5 -76c-85.333 0 -154.5 5.83301 -207.5 17.5s-96.5 25.167 -130.5 40.5l45 216h22c22 -14 57.667 -29.167 107 -45.5s99 -24.5 149 -24.5c68.667 0 119.834 8 153.501 24
s54.167 42 61.5 78c6.66699 32 0.833984 55.333 -17.499 70s-58.5 22 -120.5 22h-150l40 195h135c54.667 0 94.667 7.83301 120 23.5s41.333 38.834 48 69.501c6 30.667 -3.16699 52.834 -27.5 66.501s-65.5 20.5 -123.5 20.5c-42.667 0 -91 -8 -145 -24
s-96 -31.333 -126 -46h-22l45 213c45.333 15.333 97.833 29.333 157.5 42s128.834 19 207.501 19c122.667 0 212.667 -20.5 270 -61.5s78 -99.833 62 -176.5c-12.667 -60 -38.834 -108.5 -78.501 -145.5s-85.834 -63.833 -138.501 -80.5l-2 -8
c51.333 -10.667 92 -34.167 122 -70.5s38.667 -85.833 26 -148.5z" />
    <glyph glyph-name="acute" unicode="&#xb4;" horiz-adv-x="1118" 
d="M1227 1676l-382 -393h-238l289 393h331z" />
    <glyph glyph-name="mu1" unicode="&#xb5;" horiz-adv-x="1333" 
d="M1199 0l-309.003 -0.000976562l-2 72h-7c-37.333 -27.333 -71.666 -48.666 -102.999 -63.999s-69 -23 -113 -23c-38 0 -71.167 8 -99.5 24s-51.166 34.333 -68.499 55l-99 -476h-350l319 1535h350l-169 -811c24.667 -22 51.667 -38.167 81 -48.5
s58.666 -15.5 87.999 -15.5c26.667 0 57.334 4.83301 92.001 14.5s69.334 26.167 104.001 49.5l169 811h350z" />
    <glyph glyph-name="paragraph" unicode="&#xb6;" horiz-adv-x="1304" 
d="M1097 -363l-200.001 -0.00292969l348 1672h-145l-348 -1672h-210l199 956c-181.333 4 -310.166 45.833 -386.499 125.5s-99.833 189.834 -70.5 330.501c13.333 66.667 36.833 125.834 70.5 177.501s78.834 97.834 135.501 138.501c54.667 38.667 121.167 69 199.5 91
s165.166 33 260.499 33h532z" />
    <glyph glyph-name="periodcentered" unicode="&#xb7;" horiz-adv-x="744" 
d="M700 730h-354l82 393h354z" />
    <glyph glyph-name="cedilla" unicode="&#xb8;" horiz-adv-x="1118" 
d="M834 20c-2 -12 -4.5 -28.5 -7.5 -49.5s-6.16699 -39.833 -9.5 -56.5c-22.667 -108 -71.834 -191.167 -147.501 -249.5s-164.834 -87.5 -267.501 -87.5c-24 0 -57.833 2.33301 -101.5 7s-75.834 10.334 -96.501 17.001l41 200h19c14.667 -7.33301 35.834 -15 63.501 -23
s54.834 -12 81.501 -12c47.333 0 88.833 13 124.5 39s59.167 66.333 70.5 121c4.66699 20.667 8.33398 39.167 11.001 55.5s5 29.166 7 38.499h212z" />
    <glyph glyph-name="onesuperior" unicode="&#xb9;" horiz-adv-x="1104" 
d="M1034 566h-680.999l39 188h211l89 426h-219l37 178c75.333 0 137.166 10 185.499 30s80.5 55 96.5 105h234l-154 -739h201z" />
    <glyph glyph-name="ordmasculine" unicode="&#xba;" horiz-adv-x="1104" 
d="M1243 1043c-30.667 -147.333 -95.333 -263.667 -194 -349s-221.667 -128 -369 -128c-149.333 0 -255 43.333 -317 130s-78 202.334 -48 347.001c31.333 148 96.5 264.5 195.5 349.5s221.833 127.5 368.5 127.5c148 0 253.5 -42.333 316.5 -127
s78.833 -201.334 47.5 -350.001zM860.001 823.999c24.667 26 44.332 56.666 58.999 91.999s27 77 37 125c20 97.333 19.667 168.166 -1 212.499s-60 66.5 -118 66.5c-24.667 0 -48 -3.83301 -70 -11.5s-44 -22.5 -66 -44.5c-20 -20.667 -38.667 -49.167 -56 -85.5
s-31.666 -82.166 -42.999 -137.499c-19.333 -93.333 -19 -162.333 1 -207s60.333 -67 121 -67c23.333 0 47 4.33301 71 13s45.667 23.334 65 44.001z" />
    <glyph glyph-name="guillemotright" unicode="&#xbb;" horiz-adv-x="1440" 
d="M1435 594l-653 -446l62 296l325 214l-236 214l61 296l468 -445zM865 594l-653 -446l62 296l325 214l-236 214l61 296l468 -445z" />
    <glyph glyph-name="onequarter" unicode="&#xbc;" horiz-adv-x="2310" 
d="M775 559h-271.999l126 607h-224l38 182c76.667 0 140.167 11.833 190.5 35.5s83.166 60.167 98.499 109.5h237zM1944 1498l-1096 -1498h-264l1096 1498h264zM2218 197h-163l-40 -197h-258l40 197h-465l55 261l551 486h273l-117 -561h163zM1840 383l70 335l-390 -335h320z
" />
    <glyph glyph-name="onehalf" unicode="&#xbd;" horiz-adv-x="2310" 
d="M755 559h-271.999l126 607h-224l38 182c76.667 0 140.167 11.833 190.5 35.5s83.166 60.167 98.499 109.5h237zM1914 1498l-1096 -1498h-264l1096 1498h264zM2217 0l-790.999 0.00195312l39 189l160 90c54 31.333 101.333 60.666 142 87.999
c80.667 55.333 134.5 100.166 161.5 134.499s44.833 71.5 53.5 111.5c8 38.667 0.666992 68.667 -22 90s-59.334 32 -110.001 32c-46.667 0 -94.667 -9.83301 -144 -29.5s-87.666 -36.5 -114.999 -50.5h-23l49 237c50 16 105.167 30.167 165.5 42.5s124.5 18.5 192.5 18.5
c122.667 0 211.167 -24.667 265.5 -74s71.833 -120 52.5 -212c-12 -58 -35.833 -111.667 -71.5 -161s-96.834 -107 -183.501 -173c-27.333 -20 -56.333 -39.833 -87 -59.5l-106 -67.5h414z" />
    <glyph glyph-name="threequarters" unicode="&#xbe;" horiz-adv-x="2310" 
d="M1085 828c-18.667 -89.333 -67.501 -159.335 -146.501 -210.002s-190.833 -76 -335.5 -76c-85.333 0 -154.5 5.83301 -207.5 17.5s-96.5 25.167 -130.5 40.5l45 216h22c22 -14 57.667 -29.167 107 -45.5s99 -24.5 149 -24.5c68.667 0 119.834 8 153.501 24
s54.167 42 61.5 78c6.66699 32 0.833984 55.333 -17.499 70s-58.5 22 -120.5 22h-150l40 195h135c54.667 0 94.667 7.83301 120 23.5s41.333 38.834 48 69.501c6 30.667 -3.16699 52.834 -27.5 66.501s-65.5 20.5 -123.5 20.5c-42.667 0 -91 -8 -145 -24
s-96 -31.333 -126 -46h-22l45 213c45.333 15.333 97.833 29.333 157.5 42s128.834 19 207.501 19c122.667 0 212.667 -20.5 270 -61.5s78 -99.833 62 -176.5c-12.667 -60 -38.834 -108.5 -78.501 -145.5s-85.834 -63.833 -138.501 -80.5l-2 -8
c51.333 -10.667 92 -34.167 122 -70.5s38.667 -85.833 26 -148.5zM2054 1498l-1096 -1498h-264l1096 1498h264zM2298 196.998h-163l-40 -197h-258l40 197h-465l55 261l551 486h273l-117 -561h163zM1920 382.998l70 335l-390 -335h320z" />
    <glyph glyph-name="questiondown" unicode="&#xbf;" horiz-adv-x="1160" 
d="M1103 1225h-394l55 264h394zM1060 56c-46.667 -18.667 -113 -37.667 -199 -57s-176 -29 -270 -29c-84 0 -156 9.83301 -216 29.5s-109 47.167 -147 82.5c-37.333 34.667 -62.5 76 -75.5 124s-13.5 100.333 -1.5 157c14 66 36.167 125.167 66.5 177.5
s67.5 97.833 111.5 136.5c43.333 38 93 72 149 102s117.333 57.333 184 82l47 228h342l-70 -335c-39.333 -10 -83.5 -23.833 -132.5 -41.5s-93.833 -38.834 -134.5 -63.501c-42 -26 -78.167 -56.333 -108.5 -91s-50.5 -75.667 -60.5 -123c-14 -66 -3 -114 33 -144
s91.333 -45 166 -45c56 0 118 12.333 186 37s122.667 49.334 164 74.001h29z" />
    <glyph glyph-name="Agrave" unicode="&#xc0;" horiz-adv-x="1402" 
d="M-6 0l812 1489h408l194 -1489h-385l-30 304h-468l-156 -304h-375zM967 574l-50 491l-254 -491h304zM1260 1656h-238l-218 393h331z" />
    <glyph glyph-name="Aacute" unicode="&#xc1;" horiz-adv-x="1402" 
d="M-6 0l812 1489h408l194 -1489h-385l-30 304h-468l-156 -304h-375zM967 574l-50 491l-254 -491h304zM1436 2049l-382 -393h-238l289 393h331z" />
    <glyph glyph-name="Acircumflex" unicode="&#xc2;" horiz-adv-x="1402" 
d="M-6 0l812 1489h408l194 -1489h-385l-30 304h-468l-156 -304h-375zM967 574l-50 491l-254 -491h304zM1460 1646h-259l-120 213l-209 -213h-255l383 393h241z" />
    <glyph glyph-name="Atilde" unicode="&#xc3;" horiz-adv-x="1402" 
d="M-6 0l812 1489h408l194 -1489h-385l-30 304h-468l-156 -304h-375zM967 574l-50 491l-254 -491h304zM1549 1976c-30 -111.333 -74.666 -192.832 -133.999 -244.499s-132.333 -77.5 -219 -77.5c-32 0 -61 6.5 -87 19.5s-48 25.833 -66 38.5
c-17.333 12.667 -36.833 25.5 -58.5 38.5s-40.834 19.5 -57.501 19.5c-33.333 0 -58.166 -10.5 -74.499 -31.5s-29.833 -51.167 -40.5 -90.5h-210c24 97.333 67.333 175.166 130 233.499s136.334 87.5 221.001 87.5c32 0 60.5 -5.66699 85.5 -17s48.833 -24.333 71.5 -39
c17.333 -11.333 36.666 -23.333 57.999 -36s39.666 -19 54.999 -19c32 0 57.167 10.667 75.5 32s31.833 50 40.5 86h210z" />
    <glyph glyph-name="Adieresis" unicode="&#xc4;" horiz-adv-x="1402" 
d="M-6 0l812 1489h408l194 -1489h-385l-30 304h-468l-156 -304h-375zM967 574l-50 491l-254 -491h304zM1419 1656h-287l57 273h287zM938 1656h-287l57 273h287z" />
    <glyph glyph-name="Aring" unicode="&#xc5;" horiz-adv-x="1402" 
d="M1408 0h-384.999l-30 304h-468l-156 -304h-375l772 1412c-23.333 27.333 -40.333 59.333 -51 96s-11.334 76 -2.00098 118c17.333 84.667 64.833 157.334 142.5 218.001s160.5 91 248.5 91s158.167 -30.333 210.5 -91s69.833 -133.334 52.5 -218.001
c-8.66699 -40.667 -26 -80 -52 -118s-56.667 -70.667 -92 -98zM1177 1635c9.33301 42 3.99805 76.667 -16.002 104s-49.667 41 -89 41s-74.666 -13.667 -105.999 -41s-51.666 -62 -60.999 -104c-8.66699 -42 -3.16699 -76.833 16.5 -104.5s49.5 -41.5 89.5 -41.5
s75.667 14 107 42s51 62.667 59 104zM966.999 574l-50 491l-254 -491h304z" />
    <glyph glyph-name="AE" unicode="&#xc6;" horiz-adv-x="2025" 
d="M1925 0h-1007l83 404h-412l-222 -404h-385l859 1489h1393l-59 -284h-635l-54 -261h585l-59 -284h-585l-78 -376h635zM1060 684l111 535h-122l-301 -535h312z" />
    <glyph glyph-name="Ccedilla" unicode="&#xc7;" horiz-adv-x="1367" 
d="M790 -27c-224.667 0 -388.332 67.168 -490.999 201.501s-128.667 323.833 -78 568.5c50 239.333 155.167 428.333 315.5 567s352.166 208 575.499 208c59.333 0 112 -3.33301 158 -10s89.333 -16 130 -28c32 -9.33301 66.167 -22.833 102.5 -40.5
s65.5 -32.834 87.5 -45.501l-73 -355h-38c-14.667 16 -33.5 35.167 -56.5 57.5s-49.5 44.166 -79.5 65.499s-64.333 39.5 -103 54.5s-80.667 22.5 -126 22.5c-54 0 -105.333 -8.5 -154 -25.5s-97.667 -46.5 -147 -88.5c-44.667 -38 -85.667 -89.333 -123 -154
s-65 -141 -83 -229c-19.333 -92.667 -23.166 -170.5 -11.499 -233.5s33.5 -113.833 65.5 -152.5c30.667 -37.333 68 -64.333 112 -81s89.667 -25 137 -25c49.333 0 98.166 8.16699 146.499 24.5s89.833 34.5 124.5 54.5c37.333 20.667 71 41.667 101 63l78 57h34l-73 -350
l-134.5 -55c-49 -19.333 -101.167 -34.666 -156.5 -45.999c-2 -10.667 -4.33301 -24.334 -7 -41.001l-7 -43c-22.667 -108 -71.834 -191.167 -147.501 -249.5s-164.834 -87.5 -267.501 -87.5c-24 0 -57.833 2.33301 -101.5 7s-75.834 10.334 -96.501 17.001l41 200h19
c14.667 -7.33301 35.834 -15 63.501 -23s54.834 -12 81.501 -12c50.667 0 92.834 13.333 126.501 40s56.5 68 68.5 124l9 43h-22z" />
    <glyph glyph-name="Egrave" unicode="&#xc8;" horiz-adv-x="1260" 
d="M154 0l309 1489h1007l-59 -284h-635l-54 -261h585l-59 -284h-585l-78 -376h635l-59 -284h-1007zM1234 1656h-238l-218 393h331z" />
    <glyph glyph-name="Eacute" unicode="&#xc9;" horiz-adv-x="1260" 
d="M154 0l309 1489h1007l-59 -284h-635l-54 -261h585l-59 -284h-585l-78 -376h635l-59 -284h-1007zM1433 2049l-382 -393h-238l289 393h331z" />
    <glyph glyph-name="Ecircumflex" unicode="&#xca;" horiz-adv-x="1260" 
d="M154 0l309 1489h1007l-59 -284h-635l-54 -261h585l-59 -284h-585l-78 -376h635l-59 -284h-1007zM1384 1656h-259l-120 213l-209 -213h-255l383 393h241z" />
    <glyph glyph-name="Edieresis" unicode="&#xcb;" horiz-adv-x="1260" 
d="M154 0l309 1489h1007l-59 -284h-635l-54 -261h585l-59 -284h-585l-78 -376h635l-59 -284h-1007zM1386 1656h-287l57 273h287zM905 1656h-287l57 273h287z" />
    <glyph glyph-name="Igrave" unicode="&#xcc;" horiz-adv-x="990" 
d="M896 0h-802l54 260h214l201 969h-214l54 260h802l-54 -260h-214l-201 -969h214zM1026 1656h-238l-218 393h331z" />
    <glyph glyph-name="Iacute" unicode="&#xcd;" horiz-adv-x="990" 
d="M896 0h-802l54 260h214l201 969h-214l54 260h802l-54 -260h-214l-201 -969h214zM1282 2049l-382 -393h-238l289 393h331z" />
    <glyph glyph-name="Icircumflex" unicode="&#xce;" horiz-adv-x="990" 
d="M896 0h-802l54 260h214l201 969h-214l54 260h802l-54 -260h-214l-201 -969h214zM1262 1656h-259l-120 213l-209 -213h-255l383 393h241z" />
    <glyph glyph-name="Idieresis" unicode="&#xcf;" horiz-adv-x="990" 
d="M896 0h-802l54 260h214l201 969h-214l54 260h802l-54 -260h-214l-201 -969h214zM1222 1656h-287l57 273h287zM741 1656h-287l57 273h287z" />
    </font>
</defs>
</svg>
