<?xml version="1.0" standalone="no"?>
<!DOCTYPE svg PUBLIC "-//W3C//DTD SVG 1.1//EN" "http://www.w3.org/Graphics/SVG/1.1/DTD/svg11.dtd" >
<svg>
<metadata>
Created by FontForge 20090914 at Wed Mar  8 11:55:54 2017
 By www-data
Times New Roman &#194;&#169; The Monotype Corporation plc. Data &#194;&#169; The Monotype Corporation plc/Type Solutions Inc. 1990 - 1992. All Rights Reserved.
</metadata>
<defs>
<font id="TimesNRCyrMT-Inclined" horiz-adv-x="1024" >
  <font-face 
    font-family="Times New Roman Cyr"
    font-weight="400"
    font-style="italic"
    font-stretch="normal"
    units-per-em="2048"
    panose-1="2 2 5 3 5 4 5 9 3 4"
    ascent="1638"
    descent="-410"
    x-height="913"
    cap-height="1382"
    bbox="-325.998 -454.999 2414 1818"
    underline-thickness="102"
    underline-position="-154"
    slope="-16.333"
    unicode-range="U+0020-U+2122"
  />
<missing-glyph horiz-adv-x="1536" 
d="M256 0v1280h1024v-1280h-1024zM288 32h960v1216h-960v-1216z" />
    <glyph glyph-name=".notdef" horiz-adv-x="1536" 
d="M256 0v1280h1024v-1280h-1024zM288 32h960v1216h-960v-1216z" />
    <glyph glyph-name="space" unicode=" " horiz-adv-x="512" 
 />
    <glyph glyph-name="exclam" unicode="!" horiz-adv-x="555" 
d="M264 337h-40.001c56.667 207.333 105 444.333 145 711c24.667 167.333 49.834 268.833 75.501 304.5s52.167 53.5 79.5 53.5c48 0 72 -29 72 -87c0 -60.667 -36.667 -181.667 -110 -363c-104.667 -258.667 -178.667 -465 -222 -619zM194.999 175
c26.667 0 49.832 -9.66895 69.499 -29.002s29.5 -43 29.5 -71c0 -27.333 -9.66699 -50.666 -29 -69.999s-42.666 -29 -69.999 -29c-28 0 -51.667 9.83301 -71 29.5s-29 42.834 -29 69.501c0 28.667 10 52.5 30 71.5s43.333 28.5 70 28.5z" />
    <glyph glyph-name="quotedbl" unicode="&#x22;" horiz-adv-x="854" 
d="M329 830l30.999 296c11.333 112 28.333 188 51 228s58.334 60 107.001 60c50.667 0 76 -23.667 76 -71c0 -28 -27.667 -101 -83 -219l-139 -294h-43zM695.999 830l29 291c12 117.333 29.333 195.5 52 234.5s59.667 58.5 111 58.5c48.667 0 73 -23.333 73 -70
c0 -41.333 -25.667 -115.333 -77 -222l-141 -292h-47z" />
    <glyph glyph-name="numbersign" unicode="#" horiz-adv-x="1366" 
d="M160 998h322l85 406h124l-84 -406h421l86 406h121l-84 -406h197v-120h-222l-77 -371h299v-122h-324l-84 -403h-124l85 403h-422l-83 -403h-124l85 403h-197v122h221l76 371h-297v120zM582 878l-78 -371h422l76 371h-420z" />
    <glyph glyph-name="dollar" unicode="$" 
d="M744 1468h64.001l-26 -86c86.667 -24.667 156.334 -63.667 209.001 -117l-69 -252h-38c2 12.667 3 26 3 40c0 74.667 -9.33301 130.667 -28 168s-50.334 68.333 -95.001 93l-141 -494c113.333 -85.333 186.333 -161.5 219 -228.5s49 -131.833 49 -194.5
c0 -123.333 -46.833 -225.333 -140.5 -306s-205.834 -121 -336.501 -121c-7.33301 0 -18 0.333008 -32 1l-32 -113h-65l35 121c-98 14.667 -182.667 51.667 -254 111l81 291h39c-8 -42 -12 -79 -12 -111c0 -113.333 55 -191 165 -233l180 643
c-160 121.333 -240 246.333 -240 375c0 86.667 32.667 165.167 98 235.5s160 105.5 284 105.5c22 0 42.667 -1.33301 62 -4zM706.001 1334c-18.667 3.33301 -36.001 5 -52.001 5c-63.333 0 -117.166 -21.5 -161.499 -64.5s-66.5 -96.5 -66.5 -160.5
c0 -93.333 48.667 -177 146 -251zM572 637l-174 -600c20.667 -1.33301 36.334 -2 47.001 -2c79.333 0 150.666 28.5 213.999 85.5s95 127.833 95 212.5c0 108.667 -60.667 210 -182 304z" />
    <glyph glyph-name="percent" unicode="%" horiz-adv-x="1685" 
d="M1716 1415l-1509 -1468h-95l1509 1468h95zM690 1161c0 -107.333 -37.001 -212.5 -111.001 -315.5s-160 -154.5 -258 -154.5c-58.667 0 -104.5 23 -137.5 69s-49.5 103.333 -49.5 172c0 114.667 37 223.667 111 327s162.333 155 265 155
c50.667 0 93.334 -22.167 128.001 -66.5s52 -106.5 52 -186.5zM597.999 1249c0 48 -8.16699 83.834 -24.5 107.501s-41.166 35.5 -74.499 35.5c-76.667 0 -140.834 -68.833 -192.501 -206.5s-77.5 -252.834 -77.5 -345.501c0 -42 8.16699 -73.5 24.5 -94.5
s40.833 -31.5 73.5 -31.5c40 0 77 19 111 57s69.167 112.833 105.5 224.5s54.5 196.167 54.5 253.5zM1697 454.001c0 -107.333 -37.168 -212.5 -111.501 -315.5s-160.166 -154.5 -257.499 -154.5c-58.667 0 -104.667 22.833 -138 68.5s-50 103.167 -50 172.5
c0 120.667 37.833 231.167 113.5 331.5s163.167 150.5 262.5 150.5c51.333 0 94.333 -22.333 129 -67s52 -106.667 52 -186zM1605 543.001c0 47.333 -8.16699 82.833 -24.5 106.5s-41.166 35.5 -74.499 35.5c-41.333 0 -79.333 -19.667 -114 -59s-69.334 -112 -104.001 -218
s-52 -197.333 -52 -274c0 -42 8.16699 -73.667 24.5 -95s40.5 -32 72.5 -32c40 0 77 19 111 57s69.333 112.833 106 224.5s55 196.5 55 254.5z" />
    <glyph glyph-name="ampersand" unicode="&#x26;" horiz-adv-x="1472" 
d="M1417 730l-11.001 -37c-63.333 -9.33301 -110.5 -27 -141.5 -53s-83.833 -96.333 -158.5 -211c-25.333 -39.333 -50.666 -76 -75.999 -110l-34 -48c64 -138.667 145.333 -208 244 -208c49.333 0 96.333 25.667 141 77h37c-20 -49.333 -54.833 -90.166 -104.5 -122.499
s-105.5 -48.5 -167.5 -48.5c-104 0 -198.667 51.333 -284 154c-123.333 -102.667 -254.333 -154 -393 -154c-112.667 0 -204.834 31.333 -276.501 94s-107.5 142.667 -107.5 240c0 120.667 46.833 226.334 140.5 317.001s227.167 163.667 400.5 219
c-5.33301 38 -8 76 -8 114c0 146 36.333 259.333 109 340s154.334 121 245.001 121c55.333 0 103.833 -19.5 145.5 -58.5s62.5 -86.5 62.5 -142.5c0 -154.667 -122 -279.334 -366 -374.001c30 -163.333 79.667 -329.333 149 -498c91.333 118 137 214 137 288
c0 39.333 -24.333 60.666 -73 63.999l11 37h379zM802.999 900c161.333 80.667 242 183.334 242 308.001c0 38.667 -10 69.834 -30 93.501s-44.667 35.5 -74 35.5c-46.667 0 -83.667 -25.333 -111 -76s-41 -112.334 -41 -185.001c0 -54.667 4.66699 -113.334 14 -176.001z
M633.999 771c-223.333 -96 -334.999 -226.332 -334.999 -390.999c0 -79.333 27.167 -148.833 81.5 -208.5s121.166 -89.5 200.499 -89.5c82.667 0 163 33 241 99c-78 136 -136.333 310.333 -175 523c-6.66699 37.333 -11 59.666 -13 66.999z" />
    <glyph glyph-name="quotesingle" unicode="'" horiz-adv-x="449" 
d="M311 829l31.001 296c11.333 110.667 28.166 186.5 50.499 227.5s57.5 61.5 105.5 61.5c52.667 0 79 -23.667 79 -71c0 -27.333 -28 -100 -84 -218l-138 -296h-44z" />
    <glyph glyph-name="parenleft" unicode="(" 
d="M998 1469l23 -23.001c-174 -137.333 -319.333 -326.5 -436 -567.5s-175 -502.5 -175 -784.5c0 -157.333 27 -323.666 81 -498.999l-26 -15c-28.667 42.667 -59.667 126.5 -93 251.5s-50 251.5 -50 379.5c0 158 23.667 312 71 462s122 294.5 224 433.5
s229 259.833 381 362.5z" />
    <glyph glyph-name="parenright" unicode=")" 
d="M72 -420l-23 25.999c173.333 136 318.5 324.5 435.5 565.5s175.5 503.5 175.5 787.5c0 158 -27 324.333 -81 499l26 11c28.667 -42.667 59.667 -126.5 93 -251.5s50 -251.5 50 -379.5c0 -255.333 -59.167 -492.666 -177.5 -711.999s-284.5 -401.333 -498.5 -546z" />
    <glyph glyph-name="asterisk" unicode="*" 
d="M662 1083c-0.666992 36.667 -11.668 87.334 -33.001 152.001c-20.667 64 -31 110.667 -31 140c0 24 7.83301 45.667 23.5 65s35.167 29 58.5 29s42.5 -9.66699 57.5 -29s22.5 -40.666 22.5 -63.999c0 -31.333 -6.33301 -67.666 -19 -108.999
c-28 -89.333 -42.333 -150.666 -43 -183.999c35.333 24 75.666 61.333 120.999 112c57.333 64 108 96 152 96c18 0 34.833 -7.33301 50.5 -22s23.5 -32.334 23.5 -53.001c0 -55.333 -59 -96 -177 -122c-74 -16 -124.667 -30 -152 -42
c16.667 -12.667 56.667 -26.334 120 -41.001c80 -18 134.5 -36.333 163.5 -55s43.5 -43.667 43.5 -75c0 -20 -7.16699 -37.167 -21.5 -51.5s-30.5 -21.5 -48.5 -21.5c-46 0 -99.667 34.333 -161 103c-50.667 56 -88.667 91.333 -114 106
c0 -36.667 10.667 -87.334 32 -152.001c19.333 -60.667 29 -104.667 29 -132s-7.5 -51 -22.5 -71s-33.833 -30 -56.5 -30c-23.333 0 -42.833 10 -58.5 30s-23.5 43 -23.5 69c0 30 10.667 77.333 32 142c18.667 56 29.334 104 32.001 144
c-28.667 -15.333 -72.334 -55.333 -131.001 -120c-53.333 -59.333 -101 -89 -143 -89c-20.667 0 -38.667 7.33301 -54 22s-23 31 -23 49c0 34 15 60.333 45 79s93 38.334 189 59.001c42.667 9.33301 73.667 21 93 35c-25.333 13.333 -68.333 26.666 -129 39.999
c-91.333 19.333 -147.166 39.833 -167.499 61.5s-30.5 43.5 -30.5 65.5c0 20 7.83301 37.167 23.5 51.5s32.834 21.5 51.501 21.5c40.667 0 85.334 -26 134.001 -78c71.333 -74.667 118.666 -118.334 141.999 -131.001z" />
    <glyph glyph-name="plus" unicode="+" horiz-adv-x="1366" 
d="M211 756h478v478h129v-478h479v-129h-479v-479h-129v479h-478v129z" />
    <glyph glyph-name="comma" unicode="," horiz-adv-x="546" 
d="M-26 -226c106.667 50 160.001 104.666 160.001 163.999c0 18.667 -10.667 39.334 -32 62.001c-24 26 -36 50.667 -36 74c0 28 10.167 52.667 30.5 74s43.833 32 70.5 32c29.333 0 53.5 -12 72.5 -36s28.5 -52 28.5 -84c0 -70 -26.333 -133.333 -79 -190
s-118.334 -101 -197.001 -133z" />
    <glyph glyph-name="hyphen" unicode="-" horiz-adv-x="682" 
d="M96 557h508v-161h-508v161z" />
    <glyph glyph-name="hyphen" unicode="&#xad;" horiz-adv-x="682" 
d="M96 557h508v-161h-508v161z" />
    <glyph glyph-name="period" unicode="." horiz-adv-x="555" 
d="M173 183c28 0 52.333 -9.83301 73 -29.5s31 -44.167 31 -73.5c0 -28.667 -10.167 -53.167 -30.5 -73.5s-44.833 -30.5 -73.5 -30.5s-53.167 10.167 -73.5 30.5s-30.5 44.833 -30.5 73.5c0 29.333 10.333 53.833 31 73.5s45 29.5 73 29.5z" />
    <glyph glyph-name="slash" unicode="/" horiz-adv-x="576" 
d="M725 1469h145l-861 -1500h-145z" />
    <glyph glyph-name="zero" unicode="0" 
d="M1045 907c0 -125.333 -29.5 -268.666 -88.5 -429.999s-136.333 -286.333 -232 -375s-194.167 -133 -295.5 -133c-92.667 0 -167.667 43.667 -225 131s-86 204 -86 350c0 190 40.167 367 120.5 531s163.5 277.167 249.5 339.5s172.333 93.5 259 93.5
c82 0 152.167 -44.333 210.5 -133s87.5 -213.334 87.5 -374.001zM892 1085c0 95.333 -13.502 166.667 -40.502 214s-67.833 71 -122.5 71c-70 0 -134 -39.833 -192 -119.5s-115.833 -224.667 -173.5 -435s-86.5 -393.5 -86.5 -549.5c0 -80 13.833 -142 41.5 -186
s67.834 -66 120.501 -66c69.333 0 132.333 39.5 189 118.5s114.834 229 174.501 450s89.5 388.5 89.5 502.5z" />
    <glyph glyph-name="one" unicode="1" 
d="M890 1414l-341.999 -1193c-10 -34.667 -15 -63.334 -15 -86.001c0 -65.333 45.333 -98 136 -98h25l-11 -37h-546v37h26c72.667 0 124.167 19.833 154.5 59.5s61.833 116.5 94.5 230.5l225 781c14.667 52.667 22 89.667 22 111c0 26 -8.33301 46.167 -25 60.5
s-35.667 21.5 -57 21.5c-22.667 0 -53.334 -5.66699 -92.001 -17l-10 35l380 95h35z" />
    <glyph glyph-name="two" unicode="2" 
d="M842 270l-116.002 -270.003h-710v37c386 348.667 615.167 575.834 687.5 681.501s108.5 202.834 108.5 291.501c0 74.667 -23.667 136 -71 184s-105.666 72 -174.999 72c-50.667 0 -96.5 -11.167 -137.5 -33.5s-76.833 -56.166 -107.5 -101.499h-42
c40.667 94.667 92 165.5 154 212.5s134.667 70.5 218 70.5c88.667 0 166 -28.333 232 -85s99 -135 99 -235c0 -72 -21.833 -148.167 -65.5 -228.5s-143.167 -195.5 -298.5 -345.5s-290.666 -275 -405.999 -375h348c77.333 0 131.833 10.5 163.5 31.5
s57.167 52.167 76.5 93.5h42z" />
    <glyph glyph-name="three" unicode="3" 
d="M388 1193c73.333 147.333 180.335 220.997 321.002 220.997c80 0 147.5 -24.667 202.5 -74s82.5 -111.333 82.5 -186c0 -159.333 -113 -268.666 -339 -327.999c139.333 -76.667 209 -189 209 -337c0 -140.667 -52.5 -262.5 -157.5 -365.5s-234.5 -154.5 -388.5 -154.5
c-162.667 0 -244 36.667 -244 110c0 24.667 9.66699 45.667 29 63s42 26 68 26c38 0 89 -18 153 -54s113 -54 147 -54c59.333 0 112.166 31.333 158.499 94s69.5 143.334 69.5 242.001c0 110 -33.667 196 -101 258s-158 93 -272 93v38c43.333 0 109.666 14.667 198.999 44
s160 68.5 212 117.5s78 107.833 78 176.5c0 56.667 -18.667 102.834 -56 138.501s-81.333 53.5 -132 53.5c-80.667 0 -149 -45.667 -205 -137z" />
    <glyph glyph-name="four" unicode="4" 
d="M1053 1405l-267 -915h180l-40 -137h-180l-112 -385h-162l112 385h-497l40 137l850 915h76zM623 490l182 625l-576 -625h394z" />
    <glyph glyph-name="five" unicode="5" 
d="M1007 1382l-47 -159h-436l-78 -175c139.333 -19.333 243 -72.333 311 -159s102 -187.334 102 -302.001c0 -165.333 -60.667 -309.666 -182 -432.999s-255.333 -185 -402 -185c-58 0 -108.167 11 -150.5 33s-63.5 52.667 -63.5 92c0 21.333 7 40.833 21 58.5
s34.667 26.5 62 26.5c36 0 77.333 -18.667 124 -56c45.333 -35.333 87.333 -53 126 -53c88 0 165.333 42.333 232 127s100 182 100 292c0 108.667 -36.333 203.167 -109 283.5s-174 120.5 -304 120.5l211 489h483z" />
    <glyph glyph-name="six" unicode="6" 
d="M1102 1382c-260 -61.333 -478.334 -235.667 -655.001 -523c36 18.667 70.333 32.5 103 41.5s63.334 13.5 92.001 13.5c88 0 163.667 -32.333 227 -97s95 -152.667 95 -264c0 -142 -51.333 -274.833 -154 -398.5s-219.667 -185.5 -351 -185.5
c-104 0 -187.167 42.833 -249.5 128.5s-93.5 192.5 -93.5 320.5c0 223.333 93.333 437.333 280 642s422 322.667 706 354v-32zM400.999 777.999c-94.667 -177.333 -142.002 -345.667 -142.002 -505c0 -75.333 17 -136.333 51 -183s79.667 -70 137 -70
c94.667 0 173.834 57.667 237.501 173s95.5 243.333 95.5 384c0 78.667 -19.167 142.667 -57.5 192s-86.166 74 -143.499 74c-29.333 0 -58.833 -5.33301 -88.5 -16s-59.5 -27 -89.5 -49z" />
    <glyph glyph-name="seven" unicode="7" 
d="M1130 1382v-36.999l-790 -1373l-82 43l697 1209h-378c-80 0 -137.667 -9.33301 -173 -28s-70 -58.334 -104 -119.001h-42l160 305h712z" />
    <glyph glyph-name="eight" unicode="8" 
d="M712 775c130 -143.333 195.001 -272.997 195.001 -388.997c0 -112.667 -45.167 -210.334 -135.5 -293.001s-192.5 -124 -306.5 -124c-100.667 0 -189.5 32.5 -266.5 97.5s-115.5 145.833 -115.5 242.5c0 182 139.333 329.667 418 443c-78 92.667 -125 163.167 -141 211.5
s-24 89.5 -24 123.5c0 95.333 35.167 173.666 105.5 234.999s154.166 92 251.499 92c88 0 166.833 -27 236.5 -81s104.5 -125.333 104.5 -214c0 -146.667 -107.333 -261.334 -322 -344.001zM677.001 818.003c156 64.667 234.001 174.333 234.001 329
c0 62.667 -18.833 115.167 -56.5 157.5s-90.834 63.5 -159.501 63.5c-61.333 0 -112.833 -18.667 -154.5 -56s-62.5 -88 -62.5 -152c0 -95.333 66.333 -209.333 199 -342zM533.002 714.002c-210 -89.333 -315.001 -238 -315.001 -446c0 -70 22.833 -128 68.5 -174
s106.5 -69 182.5 -69c80.667 0 149 27.333 205 82s84 121.667 84 201c0 60 -16.667 118.667 -50 176s-91.666 134 -174.999 230z" />
    <glyph glyph-name="nine" unicode="9" 
d="M91 0c246.667 62.667 455.002 237.668 625.002 525.001c-33.333 -18 -66.833 -31.5 -100.5 -40.5s-67.5 -13.5 -101.5 -13.5c-91.333 0 -167 32.833 -227 98.5s-90 152.167 -90 259.5c0 148.667 51.167 283.334 153.5 404.001s218.166 181 347.499 181
c105.333 0 189 -41.333 251 -124s93 -192.334 93 -329.001c0 -224.667 -90.833 -436.334 -272.5 -635.001s-407.834 -317.667 -678.501 -357v31zM759.002 599.001c94.667 174 142 342.332 142 504.999c0 86.667 -17.667 151.334 -53 194.001s-81.333 64 -138 64
c-96 0 -174.833 -59.167 -236.5 -177.5s-92.5 -239.5 -92.5 -363.5c0 -89.333 19.5 -158.5 58.5 -207.5s87.5 -73.5 145.5 -73.5c26 0 53.5 5 82.5 15s59.5 24.667 91.5 44z" />
    <glyph glyph-name="colon" unicode=":" horiz-adv-x="682" 
d="M444 937c28 0 52 -10.332 72 -30.999s30 -45 30 -73c0 -28.667 -10 -53.334 -30 -74.001s-44.333 -31 -73 -31c-29.333 0 -54 10.333 -74 31s-30 45 -30 73c0 30 10.5 55 31.5 75s45.5 30 73.5 30zM211 183.001c28 0 52.333 -9.83301 73 -29.5s31 -44.167 31 -73.5
c0 -28.667 -10.167 -53.167 -30.5 -73.5s-44.833 -30.5 -73.5 -30.5s-53.167 10.167 -73.5 30.5s-30.5 44.833 -30.5 73.5c0 29.333 10.333 53.833 31 73.5s45 29.5 73 29.5z" />
    <glyph glyph-name="semicolon" unicode=";" horiz-adv-x="682" 
d="M481 937c29.333 0 54.166 -10 74.499 -30s30.5 -44.333 30.5 -73s-10.167 -53.167 -30.5 -73.5s-44.5 -30.5 -72.5 -30.5c-28.667 0 -53.167 10.167 -73.5 30.5s-30.5 44.833 -30.5 73.5c0 28 9.83301 52.167 29.5 72.5s43.834 30.5 72.501 30.5zM72 -226
c106.667 50 160.001 104.666 160.001 163.999c0 18.667 -10.667 39.334 -32 62.001c-24 26 -36 50.667 -36 74c0 28 10.167 52.667 30.5 74s43.833 32 70.5 32c29.333 0 53.5 -12 72.5 -36s28.5 -52 28.5 -84c0 -70 -26.333 -133.333 -79 -190s-118.334 -101 -197.001 -133z
" />
    <glyph glyph-name="less" unicode="&#x3c;" horiz-adv-x="1366" 
d="M1297 176l-1086 457v116l1086 457v-140l-912 -374l912 -376v-140z" />
    <glyph glyph-name="equal" unicode="=" horiz-adv-x="1366" 
d="M211 990h1086v-129h-1086v129zM211 522h1086v-129h-1086v129z" />
    <glyph glyph-name="greater" unicode="&#x3e;" horiz-adv-x="1366" 
d="M211 1207l1086 -458v-116l-1086 -456v139l912 375l-912 376v140z" />
    <glyph glyph-name="question" unicode="?" horiz-adv-x="789" 
d="M350 335l-36.998 -0.000976562c1.33301 70.667 20 143.167 56 217.5s98 163.833 186 268.5c81.333 95.333 131.5 169 150.5 221s28.5 102 28.5 150c0 62 -15.5 107.833 -46.5 137.5s-67.167 44.5 -108.5 44.5c-36 0 -69.333 -8.66699 -100 -26s-46 -38.666 -46 -63.999
c0 -12 5.66699 -27.333 17 -46c18 -28.667 27 -53.334 27 -74.001c0 -54 -27.333 -81 -82 -81c-58.667 0 -88 31.667 -88 95c0 62.667 28.167 117.834 84.5 165.501s121.166 71.5 194.499 71.5c77.333 0 148.166 -27 212.499 -81s96.5 -125 96.5 -213
c0 -66.667 -16.667 -122.667 -50 -168s-99 -105.333 -197 -180c-98 -75.333 -168.333 -143.5 -211 -204.5s-71.667 -138.833 -87 -233.5zM290.002 177.999c27.333 0 51.167 -9.5 71.5 -28.5s30.5 -43.167 30.5 -72.5c0 -28 -10 -51.833 -30 -71.5s-44 -29.5 -72 -29.5
c-27.333 0 -51 9.83301 -71 29.5s-30 43.5 -30 71.5c0 29.333 10.167 53.5 30.5 72.5s43.833 28.5 70.5 28.5z" />
    <glyph glyph-name="at" unicode="@" horiz-adv-x="1878" 
d="M1426 949l-117.005 -398.997c-62 -212 -93 -338.667 -93 -380c0 -19.333 6.66699 -36.833 20 -52.5s31.333 -23.5 54 -23.5c98 0 193.333 64.333 286 193s139 282 139 460c0 185.333 -61.667 334.166 -185 446.499s-277.666 168.5 -462.999 168.5
c-252 0 -458 -96.167 -618 -288.5s-240 -413.833 -240 -664.5c0 -236 73.333 -428.167 220 -576.5s334.334 -222.5 563.001 -222.5c194.667 0 360.167 51.833 496.5 155.5s238.833 236.167 307.5 397.5h58c-56 -181.333 -164.667 -328.833 -326 -442.5
s-341.666 -170.5 -540.999 -170.5c-245.333 0 -452 82.5 -620 247.5s-252 377.833 -252 638.5c0 281.333 93.333 514.666 280 699.999s408 278 664 278c220.667 0 395.167 -65.167 523.5 -195.5s192.5 -293.833 192.5 -490.5c0 -182 -52 -345.167 -156 -489.5
s-236 -216.5 -396 -216.5c-50.667 0 -88.834 11.333 -114.501 34s-38.5 56.667 -38.5 102c0 38 6 87.333 18 148c-153.333 -190 -284.666 -285 -393.999 -285c-54 0 -97.667 23.667 -131 71s-50 101 -50 161c0 90.667 27.333 191.167 82 301.5s128 204.666 220 282.999
s175 117.5 249 117.5c46.667 0 84.334 -11.5 113.001 -34.5s48.334 -57.5 59.001 -103.5l33 111zM1076 917.003c-86 0 -175.001 -77.334 -267.001 -232.001s-138 -285.667 -138 -393c0 -35.333 10.667 -67.666 32 -96.999s49 -44 83 -44
c58.667 0 123.334 35.5 194.001 106.5s125 154.5 163 250.5s57 184.667 57 266c0 38.667 -11 72.167 -33 100.5s-52.333 42.5 -91 42.5z" />
    <glyph glyph-name="A" unicode="A" horiz-adv-x="1473" 
d="M1197 1414l-94.002 -1155c-2.66699 -28.667 -4 -57.667 -4 -87c0 -90 48 -135 144 -135h46l-10 -37h-578l10 37h25c54.667 0 94.834 12.5 120.501 37.5s40.834 69.5 45.501 133.5l19 243h-417l-145 -192c-52 -68.667 -78 -117.667 -78 -147c0 -49.333 37 -74.333 111 -75
l-9 -37h-414l11 37c82 0 164.667 54.667 248 164l931 1213h38zM926.998 524l44 530l-409 -530h365z" />
    <glyph glyph-name="B" unicode="B" horiz-adv-x="1366" 
d="M404 1382h478.001c92 0 169.667 -8.33301 233 -25s117 -51.667 161 -105s66 -112 66 -176c0 -86.667 -37.167 -161.667 -111.5 -225s-163.833 -103 -268.5 -119c85.333 -26 149.333 -65.167 192 -117.5s64 -117.833 64 -196.5c0 -107.333 -46.667 -203.833 -140 -289.5
s-247 -128.5 -461 -128.5h-617l11 37c69.333 0 122.166 12.167 158.499 36.5s71.833 95.833 106.5 214.5l235 810c21.333 74 32 121.667 32 143c0 66 -49.667 100.667 -149 104zM777.001 1304l-157 -536c26.667 -0.666992 46.334 -1 59.001 -1
c175.333 0 293.666 34.333 354.999 103s92 143.667 92 225c0 64.667 -21.667 117 -65 157s-108 60 -194 60c-29.333 0 -59.333 -2.66699 -90 -8zM599.001 697l-176 -606c48.667 -12.667 96.667 -19 144 -19c132 0 235.5 35.5 310.5 106.5s112.5 156.833 112.5 257.5
c0 87.333 -27.5 152.833 -82.5 196.5s-137.833 65.5 -248.5 65.5c-12.667 0 -32.667 -0.333008 -60 -1z" />
    <glyph glyph-name="C" unicode="C" horiz-adv-x="1473" 
d="M1533 1414l-103 -439h-38c2.66699 22.667 4 45.667 4 69c0 101.333 -25.833 177.833 -77.5 229.5s-122.834 77.5 -213.501 77.5c-181.333 0 -343.833 -87.667 -487.5 -263s-215.5 -369.333 -215.5 -582c0 -136 43 -245.167 129 -327.5s191.667 -123.5 317 -123.5
c89.333 0 174.5 24 255.5 72s146.5 109.667 196.5 185h43c-57.333 -102.667 -139.166 -185.5 -245.499 -248.5s-220.5 -94.5 -342.5 -94.5c-168 0 -306.833 54.667 -416.5 164s-164.5 241 -164.5 395c0 227.333 95.5 431.833 286.5 613.5s397.5 272.5 619.5 272.5
c67.333 0 151.333 -15 252 -45c32.667 -10 57 -15 73 -15c31.333 0 60.333 20 87 60h41z" />
    <glyph glyph-name="D" unicode="D" horiz-adv-x="1579" 
d="M11 0l10.999 37.001c76.667 0 132.167 15.667 166.5 47s66.5 99.333 96.5 204l236 810c21.333 74 32 122 32 144c0 68.667 -49.333 103 -148 103l10 37h468c112.667 0 212.834 -15.833 300.501 -47.5s163.834 -93.834 228.501 -186.501s97 -203.667 97 -333
c0 -120.667 -29.5 -238 -88.5 -352s-137.833 -208.167 -236.5 -282.5s-196.334 -123 -293.001 -146s-201.667 -34.5 -315 -34.5h-565zM785.999 1307l-318.999 -1099c-10.667 -36 -16 -62 -16 -78c0 -45.333 39.333 -68 118 -68c223.333 0 398.166 69.167 524.499 207.5
s189.5 324.166 189.5 557.499c0 160 -35.5 280.667 -106.5 362s-174.833 122 -311.5 122c-24 0 -50.333 -1.33301 -79 -4z" />
    <glyph glyph-name="E" unicode="E" horiz-adv-x="1366" 
d="M1425 1382l-86.999 -328.001h-37c2.66699 16.667 4 33.334 4 50.001c0 138.667 -89.333 208 -268 208h-274l-156 -549h171c140.667 0 232 65.667 274 197h39l-143 -492h-39c12 40.667 18 76.667 18 108c0 40.667 -12 70.167 -36 88.5s-66.667 27.5 -128 27.5h-177
l-146 -501c-6 -22 -9 -40.333 -9 -55c0 -45.333 32.667 -68 98 -68h141c144 0 262.667 32.833 356 98.5s156.333 137.5 189 215.5h40l-132 -382h-1124l11 37c72.667 0 125.667 16.333 159 49s64.666 100 93.999 202l235 810c22 74 33 121.667 33 143
c0 69.333 -54.333 104 -163 104l11 37h1046z" />
    <glyph glyph-name="F" unicode="F" horiz-adv-x="1237" 
d="M1415 1382l-97 -334.001h-38c7.33301 30.667 11 57.667 11 81c0 121.333 -93.667 182 -281 182h-242l-159 -548h125c84 0 150 14 198 42s86.667 80.667 116 158h40l-144 -495h-40c10 33.333 15 64 15 92c0 48.667 -14.5 82.834 -43.5 102.501s-76.167 29.5 -141.5 29.5
h-143l-121 -405c-20.667 -71.333 -31 -119.333 -31 -144c0 -70.667 50.667 -106 152 -106h61l-11 -37h-638l11 37c71.333 0 123.5 16.167 156.5 48.5s64.5 99.5 94.5 201.5l235 811c21.333 74 32 121.667 32 143c0 69.333 -53 104 -159 104l11 37h1031z" />
    <glyph glyph-name="G" unicode="G" horiz-adv-x="1473" 
d="M1441 1414h37.002l-101 -433h-37c8 38.667 12 73.667 12 105c0 76 -30 138.167 -90 186.5s-135 72.5 -225 72.5c-117.333 0 -227 -36 -329 -108s-182 -178.167 -240 -318.5s-87 -283.5 -87 -429.5c0 -135.333 32.833 -243.833 98.5 -325.5s152.5 -122.5 260.5 -122.5
c68 0 137.333 15.667 208 47l92 318c22.667 77.333 34 130.666 34 159.999c0 36 -13 60.167 -39 72.5s-75.333 18.5 -148 18.5l11 37h580v-37c-62.667 0 -107.334 -8.16699 -134.001 -24.5s-50 -58.5 -70 -126.5l-128 -443c-129.333 -62.667 -268.666 -94 -417.999 -94
c-168 0 -305.667 53.333 -413 160s-161 244.667 -161 414c0 138.667 38.667 275.834 116 411.501s184.666 246.167 321.999 331.5s280 128 428 128c83.333 0 165.666 -16.333 246.999 -49c39.333 -16 67.666 -24 84.999 -24c38.667 0 68.334 24.333 89.001 73z" />
    <glyph glyph-name="H" unicode="H" horiz-adv-x="1686" 
d="M629 763l611 0.00195312l97 334c21.333 73.333 32 121.666 32 144.999c0 68.667 -56.667 103 -170 103l11 37h594l-11 -37c-62.667 -1.33301 -111.667 -14 -147 -38s-70 -94 -104 -210l-235 -810c-21.333 -73.333 -32 -121.666 -32 -144.999c0 -68 53 -103 159 -105
l-11 -37h-581l11 37c60.667 1.33301 108.834 14.166 144.501 38.499s70.5 94.833 104.5 211.5l118 408h-609l-120 -408c-21.333 -72 -32 -120.667 -32 -146c0 -66.667 50.667 -101.334 152 -104.001l-9 -37h-576l11 37c69.333 1.33301 120.666 17.5 153.999 48.5
s65 98.167 95 201.5l235 810c21.333 72.667 32 120.667 32 144c0 69.333 -56.333 104 -169 104l11 37h587l-11 -37c-60 -2 -107.5 -15.167 -142.5 -39.5s-69.167 -93.833 -102.5 -208.5z" />
    <glyph glyph-name="I" unicode="I" horiz-adv-x="789" 
d="M573 37l-11 -36.999h-561l11 37c65.333 4 113.333 21.667 144 53s60.667 97 90 197l235 810c21.333 73.333 32 121.333 32 144c0 69.333 -56 104 -168 104l11 37h588l-11 -37c-70 -1.33301 -121.333 -17.833 -154 -49.5s-63.667 -97.834 -93 -198.501l-235 -810
c-21.333 -72.667 -32 -121 -32 -145c0 -68.667 51.333 -103.667 154 -105z" />
    <glyph glyph-name="J" unicode="J" 
d="M553 1345l11 37.001h592l-11 -37c-62.667 0 -110 -17.167 -142 -51.5s-62 -99.833 -90 -196.5l-187 -645c-32 -108.667 -65.333 -193.334 -100 -254.001s-87.667 -114 -159 -160s-144.666 -69 -219.999 -69c-60.667 0 -113.5 18 -158.5 54s-67.5 82 -67.5 138
c0 40.667 12 74.5 36 101.5s54.667 40.5 92 40.5c32 0 57 -10 75 -30s27 -40.333 27 -61c0 -24.667 -12 -48.667 -36 -72c-16 -16 -24 -29.667 -24 -41c0 -20.667 5.83301 -36.167 17.5 -46.5s29.167 -15.5 52.5 -15.5c50 0 92.667 25.167 128 75.5
s72.666 142.166 111.999 275.499l206 709c21.333 73.333 32 121.333 32 144c0 34.667 -12.5 60.834 -37.5 78.501s-74.5 26.167 -148.5 25.5z" />
    <glyph glyph-name="K" unicode="K" horiz-adv-x="1473" 
d="M408 1382l589.003 0.000976562l-11 -37c-54.667 0 -99.334 -9.5 -134.001 -28.5s-59.834 -42.333 -75.501 -70s-34.167 -77.5 -55.5 -149.5l-103 -348l543 405c71.333 54 107 98.333 107 133c0 38 -24.667 57.333 -74 58l12 37h420l-12 -37
c-46.667 -3.33301 -83.834 -12.5 -111.501 -27.5s-95.167 -62.833 -202.5 -143.5l-501 -376l296 -494c70 -116.667 126.833 -190.334 170.5 -221.001s98.834 -46 165.501 -46l-10 -37h-596l11 37c83.333 5.33301 125 36.666 125 93.999c0 19.333 -11.333 48 -34 86l-309 518
l-157 -532c-9.33301 -31.333 -14 -58 -14 -80c0 -57.333 43.667 -86 131 -86h28l-11 -37h-576l11 37c49.333 4 89.166 13.833 119.499 29.5s54 37.167 71 64.5s36.5 79 58.5 155l249 858c10 34.667 15 66.334 15 95.001c0 70.667 -48.667 106 -146 106z" />
    <glyph glyph-name="L" unicode="L" horiz-adv-x="1366" 
d="M1328 387l-134 -387h-1177l11 37c75.333 0 129.833 15.833 163.5 47.5s65.5 99.5 95.5 203.5l236 809c21.333 73.333 32 121.333 32 144c0 69.333 -51.667 104 -155 104h-15l12 37h628l-10 -37c-102.667 0 -169 -16.833 -199 -50.5s-59.333 -99.5 -88 -197.5l-261 -898
c-6.66699 -23.333 -10 -41.333 -10 -54c0 -46 39.667 -69 119 -69h185c146.667 0 258.167 22 334.5 66s140.5 125.667 192.5 245h40z" />
    <glyph glyph-name="M" unicode="M" horiz-adv-x="2027" 
d="M2122 1382l-11.001 -37.001c-78.667 0 -135.667 -14.667 -171 -44s-68.666 -97.666 -99.999 -204.999l-236 -808c-20.667 -73.333 -31 -122.333 -31 -147c0 -36 13 -62.333 39 -79s71.333 -25 136 -25l-11 -37h-647l11 37c104 0 171.833 15.167 203.5 45.5
s63.167 98.833 94.5 205.5l248 853l-825 -1141h-41l-130 1141l-257 -853c-23.333 -76 -35 -127.667 -35 -155c0 -64 54.333 -96 163 -96l-10 -37h-472l11 37c81.333 0 138.5 15.333 171.5 46s65.5 99 97.5 205l296 979c-31.333 52 -96.333 78 -195 78l12 37h389l124 -1094
l791 1094h385z" />
    <glyph glyph-name="N" unicode="N" horiz-adv-x="1579" 
d="M722 1382l421.999 -1050l215 765c20 69.333 30 117 30 143c0 70 -56 105 -168 105l10 37h472l-11 -37c-76 -0.666992 -130.5 -15.667 -163.5 -45s-64.167 -97 -93.5 -203l-316 -1129h-35l-475 1177l-247 -858c-21.333 -74 -32 -122.333 -32 -145
c0 -70 53.667 -105 161 -105l-11 -37h-460l11 37c73.333 0 126.833 16.333 160.5 49s65.167 99.667 94.5 201l276 959c-14.667 35.333 -39.167 60.5 -73.5 75.5s-84.166 22.833 -149.499 23.5l10 37h373z" />
    <glyph glyph-name="O" unicode="O" horiz-adv-x="1579" 
d="M1538 919c0 -224.667 -90.5 -439.166 -271.5 -643.499s-381.5 -306.5 -601.5 -306.5c-149.333 0 -266.833 47.333 -352.5 142s-128.5 213.667 -128.5 357c0 220.667 89.5 433.5 268.5 638.5s380.5 307.5 604.5 307.5c149.333 0 266.833 -46.333 352.5 -139
s128.5 -211.334 128.5 -356.001zM1318 982.001c0 112 -24.5 200.333 -73.5 265s-115.167 97 -198.5 97c-106.667 0 -210.334 -47.167 -311.001 -141.5s-181 -225.666 -241 -393.999s-90 -309.5 -90 -423.5c0 -96 23.333 -177.833 70 -245.5s113 -101.5 199 -101.5
c109.333 0 213.333 46.333 312 139s178.834 223.167 240.501 391.5s92.5 306.166 92.5 413.499z" />
    <glyph glyph-name="P" unicode="P" horiz-adv-x="1366" 
d="M635 681l-114.999 -394.002c-20.667 -73.333 -31 -121.666 -31 -144.999c0 -38 13.333 -65 40 -81s72.667 -24 138 -24l-10 -37h-611l11 37c74.667 0 129 15.833 163 47.5s66 99.167 96 202.5l235 811c21.333 74 32 122 32 144c0 36 -13 62.167 -39 78.5
s-70 24.5 -132 24.5l11 37h436c111.333 0 202.666 -8.5 273.999 -25.5s129.833 -51.667 175.5 -104s68.5 -112.166 68.5 -179.499c0 -116.667 -51.667 -216.167 -155 -298.5s-230.333 -123.5 -381 -123.5c-65.333 0 -134 10 -206 30zM816.001 1302l-160.998 -553
c50 -18 99 -27 147 -27c95.333 0 179.666 34.5 252.999 103.5s110 154.833 110 257.5c0 74 -20.833 130.5 -62.5 169.5s-98.5 58.5 -170.5 58.5c-32.667 0 -71.334 -3 -116.001 -9z" />
    <glyph glyph-name="Q" unicode="Q" horiz-adv-x="1579" 
d="M607 -29c-128.667 11.333 -231.336 62.834 -308.003 154.501s-115 207.167 -115 346.5c0 219.333 90 431.166 270 635.499s382 306.5 606 306.5c140.667 0 255.334 -44.667 344.001 -134s133 -210 133 -362c0 -132.667 -35.167 -268 -105.5 -406s-170 -259.5 -299 -364.5
s-268.167 -163.833 -417.5 -176.5l-245 -200c36 6.66699 73.333 10 112 10c54.667 0 132.667 -11 234 -33c134.667 -28.667 229.334 -43 284.001 -43c144 0 256 54.667 336 164l32 -17c-48.667 -84.667 -122.667 -153.167 -222 -205.5s-203.333 -78.5 -312 -78.5
c-66 0 -165 14.667 -297 44c-120 27.333 -210.333 41 -271 41c-61.333 0 -103.666 -10.667 -126.999 -32l-24 30zM403.998 392.001c0 -102.667 23.499 -187.5 70.499 -254.5s113.167 -100.5 198.5 -100.5c111.333 0 215.5 47 312.5 141s176.833 222.667 239.5 386
s94 304.333 94 423c0 103.333 -23.5 188.5 -70.5 255.5s-115.833 100.5 -206.5 100.5c-103.333 0 -205.666 -47.333 -306.999 -142s-181.833 -226.167 -241.5 -394.5s-89.5 -306.5 -89.5 -414.5z" />
    <glyph glyph-name="R" unicode="R" horiz-adv-x="1473" 
d="M949 687l227 -478.999c28.667 -60.667 58.667 -103.5 90 -128.5s74 -39.167 128 -42.5l-10 -37h-322l-316 672c-56 3.33301 -102.333 8.33301 -139 15l-115 -400c-21.333 -73.333 -32 -121.666 -32 -144.999c0 -70 55.333 -105 166 -105l-11 -37h-618l11 37
c90.667 0 152.167 15.5 184.5 46.5s63.5 98.833 93.5 203.5l235 811c21.333 74 32 122 32 144c0 67.333 -54 101.666 -162 102.999l11 37h468c170.667 0 294 -28.333 370 -85s114 -130.334 114 -221.001c0 -91.333 -36.5 -173 -109.5 -245s-171.5 -120 -295.5 -144z
M786 1301l-160.998 -556c48.667 -8.66699 92.667 -13 132 -13c115.333 0 205.666 33.333 270.999 100s98 148.667 98 246c0 76.667 -22.667 134.167 -68 172.5s-102.333 57.5 -171 57.5c-28.667 0 -62.334 -2.33301 -101.001 -7z" />
    <glyph glyph-name="S" unicode="S" horiz-adv-x="1237" 
d="M1267 1414l-103.999 -455.999h-37c4.66699 32.667 7 62.667 7 90c0 90.667 -35.667 162.167 -107 214.5s-150.666 78.5 -237.999 78.5c-74 0 -134.667 -20.667 -182 -62s-71 -91.666 -71 -150.999c0 -41.333 13 -81.166 39 -119.499s77 -91.5 153 -159.5
c145.333 -128 239.666 -222.333 282.999 -283s65 -127 65 -199c0 -112.667 -44.5 -207.167 -133.5 -283.5s-202.833 -114.5 -341.5 -114.5c-55.333 0 -101.333 4.33301 -138 13s-97 30.667 -181 66c-26 10.667 -46.333 16 -61 16c-44 0 -81 -31.667 -111 -95h-38l109 511h39
c-5.33301 -34.667 -8 -68 -8 -100c0 -110.667 36.167 -195.334 108.5 -254.001s152.5 -88 240.5 -88c86 0 158.333 26 217 78s88 115.333 88 190c0 53.333 -15.5 103.166 -46.5 149.499s-95.5 113.5 -193.5 201.5c-102.667 92 -175.667 167 -219 225s-65 117.333 -65 178
c0 107.333 43.667 193.166 131 257.499s184.666 96.5 291.999 96.5c72 0 157 -18.667 255 -56c47.333 -18.667 81 -28 101 -28c46 0 82 28 108 84h39z" />
    <glyph glyph-name="T" unicode="T" horiz-adv-x="1366" 
d="M338 1382l1209 0.000976562l-112 -359h-38c12 51.333 18 99.333 18 144c0 39.333 -12.167 72 -36.5 98s-80.833 39 -169.5 39h-187l-296 -1017c-21.333 -72.667 -32 -121 -32 -145c0 -38.667 13.5 -65.834 40.5 -81.501s76.5 -23.5 148.5 -23.5l-11 -37h-662l11 37
c68.667 0 118.5 5 149.5 15s57.333 29.833 79 59.5s45.167 88.167 70.5 175.5l295 1017h-152c-114.667 0 -201.5 -22.167 -260.5 -66.5s-100.833 -115.833 -125.5 -214.5h-37z" />
    <glyph glyph-name="U" unicode="U" horiz-adv-x="1579" 
d="M1281 1345l10.002 37h431l-11 -37c-62 -6.66699 -107.667 -25.167 -137 -55.5s-58.333 -94.5 -87 -192.5l-176 -609c-51.333 -176 -128 -306.333 -230 -391c-102 -85.333 -219.333 -128 -352 -128s-238.834 39.667 -318.501 119s-119.5 175 -119.5 287
c0 54 12 122 36 204l149 518c22 74.667 33 122.667 33 144c0 37.333 -13.5 64 -40.5 80s-74.167 24 -141.5 24l13 37h626l-11 -37c-81.333 0 -139.833 -14.833 -175.5 -44.5s-68.834 -97.5 -99.501 -203.5l-164 -567c-21.333 -74 -32 -139.333 -32 -196
c0 -80.667 29.5 -145.667 88.5 -195s133.5 -74 223.5 -74c114 0 207.5 39.667 280.5 119s126.167 176.333 159.5 291l181 622c21.333 74 32 122 32 144c0 69.333 -56 104 -168 104z" />
    <glyph glyph-name="V" unicode="V" horiz-adv-x="1473" 
d="M1681 1382l-10.001 -37c-90 -4 -196.667 -84.667 -320 -242l-895 -1136h-32l79 1206c0.666992 16 1 31 1 45c0 82.667 -57.667 125 -173 127l11 37h568l-10 -37c-70 -2 -119.167 -11.833 -147.5 -29.5s-45.166 -65.167 -50.499 -142.5l-58 -861l676 861
c32 40.667 48 74 48 100c0 48 -34.333 72 -103 72l11 37h405z" />
    <glyph glyph-name="W" unicode="W" horiz-adv-x="2027" 
d="M346 1382l530.999 -0.000976562l-11 -37c-66 0 -112.333 -10.833 -139 -32.5s-42.667 -75.167 -48 -160.5l-51 -810l544 756v68c0 75.333 -11.333 124 -34 146s-72.667 33 -150 33l10 37h579l-10 -37h-24c-65.333 0 -109 -12.833 -131 -38.5s-34.667 -64.167 -38 -115.5
l-52 -849l572 797c39.333 54 59 96 59 126c0 52 -38 78.667 -114 80l10 37h403l-11 -37c-41.333 -1.33301 -82.5 -17.833 -123.5 -49.5s-100.5 -101.834 -178.5 -210.501l-802 -1116h-37l63 1003l-719 -1003h-37l74 1197c0.666992 14 1 25.333 1 34
c0 40.667 -6 71.834 -18 93.501s-26.167 35.334 -42.5 41.001s-45.166 9.16699 -86.499 10.5z" />
    <glyph glyph-name="X" unicode="X" horiz-adv-x="1473" 
d="M347 1382h561l-11 -37c-92.667 -3.33301 -139 -37.333 -139 -102c0 -26 6 -62 18 -108l89 -337l351 371c52 55.333 78 94 78 116c0 36.667 -26 56.667 -78 60l11 37h405l-11 -37c-94.667 0 -223 -85.333 -385 -256l-351 -370l132 -504c18 -70 41.833 -116.5 71.5 -139.5
s67.5 -35.833 113.5 -38.5l-11 -37h-531l11 37c67.333 0 109 10 125 30s24 45.667 24 77c0 30 -6 67.667 -18 113l-77 294l-317 -336c-48 -50.667 -72 -90 -72 -118c0 -38.667 44.333 -58.667 133 -60l-12 -37h-447l11 37c46.667 6 91.167 21.667 133.5 47
s106.5 83 192.5 173l357 372l-129 495c-26 100.667 -55.167 162.667 -87.5 186s-82.833 35 -151.5 35z" />
    <glyph glyph-name="Y" unicode="Y" horiz-adv-x="1473" 
d="M948 1382l-11 -36.999c-115.333 0 -173 -32.333 -173 -97c0 -18 4.33301 -40.667 13 -68l146 -447l340 433c36.667 47.333 55 84.666 55 111.999c0 44.667 -47.333 67 -142 67l11 37h470l-12 -37c-51.333 -0.666992 -103.5 -18.834 -156.5 -54.501
s-136.5 -125.167 -250.5 -268.5l-301 -380l-106 -355c-21.333 -72 -32 -120.333 -32 -145c0 -38 13.333 -65 40 -81s73.334 -24 140.001 -24l-10 -37h-636l11 37c94.667 0 158 16.5 190 49.5s62.333 99.833 91 200.5l111 381l-154 470
c-26 78.667 -54.333 132.834 -85 162.501s-85.334 44.5 -164.001 44.5l11 37h604z" />
    <glyph glyph-name="Z" unicode="Z" horiz-adv-x="1473" 
d="M360 1382l1157 -0.000976562v-37l-1183 -1280h370c154 0 265.333 10 334 30s122 47.333 160 82s74.333 93.334 109 176.001h38l-113 -353h-1192v37l1177 1273h-396c-136 0 -232 -4.5 -288 -13.5s-102.667 -30.167 -140 -63.5s-71 -89 -101 -167h-37z" />
    <glyph glyph-name="bracketleft" unicode="[" 
d="M1023 1442l-21 -71h-223l-496 -1709h223l-20 -70h-374l534 1850h377z" />
    <glyph glyph-name="backslash" unicode="\" horiz-adv-x="575" 
d="M422 1469l17 -1500h-128l-17 1500h128z" />
    <glyph glyph-name="bracketright" unicode="]" 
d="M43 -408l21 71h223l496 1709h-223l21 70h373l-537 -1850h-374z" />
    <glyph glyph-name="asciicircum" unicode="^" horiz-adv-x="1194" 
d="M330 664l411 718h82l404 -718h-159l-295 512l-290 -512h-153z" />
    <glyph glyph-name="underscore" unicode="_" 
d="M-12 -154h1048v-102h-1048v102z" />
    <glyph glyph-name="grave" unicode="`" horiz-adv-x="682" 
d="M287 1413h228l107 -348h-35z" />
    <glyph glyph-name="a" unicode="a" 
d="M971 913l-209.998 -716.001c-11.333 -40 -17 -68 -17 -84c0 -23.333 9 -35 27 -35c45.333 0 94.666 46.333 147.999 139l31 -20c-33.333 -62 -78.5 -114.333 -135.5 -157s-108.833 -64 -155.5 -64c-48 0 -72 30.667 -72 92c0 41.333 14.667 112.333 44 213
c-78.667 -101.333 -153 -177.5 -223 -228.5s-135.333 -76.5 -196 -76.5c-52.667 0 -95.334 22.833 -128.001 68.5s-49 100.834 -49 165.501c0 158.667 64.833 319.5 194.5 482.5s260.5 244.5 392.5 244.5c40 0 75 -14 105 -42s47.667 -62.333 53 -103l35 121h156z
M723.002 597.999c15.333 52 23 100.668 23 146.001c0 46.667 -11 83.667 -33 111s-51.333 41 -88 41c-94.667 0 -189.334 -80.833 -284.001 -242.5s-142 -297.167 -142 -406.5c0 -48.667 11.333 -86.334 34 -113.001s51.667 -40 87 -40c68 0 140.833 44.833 218.5 134.5
s129.834 180.5 156.501 272.5z" />
    <glyph glyph-name="b" unicode="b" 
d="M598 1469l-211 -724.001c107.333 128 215 192 323 192c72.667 0 132.167 -24.5 178.5 -73.5s69.5 -118.833 69.5 -209.5c0 -151.333 -63.5 -302.166 -190.5 -452.499s-263.833 -225.5 -410.5 -225.5c-102 0 -205.667 41.333 -311 124l323 1111
c16.667 57.333 25 94 25 110c0 41.333 -21.333 62 -64 62c-22 0 -45.333 -3 -70 -9v40l302 55h36zM193 76.999c62 -38.667 119.667 -58 173 -58c116.667 0 216.834 65.833 300.501 197.5s125.5 271.167 125.5 418.5c0 67.333 -12.333 117.833 -37 151.5s-62 50.5 -112 50.5
c-64 0 -125.333 -24.333 -184 -73s-102.334 -122.667 -131.001 -222z" />
    <glyph glyph-name="c" unicode="c" horiz-adv-x="897" 
d="M754 208c-130.667 -154.667 -267.667 -231.998 -411 -231.998c-76.667 0 -140.667 27.667 -192 83s-77 128 -77 218c0 154 62 302.5 186 445.5s257.667 214.5 401 214.5c52 0 95.833 -15 131.5 -45s53.5 -69.333 53.5 -118c0 -36.667 -10.5 -68.334 -31.5 -95.001
s-46.167 -40 -75.5 -40c-18.667 0 -35.167 7 -49.5 21s-21.5 30.333 -21.5 49c0 25.333 12 48.333 36 69c24.667 22 37 41 37 57c0 20 -8.83301 35.667 -26.5 47s-37.167 17 -58.5 17c-100 0 -193.833 -68.667 -281.5 -206s-131.5 -268.333 -131.5 -393
c0 -72.667 18 -131.334 54 -176.001s82 -67 138 -67c103.333 0 199.333 57.333 288 172z" />
    <glyph glyph-name="d" unicode="d" 
d="M1144 1469l-366.001 -1283c-11.333 -40 -17 -68.333 -17 -85c0 -17.333 7.66699 -26 23 -26c14 0 36.833 13 68.5 39s62.167 60.667 91.5 104l29 -23c-42.667 -63.333 -92.167 -115.666 -148.5 -156.999s-103.166 -62 -140.499 -62c-24.667 0 -44.667 9.16699 -60 27.5
s-23 40.5 -23 66.5c0 32.667 7.33301 74.334 22 125.001l47 162c-177.333 -254 -324.666 -381 -441.999 -381c-53.333 0 -97 26 -131 78s-51 111 -51 177c0 156 67.333 312.667 202 470s269.667 236 405 236c66 0 119.333 -29.333 160 -88l105 363
c18.667 64.667 28 105 28 121c0 34.667 -27.333 52 -82 52c-20.667 0 -43.334 -3.33301 -68.001 -10v38l313 56h35zM769.999 759.998c0 44 -13.001 77.833 -39.001 101.5s-53.667 35.5 -83 35.5c-89.333 0 -183.166 -74.833 -281.499 -224.5s-147.5 -292.167 -147.5 -427.5
c0 -50.667 8.66699 -88.667 26 -114s43 -38 77 -38c48 0 108.5 37 181.5 111s135.667 165.333 188 274s78.5 202.667 78.5 282z" />
    <glyph glyph-name="e" unicode="e" horiz-adv-x="897" 
d="M244 413c-8.66699 -30 -13 -62.666 -13 -97.999c0 -82 21.833 -142.5 65.5 -181.5s94.167 -58.5 151.5 -58.5c90 0 182.667 46.333 278 139l26 -26c-148 -141.333 -289 -212 -423 -212c-81.333 0 -147.333 28.833 -198 86.5s-76 125.5 -76 203.5
c0 107.333 30.667 213.166 92 317.499s135.5 189.333 222.5 255s181.167 98.5 282.5 98.5c59.333 0 108.333 -14.5 147 -43.5s58 -65.5 58 -109.5c0 -86 -55.333 -168 -166 -246s-259.667 -119.667 -447 -125zM254 453.001c159.333 10 276 53.501 350 130.501
s111 150.167 111 219.5c0 23.333 -8.33301 44.666 -25 63.999s-40.667 29 -72 29c-74 0 -146.833 -46.667 -218.5 -140s-120.167 -194.333 -145.5 -303z" />
    <glyph glyph-name="f" unicode="f" horiz-adv-x="682" 
d="M163 913c67.333 0 115.168 8.66699 143.501 26s57.833 57.666 88.5 120.999c131.333 272.667 280.333 409 447 409c46 0 85.667 -10.5 119 -31.5s50 -49.833 50 -86.5c0 -24.667 -8.83301 -46 -26.5 -64s-38.5 -27 -62.5 -27c-16 0 -30.167 6 -42.5 18s-18.5 27 -18.5 45
c0 13.333 6.33301 29.333 19 48c8.66699 12.667 13 21.334 13 26.001c0 11.333 -4 19.833 -12 25.5s-20 8.5 -36 8.5c-60 0 -116.167 -30.667 -168.5 -92s-108.833 -203.333 -169.5 -426h145l-19 -63h-145l-107 -419c-88.667 -348 -181.167 -579.833 -277.5 -695.5
s-191.5 -173.5 -285.5 -173.5c-43.333 0 -78.166 9.5 -104.499 28.5s-39.5 42.833 -39.5 71.5c0 22.667 9 42.5 27 59.5s39 25.5 63 25.5c43.333 0 65 -18.333 65 -55c0 -12 -7 -25.667 -21 -41c-13.333 -14 -20 -23.333 -20 -28c0 -12.667 10.333 -19 31 -19
c75.333 0 135.666 35.167 180.999 105.5s99.666 230.833 162.999 481.5l168 659h-184z" />
    <glyph glyph-name="g" unicode="g" 
d="M1010 875l-31 -111.999h-165c12 -34 18 -67 18 -99c0 -92 -39.333 -173.333 -118 -244c-79.333 -71.333 -176 -108.666 -290 -111.999c-32 -8.66699 -64.667 -23.334 -98 -44.001s-50 -41 -50 -61c0 -18.667 11.167 -33 33.5 -43s84.5 -27.667 186.5 -53
c188 -46.667 282 -122.667 282 -228c0 -85.333 -42.667 -156.5 -128 -213.5s-192.333 -85.5 -321 -85.5c-112 0 -204 20.167 -276 60.5s-108 91.166 -108 152.499c0 36 16.833 73.167 50.5 111.5s97.167 87.5 190.5 147.5c-31.333 20 -47 47 -47 81
c0 29.333 16.5 59.833 49.5 91.5s82.5 64.5 148.5 98.5c-70 22 -122.667 53.5 -158 94.5s-53 91.833 -53 152.5c0 98.667 44.167 184.5 132.5 257.5s187.5 109.5 297.5 109.5c34 0 66.333 -5.16699 97 -15.5s59.667 -25.833 87 -46.5h270zM663 737.001
c0 49.333 -9.66895 86.333 -29.002 111s-48.666 37 -87.999 37c-77.333 0 -138.166 -43 -182.499 -129s-66.5 -166.333 -66.5 -241c0 -39.333 12 -75.333 36 -108s57.667 -49 101 -49c65.333 0 119.833 41.167 163.5 123.5s65.5 167.5 65.5 255.5zM224.998 37.001
c-52 -36.667 -91.167 -74.167 -117.5 -112.5s-39.5 -77.166 -39.5 -116.499c0 -54.667 27.667 -98.334 83 -131.001s120.333 -49 195 -49c86 0 159.333 17.667 220 53s91 80 91 134c0 38.667 -18.667 70.667 -56 96s-100 49.333 -188 72c-75.333 18.667 -138 36.667 -188 54
z" />
    <glyph glyph-name="h" unicode="h" 
d="M591 1469l-286.998 -1010c203.333 318.667 372.666 478 507.999 478c28 0 53.5 -11.667 76.5 -35s34.5 -52.333 34.5 -87c0 -42 -9 -93 -27 -153l-128 -440c-16 -55.333 -24 -92.333 -24 -111c0 -22 7.66699 -33 23 -33c12.667 0 34.5 14.667 65.5 44
s58.833 62.666 83.5 99.999l31 -24c-104.667 -148 -199.667 -222 -285 -222c-24 0 -43.333 8.66699 -58 26s-22 38 -22 62c0 28.667 7.33301 69 22 121l129 441c18 64 27 107.667 27 131c0 21.333 -4.33301 37.333 -13 48s-21.667 16 -39 16c-56 0 -139 -66.167 -249 -198.5
s-193.333 -295.166 -250 -488.499l-39 -134h-153l346 1213l7 21c12 40 18 71.333 18 94c0 36.667 -26 55 -78 55c-10.667 0 -22.334 -0.333008 -35.001 -1v36l281 51h35z" />
    <glyph glyph-name="i" unicode="i" horiz-adv-x="555" 
d="M468 1345c28 0 52.167 -10 72.5 -30s30.5 -44.333 30.5 -73s-10.167 -53 -30.5 -73s-44.5 -30 -72.5 -30s-52.167 10 -72.5 30s-30.5 44.333 -30.5 73s10.167 53 30.5 73s44.5 30 72.5 30zM136 875l312.003 62.001h35l-219 -756c-9.33301 -32 -14 -54.667 -14 -68
c0 -12.667 3 -22.167 9 -28.5s15 -9.5 27 -9.5c10 0 30.167 11.667 60.5 35s62.166 61.666 95.499 114.999l33 -21c-40 -64 -88.667 -118 -146 -162s-110 -66 -158 -66c-24.667 0 -43.334 8.5 -56.001 25.5s-19 42.167 -19 75.5c0 36.667 7 79 21 127l147 509
c9.33301 34 14 58.333 14 73c0 44.667 -23.667 67 -71 67c-12.667 0 -39.334 -4 -80.001 -12z" />
    <glyph glyph-name="j" unicode="j" horiz-adv-x="555" 
d="M507 1346c28 0 52.167 -10.167 72.5 -30.5s30.5 -44.5 30.5 -72.5c0 -28.667 -10.167 -53.167 -30.5 -73.5s-44.5 -30.5 -72.5 -30.5s-52.167 10 -72.5 30s-30.5 44.667 -30.5 74s10.167 53.833 30.5 73.5s44.5 29.5 72.5 29.5zM525 937l-243.998 -880.999
c-91.333 -329.333 -241 -494 -449 -494c-40 0 -72.5 9.33301 -97.5 28s-37.5 42 -37.5 70c0 24 8.16699 43.667 24.5 59s36.5 23 60.5 23c44 0 66 -17.333 66 -52c0 -14.667 -8 -28.667 -24 -42c-12 -10.667 -18 -18.334 -18 -23.001c0 -11.333 13 -17 39 -17
c43.333 0 81.166 12.5 113.499 37.5s58 61.5 77 109.5s46.167 136.333 81.5 265l184 662c15.333 57.333 23 96.333 23 117c0 37.333 -21.333 56 -64 56c-18.667 0 -48.334 -3.33301 -89.001 -10v37l319 55h35z" />
    <glyph glyph-name="k" unicode="k" horiz-adv-x="1087" 
d="M598 1469l-296 -1019l334 255c88.667 67.333 133 112.333 133 135c0 23.333 -19 35 -57 35h-23l8 38h396v-38c-58 -0.666992 -120.167 -17.334 -186.5 -50.001s-156.5 -92 -270.5 -178l-77 -59l130 -355c37.333 -100.667 71.333 -151 102 -151
c46 0 108.667 50.333 188 151l31 -19c-129.333 -158.667 -232 -238 -308 -238c-50.667 0 -94 49.333 -130 148l-136 369l-156 -117l-109 -376h-154l353 1216c18.667 62.667 28 102.667 28 120c0 37.333 -23.333 56 -70 56c-24.667 0 -51 -3.33301 -79 -10v39z" />
    <glyph glyph-name="l" unicode="l" horiz-adv-x="555" 
d="M627 1469l-356.001 -1226c-20 -70 -30 -118 -30 -144c0 -18 6.33301 -27 19 -27c30.667 0 84.334 47.667 161.001 143l33 -17c-107.333 -148 -204.333 -222 -291 -222c-54.667 0 -82 28.333 -82 85c0 38 12 98.667 36 182l296 1021c9.33301 31.333 14 54 14 68
c0 38 -21 57 -63 57c-19.333 0 -44.333 -2.33301 -75 -7v39l303 48h35z" />
    <glyph glyph-name="m" unicode="m" horiz-adv-x="1579" 
d="M451 937l-140.001 -477.999c202.667 318.667 373.667 478 513 478c38.667 0 67.5 -11.5 86.5 -34.5s28.5 -57.5 28.5 -103.5c0 -52 -14 -127 -42 -225l-52 -179c213.333 361.333 395 542 545 542c28.667 0 54.667 -11.5 78 -34.5s35 -57.833 35 -104.5
c0 -32 -6.66699 -71.333 -20 -118l-133 -458c-15.333 -52.667 -23 -90.334 -23 -113.001c0 -19.333 7.66699 -29 23 -29c30 0 79.667 47.333 149 142l27 -25c-38 -57.333 -85 -108.5 -141 -153.5s-104.333 -67.5 -145 -67.5c-48 0 -72 29.333 -72 88
c0 44 12.667 109.667 38 197l109 372c16.667 57.333 25 100.333 25 129c0 19.333 -3.83301 33.833 -11.5 43.5s-19.5 14.5 -35.5 14.5c-75.333 0 -178 -90.667 -308 -272s-215 -364 -255 -548h-154l177 612c18.667 64.667 28 114 28 148c0 20 -4.16699 34.833 -12.5 44.5
s-21.166 14.5 -38.499 14.5c-28 0 -63.167 -14 -105.5 -42s-99.5 -88.167 -171.5 -180.5s-123.5 -172.333 -154.5 -240s-62.5 -156.167 -94.5 -265.5l-26 -91h-156l198 680c16 55.333 24 93.333 24 114c0 42 -22.667 63 -68 63c-20 0 -43 -2.33301 -69 -7v37l308 50h36z" />
    <glyph glyph-name="n" unicode="n" 
d="M454 937l-136.995 -476c203.333 317.333 373.666 476 510.999 476c33.333 0 60.166 -11.667 80.499 -35s30.5 -53 30.5 -89c0 -38.667 -10 -92 -30 -160l-129 -443c-11.333 -40 -17 -70.333 -17 -91c0 -22 9 -33 27 -33c13.333 0 36.166 15.5 68.499 46.5
s58.166 60.833 77.499 89.5l30 -23c-106.667 -148.667 -203.667 -223 -291 -223c-21.333 0 -39.5 8.66699 -54.5 26s-22.5 40.666 -22.5 69.999c0 30 8 72.333 24 127l140 482c10.667 36.667 16 65.334 16 86.001c0 18.667 -3.83301 32.667 -11.5 42s-19.167 14 -34.5 14
c-22.667 0 -55.667 -14.833 -99 -44.5s-99.333 -88.5 -168 -176.5s-118.334 -160.667 -149.001 -218s-59.667 -132.333 -87 -225l-47 -159h-156l198 681c18 61.333 27 101 27 119c0 34.667 -22 52 -66 52c-6.66699 0 -33.667 -2 -81 -6v38l315 53h35z" />
    <glyph glyph-name="o" unicode="o" 
d="M945 617c0 -82.667 -22.335 -172.666 -67.002 -269.999s-118.167 -183.5 -220.5 -258.5s-201.833 -112.5 -298.5 -112.5c-90 0 -159.833 32.667 -209.5 98s-74.5 138.666 -74.5 219.999c0 146 62.333 289.667 187 431s257.334 212 398.001 212
c74.667 0 140.834 -28.5 198.501 -85.5s86.5 -135.167 86.5 -234.5zM782.998 692.001c0 67.333 -12.6689 117.667 -38.002 151s-63.666 50 -114.999 50c-98.667 0 -188.167 -78.167 -268.5 -234.5s-120.5 -304.833 -120.5 -445.5c0 -50 13.667 -93.667 41 -131
s65.333 -56 114 -56c106.667 0 197.834 83.5 273.501 250.5s113.5 305.5 113.5 415.5z" />
    <glyph glyph-name="p" unicode="p" 
d="M481 937l-70 -238c113.333 158.667 219.333 238 318 238c64 0 115.333 -23.333 154 -70s58 -111.334 58 -194.001c0 -162.667 -62.667 -319.5 -188 -470.5s-256 -226.5 -392 -226.5c-44.667 0 -93.334 15.333 -146.001 46l-80 -275c-8.66699 -28.667 -13 -50 -13 -64
c0 -32 11 -52.833 33 -62.5s63.667 -14.5 125 -14.5l-11 -38h-476l11 38c57.333 0.666992 97.333 11.334 120 32.001s41.667 57 57 109l271 934c12 42 18 77.333 18 106c0 38.667 -19.667 58 -59 58c-15.333 0 -36.666 -2.66699 -63.999 -8v38l299 62h35zM235 92
c34.667 -50 78.999 -74.999 132.999 -74.999c96 0 186.833 74.167 272.5 222.5s128.5 286.166 128.5 413.499c0 56.667 -10.167 102 -30.5 136s-47.166 51 -80.499 51c-106 0 -206 -108 -300 -324z" />
    <glyph glyph-name="q" unicode="q" 
d="M989 937l-341.005 -1192c-8 -27.333 -12 -47.666 -12 -60.999c0 -20.667 7 -38.834 21 -54.501s49.667 -23.5 107 -23.5l-11 -38h-486l9 38c70.667 0 120.334 7 149.001 21s50.334 47 65.001 99l166 593c-160 -228.667 -298.333 -343 -415 -343
c-49.333 0 -91.666 24.167 -126.999 72.5s-53 112.5 -53 192.5c0 154.667 63.833 309.334 191.5 464.001s254.834 232 381.501 232c80.667 0 135.334 -43 164.001 -129l29 105zM763.995 751.999c0 44.667 -12.5 80 -37.5 106s-54.833 39 -89.5 39
c-87.333 0 -177.166 -79.333 -269.499 -238s-138.5 -293.334 -138.5 -404.001c0 -46.667 10 -84 30 -112s46.667 -42 80 -42c53.333 0 112.666 33.5 177.999 100.5s122.833 155.333 172.5 265s74.5 204.834 74.5 285.501z" />
    <glyph glyph-name="r" unicode="r" horiz-adv-x="788" 
d="M421 937l-124.002 -532c4 1.33301 11.667 16 23 44c38.667 95.333 94.334 200.5 167.001 315.5s140 172.5 202 172.5c44.667 0 67 -25 67 -75c0 -48 -9.16699 -89.333 -27.5 -124s-43.5 -52 -75.5 -52c-27.333 0 -44.666 16.667 -51.999 50
c-6.66699 30.667 -16.667 46 -30 46c-30 0 -85.667 -80.833 -167 -242.5s-135.333 -297.5 -162 -407.5l-31 -132h-153l175 724c6 23.333 9 45 9 65c0 36 -22 54 -66 54c-23.333 0 -46 -2 -68 -6l9 38l269 62h35z" />
    <glyph glyph-name="s" unicode="s" horiz-adv-x="788" 
d="M760 937l-56.002 -312.999h-36c0 85.333 -17.167 151.166 -51.5 197.499s-77.166 69.5 -128.499 69.5c-37.333 0 -68 -11.667 -92 -35s-36 -49 -36 -77c0 -48 40.333 -124.667 121 -230c94.667 -126 142 -225.667 142 -299c0 -74.667 -29 -139 -87 -193
s-131.333 -81 -220 -81c-38 0 -87.333 10.667 -148 32c-20 6.66699 -37.333 10 -52 10c-24.667 0 -47.334 -14 -68.001 -42h-44l59 326h42c6 -188.667 75.333 -283 208 -283c50.667 0 91.334 17.5 122.001 52.5s46 73.5 46 115.5c0 28 -6.66699 55.5 -20 82.5
s-45.666 76.833 -96.999 149.5c-53.333 75.333 -89.5 132.833 -108.5 172.5s-28.5 80.167 -28.5 121.5c0 66.667 24.5 120.667 73.5 162s105.167 62 168.5 62c48 0 96.333 -12.667 145 -38c19.333 -10 35 -15 47 -15c24 0 44.667 17.667 62 53h37z" />
    <glyph glyph-name="t" unicode="t" horiz-adv-x="682" 
d="M576 1164l-72.9971 -251.001h140l-9 -63h-151l-182 -657c-12 -45.333 -18 -76.666 -18 -93.999c0 -11.333 2.33301 -19.833 7 -25.5s11.667 -8.5 21 -8.5c37.333 0 94.666 47.333 171.999 142h38c-96.667 -154 -197 -231 -301 -231
c-30.667 0 -53.834 8.83301 -69.501 26.5s-23.5 44.167 -23.5 79.5c0 31.333 8 73 24 125l180 643h-152l14 45c121.333 17.333 235.666 107 342.999 269h40z" />
    <glyph glyph-name="u" unicode="u" 
d="M987 913l-202 -696.003c-13.333 -45.333 -20 -79.666 -20 -102.999c0 -22 9.66699 -33 29 -33c34.667 0 82.667 45.333 144 136l28 -21c-100 -146.667 -192.667 -220 -278 -220c-52 0 -78 31.333 -78 94c0 48 17.333 132.333 52 253l37 127
c-67.333 -114 -148.666 -221.5 -243.999 -322.5s-179.333 -151.5 -252 -151.5c-38.667 0 -67.834 11.667 -87.501 35s-29.5 58 -29.5 104c0 42 10.333 97.667 31 167l123 423c8.66699 30.667 13 53.667 13 69c0 27.333 -10 41 -30 41c-34 0 -80.333 -43.667 -139 -131
l-29 21c33.333 58.667 76.5 110 129.5 154s103.833 66 152.5 66c23.333 0 42.833 -8.83301 58.5 -26.5s23.5 -38.167 23.5 -61.5c0 -29.333 -5.33301 -61.666 -16 -96.999l-141 -487c-12.667 -45.333 -19 -81.666 -19 -108.999c0 -16.667 4.16699 -29.167 12.5 -37.5
s20.5 -12.5 36.5 -12.5c60 0 147.167 73 261.5 219s191.5 288.333 231.5 427l49 173h153z" />
    <glyph glyph-name="v" unicode="v" horiz-adv-x="897" 
d="M383 937c53.333 -146 80.9971 -397.998 82.9971 -755.998c90.667 102.667 161.334 204.167 212.001 304.5s76 175.833 76 226.5c0 24.667 -13.333 45.667 -40 63c-36 23.333 -54 49.666 -54 78.999c0 22.667 8.66699 42.167 26 58.5s38 24.5 62 24.5
c30 0 55.167 -12.333 75.5 -37s30.5 -53.334 30.5 -86.001c0 -84 -46.667 -204.167 -140 -360.5s-213.333 -315.5 -360 -477.5h-37c2.66699 56.667 4 105.334 4 146.001c0 72 -3.16699 168.667 -9.5 290s-17.666 218.166 -33.999 290.499s-32.166 115.5 -47.499 129.5
s-36.333 21 -63 21c-14.667 0 -30.667 -1.33301 -48 -4v37z" />
    <glyph glyph-name="w" unicode="w" horiz-adv-x="1366" 
d="M835 937l56.0029 -784c114 136.667 199.5 251.5 256.5 344.5s85.5 164.5 85.5 214.5c0 30 -14 53.667 -42 71c-26.667 16 -43.334 28.667 -50.001 38s-10 23 -10 41c0 22 8 40 24 54s35.333 21 58 21c32 0 57 -11.667 75 -35s27 -50 27 -80
c0 -80 -43.333 -190.5 -130 -331.5s-216.667 -312.833 -390 -515.5h-35l-52 730l-416 -730h-38v62c0 114 -3.83301 260.5 -11.5 439.5s-22.334 286.167 -44.001 321.5s-47.834 53 -78.501 53c-6.66699 0 -15 -1 -25 -3v38l224 51c48 -120 72 -349.333 72 -688v-24l404 712
h40z" />
    <glyph glyph-name="x" unicode="x" horiz-adv-x="1130" 
d="M445 937c61.333 -35.333 120.335 -143.669 177.002 -325.002c7.33301 8 27.666 33.333 60.999 76c127.333 166 228.666 249 303.999 249c26 0 47.667 -7.16699 65 -21.5s26 -32.5 26 -54.5c0 -53.333 -23 -80 -69 -80c-16 0 -36.667 4.33301 -62 13c-22 8 -38 12 -48 12
c-29.333 0 -65.833 -19.833 -109.5 -59.5s-94.5 -99.167 -152.5 -178.5l53 -169c36 -124 61.833 -206 77.5 -246s33.167 -60 52.5 -60c34.667 0 84 47.667 148 143l31 -21c-97.333 -159.333 -184.333 -239 -261 -239c-32.667 0 -60 19.167 -82 57.5s-49.667 116.5 -83 234.5
c-23.333 82 -38 130.333 -44 145c-114 -171.333 -201 -287 -261 -347s-116 -90 -168 -90c-24 0 -45.333 8.33301 -64 25s-28 37.334 -28 62.001c0 52 26 78 78 78c21.333 0 41.333 -9 60 -27c22.667 -21.333 39.334 -32 50.001 -32c24 0 64.667 33.833 122 101.5
s122.666 159.834 195.999 276.501c-47.333 162 -87.833 269.333 -121.5 322s-81.5 79 -143.5 79c-20 0 -43.667 -1.66699 -71 -5v36z" />
    <glyph glyph-name="y" unicode="y" 
d="M428 937c32 -50 50.666 -128.666 55.999 -235.999l30 -598c250.667 315.333 376 519.666 376 612.999c0 13.333 -13.667 26 -41 38c-47.333 20 -71 51 -71 93c0 25.333 8 46.666 24 63.999s35.667 26 59 26c31.333 0 56.833 -12.833 76.5 -38.5s29.5 -59.167 29.5 -100.5
c0 -110.667 -85 -280.167 -255 -508.5s-310.833 -406.666 -422.5 -534.999s-206.167 -192.5 -283.5 -192.5c-21.333 0 -40.5 8 -57.5 24s-25.5 34 -25.5 54c0 24 10.667 47.833 32 71.5s46 35.5 74 35.5c24 0 42 -15.667 54 -47c7.33301 -18.667 15 -28 23 -28
c16.667 0 49.834 22.5 99.501 67.5s106.5 108.167 170.5 189.5l-34 648c-6.66699 122 -21.334 197.5 -44.001 226.5s-52.667 43.5 -90 43.5c-19.333 0 -43.666 -3 -72.999 -9l-9 37z" />
    <glyph glyph-name="z" unicode="z" horiz-adv-x="897" 
d="M244 913l637 -0.000976562l-716 -783h331c61.333 0 105.5 9.66699 132.5 29s49.833 55.333 68.5 108h40l-92 -267h-647l715 781h-341c-48.667 0 -83.667 -8.16699 -105 -24.5s-44.333 -50.166 -69 -101.499h-41z" />
    <glyph glyph-name="braceleft" unicode="{" horiz-adv-x="981" 
d="M911 -367l-0.000976562 -34c-108.667 12.667 -198.5 57.167 -269.5 133.5s-106.5 159.833 -106.5 250.5c0 49.333 7 102.666 21 159.999c16.667 68.667 25 121.667 25 159c0 46 -20.167 89.833 -60.5 131.5s-96.166 67.5 -167.499 77.5v40c72 9.33301 128 35.333 168 78
s60 86.334 60 131.001c0 37.333 -8.33301 90.333 -25 159c-14 58 -21 111.333 -21 160c0 93.333 35.667 177 107 251s161 118.333 269 133v-35c-81.333 -18.667 -139.333 -50.334 -174 -95.001s-52 -89.334 -52 -134.001c0 -41.333 8 -96.333 24 -165
c14 -59.333 21 -111.666 21 -156.999c0 -73.333 -26.333 -140.833 -79 -202.5s-124.667 -108.834 -216 -141.501c91.333 -32.667 163.333 -81.334 216 -146.001s79 -132 79 -202c0 -45.333 -7 -97.666 -21 -156.999c-16 -69.333 -24 -124.666 -24 -165.999
c0 -49.333 18.333 -95.166 55 -137.499s93.667 -72.833 171 -91.5z" />
    <glyph glyph-name="bar" unicode="|" horiz-adv-x="555" 
d="M281 1469h133v-1903h-133v1903z" />
    <glyph glyph-name="braceright" unicode="}" horiz-adv-x="981" 
d="M247 1428l0.000976562 34.999c108 -12.667 197.667 -57.167 269 -133.5s107 -159.833 107 -250.5c0 -48.667 -7 -102 -21 -160c-16.667 -68.667 -25 -121.667 -25 -159c0 -46 20.167 -89.833 60.5 -131.5s96.166 -67.5 167.499 -77.5v-40
c-72 -8.66699 -128 -34.5 -168 -77.5s-60 -86.833 -60 -131.5c0 -37.333 8.33301 -90.333 25 -159c14 -57.333 21 -110.666 21 -159.999c0 -93.333 -35.667 -177 -107 -251s-161 -118.333 -269 -133v34c80.667 18.667 138.5 50.334 173.5 95.001s52.5 89.334 52.5 134.001
c0 41.333 -8 96.666 -24 165.999c-14.667 59.333 -22 111.666 -22 156.999c0 73.333 26.5 140.833 79.5 202.5s125.167 108.834 216.5 141.501c-92 33.333 -164.333 82.166 -217 146.499s-79 131.5 -79 201.5c0 45.333 7.33301 97.666 22 156.999c16 68.667 24 124 24 166
c0 44 -17.5 88.333 -52.5 133s-92.833 76.334 -173.5 95.001z" />
    <glyph glyph-name="asciitilde" unicode="~" horiz-adv-x="1366" 
d="M1242 842l51.002 -0.00195312c-3.33301 -97.333 -29.5 -172.166 -78.5 -224.499s-108.5 -78.5 -178.5 -78.5c-34 0 -68.167 4.83301 -102.5 14.5s-125.166 44.834 -272.499 105.501c-100 41.333 -171.667 62 -215 62c-99.333 0 -159.333 -60 -180 -180h-52
c3.33301 104 30.166 180.333 80.499 229s106.166 73 167.499 73c67.333 0 194.666 -40.333 381.999 -121c100 -42.667 172.333 -64 217 -64c106.667 0 167 61.333 181 184z" />
    <glyph glyph-name="nbspace" unicode="&#xa0;" horiz-adv-x="565" 
 />
    <glyph glyph-name="currency" unicode="&#xa4;" horiz-adv-x="1409" 
d="M1048 1053l127 126.999l88 -90l-126 -127c60 -83.333 90 -174 90 -272c0 -94 -30 -184.667 -90 -272l126 -125l-88 -89l-127 125c-41.333 -30 -84.666 -52.667 -129.999 -68s-93 -23 -143 -23c-98.667 0 -189.334 30.333 -272.001 91l-127 -125l-89 89l127 125
c-60.667 82.667 -91 173.334 -91 272.001c0 98 30.333 188.667 91 272l-127 127l89 90l127 -127c42.667 30 86.667 52.5 132 67.5s92 22.5 140 22.5c97.333 0 188.333 -30 273 -90zM775 1017c-89.333 0 -165.833 -31.833 -229.5 -95.5s-95.5 -140.5 -95.5 -230.5
s31.667 -166.667 95 -230s140 -95 230 -95s166.667 31.833 230 95.5s95 140.167 95 229.5c0 90 -31.833 166.833 -95.5 230.5s-140.167 95.5 -229.5 95.5z" />
    <glyph glyph-name="brokenbar" unicode="&#xa6;" horiz-adv-x="555" 
d="M281 1469h133v-825h-133v825zM281 389h133v-823h-133v823z" />
    <glyph glyph-name="section" unicode="&#xa7;" horiz-adv-x="1067" 
d="M585 814c-74.667 94.667 -111.997 190 -111.997 286c0 104.667 33.667 190.334 101 257.001s148.333 100 243 100c77.333 0 143.166 -23.167 197.499 -69.5s81.5 -95.833 81.5 -148.5c0 -19.333 -7.66699 -37.166 -23 -53.499s-33.333 -24.5 -54 -24.5
c-38 0 -62.667 37.667 -74 113c-14 93.333 -66.333 140 -157 140c-64.667 0 -118.334 -22.167 -161.001 -66.5s-64 -96.833 -64 -157.5c0 -101.333 53 -206.333 159 -315c128.667 -132 193 -258.667 193 -380c0 -70 -24.333 -131.167 -73 -183.5
s-110.334 -78.5 -185.001 -78.5c-31.333 0 -62.333 7.33301 -93 22c79.333 -98 119 -196 119 -294c0 -94 -32.333 -176.833 -97 -248.5s-149.667 -107.5 -255 -107.5c-91.333 0 -165 26.167 -221 78.5s-84 108.166 -84 167.499c0 20.667 7.66699 39 23 55
s31.666 24 48.999 24c44.667 0 73 -38 85 -114c17.333 -112 75.333 -168 174 -168c65.333 0 121.333 21.833 168 65.5s70 96.167 70 157.5c0 51.333 -10.667 99 -32 143s-58 95.667 -110 155c-77.333 88.667 -131.5 161.167 -162.5 217.5s-46.5 115.5 -46.5 177.5
c0 83.333 25.833 147.666 77.5 192.999s108.834 68 171.501 68c26 0 56.667 -3.66699 92 -11zM812.003 430c0 72 -32.167 149.5 -96.5 232.5s-138.5 124.5 -222.5 124.5c-42.667 0 -79.667 -14.333 -111 -43s-47 -63.334 -47 -104.001c0 -78 36.333 -159 109 -243
s145.667 -126 219 -126c34 0 67.333 13.833 100 41.5s49 66.834 49 117.501z" />
    <glyph glyph-name="copyright" unicode="&#xa9;" horiz-adv-x="1599" 
d="M868 1414c126 0 246 -31.667 360 -95s204.333 -152.333 271 -267s100 -237.667 100 -369c0 -200.667 -71.667 -372.5 -215 -515.5s-315.333 -214.5 -516 -214.5c-201.333 0 -373.333 71.333 -516 214s-214 314.667 -214 516c0 202 71.667 374.333 215 517
s315 214 515 214zM868 1350c-182.667 0 -339.501 -65 -470.501 -195s-196.5 -287.333 -196.5 -472c0 -184 65.167 -341.167 195.5 -471.5s287.5 -195.5 471.5 -195.5c184.667 0 342.167 65.167 472.5 195.5s195.5 287.5 195.5 471.5c0 118.667 -30.667 231.167 -92 337.5
s-144.666 187.833 -249.999 244.5s-214 85 -326 85zM1229 1152l20.999 -288h-40c-49.333 162 -153.333 243 -312 243c-110.667 0 -193.5 -38.167 -248.5 -114.5s-82.5 -172.5 -82.5 -288.5c0 -143.333 31.667 -249.5 95 -318.5s145.333 -103.5 246 -103.5
c134 0 241 55.333 321 166l39 -19c-95.333 -139.333 -227 -209 -395 -209c-141.333 0 -256.166 45.333 -344.499 136s-132.5 197.667 -132.5 321c0 127.333 47 238.5 141 333.5s218 142.5 372 142.5c49.333 0 113 -12.667 191 -38c17.333 -5.33301 30.333 -8 39 -8
c22 0 38.667 15 50 45h40z" />
    <glyph glyph-name="guillemotleft" unicode="&#xab;" 
d="M1027 992l-341 -473l111 -482h-46l-244 482l465 473h55zM646 992l-340 -473l111 -482h-45l-246 482l465 473h55z" />
    <glyph glyph-name="logicalnot" unicode="&#xac;" horiz-adv-x="1366" 
d="M211 990h1086v-597h-129v468h-957v129z" />
    <glyph glyph-name="registered" unicode="&#xae;" horiz-adv-x="1599" 
d="M868 1414c126 0 246 -31.667 360 -95s204.333 -152.333 271 -267s100 -237.667 100 -369c0 -200.667 -71.667 -372.5 -215 -515.5s-315.333 -214.5 -516 -214.5c-201.333 0 -373.333 71.333 -516 214s-214 314.667 -214 516c0 202 71.667 374.333 215 517
s315 214 515 214zM868 1350c-182.667 0 -339.501 -65 -470.501 -195s-196.5 -287.333 -196.5 -472c0 -184 65.167 -341.167 195.5 -471.5s287.5 -195.5 471.5 -195.5c184.667 0 342.167 65.167 472.5 195.5s195.5 287.5 195.5 471.5c0 118.667 -30.667 231.167 -92 337.5
s-144.666 187.833 -249.999 244.5s-214 85 -326 85zM463.999 1132h398c94 0 168.5 -21.333 223.5 -64s82.5 -98 82.5 -166c0 -56.667 -19 -104 -57 -142s-95.333 -67 -172 -87l216 -307c40.667 -57.333 82 -87.333 124 -90v-35h-189l-303 417h-78v-243l-1 -75
c3.33301 -17.333 11.333 -32.333 24 -45s45.334 -19 98.001 -19v-35h-378v35c34 0 58.333 4.33301 73 13s24.167 20 28.5 34s6.5 45.667 6.5 95v538c0 60 -5.33301 98 -16 114s-37.334 24.333 -80.001 25v37zM708.999 703h30.001c86.667 0 152.167 16.833 196.5 50.5
s66.5 79.167 66.5 136.5c0 55.333 -19.333 101.833 -58 139.5s-88.334 56.5 -149.001 56.5c-28 0 -56.667 -5 -86 -15v-368z" />
    <glyph glyph-name="degree" unicode="&#xb0;" horiz-adv-x="811" 
d="M595 1414c83.333 0 155.5 -29.333 216.5 -88s91.5 -132 91.5 -220c0 -84.667 -30 -157 -90 -217s-132.667 -90 -218 -90c-84.667 0 -157 30 -217 90s-90 132.333 -90 217c0 88 30.5 161.333 91.5 220s132.833 88 215.5 88zM595 1330c-60 0 -112.167 -21.167 -156.5 -63.5
s-66.5 -95.5 -66.5 -159.5c0 -61.333 21.667 -113.833 65 -157.5s96 -65.5 158 -65.5c61.333 0 113.833 21.833 157.5 65.5s65.5 96.167 65.5 157.5c0 63.333 -22.167 116.333 -66.5 159s-96.5 64 -156.5 64z" />
    <glyph glyph-name="plusminus" unicode="&#xb1;" horiz-adv-x="1366" 
d="M211 922h479v478h128v-478h479v-129h-479v-478h-128v478h-479v129zM211 113h1086v-129h-1086v129z" />
    <glyph glyph-name="mu" unicode="&#xb5;" horiz-adv-x="1067" 
d="M289 909l157.002 0.000976562l-152 -526c-28.667 -100 -43 -162.667 -43 -188c0 -40.667 8.5 -71.334 25.5 -92.001s42.167 -31 75.5 -31c62.667 0 126.167 35.167 190.5 105.5s119.166 183.5 164.499 339.5l115 392h156l-172 -596c-22.667 -76.667 -34 -133 -34 -169
c0 -22.667 4.83301 -39.667 14.5 -51s24.167 -17 43.5 -17c45.333 0 92.333 48.667 141 146h38c-53.333 -164 -140.333 -246 -261 -246c-32 0 -62.667 12.667 -92 38s-44 62 -44 110c0 24 2 52.333 6 85c-42.667 -65.333 -95 -120.5 -157 -165.5s-120.667 -67.5 -176 -67.5
c-40 0 -73.833 9.33301 -101.5 28s-49.5 46.334 -65.5 83.001c-28.667 -83.333 -50.334 -206.333 -65.001 -369c-10 -115.333 -47 -173 -111 -173c-28 0 -47.833 9.5 -59.5 28.5s-17.5 36.167 -17.5 51.5c0 28 26.333 92.667 79 194c42 81.333 90.333 215.666 145 402.999z
" />
    <glyph glyph-name="paragraph" unicode="&#xb6;" horiz-adv-x="938" 
d="M1004 1382v-39h-42c-52 0 -85 -12 -99 -36s-21 -81.667 -21 -173v-1566h-75v1757h-193v-1757h-76v1031c-332 4 -498 135.333 -498 394c0 80 19.167 149.5 57.5 208.5s90.833 103.833 157.5 134.5s150.667 46 252 46h537z" />
    <glyph glyph-name="periodcentered" unicode="&#xb7;" horiz-adv-x="555" 
d="M343 795c28 0 52.333 -10.167 73 -30.5s31 -44.833 31 -73.5s-10.167 -53.167 -30.5 -73.5s-44.833 -30.5 -73.5 -30.5s-53.167 10.167 -73.5 30.5s-30.5 44.833 -30.5 73.5s10.167 53.167 30.5 73.5s44.833 30.5 73.5 30.5z" />
    <glyph glyph-name="periodcentered" unicode="&#x2219;" horiz-adv-x="555" 
d="M343 795c28 0 52.333 -10.167 73 -30.5s31 -44.833 31 -73.5s-10.167 -53.167 -30.5 -73.5s-44.833 -30.5 -73.5 -30.5s-53.167 10.167 -73.5 30.5s-30.5 44.833 -30.5 73.5s10.167 53.167 30.5 73.5s44.833 30.5 73.5 30.5z" />
    <glyph glyph-name="guillemotright" unicode="&#xbb;" 
d="M31 37l342 478l-111 474h45l244 -474l-464 -478h-56zM412 37l341 478l-112 474h46l245 -474l-465 -478h-55z" />
    <glyph glyph-name="afii10023" unicode="&#x401;" horiz-adv-x="1366" 
d="M763 1783c36 0 67.001 -12.668 93.001 -38.001s39 -56.666 39 -93.999c0 -36 -12.833 -67 -38.5 -93s-56.834 -39 -93.501 -39c-36 0 -66.833 12.833 -92.5 38.5s-38.5 56.834 -38.5 93.501c0 37.333 13 68.666 39 93.999s56.667 38 92 38zM1280 1783
c37.333 0 68.667 -13.001 94 -39.001s38 -57 38 -93c0 -35.333 -12.833 -66.166 -38.5 -92.499s-56.834 -39.5 -93.501 -39.5c-36 0 -67 13 -93 39s-39 57 -39 93s12.833 67 38.5 93s56.834 39 93.501 39zM1425 1382l-86.999 -328.001h-37c2.66699 16.667 4 33.334 4 50.001
c0 138.667 -89.333 208 -268 208h-274l-156 -549h171c140.667 0 232 65.667 274 197h39l-143 -492h-39c12 40.667 18 76.667 18 108c0 40.667 -12 70.167 -36 88.5s-66.667 27.5 -128 27.5h-177l-146 -501c-6 -22 -9 -40.333 -9 -55c0 -45.333 32.667 -68 98 -68h141
c144 0 262.667 32.833 356 98.5s156.333 137.5 189 215.5h40l-132 -382h-1124l11 37c72.667 0 125.667 16.333 159 49s64.666 100 93.999 202l235 810c22 74 33 121.667 33 143c0 69.333 -54.333 104 -163 104l11 37h1046z" />
    <glyph glyph-name="afii10051" unicode="&#x402;" horiz-adv-x="1657" 
d="M282 1382l1163 -0.00195312l-95 -341h-38c-1.33301 66.667 -11 118.334 -29 155.001s-48.5 65.334 -91.5 86.001s-99.833 31 -170.5 31h-88l-176 -598c152 148 300.333 222 445 222c126.667 0 219 -35 277 -105s87 -151.667 87 -245
c0 -147.333 -61 -284.666 -183 -411.999s-252.333 -191 -391 -191c-48 0 -88.667 12.667 -122 38l23 32c26.667 -20.667 54.334 -31 83.001 -31c76.667 0 158 71 244 213s129 262.333 129 361c0 67.333 -19.5 121.833 -58.5 163.5s-89.167 62.5 -150.5 62.5
c-128.667 0 -266 -73.333 -412 -220l-106 -367c-11.333 -38.667 -17 -69.334 -17 -92.001c0 -70.667 49 -106 147 -106c4 0 14 -0.333008 30 -1l-10 -37h-609l11 37c69.333 0.666992 121.333 15 156 43s60 69.667 76 125l322 1108h-53
c-227.333 0 -377.666 -90.667 -450.999 -272h-37z" />
    <glyph glyph-name="afii10052" unicode="&#x403;" horiz-adv-x="1293" 
d="M1014 1818h368l-513 -298h-37zM606 0h-620.002l11 37h35c36.667 0 75.834 11.333 117.501 34s75.834 79 102.501 169l266 909c10 35.333 15 64 15 86c0 73.333 -50 110 -150 110h-34l13 37h1109l-107 -354h-37c8.66699 50 13 92.667 13 128c0 40 -9 72.5 -27 97.5
s-39.167 41.167 -63.5 48.5s-64.833 11 -121.5 11h-356l-300 -1026c-21.333 -72.667 -32 -121 -32 -145c0 -38 13.333 -65 40 -81s73 -24 139 -24z" />
    <glyph glyph-name="afii10053" unicode="&#x404;" horiz-adv-x="1472" 
d="M461 736l471.999 0.000976562l-20 -69h-469c-13.333 -56.667 -20 -109 -20 -157c0 -140 43.667 -251.333 131 -334s193.333 -124 318 -124c168.667 0 320 85.333 454 256h38c-52.667 -92 -131.167 -171.5 -235.5 -238.5s-221.166 -100.5 -350.499 -100.5
c-170 0 -309.5 56.833 -418.5 170.5s-163.5 242.167 -163.5 385.5c0 144 44.667 287 134 429s207.5 254.167 354.5 336.5s289.167 123.5 426.5 123.5c65.333 0 132 -11.333 200 -34c51.333 -16 82.333 -24 93 -24c30 0 68.667 19.333 116 58h38l-106 -445h-37
c4 31.333 6 60 6 86c0 90.667 -26 162.167 -78 214.5s-127 78.5 -225 78.5c-140 0 -268.833 -55.333 -386.5 -166s-208.167 -259.334 -271.5 -446.001z" />
    <glyph glyph-name="afii10054" unicode="&#x405;" horiz-adv-x="1237" 
d="M1267 1414l-103.999 -455.999h-37c4.66699 32.667 7 62.667 7 90c0 90.667 -35.667 162.167 -107 214.5s-150.666 78.5 -237.999 78.5c-74 0 -134.667 -20.667 -182 -62s-71 -91.666 -71 -150.999c0 -41.333 13 -81.166 39 -119.499s77 -91.5 153 -159.5
c145.333 -128 239.666 -222.333 282.999 -283s65 -127 65 -199c0 -112.667 -44.5 -207.167 -133.5 -283.5s-202.833 -114.5 -341.5 -114.5c-55.333 0 -101.333 4.33301 -138 13s-97 30.667 -181 66c-26 10.667 -46.333 16 -61 16c-44 0 -81 -31.667 -111 -95h-38l109 511h39
c-5.33301 -34.667 -8 -68 -8 -100c0 -110.667 36.167 -195.334 108.5 -254.001s152.5 -88 240.5 -88c86 0 158.333 26 217 78s88 115.333 88 190c0 53.333 -15.5 103.166 -46.5 149.499s-95.5 113.5 -193.5 201.5c-102.667 92 -175.667 167 -219 225s-65 117.333 -65 178
c0 107.333 43.667 193.166 131 257.499s184.666 96.5 291.999 96.5c72 0 157 -18.667 255 -56c47.333 -18.667 81 -28 101 -28c46 0 82 28 108 84h39z" />
    <glyph glyph-name="afii10055" unicode="&#x406;" horiz-adv-x="789" 
d="M573 37l-11 -36.999h-561l11 37c65.333 4 113.333 21.667 144 53s60.667 97 90 197l235 810c21.333 73.333 32 121.333 32 144c0 69.333 -56 104 -168 104l11 37h588l-11 -37c-70 -1.33301 -121.333 -17.833 -154 -49.5s-63.667 -97.834 -93 -198.501l-235 -810
c-21.333 -72.667 -32 -121 -32 -145c0 -68.667 51.333 -103.667 154 -105z" />
    <glyph glyph-name="afii10056" unicode="&#x407;" horiz-adv-x="789" 
d="M472 1783c36.667 0 67.835 -12.832 93.502 -38.499s38.5 -56.834 38.5 -93.501c0 -35.333 -12.833 -66.166 -38.5 -92.499s-56.834 -39.5 -93.501 -39.5s-67.834 13 -93.501 39s-38.5 57 -38.5 93c0 37.333 13 68.666 39 93.999s57 38 93 38zM988.001 1783
c36 0 67.001 -12.668 93.001 -38.001s39 -56.666 39 -93.999c0 -36 -12.833 -67 -38.5 -93s-56.834 -39 -93.501 -39s-67.834 13 -93.501 39s-38.5 57 -38.5 93s12.833 67 38.5 93s56.834 39 93.501 39zM573.002 37l-11 -36.999h-561l11 37c65.333 4 113.333 21.667 144 53
s60.667 97 90 197l235 810c21.333 73.333 32 121.333 32 144c0 69.333 -56 104 -168 104l11 37h588l-11 -37c-70 -1.33301 -121.333 -17.833 -154 -49.5s-63.667 -97.834 -93 -198.501l-235 -810c-21.333 -72.667 -32 -121 -32 -145c0 -68.667 51.333 -103.667 154 -105z
" />
    <glyph glyph-name="afii10057" unicode="&#x408;" 
d="M553 1345l11 37.001h592l-11 -37c-62.667 0 -110 -17.167 -142 -51.5s-62 -99.833 -90 -196.5l-187 -645c-32 -108.667 -65.333 -193.334 -100 -254.001s-87.667 -114 -159 -160s-144.666 -69 -219.999 -69c-60.667 0 -113.5 18 -158.5 54s-67.5 82 -67.5 138
c0 40.667 12 74.5 36 101.5s54.667 40.5 92 40.5c32 0 57 -10 75 -30s27 -40.333 27 -61c0 -24.667 -12 -48.667 -36 -72c-16 -16 -24 -29.667 -24 -41c0 -20.667 5.83301 -36.167 17.5 -46.5s29.167 -15.5 52.5 -15.5c50 0 92.667 25.167 128 75.5
s72.666 142.166 111.999 275.499l206 709c21.333 73.333 32 121.333 32 144c0 34.667 -12.5 60.834 -37.5 78.501s-74.5 26.167 -148.5 25.5z" />
    <glyph glyph-name="afii10058" unicode="&#x409;" horiz-adv-x="1961" 
d="M738 1313c-61.333 -240 -133.998 -489.167 -217.998 -747.5s-154.667 -419.833 -212 -484.5s-121 -97 -191 -97c-50.667 0 -94.834 15.167 -132.501 45.5s-56.5 70.166 -56.5 119.499c0 35.333 9.66699 64 29 86s44.333 33 75 33c61.333 0 99.333 -37.667 114 -113
c8 -40.667 24.333 -61 49 -61c29.333 0 64.166 33.5 104.499 100.5s107.833 247.833 202.5 542.5s142 463.667 142 507c0 33.333 -12 57.833 -36 73.5s-67.333 24.834 -130 27.501l11 37h1109l-9 -37c-72 -2 -126 -15.333 -162 -40s-63.667 -71 -83 -139l-114 -401h189
c132 0 233.167 -34 303.5 -102s105.5 -147.667 105.5 -239c0 -103.333 -44.5 -199.833 -133.5 -289.5s-229.167 -134.5 -420.5 -134.5h-658l11 37c70 0 122.333 13.167 157 39.5s61.667 72.5 81 138.5l319 1098h-446zM1033 88c60 -12 112.667 -17.999 158 -17.999
c126 0 225.833 36.833 299.5 110.5s110.5 159.167 110.5 256.5c0 67.333 -25.333 127.166 -76 179.499s-131.667 78.5 -243 78.5h-71z" />
    <glyph glyph-name="afii10059" unicode="&#x40a;" horiz-adv-x="2015" 
d="M587 695l-132.995 -457.001c-12.667 -42.667 -19 -74.667 -19 -96c0 -66 50.667 -101 152 -105l-14 -37h-581l11 37c65.333 0.666992 117.166 13.834 155.499 39.501s69.833 81.834 94.5 168.501l268 929c8 26.667 12 49 12 67c0 69.333 -51 104 -153 104l12 37h579
l-11 -37c-64.667 -0.666992 -115 -13.834 -151 -39.501s-64 -71.834 -84 -138.501l-117 -402h471l113 385c14 48 21 83.667 21 107c0 34.667 -10.333 58 -31 70s-61.334 18 -122.001 18l12 37h578l-11 -37c-68.667 -0.666992 -121.834 -13.667 -159.501 -39
s-65.834 -71.666 -84.501 -138.999l-111 -402h189c128.667 0 229 -33.5 301 -100.5s108 -147.167 108 -240.5c0 -103.333 -44.667 -199.833 -134 -289.5s-229.333 -134.5 -420 -134.5h-659l11 37c70.667 0 123.167 13.167 157.5 39.5s61.166 72.5 80.499 138.5l142 480h-473
zM1087 89.999c55.333 -13.333 107.667 -19.999 157 -19.999c128 0 228.5 36.667 301.5 110s109.5 159 109.5 257c0 69.333 -26 129.666 -78 180.999s-132.333 77 -241 77h-71z" />
    <glyph glyph-name="afii10060" unicode="&#x40b;" horiz-adv-x="1662" 
d="M756 713c150 149.333 299.668 223.999 449.001 223.999c101.333 0 177.166 -19.833 227.499 -59.5s75.5 -99.167 75.5 -178.5c0 -36 -10.333 -89.667 -31 -161l-92 -312c-11.333 -38 -17 -65 -17 -81c0 -70 51 -106 153 -108l-11 -37h-559l12 37
c109.333 1.33301 184.333 73 225 215l89 310c12.667 44.667 19 81.667 19 111c0 40 -17 73.833 -51 101.5s-74 41.5 -120 41.5c-130.667 0 -263.334 -72.667 -398.001 -218l-105 -362c-11.333 -38.667 -17 -69.334 -17 -92.001c0 -70.667 49 -106 147 -106
c4 0 14 -0.333008 30 -1l-10 -37h-609l11 37c69.333 0.666992 121.333 15 156 43s60 69.667 76 125l321 1108h-52c-227.333 0 -377.666 -90.667 -450.999 -272h-37l95 341h1163l-95 -341h-38c-1.33301 66.667 -11 118.334 -29 155.001s-48.5 65.334 -91.5 86.001
s-99.833 31 -170.5 31h-88z" />
    <glyph glyph-name="afii10061" unicode="&#x40c;" horiz-adv-x="1460" 
d="M1081 1776h368l-513 -298h-37zM605 757l163 -0.000976562c74 0 135.833 24.167 185.5 72.5s100.834 129.833 153.501 244.5c69.333 149.333 128.666 241 177.999 275c49.333 33.333 97.666 50 144.999 50c42.667 0 79 -12.5 109 -37.5s45 -57.5 45 -97.5
c0 -72.667 -33 -109 -99 -109c-35.333 0 -70 23.667 -104 71c-16.667 23.333 -34 35 -52 35c-22.667 0 -43 -11 -61 -33s-46.667 -76.333 -86 -163c-44 -96 -86.333 -171.333 -127 -226s-97.667 -98.667 -171 -132c31.333 -18.667 64 -65 98 -139l187 -407
c38 -82.667 103.667 -124 197 -124l-9 -37h-325l-253 553c-18 39.333 -37.833 71.5 -59.5 96.5s-52.167 37.5 -91.5 37.5h-39l-140 -475c-8 -26 -12 -49.333 -12 -70c0 -70 50.667 -105 152 -105l-10 -37h-568l11 37c60.667 0 108.167 13.333 142.5 40s61.166 73 80.499 139
l272 936c10.667 36.667 16 67.334 16 92.001c0 66 -48.667 99.667 -146 101l13 37h594l-12 -37c-89.333 -0.666992 -149.666 -14 -180.999 -40s-55.666 -68.667 -72.999 -128z" />
    <glyph glyph-name="afii10062" unicode="&#x40e;" horiz-adv-x="1409" 
d="M1000 1464c-78.667 0 -146.834 20.5 -204.501 61.5s-86.5 83.833 -86.5 128.5c0 52.667 25.667 79 77 79c22.667 0 40.667 -6.16699 54 -18.5s28.666 -37.833 45.999 -76.5c30.667 -67.333 78.667 -101 144 -101c34.667 0 63.334 8.33301 86.001 25
c22 16 44.667 44.333 68 85c33.333 60 69.333 90 108 90c18.667 0 34.667 -6.83301 48 -20.5s20 -30.167 20 -49.5c0 -52 -35.667 -98.833 -107 -140.5s-155.666 -62.5 -252.999 -62.5zM727 200l-279.001 976.001c-21.333 76 -48 123.167 -80 141.5s-81.333 27.5 -148 27.5
l11 37h594l-11 -37c-115.333 0 -173 -31 -173 -93c0 -18 4.66699 -43.333 14 -76l216 -756l471 756c25.333 41.333 38 72.333 38 93c0 50.667 -48.667 76 -146 76l12 37h438l-10 -37c-53.333 0 -98.666 -12.167 -135.999 -36.5s-75.666 -68.5 -114.999 -132.5l-582 -936
c-53.333 -86 -104.333 -152.667 -153 -200s-109.334 -71 -182.001 -71c-70 0 -127.833 17.333 -173.5 52s-68.5 76 -68.5 124c0 29.333 9.16699 55.666 27.5 78.999s45.5 35 81.5 35c61.333 0 97 -37.333 107 -112c8.66699 -57.333 35 -86 79 -86c24.667 0 51 11.667 79 35
s57.667 58 89 104z" />
    <glyph glyph-name="afii10145" unicode="&#x40f;" horiz-adv-x="1646" 
d="M595 -394l-37.002 -0.000976562c19.333 78 29 138.667 29 182c0 141.333 -66.333 212 -199 212h-380l10 37c52.667 0.666992 98 11.334 136 32.001s67 65.667 87 135l276 956c11.333 38 17 65 17 81c0 40 -12.667 67.333 -38 82s-66.666 22 -123.999 22l10 37h582
l-11 -37c-60 0 -108 -12.5 -144 -37.5s-66.333 -80.5 -91 -166.5l-256 -882c-13.333 -45.333 -20 -77.666 -20 -96.999c0 -61.333 45.667 -92 137 -92h301c54 0 93.833 13.833 119.5 41.5s48.167 74.167 67.5 139.5l266 909c10 35.333 15 63.666 15 84.999
c0 36 -12 61.333 -36 76s-68.667 22.667 -134 24l12 37h585l-10 -37c-63.333 0 -112.166 -14.667 -146.499 -44s-60.833 -76.333 -79.5 -141l-274 -935c-10.667 -37.333 -16 -65.333 -16 -84c0 -69.333 57.333 -104 172 -104l-11 -37h-430
c-172.667 0 -301 -131.333 -385 -394z" />
    <glyph glyph-name="afii10017" unicode="&#x410;" horiz-adv-x="1473" 
d="M1197 1414l-94.002 -1155c-2.66699 -28.667 -4 -57.667 -4 -87c0 -90 48 -135 144 -135h46l-10 -37h-578l10 37h25c54.667 0 94.834 12.5 120.501 37.5s40.834 69.5 45.501 133.5l19 243h-417l-145 -192c-52 -68.667 -78 -117.667 -78 -147c0 -49.333 37 -74.333 111 -75
l-9 -37h-414l11 37c82 0 164.667 54.667 248 164l931 1213h38zM926.998 524l44 530l-409 -530h365z" />
    <glyph glyph-name="afii10018" unicode="&#x411;" horiz-adv-x="1341" 
d="M1428 1382l-113 -360.999h-37c14 56.667 21 102 21 136c0 57.333 -18.5 97.666 -55.5 120.999s-93.5 35 -169.5 35h-301l-162 -548h188c133.333 0 234.833 -34.167 304.5 -102.5s104.5 -147.833 104.5 -238.5c0 -104 -44.667 -200.667 -134 -290s-229 -134 -419 -134
h-659l11 37c70 0 122.333 13 157 39s61.667 72.333 81 139l274 935c14 48 21 83.667 21 107c0 34.667 -10.5 58 -31.5 70s-61.5 18 -121.5 18l12 37h1029zM413 88.001c58 -12 110.667 -18 158 -18c127.333 0 227.5 36.5 300.5 109.5s109.5 158.5 109.5 256.5
c0 68.667 -25.5 129 -76.5 181s-131.833 78 -242.5 78h-71z" />
    <glyph glyph-name="afii10019" unicode="&#x412;" horiz-adv-x="1366" 
d="M404 1382h478.001c92 0 169.667 -8.33301 233 -25s117 -51.667 161 -105s66 -112 66 -176c0 -86.667 -37.167 -161.667 -111.5 -225s-163.833 -103 -268.5 -119c85.333 -26 149.333 -65.167 192 -117.5s64 -117.833 64 -196.5c0 -107.333 -46.667 -203.833 -140 -289.5
s-247 -128.5 -461 -128.5h-617l11 37c69.333 0 122.166 12.167 158.499 36.5s71.833 95.833 106.5 214.5l235 810c21.333 74 32 121.667 32 143c0 66 -49.667 100.667 -149 104zM777.001 1304l-157 -536c26.667 -0.666992 46.334 -1 59.001 -1
c175.333 0 293.666 34.333 354.999 103s92 143.667 92 225c0 64.667 -21.667 117 -65 157s-108 60 -194 60c-29.333 0 -59.333 -2.66699 -90 -8zM599.001 697l-176 -606c48.667 -12.667 96.667 -19 144 -19c132 0 235.5 35.5 310.5 106.5s112.5 156.833 112.5 257.5
c0 87.333 -27.5 152.833 -82.5 196.5s-137.833 65.5 -248.5 65.5c-12.667 0 -32.667 -0.333008 -60 -1z" />
    <glyph glyph-name="afii10020" unicode="&#x413;" horiz-adv-x="1293" 
d="M606 0h-620.002l11 37h35c36.667 0 75.834 11.333 117.501 34s75.834 79 102.501 169l266 909c10 35.333 15 64 15 86c0 73.333 -50 110 -150 110h-34l13 37h1109l-107 -354h-37c8.66699 50 13 92.667 13 128c0 40 -9 72.5 -27 97.5s-39.167 41.167 -63.5 48.5
s-64.833 11 -121.5 11h-356l-300 -1026c-21.333 -72.667 -32 -121 -32 -145c0 -38 13.333 -65 40 -81s73 -24 139 -24z" />
    <glyph glyph-name="afii10021" unicode="&#x414;" horiz-adv-x="1383" 
d="M1156 37l-119.001 -430.999h-36c19.333 65.333 29 120.666 29 165.999c0 77.333 -20.167 134.666 -60.5 171.999s-95.166 56 -164.499 56h-527c-209.333 0 -357.333 -131.333 -444 -394h-37l124 431c53.333 2.66699 106.333 24 159 64s117.167 135.667 193.5 287
s143.666 324.833 201.999 520.5s87.5 308.834 87.5 339.501c0 62 -57.333 94.333 -172 97l9 37h1111l-10 -37c-58 -1.33301 -104.5 -14.166 -139.5 -38.499s-62.167 -70.166 -81.5 -137.499l-279 -951c-6.66699 -22.667 -10 -47.334 -10 -74.001
c0 -38.667 12.833 -65.834 38.5 -81.501s67.834 -24.167 126.501 -25.5zM658.999 1313c-157.333 -636.667 -323.666 -1051 -498.999 -1243h466c44 0 79.667 11.167 107 33.5s50.666 67.5 69.999 135.5l315 1074h-459z" />
    <glyph glyph-name="afii10022" unicode="&#x415;" horiz-adv-x="1366" 
d="M1425 1382l-86.999 -328.001h-37c2.66699 16.667 4 33.334 4 50.001c0 138.667 -89.333 208 -268 208h-274l-156 -549h171c140.667 0 232 65.667 274 197h39l-143 -492h-39c12 40.667 18 76.667 18 108c0 40.667 -12 70.167 -36 88.5s-66.667 27.5 -128 27.5h-177
l-146 -501c-6 -22 -9 -40.333 -9 -55c0 -45.333 32.667 -68 98 -68h141c144 0 262.667 32.833 356 98.5s156.333 137.5 189 215.5h40l-132 -382h-1124l11 37c72.667 0 125.667 16.333 159 49s64.666 100 93.999 202l235 810c22 74 33 121.667 33 143
c0 69.333 -54.333 104 -163 104l11 37h1046z" />
    <glyph glyph-name="afii10024" unicode="&#x416;" horiz-adv-x="1940" 
d="M952 1382l572.004 -0.00390625l-11 -37c-62.667 0 -112 -13 -148 -39s-63.667 -71 -83 -135l-123 -419h90c66 0 126.167 18.5 180.5 55.5s116.166 134.5 185.499 292.5c57.333 130.667 108 213.334 152 248.001c43.333 34 89.666 51 138.999 51
c46 0 82.333 -12.5 109 -37.5s40 -55.833 40 -92.5c0 -29.333 -8.83301 -54.666 -26.5 -75.999s-42.834 -32 -75.501 -32c-37.333 0 -69 16.667 -95 50c-22.667 29.333 -41.334 44 -56.001 44c-18 0 -33.667 -10.333 -47 -31c-14 -20.667 -49 -91 -105 -211
c-50.667 -107.333 -95.334 -181.333 -134.001 -222s-84 -68.667 -136 -84c31.333 -18 62.333 -58.667 93 -122l204 -428c34 -70.667 87.667 -110.667 161 -120l-11 -37h-294l-265 571c-20.667 42.667 -39.167 72 -55.5 88s-41.166 24 -74.499 24l-131 -453
c-10.667 -38 -16 -67.333 -16 -88c0 -70 49 -105 147 -105l-10 -37h-567l11 37c114.667 5.33301 187.667 61 219 167l142 479c-55.333 0 -93.333 -4.16699 -114 -12.5s-48 -32.166 -82 -71.499l-520 -599h-291l11 37c50 8.66699 94 35 132 79l399 463
c46.667 54.667 86 89.834 118 105.501s73.333 28.5 124 38.5c-34 20.667 -59.5 46.5 -76.5 77.5s-25.5 66.833 -25.5 107.5c0 32 3.66699 79.333 11 142c5.33301 46.667 8 87.667 8 123c0 27.333 -4 47.833 -12 61.5s-20 20.5 -36 20.5c-17.333 0 -35 -11.333 -53 -34
c-32 -40 -67.667 -60 -107 -60c-30.667 0 -55.667 9.5 -75 28.5s-29 43.167 -29 72.5c0 39.333 16.5 72 49.5 98s73.833 39 122.5 39c62 0 112 -21 150 -63s57 -100 57 -174c0 -39.333 -2.66699 -81.333 -8 -126c-7.33301 -59.333 -11 -101.666 -11 -126.999
c0 -52 17.333 -91.167 52 -117.5s86.667 -39.5 156 -39.5h69l107 361c17.333 59.333 26 99.333 26 120c0 71.333 -47.667 108.666 -143 111.999z" />
    <glyph glyph-name="afii10025" unicode="&#x417;" horiz-adv-x="1079" 
d="M279 1050h-37.001l119 361h31c6 -30 19.667 -45 41 -45c18 0 40.333 4.33301 67 13c71.333 23.333 143 35 215 35c104.667 0 187.167 -26.833 247.5 -80.5s90.5 -121.167 90.5 -202.5c0 -87.333 -27.833 -164.5 -83.5 -231.5s-139.5 -124.167 -251.5 -171.5
c144.667 -47.333 217 -142 217 -284c0 -127.333 -54.333 -238.333 -163 -333s-240 -142 -394 -142c-162.667 0 -289.667 55 -381 165l26 25c96.667 -82.667 191.334 -124 284.001 -124c87.333 0 155.333 16 204 48s94 85.167 136 159.5s63 152.833 63 235.5
c0 143.333 -106 215 -318 215l19 65c19.333 -1.33301 34.666 -2 45.999 -2c108.667 0 199.334 43.5 272.001 130.5s109 182.833 109 287.5c0 53.333 -16 93.333 -48 120s-80 40 -144 40c-85.333 0 -155.833 -21.333 -211.5 -64s-107.5 -116 -155.5 -220z" />
    <glyph glyph-name="afii10026" unicode="&#x418;" horiz-adv-x="1649" 
d="M476 301l874.999 916.001c2.66699 15.333 4 28 4 38c0 32 -12.167 55 -36.5 69s-72.166 21 -143.499 21l13 37h591l-10 -37c-61.333 -1.33301 -109.833 -14.833 -145.5 -40.5s-62.5 -70.5 -80.5 -134.5l-271 -933c-13.333 -47.333 -20 -78 -20 -92
c0 -36.667 11.833 -62.834 35.5 -78.501s64.834 -25.5 123.501 -29.5l-11 -37h-579l10 37c67.333 2 118 17.5 152 46.5s61.667 80.167 83 153.5l244 838l-877 -921c0 -37.333 10.667 -66 32 -86s63.666 -30.333 126.999 -31l-9 -37h-581l11 37c120.667 6 196 59.333 226 160
l277 939c13.333 44.667 20 81 20 109c0 66 -56 99.333 -168 100l10 37h585l-11 -37c-41.333 -0.666992 -83 -11.167 -125 -31.5s-72.667 -64.5 -92 -132.5z" />
    <glyph glyph-name="afii10027" unicode="&#x419;" horiz-adv-x="1649" 
d="M1111 1464c-79.333 0 -147.667 20.5 -205 61.5s-86 83.5 -86 127.5c0 53.333 25.667 80 77 80c23.333 0 41.5 -6.16699 54.5 -18.5s28.5 -37.833 46.5 -76.5c30 -67.333 77.667 -101 143 -101c35.333 0 64 8.33301 86 25c22 16 44.667 44.333 68 85c34 60 70 90 108 90
c20.667 0 37.167 -7.33301 49.5 -22s18.5 -30.667 18.5 -48c0 -52 -35.5 -98.833 -106.5 -140.5s-155.5 -62.5 -253.5 -62.5zM475.999 301l874.999 916.001c2.66699 15.333 4 28 4 38c0 32 -12.167 55 -36.5 69s-72.166 21 -143.499 21l13 37h591l-10 -37
c-61.333 -1.33301 -109.833 -14.833 -145.5 -40.5s-62.5 -70.5 -80.5 -134.5l-271 -933c-13.333 -47.333 -20 -78 -20 -92c0 -36.667 11.833 -62.834 35.5 -78.501s64.834 -25.5 123.501 -29.5l-11 -37h-579l10 37c67.333 2 118 17.5 152 46.5s61.667 80.167 83 153.5
l244 838l-877 -921c0 -37.333 10.667 -66 32 -86s63.666 -30.333 126.999 -31l-9 -37h-581l11 37c120.667 6 196 59.333 226 160l277 939c13.333 44.667 20 81 20 109c0 66 -56 99.333 -168 100l10 37h585l-11 -37c-41.333 -0.666992 -83 -11.167 -125 -31.5
s-72.667 -64.5 -92 -132.5z" />
    <glyph glyph-name="afii10028" unicode="&#x41a;" horiz-adv-x="1460" 
d="M605 757l163 -0.000976562c74 0 135.833 24.167 185.5 72.5s100.834 129.833 153.501 244.5c69.333 149.333 128.666 241 177.999 275c49.333 33.333 97.666 50 144.999 50c42.667 0 79 -12.5 109 -37.5s45 -57.5 45 -97.5c0 -72.667 -33 -109 -99 -109
c-35.333 0 -70 23.667 -104 71c-16.667 23.333 -34 35 -52 35c-22.667 0 -43 -11 -61 -33s-46.667 -76.333 -86 -163c-44 -96 -86.333 -171.333 -127 -226s-97.667 -98.667 -171 -132c31.333 -18.667 64 -65 98 -139l187 -407c38 -82.667 103.667 -124 197 -124l-9 -37h-325
l-253 553c-18 39.333 -37.833 71.5 -59.5 96.5s-52.167 37.5 -91.5 37.5h-39l-140 -475c-8 -26 -12 -49.333 -12 -70c0 -70 50.667 -105 152 -105l-10 -37h-568l11 37c60.667 0 108.167 13.333 142.5 40s61.166 73 80.499 139l272 936c10.667 36.667 16 67.334 16 92.001
c0 66 -48.667 99.667 -146 101l13 37h594l-12 -37c-89.333 -0.666992 -149.666 -14 -180.999 -40s-55.666 -68.667 -72.999 -128z" />
    <glyph glyph-name="afii10029" unicode="&#x41b;" horiz-adv-x="1463" 
d="M1197 1313l-476.002 -0.000976562c-26.667 -123.333 -69.834 -296.5 -129.501 -519.5s-117.667 -398.167 -174 -525.5s-105.666 -206.5 -147.999 -237.5s-91.166 -46.5 -146.499 -46.5c-53.333 0 -99.166 14.833 -137.499 44.5s-57.5 69.834 -57.5 120.501
c0 32.667 9.16699 60.667 27.5 84s43.833 35 76.5 35c61.333 0 99.333 -37.667 114 -113c8 -40.667 25 -61 51 -61c14.667 0 31.334 6.83301 50.001 20.5s46 56.834 82 129.501s77 181.167 123 325.5s86.833 284.166 122.5 419.499s53.5 220 53.5 254
s-11.833 58.833 -35.5 74.5s-66.834 24.834 -129.501 27.501l10 37h1128l-11 -37c-66 0 -116 -12.833 -150 -38.5s-60.667 -70.834 -80 -135.501l-275 -940c-11.333 -38.667 -17 -69.667 -17 -93c0 -67.333 52.333 -101 157 -101l-11 -37h-576l9 37
c118 2 194.667 63.333 230 184z" />
    <glyph glyph-name="afii10030" unicode="&#x41c;" horiz-adv-x="2027" 
d="M2122 1382l-11.001 -37.001c-78.667 0 -135.667 -14.667 -171 -44s-68.666 -97.666 -99.999 -204.999l-236 -808c-20.667 -73.333 -31 -122.333 -31 -147c0 -36 13 -62.333 39 -79s71.333 -25 136 -25l-11 -37h-647l11 37c104 0 171.833 15.167 203.5 45.5
s63.167 98.833 94.5 205.5l248 853l-825 -1141h-41l-130 1141l-257 -853c-23.333 -76 -35 -127.667 -35 -155c0 -64 54.333 -96 163 -96l-10 -37h-472l11 37c81.333 0 138.5 15.333 171.5 46s65.5 99 97.5 205l296 979c-31.333 52 -96.333 78 -195 78l12 37h389l124 -1094
l791 1094h385z" />
    <glyph glyph-name="afii10031" unicode="&#x41d;" horiz-adv-x="1686" 
d="M629 763l611 0.00195312l97 334c21.333 73.333 32 121.666 32 144.999c0 68.667 -56.667 103 -170 103l11 37h594l-11 -37c-62.667 -1.33301 -111.667 -14 -147 -38s-70 -94 -104 -210l-235 -810c-21.333 -73.333 -32 -121.666 -32 -144.999c0 -68 53 -103 159 -105
l-11 -37h-581l11 37c60.667 1.33301 108.834 14.166 144.501 38.499s70.5 94.833 104.5 211.5l118 408h-609l-120 -408c-21.333 -72 -32 -120.667 -32 -146c0 -66.667 50.667 -101.334 152 -104.001l-9 -37h-576l11 37c69.333 1.33301 120.666 17.5 153.999 48.5
s65 98.167 95 201.5l235 810c21.333 72.667 32 120.667 32 144c0 69.333 -56.333 104 -169 104l11 37h587l-11 -37c-60 -2 -107.5 -15.167 -142.5 -39.5s-69.167 -93.833 -102.5 -208.5z" />
    <glyph glyph-name="afii10032" unicode="&#x41e;" horiz-adv-x="1579" 
d="M1538 919c0 -224.667 -90.5 -439.166 -271.5 -643.499s-381.5 -306.5 -601.5 -306.5c-149.333 0 -266.833 47.333 -352.5 142s-128.5 213.667 -128.5 357c0 220.667 89.5 433.5 268.5 638.5s380.5 307.5 604.5 307.5c149.333 0 266.833 -46.333 352.5 -139
s128.5 -211.334 128.5 -356.001zM1318 982.001c0 112 -24.5 200.333 -73.5 265s-115.167 97 -198.5 97c-106.667 0 -210.334 -47.167 -311.001 -141.5s-181 -225.666 -241 -393.999s-90 -309.5 -90 -423.5c0 -96 23.333 -177.833 70 -245.5s113 -101.5 199 -101.5
c109.333 0 213.333 46.333 312 139s178.834 223.167 240.501 391.5s92.5 306.166 92.5 413.499z" />
    <glyph glyph-name="afii10033" unicode="&#x41f;" horiz-adv-x="1648" 
d="M1379 1313l-608.998 0.000976562l-317 -1091c-10.667 -36 -16 -62.333 -16 -79c0 -38 11.167 -64.5 33.5 -79.5s63.166 -23.833 122.499 -26.5l-12 -37h-573l11 37c45.333 0 88.666 10.833 129.999 32.5s74 72.5 98 152.5l273 935c11.333 36.667 17 64.667 17 84
c0 69.333 -57.333 104 -172 104l11 37h1402l-10 -37c-54 -0.666992 -99.667 -11.334 -137 -32.001s-66 -65.667 -86 -135l-277 -956c-10.667 -37.333 -16 -65.666 -16 -84.999c0 -35.333 12.333 -60.833 37 -76.5s66 -23.5 124 -23.5l-11 -37h-580l11 37
c64.667 0 114.5 14.667 149.5 44s63.5 82.666 85.5 159.999z" />
    <glyph glyph-name="afii10034" unicode="&#x420;" horiz-adv-x="1366" 
d="M635 681l-114.999 -394.002c-20.667 -73.333 -31 -121.666 -31 -144.999c0 -38 13.333 -65 40 -81s72.667 -24 138 -24l-10 -37h-611l11 37c74.667 0 129 15.833 163 47.5s66 99.167 96 202.5l235 811c21.333 74 32 122 32 144c0 36 -13 62.167 -39 78.5
s-70 24.5 -132 24.5l11 37h436c111.333 0 202.666 -8.5 273.999 -25.5s129.833 -51.667 175.5 -104s68.5 -112.166 68.5 -179.499c0 -116.667 -51.667 -216.167 -155 -298.5s-230.333 -123.5 -381 -123.5c-65.333 0 -134 10 -206 30zM816.001 1302l-160.998 -553
c50 -18 99 -27 147 -27c95.333 0 179.666 34.5 252.999 103.5s110 154.833 110 257.5c0 74 -20.833 130.5 -62.5 169.5s-98.5 58.5 -170.5 58.5c-32.667 0 -71.334 -3 -116.001 -9z" />
    <glyph glyph-name="afii10035" unicode="&#x421;" horiz-adv-x="1473" 
d="M1533 1414l-103 -439h-38c2.66699 22.667 4 45.667 4 69c0 101.333 -25.833 177.833 -77.5 229.5s-122.834 77.5 -213.501 77.5c-181.333 0 -343.833 -87.667 -487.5 -263s-215.5 -369.333 -215.5 -582c0 -136 43 -245.167 129 -327.5s191.667 -123.5 317 -123.5
c89.333 0 174.5 24 255.5 72s146.5 109.667 196.5 185h43c-57.333 -102.667 -139.166 -185.5 -245.499 -248.5s-220.5 -94.5 -342.5 -94.5c-168 0 -306.833 54.667 -416.5 164s-164.5 241 -164.5 395c0 227.333 95.5 431.833 286.5 613.5s397.5 272.5 619.5 272.5
c67.333 0 151.333 -15 252 -45c32.667 -10 57 -15 73 -15c31.333 0 60.333 20 87 60h41z" />
    <glyph glyph-name="afii10036" unicode="&#x422;" horiz-adv-x="1366" 
d="M338 1382l1209 0.000976562l-112 -359h-38c12 51.333 18 99.333 18 144c0 39.333 -12.167 72 -36.5 98s-80.833 39 -169.5 39h-187l-296 -1017c-21.333 -72.667 -32 -121 -32 -145c0 -38.667 13.5 -65.834 40.5 -81.501s76.5 -23.5 148.5 -23.5l-11 -37h-662l11 37
c68.667 0 118.5 5 149.5 15s57.333 29.833 79 59.5s45.167 88.167 70.5 175.5l295 1017h-152c-114.667 0 -201.5 -22.167 -260.5 -66.5s-100.833 -115.833 -125.5 -214.5h-37z" />
    <glyph glyph-name="afii10037" unicode="&#x423;" horiz-adv-x="1409" 
d="M727 200l-279.001 976.001c-21.333 76 -48 123.167 -80 141.5s-81.333 27.5 -148 27.5l11 37h594l-11 -37c-115.333 0 -173 -31 -173 -93c0 -18 4.66699 -43.333 14 -76l216 -756l471 756c25.333 41.333 38 72.333 38 93c0 50.667 -48.667 76 -146 76l12 37h438l-10 -37
c-53.333 0 -98.666 -12.167 -135.999 -36.5s-75.666 -68.5 -114.999 -132.5l-582 -936c-53.333 -86 -104.333 -152.667 -153 -200s-109.334 -71 -182.001 -71c-70 0 -127.833 17.333 -173.5 52s-68.5 76 -68.5 124c0 29.333 9.16699 55.666 27.5 78.999s45.5 35 81.5 35
c61.333 0 97 -37.333 107 -112c8.66699 -57.333 35 -86 79 -86c24.667 0 51 11.667 79 35s57.667 58 89 104z" />
    <glyph glyph-name="afii10038" unicode="&#x424;" horiz-adv-x="1630" 
d="M787 1382l579.997 0.00195312l-10 -37c-62.667 0 -112.167 -13 -148.5 -39s-63.833 -71.667 -82.5 -137c152 -4 271 -43.833 357 -119.5s129 -171.5 129 -287.5c0 -152.667 -69.667 -281.334 -209 -386.001s-324 -160 -554 -166c-9.33301 -32 -14 -56.667 -14 -74
c0 -26.667 10.333 -49.667 31 -69s64.334 -29.333 131.001 -30l-10 -37h-582l10 37c121.333 1.33301 198.333 59 231 173c-152.667 0 -273 37.5 -361 112.5s-132 171.5 -132 289.5c0 93.333 28.333 182.166 85 266.499s143.334 153.166 260.001 206.499
s258.334 81.333 425.001 84c9.33301 28.667 14 50.667 14 66c0 70.667 -53.667 107.334 -161 110.001zM905.997 1111c-190.667 -6.66699 -331.667 -68.167 -423 -184.5s-137 -240.833 -137 -373.5c0 -83.333 27.667 -151.833 83 -205.5s133 -80.5 233 -80.5z
M865.997 267.002c187.333 4 326.167 65 416.5 183s135.5 247 135.5 387c0 86.667 -28 153.667 -84 201s-129.667 71 -221 71z" />
    <glyph glyph-name="afii10039" unicode="&#x425;" horiz-adv-x="1473" 
d="M347 1382h561l-11 -37c-92.667 -3.33301 -139 -37.333 -139 -102c0 -26 6 -62 18 -108l89 -337l351 371c52 55.333 78 94 78 116c0 36.667 -26 56.667 -78 60l11 37h405l-11 -37c-94.667 0 -223 -85.333 -385 -256l-351 -370l132 -504c18 -70 41.833 -116.5 71.5 -139.5
s67.5 -35.833 113.5 -38.5l-11 -37h-531l11 37c67.333 0 109 10 125 30s24 45.667 24 77c0 30 -6 67.667 -18 113l-77 294l-317 -336c-48 -50.667 -72 -90 -72 -118c0 -38.667 44.333 -58.667 133 -60l-12 -37h-447l11 37c46.667 6 91.167 21.667 133.5 47
s106.5 83 192.5 173l357 372l-129 495c-26 100.667 -55.167 162.667 -87.5 186s-82.833 35 -151.5 35z" />
    <glyph glyph-name="afii10040" unicode="&#x426;" horiz-adv-x="1646" 
d="M1421 37l-125 -431.001h-38c12.667 43.333 19 86.666 19 129.999c0 68.667 -15 129.834 -45 183.501s-84.333 80.5 -163 80.5h-1066l11 37c64 1.33301 113.333 14 148 38s61 67 79 129l277 956c10.667 38.667 16 65.334 16 80.001c0 39.333 -12.5 66.666 -37.5 81.999
s-66.167 23 -123.5 23l10 37h581l-10 -37c-62 0 -110.667 -13 -146 -39s-65 -81 -89 -165l-257 -882c-13.333 -45.333 -20 -77.666 -20 -96.999c0 -61.333 46 -92 138 -92h300c47.333 0 85.5 12.167 114.5 36.5s53.833 72.5 74.5 144.5l264 909
c10 34.667 15 60.334 15 77.001c0 42 -12 70.167 -36 84.5s-68.667 22.166 -134 23.499l13 37h585l-10 -37c-64 0 -113 -14.667 -147 -44s-60.333 -76.333 -79 -141l-274 -935c-11.333 -36.667 -17 -64.667 -17 -84c0 -69.333 57.333 -104 172 -104z" />
    <glyph glyph-name="afii10041" unicode="&#x427;" horiz-adv-x="1489" 
d="M217 1382l586.002 0.000976562l-10 -37c-60 0 -107.5 -13 -142.5 -39s-64.833 -82 -89.5 -168l-75 -260c-12 -40.667 -18 -71.667 -18 -93c0 -46.667 19.333 -81.834 58 -105.501s96.667 -35.5 174 -35.5c117.333 0 231 24.333 341 73l129 426
c12.667 41.333 19 73.666 19 96.999c0 40 -12.833 67.333 -38.5 82s-70.5 22.334 -134.5 23.001l11 37h588l-9 -37c-65.333 -1.33301 -114.5 -16.166 -147.5 -44.499s-60.167 -78.833 -81.5 -151.5l-264 -909c-12.667 -45.333 -19 -79 -19 -101c0 -68 53 -102 159 -102
l-11 -37h-579l9 37c117.333 0 193.666 61.667 228.999 185l122 420c-138.667 -61.333 -280.334 -92 -425.001 -92c-122 0 -207.833 21.833 -257.5 65.5s-74.5 97.5 -74.5 161.5c0 36.667 8.33301 83.667 25 141l73 249c8 26 12 50.333 12 73
c0 39.333 -12.333 66.666 -37 81.999s-69 23 -133 23z" />
    <glyph glyph-name="afii10042" unicode="&#x428;" horiz-adv-x="2305" 
d="M390 1382l551.999 0.00195312l-12 -37c-53.333 0 -96.5 -13.833 -129.5 -41.5s-59.167 -74.834 -78.5 -141.501l-257 -897c-15.333 -54.667 -23 -94 -23 -118c0 -51.333 38.667 -77 116 -77h223c50.667 0 87 5 109 15s41.167 29.167 57.5 57.5s32.5 69.166 48.5 122.499
l257 891c12.667 44 19 74.667 19 92c0 65.333 -34 98 -102 98c-4.66699 0 -11 -0.333008 -19 -1l12 37h516l-12 -37c-58 -1.33301 -102 -15 -132 -41s-53 -67.667 -69 -125l-264 -914c-14.667 -52 -22 -89 -22 -111c0 -31.333 11.167 -53.166 33.5 -65.499
s62.833 -18.5 121.5 -18.5h207c53.333 0 92.333 13.167 117 39.5s49.334 81.833 74.001 166.5l251 867c13.333 46 20 80 20 102c0 62.667 -39.667 96 -119 100l12 37h517l-10 -37c-56.667 -1.33301 -100.667 -14.833 -132 -40.5s-56 -69.834 -74 -132.501l-277 -960
c-9.33301 -32.667 -14 -56 -14 -70c0 -38 12.833 -65 38.5 -81s70.167 -24 133.5 -24l-12 -37h-2047l11 37c109.333 6 179 60 209 162l276 957c12.667 45.333 19 78 19 98c0 60.667 -45 91 -135 91h-22z" />
    <glyph glyph-name="afii10043" unicode="&#x429;" horiz-adv-x="2305" 
d="M20 0l11 37.001c109.333 5.33301 179 59.333 209 162l276 957c12.667 45.333 19 78 19 98c0 60.667 -45 91 -135 91h-22l12 37h552l-12 -37c-53.333 0 -96.5 -13.833 -129.5 -41.5s-59.167 -74.834 -78.5 -141.501l-257 -897c-14.667 -52 -22 -87.667 -22 -107
c0 -58.667 38.333 -88 115 -88h223c48.667 0 83.5 4.33301 104.5 13s40.333 26.5 58 53.5s35.167 69.833 52.5 128.5l257 891c12.667 44 19 74.667 19 92c0 65.333 -34 98 -102 98c-4.66699 0 -11 -0.333008 -19 -1l12 37h516l-12 -37
c-58 -1.33301 -101.833 -14.666 -131.5 -39.999s-52.834 -67.333 -69.501 -126l-264 -914c-15.333 -52.667 -23 -88.667 -23 -108c0 -30.667 11 -52.834 33 -66.501s63 -20.5 123 -20.5h207c52.667 0 91.334 12.833 116.001 38.5s49.667 81.5 75 167.5l251 867
c13.333 46 20 80 20 102c0 62.667 -39.667 96 -119 100l12 37h517l-10 -37c-56.667 -1.33301 -100.667 -14.833 -132 -40.5s-56 -69.834 -74 -132.501l-277 -960c-8.66699 -30 -13 -55.333 -13 -76c0 -35.333 13 -60.666 39 -75.999s70 -23 132 -23l-128 -431h-37
c12.667 44 19 87.333 19 130c0 176 -71.667 264 -215 264h-1698z" />
    <glyph glyph-name="afii10044" unicode="&#x42a;" horiz-adv-x="1494" 
d="M764 765l188.998 -0.00195312c132 0 233.167 -34 303.5 -102s105.5 -147.667 105.5 -239c0 -104 -44.833 -200.667 -134.5 -290s-229.5 -134 -419.5 -134h-664l11 37c70.667 2.66699 123.667 15.334 159 38.001s63.333 69.334 84 140.001l321 1098
c-158 -2 -269.667 -22.5 -335 -61.5s-119.333 -115.5 -162 -229.5h-38l98 360h850l-10 -37c-77.333 0 -132.666 -14.333 -165.999 -43s-58.666 -72.667 -75.999 -132zM566.998 87.998c59.333 -12 111.666 -18 156.999 -18c127.333 0 227.5 36.5 300.5 109.5
s109.5 158.5 109.5 256.5c0 69.333 -25.667 129.833 -77 181.5s-131.666 77.5 -240.999 77.5h-71z" />
    <glyph glyph-name="afii10045" unicode="&#x42b;" horiz-adv-x="1975" 
d="M976 1382l-10.998 -37c-73.333 -2 -127.833 -15.833 -163.5 -41.5s-62.5 -71.5 -80.5 -137.5l-111 -401h189c132.667 0 234 -34.167 304 -102.5s105 -147.833 105 -238.5c0 -104 -44.667 -200.667 -134 -290s-229.333 -134 -420 -134h-664l11 37
c71.333 2.66699 124.666 15.5 159.999 38.5s63 69.5 83 139.5l274 935c14 48 21 83.667 21 107c0 34.667 -10.333 58 -31 70s-61.334 18 -122.001 18l12 37h578zM413.002 88c57.333 -12 109.667 -18 157 -18c127.333 0 227.5 36.5 300.5 109.5s109.5 158.5 109.5 256.5
c0 70.667 -26.5 131.5 -79.5 182.5s-132.5 76.5 -238.5 76.5h-71zM1756 37l-10.999 -36.999h-598l11 37c81.333 0 139.166 15.5 173.499 46.5s66.5 98.833 96.5 203.5l235 810c22 73.333 33 121.333 33 144c0 69.333 -56.333 104 -169 104l11 37h588l-11 -37
c-69.333 -1.33301 -120.5 -17.833 -153.5 -49.5s-64.167 -97.834 -93.5 -198.501l-235 -810c-21.333 -72.667 -32 -121 -32 -145c0 -68.667 51.667 -103.667 155 -105z" />
    <glyph glyph-name="afii10046" unicode="&#x42c;" horiz-adv-x="1341" 
d="M976 1382l-10.998 -37c-73.333 -2 -127.833 -15.833 -163.5 -41.5s-62.5 -71.5 -80.5 -137.5l-111 -401h189c132.667 0 234 -34.167 304 -102.5s105 -147.833 105 -238.5c0 -104 -44.667 -200.667 -134 -290s-229.333 -134 -420 -134h-664l11 37
c71.333 2.66699 124.666 15.5 159.999 38.5s63 69.5 83 139.5l274 935c14 48 21 83.667 21 107c0 34.667 -10.333 58 -31 70s-61.334 18 -122.001 18l12 37h578zM413.002 88c57.333 -12 109.667 -18 157 -18c127.333 0 227.5 36.5 300.5 109.5s109.5 158.5 109.5 256.5
c0 70.667 -26.5 131.5 -79.5 182.5s-132.5 76.5 -238.5 76.5h-71z" />
    <glyph glyph-name="afii10047" unicode="&#x42d;" horiz-adv-x="1441" 
d="M1137 735c4.66699 39.333 6.99902 76.334 6.99902 111.001c0 140 -28.833 257 -86.5 351s-142.5 141 -254.5 141c-72 0 -140.667 -14.667 -206 -44s-117 -65.5 -155 -108.5s-79.667 -103.833 -125 -182.5h-38l112 411h37c-0.666992 -6.66699 -1 -12 -1 -16
c0 -32.667 18.667 -49 56 -49c15.333 0 58.333 9.33301 129 28c89.333 24.667 170.333 37 243 37c148.667 0 271.834 -55.167 369.501 -165.5s146.5 -248.833 146.5 -415.5c0 -123.333 -29.667 -253 -89 -389s-152.5 -249.167 -279.5 -339.5s-263.5 -135.5 -409.5 -135.5
c-198 0 -367.667 113.333 -509 340l31 22c107.333 -125.333 197.833 -204 271.5 -236s140.5 -48 200.5 -48c108.667 0 216.667 48.667 324 146s180 254.666 218 471.999h-478l16 70h470z" />
    <glyph glyph-name="afii10048" unicode="&#x42e;" horiz-adv-x="2265" 
d="M598 728h322.998c52 168 156.833 324.333 314.5 469s330.167 217 517.5 217c137.333 0 249.5 -45.833 336.5 -137.5s130.5 -212.167 130.5 -361.5c0 -236.667 -90.667 -453.5 -272 -650.5s-377.666 -295.5 -588.999 -295.5c-139.333 0 -254.666 43 -345.999 129
s-137 212 -137 378c0 62 8.33301 123 25 183h-326l-121 -421c-12 -43.333 -18 -75.666 -18 -96.999c0 -65.333 49.667 -100 149 -104l-10 -37h-588l11 37c76 2 131.833 17.333 167.5 46s65.167 82.667 88.5 162l268 929c7.33301 26.667 11 47.667 11 63
c0 72 -51 108 -153 108l13 37h578l-10 -37c-65.333 -0.666992 -116 -13.834 -152 -39.501s-63.667 -71.5 -83 -137.5zM1096 393c0 -109.333 24.834 -195.667 74.501 -259s113.834 -95 192.501 -95c103.333 0 202.666 43.167 297.999 129.5s176.5 215.833 243.5 388.5
s100.5 323.667 100.5 453c0 84.667 -23 161.167 -69 229.5s-113.667 102.5 -203 102.5c-106 0 -206.333 -45.333 -301 -136s-174.334 -219 -239.001 -385s-97 -308.667 -97 -428z" />
    <glyph glyph-name="afii10049" unicode="&#x42f;" horiz-adv-x="1453" 
d="M1583 1382l-11.001 -36.999c-116.667 -0.666992 -189.667 -52.334 -219 -155.001l-283 -978c-9.33301 -32 -14 -54.333 -14 -67c0 -68 53 -104 159 -108l-11 -37h-576l11 37c60.667 2 109.167 17.833 145.5 47.5s64.833 80.5 85.5 152.5l128 442
c-54.667 -6.66699 -99.667 -10 -135 -10c-8.66699 0 -22.667 0.666992 -42 2l-583 -671h-319l11 37c68.667 5.33301 125.667 37 171 95c5.33301 7.33301 10 13.333 14 18l356 404c64.667 74 130.334 121.667 197.001 143c-80.667 16.667 -146.167 52.5 -196.5 107.5
s-75.5 120.167 -75.5 195.5c0 100 46.5 188.667 139.5 266s236.5 116 430.5 116h617zM1176 1288c-50 14.667 -102 22 -156 22c-125.333 0 -223.166 -34 -293.499 -102s-105.5 -152.667 -105.5 -254c0 -76 25.167 -132.333 75.5 -169s116.166 -55 197.499 -55
c39.333 0 80.333 4.66699 123 14z" />
    <glyph glyph-name="afii10065" unicode="&#x430;" 
d="M971 913l-209.998 -716.001c-11.333 -40 -17 -68 -17 -84c0 -23.333 9 -35 27 -35c45.333 0 94.666 46.333 147.999 139l31 -20c-33.333 -62 -78.5 -114.333 -135.5 -157s-108.833 -64 -155.5 -64c-48 0 -72 30.667 -72 92c0 41.333 14.667 112.333 44 213
c-78.667 -101.333 -153 -177.5 -223 -228.5s-135.333 -76.5 -196 -76.5c-52.667 0 -95.334 22.833 -128.001 68.5s-49 100.834 -49 165.501c0 158.667 64.833 319.5 194.5 482.5s260.5 244.5 392.5 244.5c40 0 75 -14 105 -42s47.667 -62.333 53 -103l35 121h156z
M723.002 597.999c15.333 52 23 100.668 23 146.001c0 46.667 -11 83.667 -33 111s-51.333 41 -88 41c-94.667 0 -189.334 -80.833 -284.001 -242.5s-142 -297.167 -142 -406.5c0 -48.667 11.333 -86.334 34 -113.001s51.667 -40 87 -40c68 0 140.833 44.833 218.5 134.5
s129.834 180.5 156.501 272.5z" />
    <glyph glyph-name="afii10066" unicode="&#x431;" horiz-adv-x="1039" 
d="M1039 1469l36.9961 -0.00195312c-15.333 -73.333 -47.5 -128 -96.5 -164s-120.833 -55.667 -215.5 -59c-114 -4 -193.667 -22 -239 -54s-94.666 -84.167 -147.999 -156.5s-109.333 -198.166 -168 -377.499c146.667 186 300 279 460 279
c74.667 0 141.167 -28.833 199.5 -86.5s87.5 -137.5 87.5 -239.5c0 -161.333 -62.167 -307.5 -186.5 -438.5s-254.166 -196.5 -389.499 -196.5c-77.333 0 -144 27.833 -200 83.5s-84 131.5 -84 227.5c0 138.667 33.333 298.667 100 480s139 318.833 217 412.5
s152.833 153.334 224.5 179.001s170.834 42.167 297.501 49.5c29.333 1.33301 50.333 5.5 63 12.5s26.334 23.167 41.001 48.5zM249.996 224.998c0 -59.333 14.499 -107.667 43.499 -145s68.5 -56 118.5 -56c111.333 0 203.5 85.167 276.5 255.5s109.5 315.833 109.5 436.5
c0 52.667 -12.5 95.167 -37.5 127.5s-61.167 48.5 -108.5 48.5c-61.333 0 -125.166 -32.333 -191.499 -97s-118 -158.167 -155 -280.5s-55.5 -218.833 -55.5 -289.5z" />
    <glyph glyph-name="afii10067" unicode="&#x432;" horiz-adv-x="898" 
d="M512 494c79.333 -4.66699 140.001 -29.168 182.001 -73.501s63 -95.166 63 -152.499c0 -83.333 -38.833 -152.833 -116.5 -208.5s-163.5 -83.5 -257.5 -83.5c-80.667 0 -151.334 24.833 -212.001 74.5s-91 131.5 -91 245.5c0 154.667 56.833 300.167 170.5 436.5
s249.834 204.5 408.501 204.5c57.333 0 104.666 -12.667 141.999 -38s56 -62 56 -110c0 -116.667 -115 -215 -345 -295zM286.001 466.999c286 70.667 429 179.667 429 327c0 33.333 -7.33301 58.166 -22 74.499s-36.667 24.5 -66 24.5c-50 0 -104.333 -28.167 -163 -84.5
s-118 -170.166 -178 -341.499zM271.001 415.999c-28.667 -75.333 -43.001 -149.667 -43.001 -223c0 -54.667 12.833 -97.667 38.5 -129s59.834 -47 102.501 -47c64.667 0 117.167 29.5 157.5 88.5s60.5 123.167 60.5 192.5c0 42 -13.333 78.167 -40 108.5
s-64 45.5 -112 45.5c-24.667 0 -70.667 -9.66699 -138 -29z" />
    <glyph glyph-name="afii10068" unicode="&#x433;" horiz-adv-x="831" 
d="M228 766l-26.999 25.999c72.667 64.667 133.834 105 183.501 121s99.834 24 150.501 24c83.333 0 146.666 -18.333 189.999 -55s65 -82.334 65 -137.001c0 -53.333 -19.667 -98.5 -59 -135.5s-105 -75.167 -197 -114.5c-116.667 -49.333 -201 -97.5 -253 -144.5
s-78 -99.833 -78 -158.5c0 -44 16 -81 48 -111s78 -45 138 -45c86 0 178 47.667 276 143l29 -24c-111.333 -119.333 -240.333 -179 -387 -179c-82 0 -148.333 17.833 -199 53.5s-76 84.834 -76 147.501c0 54 20.833 103.833 62.5 149.5s123.5 90.167 245.5 133.5
c121.333 43.333 200.166 89.833 236.499 139.5s54.5 93.834 54.5 132.501c0 36.667 -13.833 68.167 -41.5 94.5s-67.834 39.5 -120.501 39.5c-28 0 -59.5 -5 -94.5 -15s-83.833 -38.333 -146.5 -85z" />
    <glyph glyph-name="afii10069" unicode="&#x434;" horiz-adv-x="1025" 
d="M439 1436l20.999 33.001c142.667 -44.667 263.167 -133.167 361.5 -265.5s147.5 -285.5 147.5 -459.5c0 -206.667 -63 -386.334 -189 -539.001s-266 -229 -420 -229c-91.333 0 -161.5 30.833 -210.5 92.5s-73.5 137.5 -73.5 227.5c0 155.333 64 301 192 437
s254.333 204 379 204c30 0 57.333 -5.16699 82 -15.5s46.334 -25.833 65.001 -46.5c-7.33301 148.667 -36 264.5 -86 347.5s-139.667 154.167 -269 213.5zM237.999 212.001c0 -63.333 14.332 -109.5 42.999 -138.5s62.667 -43.5 102 -43.5c114 0 208.5 81.667 283.5 245
s112.5 312 112.5 446c0 46 -12.667 84.833 -38 116.5s-61 47.5 -107 47.5c-115.333 0 -210.166 -85.833 -284.499 -257.5s-111.5 -310.167 -111.5 -415.5z" />
    <glyph glyph-name="afii10070" unicode="&#x435;" horiz-adv-x="897" 
d="M244 413c-8.66699 -30 -13 -62.666 -13 -97.999c0 -82 21.833 -142.5 65.5 -181.5s94.167 -58.5 151.5 -58.5c90 0 182.667 46.333 278 139l26 -26c-148 -141.333 -289 -212 -423 -212c-81.333 0 -147.333 28.833 -198 86.5s-76 125.5 -76 203.5
c0 107.333 30.667 213.166 92 317.499s135.5 189.333 222.5 255s181.167 98.5 282.5 98.5c59.333 0 108.333 -14.5 147 -43.5s58 -65.5 58 -109.5c0 -86 -55.333 -168 -166 -246s-259.667 -119.667 -447 -125zM254 453.001c159.333 10 276 53.501 350 130.501
s111 150.167 111 219.5c0 23.333 -8.33301 44.666 -25 63.999s-40.667 29 -72 29c-74 0 -146.833 -46.667 -218.5 -140s-120.167 -194.333 -145.5 -303z" />
    <glyph glyph-name="afii10072" unicode="&#x436;" horiz-adv-x="2043" 
d="M1291 436l-200 -0.000976562l-123 -436h-154l123 436h-202c-54.667 -151.333 -131 -265.666 -229 -342.999s-192 -116 -282 -116c-53.333 0 -96.5 15.5 -129.5 46.5s-49.5 70.833 -49.5 119.5c0 34.667 10.167 65.167 30.5 91.5s47.166 39.5 80.499 39.5
c49.333 0 74 -22.333 74 -67c0 -18.667 -12.333 -40 -37 -64c-22.667 -21.333 -34 -43.333 -34 -66c0 -16.667 7 -30.167 21 -40.5s29.333 -15.5 46 -15.5c93.333 0 180 66.5 260 199.5s120 266.833 120 401.5c0 61.333 -14.833 113.666 -44.5 156.999
s-70.834 65 -123.501 65c-87.333 0 -171.666 -54.333 -252.999 -163l-30 18c106.667 159.333 229.667 239 369 239c71.333 0 130.666 -26.667 177.999 -80s71 -127.666 71 -222.999c0 -51.333 -8 -104 -24 -158h199l123 436h155l-123 -436h201
c56 152.667 133 267.334 231 344.001s191.667 115 281 115c53.333 0 96.5 -15.333 129.5 -46s49.5 -70.667 49.5 -120c0 -34.667 -10.333 -65 -31 -91s-47.334 -39 -80.001 -39c-49.333 0 -74 22 -74 66c0 18.667 12.333 40 37 64c22 22 33 44 33 66
c0 16 -6.66699 29.5 -20 40.5s-28.666 16.5 -45.999 16.5c-94 0 -180.833 -67.333 -260.5 -202s-119.5 -267.667 -119.5 -399c0 -60.667 14.333 -113 43 -157s70 -66 124 -66c88.667 0 173.334 54.333 254.001 163l30 -18c-107.333 -159.333 -230.333 -239 -369 -239
c-71.333 0 -130.666 26.667 -177.999 80s-71 127.666 -71 222.999c0 51.333 8 104 24 158z" />
    <glyph glyph-name="afii10073" unicode="&#x437;" horiz-adv-x="827" 
d="M227 931l38.001 -0.00195312c8.66699 -28.667 23 -43 43 -43c6 0 18 3.66699 36 11c62 25.333 121.667 38 179 38c80 0 143 -20.167 189 -60.5s69 -89.166 69 -146.499c0 -127.333 -109.667 -203.333 -329 -228c152 -36 228 -112 228 -228
c0 -85.333 -39 -156.333 -117 -213s-169.667 -85 -275 -85c-132.667 0 -228.667 66.667 -288 200l34 13c61.333 -92 134.666 -138 219.999 -138c70.667 0 132.5 26.667 185.5 80s79.5 117 79.5 191c0 110.667 -80 166 -240 166l13 42c218.667 0 328 70.333 328 211
c0 44.667 -13 78.167 -39 100.5s-65 33.5 -117 33.5c-66 0 -117.833 -14.667 -155.5 -44s-77.5 -80.666 -119.5 -153.999h-37z" />
    <glyph glyph-name="afii10074" unicode="&#x438;" 
d="M987 913l-202 -696.003c-13.333 -45.333 -20 -79.666 -20 -102.999c0 -22 9.66699 -33 29 -33c34.667 0 82.667 45.333 144 136l28 -21c-100 -146.667 -192.667 -220 -278 -220c-52 0 -78 31.333 -78 94c0 48 17.333 132.333 52 253l37 127
c-67.333 -114 -148.666 -221.5 -243.999 -322.5s-179.333 -151.5 -252 -151.5c-38.667 0 -67.834 11.667 -87.501 35s-29.5 58 -29.5 104c0 42 10.333 97.667 31 167l123 423c8.66699 30.667 13 53.667 13 69c0 27.333 -10 41 -30 41c-34 0 -80.333 -43.667 -139 -131
l-29 21c33.333 58.667 76.5 110 129.5 154s103.833 66 152.5 66c23.333 0 42.833 -8.83301 58.5 -26.5s23.5 -38.167 23.5 -61.5c0 -29.333 -5.33301 -61.666 -16 -96.999l-141 -487c-12.667 -45.333 -19 -81.666 -19 -108.999c0 -16.667 4.16699 -29.167 12.5 -37.5
s20.5 -12.5 36.5 -12.5c60 0 147.167 73 261.5 219s191.5 288.333 231.5 427l49 173h153z" />
    <glyph glyph-name="afii10075" unicode="&#x439;" 
d="M917 1308h47c-77.333 -171.333 -187 -257 -329 -257c-68 0 -122.833 16.167 -164.5 48.5s-62.5 70.833 -62.5 115.5c0 62 27.667 93 83 93c40.667 0 76 -31 106 -93c25.333 -52.667 62.333 -79 111 -79c38.667 0 77.667 16.333 117 49s70 73.667 92 123zM987 913
l-202 -696.003c-13.333 -45.333 -20 -79.666 -20 -102.999c0 -22 9.66699 -33 29 -33c34.667 0 82.667 45.333 144 136l28 -21c-100 -146.667 -192.667 -220 -278 -220c-52 0 -78 31.333 -78 94c0 48 17.333 132.333 52 253l37 127
c-67.333 -114 -148.666 -221.5 -243.999 -322.5s-179.333 -151.5 -252 -151.5c-38.667 0 -67.834 11.667 -87.501 35s-29.5 58 -29.5 104c0 42 10.333 97.667 31 167l123 423c8.66699 30.667 13 53.667 13 69c0 27.333 -10 41 -30 41c-34 0 -80.333 -43.667 -139 -131
l-29 21c33.333 58.667 76.5 110 129.5 154s103.833 66 152.5 66c23.333 0 42.833 -8.83301 58.5 -26.5s23.5 -38.167 23.5 -61.5c0 -29.333 -5.33301 -61.666 -16 -96.999l-141 -487c-12.667 -45.333 -19 -81.666 -19 -108.999c0 -16.667 4.16699 -29.167 12.5 -37.5
s20.5 -12.5 36.5 -12.5c60 0 147.167 73 261.5 219s191.5 288.333 231.5 427l49 173h153z" />
    <glyph glyph-name="afii10076" unicode="&#x43a;" horiz-adv-x="1020" 
d="M461 937l-127.001 -446c66.667 0 114 3.66699 142 11s56 26 84 56s61 87 99 171c38.667 86 70 142.167 94 168.5s57.333 39.5 100 39.5c36.667 0 68.5 -11.167 95.5 -33.5s40.5 -50.833 40.5 -85.5c0 -24 -7.5 -45.5 -22.5 -64.5s-35.5 -28.5 -61.5 -28.5
c-37.333 0 -68.666 20.667 -93.999 62c-13.333 22 -25 33 -35 33c-20 0 -46 -36.667 -78 -110c-36 -81.333 -66 -137 -90 -167s-52.667 -51.667 -86 -65c38.667 -14 78.667 -61 120 -141l94 -183c38 -74 94.667 -113 170 -117l-11 -37h-242l-178 347
c-20 38.667 -39.5 65.667 -58.5 81s-44.5 23 -76.5 23c-4.66699 0 -10.667 -0.333008 -18 -1l-130 -450h-157l218 751c6.66699 24.667 10 41 10 49c0 32.667 -22.667 49 -68 49c-20.667 0 -45 -3 -73 -9l4 35l298 62h37z" />
    <glyph glyph-name="afii10077" unicode="&#x43b;" horiz-adv-x="930" 
d="M262 879l8.00195 34.001h612l-208 -729c-10 -36 -15 -58.667 -15 -68c0 -19.333 9 -29 27 -29c27.333 0 78.333 40.333 153 121l30 -24c-128.667 -138.667 -226.667 -208 -294 -208c-20 0 -38.333 7.66699 -55 23s-25 38.666 -25 69.999c0 26 7 61.667 21 107
c1.33301 6 3.33301 12.667 6 20l186 660h-190c-25.333 0 -42.333 -4.33301 -51 -13s-18 -29 -28 -61l-143 -451c-74.667 -236.667 -164 -355 -268 -355c-64.667 0 -97 28.667 -97 86c0 48.667 24 73 72 73c19.333 0 40.666 -8.66699 63.999 -26
c13.333 -10 25.666 -15 36.999 -15c50 0 100 81 150 243l122 392c8.66699 28 13 51.333 13 70c0 47.333 -42.333 74 -127 80z" />
    <glyph glyph-name="afii10078" unicode="&#x43c;" horiz-adv-x="1342" 
d="M1295 913l-217.999 -759c-6.66699 -23.333 -10 -39 -10 -47c0 -19.333 9.66699 -29 29 -29c11.333 0 23.333 4.83301 36 14.5s52.667 49.5 120 119.5l28 -25c-121.333 -140.667 -217.666 -211 -288.999 -211c-58 0 -87 29.667 -87 89c0 23.333 6 55 18 95l191 655
l-553 -839h-41l-69 844l-154 -489c-74 -236.667 -163.333 -355 -268 -355c-64.667 0 -97 28.667 -97 86c0 48.667 24 73 72 73c20 0 41.333 -8.66699 64 -26c13.333 -10 25.333 -15 36 -15c49.333 0 99.666 81 150.999 243l130 405c6.66699 21.333 10 39.333 10 54
c0 36 -24.333 54 -73 54c-24.667 0 -53.334 -3.33301 -86.001 -10l14 35l302 62h43l50 -762l481 738h170z" />
    <glyph glyph-name="afii10079" unicode="&#x43d;" horiz-adv-x="1034" 
d="M336 502h368l118 411h155l-209 -730c-6.66699 -24 -10 -41.333 -10 -52c0 -22.667 10.333 -34 31 -34c30 0 80.333 43.667 151 131l29 -21c-118.667 -146.667 -216 -220 -292 -220c-25.333 0 -46 8.33301 -62 25s-24 37.667 -24 63c0 17.333 8.66699 56.333 26 117
l77 269h-368l-133 -461h-158l215 742c7.33301 24 11 42.667 11 56c0 34.667 -24.667 52 -74 52c-24 0 -52.667 -3.33301 -86 -10l14 35l302 62h44z" />
    <glyph glyph-name="afii10080" unicode="&#x43e;" 
d="M945 617c0 -82.667 -22.335 -172.666 -67.002 -269.999s-118.167 -183.5 -220.5 -258.5s-201.833 -112.5 -298.5 -112.5c-90 0 -159.833 32.667 -209.5 98s-74.5 138.666 -74.5 219.999c0 146 62.333 289.667 187 431s257.334 212 398.001 212
c74.667 0 140.834 -28.5 198.501 -85.5s86.5 -135.167 86.5 -234.5zM782.998 692.001c0 67.333 -12.6689 117.667 -38.002 151s-63.666 50 -114.999 50c-98.667 0 -188.167 -78.167 -268.5 -234.5s-120.5 -304.833 -120.5 -445.5c0 -50 13.667 -93.667 41 -131
s65.333 -56 114 -56c106.667 0 197.834 83.5 273.501 250.5s113.5 305.5 113.5 415.5z" />
    <glyph glyph-name="afii10081" unicode="&#x43f;" 
d="M454 937l-136.995 -476c203.333 317.333 373.666 476 510.999 476c33.333 0 60.166 -11.667 80.499 -35s30.5 -53 30.5 -89c0 -38.667 -10 -92 -30 -160l-129 -443c-11.333 -40 -17 -70.333 -17 -91c0 -22 9 -33 27 -33c13.333 0 36.166 15.5 68.499 46.5
s58.166 60.833 77.499 89.5l30 -23c-106.667 -148.667 -203.667 -223 -291 -223c-21.333 0 -39.5 8.66699 -54.5 26s-22.5 40.666 -22.5 69.999c0 30 8 72.333 24 127l140 482c10.667 36.667 16 65.334 16 86.001c0 18.667 -3.83301 32.667 -11.5 42s-19.167 14 -34.5 14
c-22.667 0 -55.667 -14.833 -99 -44.5s-99.333 -88.5 -168 -176.5s-118.334 -160.667 -149.001 -218s-59.667 -132.333 -87 -225l-47 -159h-156l198 681c18 61.333 27 101 27 119c0 34.667 -22 52 -66 52c-6.66699 0 -33.667 -2 -81 -6v38l315 53h35z" />
    <glyph glyph-name="afii10082" unicode="&#x440;" 
d="M481 937l-70 -238c113.333 158.667 219.333 238 318 238c64 0 115.333 -23.333 154 -70s58 -111.334 58 -194.001c0 -162.667 -62.667 -319.5 -188 -470.5s-256 -226.5 -392 -226.5c-44.667 0 -93.334 15.333 -146.001 46l-80 -275c-8.66699 -28.667 -13 -50 -13 -64
c0 -32 11 -52.833 33 -62.5s63.667 -14.5 125 -14.5l-11 -38h-476l11 38c57.333 0.666992 97.333 11.334 120 32.001s41.667 57 57 109l271 934c12 42 18 77.333 18 106c0 38.667 -19.667 58 -59 58c-15.333 0 -36.666 -2.66699 -63.999 -8v38l299 62h35zM235 92
c34.667 -50 78.999 -74.999 132.999 -74.999c96 0 186.833 74.167 272.5 222.5s128.5 286.166 128.5 413.499c0 56.667 -10.167 102 -30.5 136s-47.166 51 -80.499 51c-106 0 -206 -108 -300 -324z" />
    <glyph glyph-name="afii10083" unicode="&#x441;" horiz-adv-x="897" 
d="M754 208c-130.667 -154.667 -267.667 -231.998 -411 -231.998c-76.667 0 -140.667 27.667 -192 83s-77 128 -77 218c0 154 62 302.5 186 445.5s257.667 214.5 401 214.5c52 0 95.833 -15 131.5 -45s53.5 -69.333 53.5 -118c0 -36.667 -10.5 -68.334 -31.5 -95.001
s-46.167 -40 -75.5 -40c-18.667 0 -35.167 7 -49.5 21s-21.5 30.333 -21.5 49c0 25.333 12 48.333 36 69c24.667 22 37 41 37 57c0 20 -8.83301 35.667 -26.5 47s-37.167 17 -58.5 17c-100 0 -193.833 -68.667 -281.5 -206s-131.5 -268.333 -131.5 -393
c0 -72.667 18 -131.334 54 -176.001s82 -67 138 -67c103.333 0 199.333 57.333 288 172z" />
    <glyph glyph-name="afii10084" unicode="&#x442;" horiz-adv-x="1579" 
d="M451 937l-140.001 -477.999c202.667 318.667 373.667 478 513 478c38.667 0 67.5 -11.5 86.5 -34.5s28.5 -57.5 28.5 -103.5c0 -52 -14 -127 -42 -225l-52 -179c213.333 361.333 395 542 545 542c28.667 0 54.667 -11.5 78 -34.5s35 -57.833 35 -104.5
c0 -32 -6.66699 -71.333 -20 -118l-133 -458c-15.333 -52.667 -23 -90.334 -23 -113.001c0 -19.333 7.66699 -29 23 -29c30 0 79.667 47.333 149 142l27 -25c-38 -57.333 -85 -108.5 -141 -153.5s-104.333 -67.5 -145 -67.5c-48 0 -72 29.333 -72 88
c0 44 12.667 109.667 38 197l109 372c16.667 57.333 25 100.333 25 129c0 19.333 -3.83301 33.833 -11.5 43.5s-19.5 14.5 -35.5 14.5c-75.333 0 -178 -90.667 -308 -272s-215 -364 -255 -548h-154l177 612c18.667 64.667 28 114 28 148c0 20 -4.16699 34.833 -12.5 44.5
s-21.166 14.5 -38.499 14.5c-28 0 -63.167 -14 -105.5 -42s-99.5 -88.167 -171.5 -180.5s-123.5 -172.333 -154.5 -240s-62.5 -156.167 -94.5 -265.5l-26 -91h-156l198 680c16 55.333 24 93.333 24 114c0 42 -22.667 63 -68 63c-20 0 -43 -2.33301 -69 -7v37l308 50h36z" />
    <glyph glyph-name="afii10085" unicode="&#x443;" 
d="M428 937c32 -50 50.666 -128.666 55.999 -235.999l30 -598c250.667 315.333 376 519.666 376 612.999c0 13.333 -13.667 26 -41 38c-47.333 20 -71 51 -71 93c0 25.333 8 46.666 24 63.999s35.667 26 59 26c31.333 0 56.833 -12.833 76.5 -38.5s29.5 -59.167 29.5 -100.5
c0 -110.667 -85 -280.167 -255 -508.5s-310.833 -406.666 -422.5 -534.999s-206.167 -192.5 -283.5 -192.5c-21.333 0 -40.5 8 -57.5 24s-25.5 34 -25.5 54c0 24 10.667 47.833 32 71.5s46 35.5 74 35.5c24 0 42 -15.667 54 -47c7.33301 -18.667 15 -28 23 -28
c16.667 0 49.834 22.5 99.501 67.5s106.5 108.167 170.5 189.5l-34 648c-6.66699 122 -21.334 197.5 -44.001 226.5s-52.667 43.5 -90 43.5c-19.333 0 -43.666 -3 -72.999 -9l-9 37z" />
    <glyph glyph-name="afii10086" unicode="&#x444;" horiz-adv-x="1442" 
d="M259 -394c59.333 0.666992 100.163 11.999 122.496 33.999s40.5 57.667 54.5 107l94 329c-63.333 -66.667 -133.666 -100 -210.999 -100c-76 0 -136.333 30 -181 90s-67 130.667 -67 212c0 161.333 55.333 311.5 166 450.5s227.334 208.5 350.001 208.5
c78 0 131.667 -34.333 161 -103l127 434c8.66699 28.667 13 48 13 58c0 38 -25.667 57 -77 57c-13.333 0 -30 -1.33301 -50 -4l12 35l279 55h35l-189 -652c68 80 143.333 120 226 120c76.667 0 136.834 -30 180.501 -90s65.5 -128.333 65.5 -205
c0 -165.333 -56.333 -317.666 -169 -456.999s-227.667 -209 -345 -209c-83.333 0 -138.333 36.667 -165 110l-101 -339c-8 -28 -12 -49 -12 -63c0 -31.333 10.5 -52.333 31.5 -63s55.167 -16 102.5 -16c4.66699 0 12.334 0.333008 23.001 1l-10 -38h-477zM690.997 632.999
c13.333 48 20.001 88 20.001 120c0 87.333 -39.333 131 -118 131c-110.667 0 -199.334 -94 -266.001 -282s-100 -332 -100 -432c0 -38.667 10.5 -71.667 31.5 -99s50.5 -41 88.5 -41c114 0 201 104.667 261 314zM760.998 347.999
c-21.333 -74.667 -31.999 -132.667 -31.999 -174c0 -46 12.167 -81.5 36.5 -106.5s55.5 -37.5 93.5 -37.5c56 0 105.667 26.667 149 80s88.166 145.5 134.499 276.5s69.5 247.167 69.5 348.5c0 50 -9.83301 87.333 -29.5 112s-49.167 37 -88.5 37
c-120 0 -213.333 -116.667 -280 -350z" />
    <glyph glyph-name="afii10087" unicode="&#x445;" horiz-adv-x="1130" 
d="M445 937c61.333 -35.333 120.335 -143.669 177.002 -325.002c7.33301 8 27.666 33.333 60.999 76c127.333 166 228.666 249 303.999 249c26 0 47.667 -7.16699 65 -21.5s26 -32.5 26 -54.5c0 -53.333 -23 -80 -69 -80c-16 0 -36.667 4.33301 -62 13c-22 8 -38 12 -48 12
c-29.333 0 -65.833 -19.833 -109.5 -59.5s-94.5 -99.167 -152.5 -178.5l53 -169c36 -124 61.833 -206 77.5 -246s33.167 -60 52.5 -60c34.667 0 84 47.667 148 143l31 -21c-97.333 -159.333 -184.333 -239 -261 -239c-32.667 0 -60 19.167 -82 57.5s-49.667 116.5 -83 234.5
c-23.333 82 -38 130.333 -44 145c-114 -171.333 -201 -287 -261 -347s-116 -90 -168 -90c-24 0 -45.333 8.33301 -64 25s-28 37.334 -28 62.001c0 52 26 78 78 78c21.333 0 41.333 -9 60 -27c22.667 -21.333 39.334 -32 50.001 -32c24 0 64.667 33.833 122 101.5
s122.666 159.834 195.999 276.501c-47.333 162 -87.833 269.333 -121.5 322s-81.5 79 -143.5 79c-20 0 -43.667 -1.66699 -71 -5v36z" />
    <glyph glyph-name="afii10088" unicode="&#x446;" 
d="M777 3c-31.333 -18 -60.999 -27.002 -88.999 -27.002c-52 0 -78 31.333 -78 94c0 48 17.333 132.333 52 253l37 127c-67.333 -114 -148.666 -221.5 -243.999 -322.5s-179.333 -151.5 -252 -151.5c-38.667 0 -67.834 11.667 -87.501 35s-29.5 58 -29.5 104
c0 42 10.333 97.667 31 167l123 423c8.66699 30.667 13 53.667 13 69c0 27.333 -10 41 -30 41c-34 0 -80.333 -43.667 -139 -131l-29 21c33.333 58.667 76.5 110 129.5 154s103.833 66 152.5 66c23.333 0 42.833 -8.83301 58.5 -26.5s23.5 -38.167 23.5 -61.5
c0 -29.333 -5.33301 -61.666 -16 -96.999l-141 -487c-12.667 -45.333 -19 -81.666 -19 -108.999c0 -16.667 4.16699 -29.167 12.5 -37.5s20.5 -12.5 36.5 -12.5c60 0 147.167 73 261.5 219s191.5 288.333 231.5 427l49 173h153l-202 -696
c-13.333 -45.333 -20 -79.666 -20 -102.999c0 -22 9.66699 -33 29 -33c34.667 0 82.667 45.333 144 136l28 -21c-1.33301 -2.66699 -10.333 -15.334 -27 -38.001c-24.667 -32.667 -49.334 -68.667 -74.001 -108c-29.333 -46 -51 -77.333 -65 -94
c-22.667 -26 -34 -44.667 -34 -56c0 -6.66699 2.33301 -16.667 7 -30c6.66699 -18.667 10 -35.667 10 -51c0 -94 -73 -165 -219 -213l-18 34c74 37.333 111 86 111 146c0 11.333 -1.33301 22.666 -4 33.999c-3.33301 14.667 -5 24.334 -5 29.001
c0 22.667 22.667 50.667 68 84c30.667 22 54 42.667 70 62z" />
    <glyph glyph-name="afii10089" unicode="&#x447;" horiz-adv-x="964" 
d="M765 913l152.001 0.00195312l-210 -730c-9.33301 -32.667 -14 -55.334 -14 -68.001c0 -23.333 10 -35 30 -35c36 0 86.333 44 151 132l30 -25c-116 -140.667 -210 -211 -282 -211c-62 0 -93 31.667 -93 95c0 22 5 49.667 15 83l83 280
c-92.667 -66.667 -188.334 -100 -287.001 -100c-60.667 0 -110.667 15.167 -150 45.5s-59 69.166 -59 116.499c0 21.333 6 54.666 18 99.999l36 135c8.66699 32.667 13 53.334 13 62.001c0 38 -24 57 -72 57c-19.333 0 -42.666 -3.33301 -69.999 -10l14 35l295 62h35
l-110 -388c-8 -27.333 -12 -47.333 -12 -60c0 -28 10.167 -49.167 30.5 -63.5s50.833 -21.5 91.5 -21.5c73.333 0 153.666 31 240.999 93z" />
    <glyph glyph-name="afii10090" unicode="&#x448;" horiz-adv-x="1549" 
d="M827 913l157.999 0.00195312l-198 -677c-9.33301 -32.667 -14 -57.667 -14 -75c0 -23.333 4.33301 -40.833 13 -52.5s21.334 -17.5 38.001 -17.5c56.667 0 141.667 73.167 255 219.5s184.666 270.166 213.999 371.499l66 231h153l-203 -705c-10.667 -38 -16 -66 -16 -84
c0 -24 8.66699 -36 26 -36c34 0 86.333 44.667 157 134l25 -25c-123.333 -147.333 -217.333 -221 -282 -221c-58.667 0 -88 36 -88 108c0 27.333 8 68.666 24 123.999l67 234c-120.667 -186 -221.167 -310.167 -301.5 -372.5s-143.166 -93.5 -188.499 -93.5
c-36 0 -64.833 12.5 -86.5 37.5s-32.5 59.167 -32.5 102.5c0 32.667 7.66699 75 23 127l55 189c-130 -194 -233.667 -318.5 -311 -373.5s-138 -82.5 -182 -82.5c-28 0 -53.667 11.333 -77 34s-35 60 -35 112c0 39.333 10 92 30 158l117 397
c14.667 50.667 22 86.334 22 107.001c0 29.333 -11.333 44 -34 44c-29.333 0 -73 -44.333 -131 -133l-31 23c97.333 146 189 219 275 219c58.667 0 88 -32.667 88 -98c0 -27.333 -7.33301 -66.333 -22 -117l-141 -486c-9.33301 -32.667 -14 -57.334 -14 -74.001
c0 -22 4.33301 -38.667 13 -50s21.667 -17 39 -17c58.667 0 143.167 70.333 253.5 211s180.833 266 211.5 376z" />
    <glyph glyph-name="afii10091" unicode="&#x449;" horiz-adv-x="1548" 
d="M1297 10c-30 -22.667 -56.0039 -34.001 -78.0039 -34.001c-60 0 -90 35.333 -90 106c0 28.667 8 70.667 24 126l67 234c-126.667 -192.667 -229.167 -318.5 -307.5 -377.5s-139.166 -88.5 -182.499 -88.5c-35.333 0 -64 12.667 -86 38s-33 59.333 -33 102
c0 32.667 7.66699 75 23 127l55 189c-130 -194 -233.667 -318.5 -311 -373.5s-138 -82.5 -182 -82.5c-28 0 -53.667 11.333 -77 34s-35 60 -35 112c0 39.333 10 92 30 158l117 397c14.667 50.667 22 86.334 22 107.001c0 29.333 -11.333 44 -34 44
c-29.333 0 -73 -44.333 -131 -133l-31 23c97.333 146 189 219 275 219c58.667 0 88 -32.667 88 -98c0 -27.333 -7.33301 -66.333 -22 -117l-141 -486c-9.33301 -32.667 -14 -57.334 -14 -74.001c0 -22 4.33301 -38.667 13 -50s21.667 -17 39 -17c58 0 142 69.333 252 208
s181 265 213 379l65 231h158l-198 -677c-9.33301 -32.667 -14 -57.667 -14 -75c0 -23.333 4.33301 -40.833 13 -52.5s21.334 -17.5 38.001 -17.5c28.667 0 69.334 22.833 122.001 68.5s117.667 123.5 195 233.5s128 206.333 152 289l66 231h153l-203 -705
c-10.667 -37.333 -16 -65 -16 -83c0 -24.667 8.66699 -37 26 -37c36 0 88.333 44.667 157 134l25 -25c-4.66699 -6 -21 -24.667 -49 -56c-25.333 -28 -46.666 -56.333 -63.999 -85c-27.333 -43.333 -49.333 -74.333 -66 -93c-22.667 -26 -34 -45 -34 -57
c0 -6.66699 2.66699 -16.667 8 -30c6.66699 -18.667 10 -36 10 -52c0 -93.333 -73.333 -164 -220 -212l-18 34c74.667 36.667 112 85 112 145c0 11.333 -1.66699 22.666 -5 33.999c-3.33301 14.667 -5 24.334 -5 29.001c0 22.667 23 50.667 69 84
c30.667 22.667 54 43.334 70 62.001z" />
    <glyph glyph-name="afii10092" unicode="&#x44a;" horiz-adv-x="1042" 
d="M391 791h-79.999c-66.667 0 -108.167 -4.66699 -124.5 -14s-43.5 -41 -81.5 -95h-37l79 231h426l-135 -466c90 99.333 182.667 149 278 149c67.333 0 121.666 -20.833 162.999 -62.5s62 -91.834 62 -150.501c0 -102 -45.667 -195.333 -137 -280s-194.333 -127 -309 -127
c-70.667 0 -132.5 20.5 -185.5 61.5s-79.5 96.167 -79.5 165.5c0 38.667 7.33301 81.334 22 128.001zM374.001 184c0 -54 14.501 -95.168 43.501 -123.501s60.167 -42.5 93.5 -42.5c69.333 0 129.5 40.833 180.5 122.5s76.5 162.834 76.5 243.501
c0 41.333 -9.83301 72.333 -29.5 93s-49.167 31 -88.5 31c-70.667 0 -134.334 -35 -191.001 -105s-85 -143 -85 -219z" />
    <glyph glyph-name="afii10093" unicode="&#x44b;" horiz-adv-x="1327" 
d="M112 879l304.001 57.998h24l-142 -490c89.333 99.333 182 149 278 149c67.333 0 121.666 -20.667 162.999 -62s62 -91.666 62 -150.999c0 -102.667 -45.5 -196.167 -136.5 -280.5s-194.167 -126.5 -309.5 -126.5c-68.667 0 -130 20 -184 60s-81 95.333 -81 166
c0 39.333 7.33301 82.333 22 129l124 428c6 20.667 9 36.334 9 47.001c0 31.333 -24.333 47 -73 47c-16.667 0 -39.667 -3.66699 -69 -11zM233.001 183.998c0 -52.667 14.332 -93.5 42.999 -122.5s60 -43.5 94 -43.5c69.333 0 129.5 40.667 180.5 122
s76.5 162.666 76.5 243.999c0 41.333 -9.83301 72.333 -29.5 93s-49.167 31 -88.5 31c-75.333 0 -140.166 -36.167 -194.499 -108.5s-81.5 -144.166 -81.5 -215.499zM933 874.998l312.001 62h35l-219 -756c-9.33301 -32 -14 -55 -14 -69c0 -12 3 -21.167 9 -27.5
s15 -9.5 27 -9.5c14 0 36.667 14 68 42s60.666 64 87.999 108l33 -21c-40 -64 -88.667 -118 -146 -162s-110 -66 -158 -66c-24.667 0 -43.334 8.5 -56.001 25.5s-19 42.167 -19 75.5c0 36.667 7 79 21 127l147 509c9.33301 34 14 58.333 14 73c0 44.667 -24 67 -72 67
c-13.333 0 -39.666 -4 -78.999 -12z" />
    <glyph glyph-name="afii10094" unicode="&#x44c;" horiz-adv-x="902" 
d="M112 879l304.001 57.998h24l-142 -490c89.333 99.333 182 149 278 149c67.333 0 121.666 -20.667 162.999 -62s62 -91.666 62 -150.999c0 -102.667 -45.5 -196.167 -136.5 -280.5s-194.167 -126.5 -309.5 -126.5c-68.667 0 -130 20 -184 60s-81 95.333 -81 166
c0 39.333 7.33301 82.333 22 129l124 428c6 20.667 9 36.334 9 47.001c0 31.333 -24.333 47 -73 47c-16.667 0 -39.667 -3.66699 -69 -11zM233.001 183.998c0 -52.667 14.332 -93.5 42.999 -122.5s60 -43.5 94 -43.5c69.333 0 129.5 40.667 180.5 122
s76.5 162.666 76.5 243.999c0 41.333 -9.83301 72.333 -29.5 93s-49.167 31 -88.5 31c-75.333 0 -140.166 -36.167 -194.499 -108.5s-81.5 -144.166 -81.5 -215.499z" />
    <glyph glyph-name="afii10095" unicode="&#x44d;" horiz-adv-x="894" 
d="M292 498l328.997 -0.000976562c8.66699 37.333 13 74 13 110c0 84 -19.5 150.167 -58.5 198.5s-91.833 72.5 -158.5 72.5c-69.333 0 -124.166 -26.5 -164.499 -79.5s-66.166 -101.167 -77.499 -144.5h-38l75 282h37c7.33301 -26 20.333 -39 39 -39
c10.667 0 26.334 3.66699 47.001 11c54.667 18.667 103 28 145 28c96.667 0 174.667 -32 234 -96s89 -152.333 89 -265c0 -161.333 -51.167 -301.666 -153.5 -420.999s-211.166 -179 -326.499 -179c-142 0 -238 88.333 -288 265l32 15
c53.333 -134 125.666 -201 216.999 -201c74.667 0 139.167 33.5 193.5 100.5s98.833 167.5 133.5 301.5h-332z" />
    <glyph glyph-name="afii10096" unicode="&#x44e;" horiz-adv-x="1445" 
d="M335 502l206.999 -0.000976562c53.333 122.667 130.666 225.834 231.999 309.501s204.666 125.5 309.999 125.5c70.667 0 134.334 -27.167 191.001 -81.5s85 -136.833 85 -247.5c0 -162 -61.667 -307.833 -185 -437.5s-250.666 -194.5 -381.999 -194.5
c-85.333 0 -155.333 31.333 -210 94s-82 138 -82 226c0 48.667 8.33301 103.667 25 165h-203l-134 -461h-154l212 736c10 34 15 57.333 15 70c0 32 -25 48 -75 48l-24 -1c-19.333 -0.666992 -33.666 -1 -42.999 -1l10 35l283 50h46zM1051 886.999
c-103.333 0 -193.667 -78.8311 -271 -236.498s-116 -298.167 -116 -421.5c0 -60.667 13.5 -109.834 40.5 -147.501s65.5 -56.5 115.5 -56.5c52 0 105.833 26.167 161.5 78.5s106 140.666 151 264.999s67.5 235.5 67.5 333.5c0 62 -12.333 108.333 -37 139s-62 46 -112 46z
" />
    <glyph glyph-name="afii10097" unicode="&#x44f;" horiz-adv-x="970" 
d="M915 913l-213.002 -738.999c-6.66699 -24.667 -10 -43.334 -10 -56.001c0 -26.667 11 -40 33 -40c30.667 0 82 44.667 154 134l29 -23c-119.333 -142 -220 -213 -302 -213c-19.333 0 -37 8.16699 -53 24.5s-24 40.5 -24 72.5c0 18.667 5.66699 47.334 17 86.001l82 290
c-14.667 2.66699 -27.667 4 -39 4c-45.333 0 -98.333 -35.667 -159 -107l-294 -346h-236l11 36c58 2.66699 122.667 46.667 194 132l96 114l17 22c61.333 78.667 118 131 170 157c-69.333 11.333 -121.5 33.166 -156.5 65.499s-52.5 74.833 -52.5 127.5
c0 55.333 20.333 105.5 61 150.5s91.334 74.333 152.001 88s141.334 20.5 242.001 20.5h281zM748.998 863.001c-44.667 8 -87 12 -127 12c-96.667 0 -166.5 -27.333 -209.5 -82s-64.5 -113 -64.5 -175c0 -42 17.5 -73.667 52.5 -95s87.5 -32 157.5 -32h82z" />
    <glyph glyph-name="afii10071" unicode="&#x451;" horiz-adv-x="897" 
d="M860 1347c28.667 0 53.667 -10 75 -30s32 -45.667 32 -77c0 -29.333 -10.333 -54.333 -31 -75s-46 -31 -76 -31s-55.167 10.5 -75.5 31.5s-30.5 45.833 -30.5 74.5c0 30 10.5 55.333 31.5 76s45.833 31 74.5 31zM505 1346c29.333 0 54.5 -10.333 75.5 -31
s31.5 -46 31.5 -76c0 -29.333 -10.5 -54.5 -31.5 -75.5s-46.167 -31.5 -75.5 -31.5s-54.5 10.5 -75.5 31.5s-31.5 46.167 -31.5 75.5c0 30.667 10.667 56.167 32 76.5s46.333 30.5 75 30.5zM244 413c-8.66699 -30 -13 -62.666 -13 -97.999c0 -82 21.833 -142.5 65.5 -181.5
s94.167 -58.5 151.5 -58.5c90 0 182.667 46.333 278 139l26 -26c-148 -141.333 -289 -212 -423 -212c-81.333 0 -147.333 28.833 -198 86.5s-76 125.5 -76 203.5c0 107.333 30.667 213.166 92 317.499s135.5 189.333 222.5 255s181.167 98.5 282.5 98.5
c59.333 0 108.333 -14.5 147 -43.5s58 -65.5 58 -109.5c0 -86 -55.333 -168 -166 -246s-259.667 -119.667 -447 -125zM254 453.001c159.333 10 276 53.501 350 130.501s111 150.167 111 219.5c0 23.333 -8.33301 44.666 -25 63.999s-40.667 29 -72 29
c-74 0 -146.833 -46.667 -218.5 -140s-120.167 -194.333 -145.5 -303z" />
    <glyph glyph-name="afii10099" unicode="&#x452;" horiz-adv-x="993" 
d="M236 1203l123.999 -0.00292969l23 83c7.33301 24.667 11 43.334 11 56.001c0 34.667 -20.667 52 -62 52c-14.667 0 -34.667 -1.66699 -60 -5l10 38l272 42h36l-76 -266h338l-14 -41h-336l-194 -684c190.667 306 346.667 459 468 459c46 0 80.333 -15.333 103 -46
s34 -77 34 -139c0 -191.333 -65.667 -410.666 -197 -657.999s-301 -422.666 -509 -525.999l-18 32c120.667 86 212.667 182.667 276 290s125.333 256.833 186 448.5s91 325.5 91 401.5c0 26 -4.33301 45.333 -13 58s-22 19 -40 19c-66.667 0 -152.167 -74.5 -256.5 -223.5
s-172.166 -279.5 -203.499 -391.5l-58 -202h-155l332 1162h-126z" />
    <glyph glyph-name="afii10100" unicode="&#x453;" horiz-adv-x="823" 
d="M726 1414h229l-478 -349h-33zM219 913l666 0.000976562l-68 -235h-37c4 24 6 44.667 6 62c0 88.667 -50.333 133 -151 133h-167l-202 -709c-7.33301 -26.667 -11 -45.334 -11 -56.001c0 -45.333 24 -69 72 -71l-12 -37h-301v37c41.333 4.66699 71.333 40 90 106l170 598
c8.66699 28 13 49.667 13 65c0 42 -26.333 64.333 -79 67z" />
    <glyph glyph-name="afii10101" unicode="&#x454;" horiz-adv-x="889" 
d="M281 501l330.999 -0.000976562l-11 -41h-333c-17.333 -63.333 -26 -115.666 -26 -156.999c0 -76.667 19.667 -136.167 59 -178.5s85 -63.5 137 -63.5c92 0 185.667 55.333 281 166l32 -21c-113.333 -153.333 -243.666 -230 -390.999 -230
c-91.333 0 -162.5 28.667 -213.5 86s-76.5 129 -76.5 215c0 158 60.5 307.5 181.5 448.5s253.833 211.5 398.5 211.5c27.333 0 65.666 -6.33301 114.999 -19c19.333 -4.66699 34.333 -7 45 -7c18.667 0 33.334 8.66699 44.001 26h39l-77 -281h-38c0.666992 13.333 1 23 1 29
c0 138 -50 207 -150 207c-63.333 0 -127.5 -34.833 -192.5 -104.5s-116.833 -165.167 -155.5 -286.5z" />
    <glyph glyph-name="afii10102" unicode="&#x455;" horiz-adv-x="788" 
d="M760 937l-56.002 -312.999h-36c0 85.333 -17.167 151.166 -51.5 197.499s-77.166 69.5 -128.499 69.5c-37.333 0 -68 -11.667 -92 -35s-36 -49 -36 -77c0 -48 40.333 -124.667 121 -230c94.667 -126 142 -225.667 142 -299c0 -74.667 -29 -139 -87 -193
s-131.333 -81 -220 -81c-38 0 -87.333 10.667 -148 32c-20 6.66699 -37.333 10 -52 10c-24.667 0 -47.334 -14 -68.001 -42h-44l59 326h42c6 -188.667 75.333 -283 208 -283c50.667 0 91.334 17.5 122.001 52.5s46 73.5 46 115.5c0 28 -6.66699 55.5 -20 82.5
s-45.666 76.833 -96.999 149.5c-53.333 75.333 -89.5 132.833 -108.5 172.5s-28.5 80.167 -28.5 121.5c0 66.667 24.5 120.667 73.5 162s105.167 62 168.5 62c48 0 96.333 -12.667 145 -38c19.333 -10 35 -15 47 -15c24 0 44.667 17.667 62 53h37z" />
    <glyph glyph-name="afii10103" unicode="&#x456;" horiz-adv-x="555" 
d="M468 1345c28 0 52.167 -10 72.5 -30s30.5 -44.333 30.5 -73s-10.167 -53 -30.5 -73s-44.5 -30 -72.5 -30s-52.167 10 -72.5 30s-30.5 44.333 -30.5 73s10.167 53 30.5 73s44.5 30 72.5 30zM136 875l312.003 62.001h35l-219 -756c-9.33301 -32 -14 -54.667 -14 -68
c0 -12.667 3 -22.167 9 -28.5s15 -9.5 27 -9.5c10 0 30.167 11.667 60.5 35s62.166 61.666 95.499 114.999l33 -21c-40 -64 -88.667 -118 -146 -162s-110 -66 -158 -66c-24.667 0 -43.334 8.5 -56.001 25.5s-19 42.167 -19 75.5c0 36.667 7 79 21 127l147 509
c9.33301 34 14 58.333 14 73c0 44.667 -23.667 67 -71 67c-12.667 0 -39.334 -4 -80.001 -12z" />
    <glyph glyph-name="afii10104" unicode="&#x457;" horiz-adv-x="555" 
d="M256 1347c29.333 0 54.5 -10.5 75.5 -31.5s31.5 -46.167 31.5 -75.5s-10.333 -54.5 -31 -75.5s-46 -31.5 -76 -31.5c-29.333 0 -54.5 10.333 -75.5 31s-31.5 46 -31.5 76c0 29.333 10.5 54.5 31.5 75.5s46.167 31.5 75.5 31.5zM613 1347c28.667 0 53.5 -10.333 74.5 -31
s31.5 -46 31.5 -76c0 -28.667 -10.333 -53.5 -31 -74.5s-45.667 -31.5 -75 -31.5c-30 0 -55.333 10.5 -76 31.5s-31 45.833 -31 74.5c0 29.333 10.5 54.5 31.5 75.5s46.167 31.5 75.5 31.5zM136 875l312.003 62.001h35l-219 -756c-9.33301 -32 -14 -54.667 -14 -68
c0 -12.667 3 -22.167 9 -28.5s15 -9.5 27 -9.5c10 0 30.167 11.667 60.5 35s62.166 61.666 95.499 114.999l33 -21c-40 -64 -88.667 -118 -146 -162s-110 -66 -158 -66c-24.667 0 -43.334 8.5 -56.001 25.5s-19 42.167 -19 75.5c0 36.667 7 79 21 127l147 509
c9.33301 34 14 58.333 14 73c0 44.667 -23.667 67 -71 67c-12.667 0 -39.334 -4 -80.001 -12z" />
    <glyph glyph-name="afii10105" unicode="&#x458;" horiz-adv-x="555" 
d="M507 1346c28 0 52.167 -10.167 72.5 -30.5s30.5 -44.5 30.5 -72.5c0 -28.667 -10.167 -53.167 -30.5 -73.5s-44.5 -30.5 -72.5 -30.5s-52.167 10 -72.5 30s-30.5 44.667 -30.5 74s10.167 53.833 30.5 73.5s44.5 29.5 72.5 29.5zM525 937l-243.998 -880.999
c-91.333 -329.333 -241 -494 -449 -494c-40 0 -72.5 9.33301 -97.5 28s-37.5 42 -37.5 70c0 24 8.16699 43.667 24.5 59s36.5 23 60.5 23c44 0 66 -17.333 66 -52c0 -14.667 -8 -28.667 -24 -42c-12 -10.667 -18 -18.334 -18 -23.001c0 -11.333 13 -17 39 -17
c43.333 0 81.166 12.5 113.499 37.5s58 61.5 77 109.5s46.167 136.333 81.5 265l184 662c15.333 57.333 23 96.333 23 117c0 37.333 -21.333 56 -64 56c-18.667 0 -48.334 -3.33301 -89.001 -10v37l319 55h35z" />
    <glyph glyph-name="afii1016" unicode="&#x459;" horiz-adv-x="1390" 
d="M918 931l-136 -473.002c82 92 171.667 138 269 138c63.333 0 118.5 -18 165.5 -54s70.5 -90.667 70.5 -164c0 -115.333 -49.667 -211.166 -149 -287.499s-200 -114.5 -302 -114.5c-66 0 -127.167 21 -183.5 63s-84.5 99 -84.5 171c0 30.667 8.33301 75.334 25 134.001
l156 537c-92 -7.33301 -173.667 -50.333 -245 -129s-143 -222 -215 -430c-49.333 -144 -95.5 -237.667 -138.5 -281s-83.167 -65 -120.5 -65c-28.667 0 -52.334 8.5 -71.001 25.5s-28 37.5 -28 61.5c0 22 8.5 40.5 25.5 55.5s37.167 22.5 60.5 22.5
c18.667 0 39.334 -8.33301 62.001 -25c12.667 -10 24 -15 34 -15c38 0 70.667 42 98 126c41.333 128 88.833 251.5 142.5 370.5s122 205.333 205 259s181.833 80.5 296.5 80.5c25.333 0 46.333 -2 63 -6zM714 174.998c0 -49.333 13.8311 -87.833 41.498 -115.5
s60.834 -41.5 99.501 -41.5c67.333 0 127.333 39.667 180 119s79 163 79 251c0 40 -10.333 70 -31 90s-51.667 30 -93 30c-71.333 0 -135.166 -33 -191.499 -99s-84.5 -144 -84.5 -234z" />
    <glyph glyph-name="afii10107" unicode="&#x45a;" horiz-adv-x="1472" 
d="M335 500h387l69 237c9.33301 32 14 53 14 63c0 35.333 -23 53 -69 53c-20 0 -45.333 -3.33301 -76 -10l14 37l304 57h24l-135 -472c81.333 87.333 171.333 131 270 131c66.667 0 122 -18.333 166 -55s66 -91 66 -163c0 -114 -45.667 -209.5 -137 -286.5
s-191.333 -115.5 -300 -115.5c-81.333 0 -148.333 22.667 -201 68s-79 103.333 -79 174c0 30 6 64 18 102l40 139h-388l-133 -459h-154l207 720c11.333 38 17 64.667 17 80c0 33.333 -21 50 -63 50c-14 0 -40.333 -2.33301 -79 -7l15 37l306 57h22zM799 196
c0 -59.333 13.666 -103.834 40.999 -133.501s61 -44.5 101 -44.5c66.667 0 126.167 39.667 178.5 119s78.5 160.333 78.5 243c0 41.333 -12.167 73 -36.5 95s-54.166 33 -89.499 33c-70 0 -133 -33.667 -189 -101s-84 -137.666 -84 -210.999z" />
    <glyph glyph-name="afii10108" unicode="&#x45b;" 
d="M360 1203c18.667 61.333 28.002 103 28.002 125c0 36.667 -26 55 -78 55c-10.667 0 -22.334 -0.333008 -35.001 -1v36l281 51h35l-76 -266h339l-13 -41h-337l-200 -703c203.333 318.667 372.666 478 507.999 478c28 0 53.5 -11.667 76.5 -35s34.5 -52.333 34.5 -87
c0 -42 -9 -93 -27 -153l-128 -440c-16 -55.333 -24 -92.333 -24 -111c0 -22 7.66699 -33 23 -33c12.667 0 34.5 14.667 65.5 44s58.833 62.666 83.5 99.999l31 -24c-104.667 -148 -199.667 -222 -285 -222c-24 0 -43.333 8.66699 -58 26s-22 38 -22 62
c0 28.667 7.33301 69 22 121l129 441c18 64 27 107.667 27 131c0 21.333 -4.33301 37.333 -13 48s-21.667 16 -39 16c-56 0 -139 -66.167 -249 -198.5s-193.333 -295.166 -250 -488.499l-39 -134h-153l331 1162h-128l16 41h124z" />
    <glyph glyph-name="afii10109" unicode="&#x45c;" horiz-adv-x="1020" 
d="M760 1414h229l-478 -349h-33zM461 937l-127.001 -446c66.667 0 114 3.66699 142 11s56 26 84 56s61 87 99 171c38.667 86 70 142.167 94 168.5s57.333 39.5 100 39.5c36.667 0 68.5 -11.167 95.5 -33.5s40.5 -50.833 40.5 -85.5c0 -24 -7.5 -45.5 -22.5 -64.5
s-35.5 -28.5 -61.5 -28.5c-37.333 0 -68.666 20.667 -93.999 62c-13.333 22 -25 33 -35 33c-20 0 -46 -36.667 -78 -110c-36 -81.333 -66 -137 -90 -167s-52.667 -51.667 -86 -65c38.667 -14 78.667 -61 120 -141l94 -183c38 -74 94.667 -113 170 -117l-11 -37h-242
l-178 347c-20 38.667 -39.5 65.667 -58.5 81s-44.5 23 -76.5 23c-4.66699 0 -10.667 -0.333008 -18 -1l-130 -450h-157l218 751c6.66699 24.667 10 41 10 49c0 32.667 -22.667 49 -68 49c-20.667 0 -45 -3 -73 -9l4 35l298 62h37z" />
    <glyph glyph-name="afii10110" unicode="&#x45e;" 
d="M950 1335l47 -0.000976562c-77.333 -172 -187.333 -258 -330 -258c-67.333 0 -121.833 16.333 -163.5 49s-62.5 71.334 -62.5 116.001c0 62 27.667 93 83 93c40 0 75 -31 105 -93c25.333 -52.667 62.333 -79 111 -79c45.333 0 87.833 19.167 127.5 57.5
s67.167 76.5 82.5 114.5zM428 936.999c32 -50 50.666 -128.666 55.999 -235.999l30 -598c250.667 315.333 376 519.666 376 612.999c0 13.333 -13.667 26 -41 38c-47.333 20 -71 51 -71 93c0 25.333 8 46.666 24 63.999s35.667 26 59 26c31.333 0 56.833 -12.833 76.5 -38.5
s29.5 -59.167 29.5 -100.5c0 -110.667 -85 -280.167 -255 -508.5s-310.833 -406.666 -422.5 -534.999s-206.167 -192.5 -283.5 -192.5c-21.333 0 -40.5 8 -57.5 24s-25.5 34 -25.5 54c0 24 10.667 47.833 32 71.5s46 35.5 74 35.5c24 0 42 -15.667 54 -47
c7.33301 -18.667 15 -28 23 -28c16.667 0 49.834 22.5 99.501 67.5s106.5 108.167 170.5 189.5l-34 648c-6.66699 122 -21.334 197.5 -44.001 226.5s-52.667 43.5 -90 43.5c-19.333 0 -43.666 -3 -72.999 -9l-9 37z" />
    <glyph glyph-name="afii10193" unicode="&#x45f;" 
d="M503 178c-80 -98 -141.666 -165.67 -184.999 -203.003c-35.333 -31.333 -53 -57.666 -53 -78.999c0 -8 1.66699 -19 5 -33c6 -21.333 9 -38 9 -50c0 -40 -19.5 -81 -58.5 -123s-91.833 -70 -158.5 -84l-19 34c75.333 27.333 113 74.666 113 141.999
c0 11.333 -1.33301 24.333 -4 39c-2 12 -3 21.333 -3 28c0 22 21 49 63 81c30 23.333 52.333 44 67 62c-24.667 -10.667 -50 -16 -76 -16c-38.667 0 -67.667 11.667 -87 35s-29 58 -29 104c0 42 10 97.667 30 167l123 423c8.66699 30.667 13 53.667 13 69
c0 27.333 -10 41 -30 41c-32 0 -78.333 -43.667 -139 -131l-29 21c33.333 58.667 76.5 110 129.5 154s104.167 66 153.5 66c22.667 0 41.834 -8.83301 57.501 -26.5s23.5 -38.167 23.5 -61.5c0 -29.333 -5 -61.666 -15 -96.999l-141 -487
c-13.333 -45.333 -20 -81.666 -20 -108.999c0 -16.667 4.16699 -29.167 12.5 -37.5s20.5 -12.5 36.5 -12.5c60.667 0 148.167 73.167 262.5 219.5s191.166 288.5 230.499 426.5l49 173h154l-203 -696c-13.333 -45.333 -20 -79.666 -20 -102.999c0 -22 10 -33 30 -33
c34 0 81.667 45.333 143 136l28 -21c-99.333 -146.667 -192 -220 -278 -220c-52 0 -78 31.333 -78 94c0 48 17.667 132.333 53 253l37 127c-50.667 -87.333 -116.334 -178 -197.001 -272z" />
    <glyph glyph-name="afii10050" unicode="&#x490;" horiz-adv-x="1009" 
d="M1252 1312l-499.998 0.00195312l-299 -1092c-9.33301 -34 -14 -60.333 -14 -79c0 -28.667 11 -53.167 33 -73.5s51.667 -30.5 89 -30.5h50l-12 -37h-577l11 37c57.333 1.33301 103.166 17.666 137.499 48.999s62.166 85.666 83.499 162.999l247 900
c10.667 38 16 66.667 16 86c0 73.333 -50.333 110 -151 110h-34l13 37h565c105.333 0 186 18.833 242 56.5s107 102.5 153 194.5h37z" />
    <glyph glyph-name="afii10098" unicode="&#x491;" horiz-adv-x="672" 
d="M129 913l403.999 0.000976562c61.333 0 111.5 15.167 150.5 45.5s80.167 88.5 123.5 174.5h37l-84 -288h-331l-193 -664c-9.33301 -32 -14 -54.667 -14 -68c0 -12.667 3 -22.167 9 -28.5s14.667 -9.5 26 -9.5c17.333 0 42.333 15.667 75 47s60.334 65.666 83.001 102.999
l32 -21c-39.333 -62.667 -87.666 -116.334 -144.999 -161.001s-110.333 -67 -159 -67c-24.667 0 -43.334 8.66699 -56.001 26s-19 43.333 -19 78c0 34 7 75.333 21 124l137 475c11.333 39.333 17 69 17 89c0 70.667 -42 106.334 -126 107.001z" />
    <glyph glyph-name="endash" unicode="&#x2013;" 
d="M2 508h1039v-65h-1039v65z" />
    <glyph glyph-name="emdash" unicode="&#x2014;" horiz-adv-x="2048" 
d="M2 508h2063v-65h-2063v65z" />
    <glyph glyph-name="quoteleft" unicode="&#x2018;" horiz-adv-x="555" 
d="M651 1382c-107.333 -51.333 -161.001 -106.334 -161.001 -165.001c0 -19.333 11 -40.666 33 -63.999c24 -26.667 36 -51.667 36 -75c0 -28 -10.167 -52.833 -30.5 -74.5s-44.166 -32.5 -71.499 -32.5c-28.667 0 -52.5 11.667 -71.5 35s-28.5 51.333 -28.5 84
c0 69.333 25.5 132 76.5 188s117.5 101.333 199.5 136z" />
    <glyph glyph-name="quoteright" unicode="&#x2019;" horiz-adv-x="555" 
d="M336 1008c106.667 51.333 160.001 105.997 160.001 163.997c0 18.667 -10.667 39.334 -32 62.001c-24 26 -36 50.667 -36 74c0 28 10.167 52.667 30.5 74s43.833 32 70.5 32c31.333 0 56 -12.5 74 -37.5s27 -52.5 27 -82.5c0 -69.333 -25.833 -132.166 -77.5 -188.499
s-117.834 -101.166 -198.501 -134.499z" />
    <glyph glyph-name="quotesinglbase" unicode="&#x201a;" horiz-adv-x="682" 
d="M37 -226c106.667 50 160.001 104.666 160.001 163.999c0 18.667 -10.667 39.334 -32 62.001c-24 26 -36 50.667 -36 74c0 28 10.167 52.667 30.5 74s43.833 32 70.5 32c29.333 0 53.5 -12 72.5 -36s28.5 -52 28.5 -84c0 -70 -26.333 -133.333 -79 -190
s-118.334 -101 -197.001 -133z" />
    <glyph glyph-name="quotedblleft" unicode="&#x201c;" 
d="M1111 1382c-106.667 -51.333 -160 -106.335 -160 -165.002c0 -19.333 10.667 -40.666 32 -63.999c24 -26.667 36 -51.667 36 -75c0 -28 -10.167 -52.833 -30.5 -74.5s-43.833 -32.5 -70.5 -32.5c-31.333 0 -55.833 12.333 -73.5 37s-26.5 52.334 -26.5 83.001
c0 64 24.167 124.833 72.5 182.5s115.833 104.5 202.5 140.5zM659 1382c-107.333 -51.333 -161.001 -106.334 -161.001 -165.001c0 -19.333 11 -40.666 33 -63.999c24 -26.667 36 -51.667 36 -75c0 -28 -10.167 -52.833 -30.5 -74.5s-44.166 -32.5 -71.499 -32.5
c-28.667 0 -52.5 11.667 -71.5 35s-28.5 51.333 -28.5 84c0 69.333 25.5 132 76.5 188s117.5 101.333 199.5 136z" />
    <glyph glyph-name="quotedblright" unicode="&#x201d;" 
d="M342 1008c106.667 51.333 160.001 105.997 160.001 163.997c0 18.667 -10.667 39.334 -32 62.001c-24 26 -36 50.667 -36 74c0 28 10.167 52.667 30.5 74s43.833 32 70.5 32c31.333 0 56 -12.5 74 -37.5s27 -52.5 27 -82.5c0 -69.333 -25.833 -132.166 -77.5 -188.499
s-117.834 -101.166 -198.501 -134.499zM795.001 1008c106.667 51.333 160.001 105.667 160.001 163c0 19.333 -11 40.333 -33 63c-24 26.667 -36 51.334 -36 74.001c0 28 10.167 52.667 30.5 74s44.166 32 71.499 32c28.667 0 52.5 -11.833 71.5 -35.5
s28.5 -51.834 28.5 -84.501c0 -64 -24 -124.667 -72 -182s-116 -104.333 -204 -141z" />
    <glyph glyph-name="quotedblbase" unicode="&#x201e;" 
d="M-5 -226c106.667 50 160.001 104.666 160.001 163.999c0 18.667 -10.667 39.334 -32 62.001c-24 26 -36 50.667 -36 74c0 28 10.167 52.667 30.5 74s43.833 32 70.5 32c29.333 0 53.5 -12 72.5 -36s28.5 -52 28.5 -84c0 -70 -26.333 -133.333 -79 -190
s-118.334 -101 -197.001 -133zM448.001 -226.001l4 1.99902c104 48.667 156 102.334 156 161.001c0 18.667 -11 39.667 -33 63c-24 26.667 -36 51.334 -36 74.001c0 28 10.167 52.667 30.5 74s44.166 32 71.499 32c28.667 0 52.5 -11.833 71.5 -35.5
s28.5 -51.834 28.5 -84.501c0 -70 -26.167 -133.167 -78.5 -189.5s-118.166 -100.833 -197.499 -133.5z" />
    <glyph glyph-name="dagger" unicode="&#x2020;" horiz-adv-x="1237" 
d="M741 949c-39.333 0 -97.001 -15.0029 -173.001 -45.0029c-60.667 -24 -106 -36 -136 -36c-25.333 0 -48.333 8 -69 24s-31 36 -31 60c0 28 10.667 51 32 69s45.333 27 72 27c28 0 69.667 -9 125 -27c80 -26 135.667 -39 167 -39c5.33301 0 13.333 0.333008 24 1
c12.667 38 19 86 19 144c0 16.667 -1 42.334 -3 77.001c-1.33301 24.667 -2 46.667 -2 66c0 53.333 10.833 97.666 32.5 132.999s51.167 53 88.5 53c28 0 50.833 -9.5 68.5 -28.5s26.5 -40.5 26.5 -64.5c0 -55.333 -35 -130.333 -105 -225
c-50 -68 -79.333 -119.667 -88 -155c42.667 0 91.667 8.66699 147 26c82.667 24.667 137.334 37 164.001 37s49.667 -9 69 -27s29 -38.333 29 -61c0 -26 -11 -47.5 -33 -64.5s-48.333 -25.5 -79 -25.5c-29.333 0 -68.333 10 -117 30c-76.667 32 -139.667 49 -189 51
c-7.33301 -23.333 -11 -51.666 -11 -84.999c0 -55.333 13 -103.666 39 -144.999c-96 -147.333 -206 -422 -330 -824c-50 -164 -81.667 -260.333 -95 -289h-34c0.666992 5.33301 15.667 57 45 155c94.667 320 150.667 538.667 168 656s26 203.333 26 258
c0 9.33301 -0.333008 24 -1 44c74 66.667 125.333 143.334 154 230.001z" />
    <glyph glyph-name="doubledagger" unicode="&#x2021;" horiz-adv-x="1237" 
d="M763 1027c-45.333 0 -106.669 -12.6621 -184.002 -37.9951c-36 -11.333 -66.667 -17 -92 -17c-20 0 -37.5 7.66699 -52.5 23s-22.5 34 -22.5 56c0 23.333 8.83301 41.666 26.5 54.999s34.834 20 51.501 20c23.333 0 54.666 -7 93.999 -21c68 -25.333 124 -38 168 -38
c5.33301 0 13.666 0.333008 24.999 1c17.333 45.333 26.333 114.666 27 207.999c0.666992 128.667 35.667 193 105 193c21.333 0 38.5 -7.33301 51.5 -22s19.5 -31.334 19.5 -50.001c0 -26 -4.16699 -48.833 -12.5 -68.5s-33.5 -61.167 -75.5 -124.5
c-36 -54 -61 -99.333 -75 -136l13 -1c28.667 0 79.334 10.667 152.001 32c52.667 16 88 24 106 24c22.667 0 42.167 -7.33301 58.5 -22s24.5 -32.667 24.5 -54c0 -22 -8.16699 -40 -24.5 -54s-35.5 -21 -57.5 -21c-23.333 0 -56 7 -98 21c-72 24 -128 36 -168 36l-17 -2
c-10.667 -29.333 -16 -61 -16 -95c0 -52 12.667 -94.667 38 -128c-52.667 -40.667 -100 -104.5 -142 -191.5s-63 -168.5 -63 -244.5c0 -40 7 -79.333 21 -118c-60.667 -44.667 -110 -119.334 -148 -224.001c44.667 0 106.334 12.667 185.001 38c38 12 66.333 18 85 18
c22.667 0 42.167 -7 58.5 -21s24.5 -32 24.5 -54c0 -23.333 -8.5 -42.333 -25.5 -57s-36.167 -22 -57.5 -22s-50 6.66699 -86 20c-67.333 24.667 -133 37.667 -197 39c-14 -42.667 -22.333 -111.334 -25 -206.001c-3.33301 -134 -39.666 -201 -108.999 -201
c-45.333 0 -68 27.667 -68 83c0 38 20 86 60 144c52.667 76 86.667 136 102 180c-43.333 -2 -96.333 -12.667 -159 -32c-52.667 -16.667 -89 -25 -109 -25c-20.667 0 -40 6.66699 -58 20s-27 32 -27 56c0 24.667 8.66699 43.5 26 56.5s36 19.5 56 19.5
c22.667 0 61.667 -8.66699 117 -26c60 -20 115 -30 165 -30c10.667 34.667 16 67.667 16 99c0 46.667 -13.333 88.334 -40 125.001c60.667 48.667 110.167 115.167 148.5 199.5s57.5 167.166 57.5 248.499c0 34 -7.33301 69.333 -22 106c70 54.667 119.667 129 149 223z" />
    <glyph glyph-name="bullet" unicode="&#x2022;" horiz-adv-x="725" 
d="M180 691c0 70 24.833 129.667 74.5 179s109.167 74 178.5 74c70 0 129.833 -24.667 179.5 -74s74.5 -109 74.5 -179c0 -69.333 -25 -128.833 -75 -178.5s-109.667 -74.5 -179 -74.5c-72 0 -132.167 25.167 -180.5 75.5s-72.5 109.5 -72.5 177.5z" />
    <glyph glyph-name="ellipsis" unicode="&#x2026;" horiz-adv-x="2048" 
d="M1706 203c30 0 56.3311 -10.666 78.998 -31.999s34 -48.333 34 -81c0 -32 -11.167 -59 -33.5 -81s-48.833 -33 -79.5 -33c-31.333 0 -58.166 11.167 -80.499 33.5s-33.5 49.166 -33.5 80.499c0 32 11.333 58.833 34 80.5s49.334 32.5 80.001 32.5zM340.998 203.001
c30.667 0 57.167 -10.833 79.5 -32.5s33.5 -48.5 33.5 -80.5c0 -31.333 -11 -58.166 -33 -80.499s-48.667 -33.5 -80 -33.5s-58 11.167 -80 33.5s-33 49.166 -33 80.499c0 32 11.167 58.833 33.5 80.5s48.833 32.5 79.5 32.5zM1023 203.001c30.667 0 57 -11.1689 79 -33.502
s33 -49.166 33 -80.499s-11 -58 -33 -80s-48.333 -33 -79 -33c-31.333 0 -58 11 -80 33s-33 48.667 -33 80c0 32.667 11.167 59.834 33.5 81.501s48.833 32.5 79.5 32.5z" />
    <glyph glyph-name="perthousand" unicode="&#x2030;" horiz-adv-x="2048" 
d="M1548 1415l-1509 -1468h-95l1509 1468h95zM717 1161c0 -105.333 -36.167 -210 -108.5 -314s-159.166 -156 -260.499 -156c-59.333 0 -105.5 22.833 -138.5 68.5s-49.5 103.167 -49.5 172.5c0 120.667 38 231.167 114 331.5s163.667 150.5 263 150.5
c49.333 0 91.666 -21.833 126.999 -65.5s53 -106.167 53 -187.5zM625 1250c0 47.333 -8.16797 82.834 -24.501 106.501s-41.166 35.5 -74.499 35.5c-77.333 0 -141.833 -68.833 -193.5 -206.5s-77.5 -252.834 -77.5 -345.501c0 -42 8.16699 -73.5 24.5 -94.5
s40.833 -31.5 73.5 -31.5c40 0 77 19 111 57s69.333 112.833 106 224.5s55 196.5 55 254.5zM1386 454.001c0 -107.333 -37 -212.5 -111 -315.5s-160 -154.5 -258 -154.5c-57.333 0 -102.833 22.333 -136.5 67s-50.5 102.667 -50.5 174c0 115.333 37.167 224.5 111.5 327.5
s162.5 154.5 264.5 154.5c50 0 92.5 -22.167 127.5 -66.5s52.5 -106.5 52.5 -186.5zM1294 541.001c0 48 -8.16699 84.001 -24.5 108.001s-40.833 36 -73.5 36c-78 0 -142.667 -68.833 -194 -206.5s-77 -252.834 -77 -345.501c0 -42 8.16699 -73.5 24.5 -94.5
s40.5 -31.5 72.5 -31.5c40 0 77 18.833 111 56.5s69.333 112.5 106 224.5s55 196.333 55 253zM2037 454.002c0 -107.333 -37 -212.5 -111 -315.5s-159.667 -154.5 -257 -154.5c-58 0 -103.833 22.333 -137.5 67s-50.5 102.667 -50.5 174c0 115.333 37.167 224.5 111.5 327.5
s162.5 154.5 264.5 154.5c50 0 92.5 -22.167 127.5 -66.5s52.5 -106.5 52.5 -186.5zM1945 541.002c0 48 -8.16699 84.001 -24.5 108.001s-40.833 36 -73.5 36c-78 0 -142.667 -68.833 -194 -206.5s-77 -252.834 -77 -345.501c0 -42 8.16699 -73.5 24.5 -94.5
s40.833 -31.5 73.5 -31.5c39.333 0 76 18.833 110 56.5s69.333 112.5 106 224.5s55 196.333 55 253z" />
    <glyph glyph-name="guilsinglleft" unicode="&#x2039;" horiz-adv-x="682" 
d="M665 992l-340 -473l111 -482h-45l-246 482l465 473h55z" />
    <glyph glyph-name="guillsinglright" unicode="&#x203a;" horiz-adv-x="682" 
d="M51 37l340 478l-111 474h45l246 -474l-465 -478h-55z" />
    <glyph glyph-name="afii61352" unicode="&#x2116;" horiz-adv-x="2137" 
d="M391 1382h333.001l289 -1007l229 813c42 150.667 113.667 226 215 226c47.333 0 84.333 -14.333 111 -43s40 -61 40 -97c0 -27.333 -9.16699 -50.666 -27.5 -69.999s-42.5 -29 -72.5 -29c-40.667 0 -73.334 23.333 -98.001 70c-12 22 -22.333 33 -31 33
c-31.333 0 -56 -38.667 -74 -116c-2.66699 -10.667 -5 -19.334 -7 -26.001l-330 -1167h-39l-334 1171l-265 -923c-48 -165.333 -125 -248 -231 -248c-40.667 0 -76.5 14.833 -107.5 44.5s-46.5 66.5 -46.5 110.5c0 32 9.66699 57.333 29 76s43 28 71 28
c52 0 85.333 -30 100 -90c7.33301 -30 17.333 -45 30 -45c34 0 70.333 69.333 109 208l273 965c-28 52.667 -87 79 -177 79zM1415 568c0 106.667 42.667 207.166 128 301.499s186 141.5 302 141.5c67.333 0 121.5 -23.5 162.5 -70.5s61.5 -103.833 61.5 -170.5
c0 -119.333 -43 -225.666 -129 -318.999s-186 -140 -300 -140c-60 0 -112.5 22 -157.5 66s-67.5 107.667 -67.5 191zM1542 478.999c0 -38 8.16699 -66.667 24.5 -86s40.5 -29 72.5 -29c71.333 0 140 56.167 206 168.5s99 218.833 99 319.5c0 36 -8 63 -24 81
s-40.333 27 -73 27c-76.667 0 -146.667 -55.333 -210 -166s-95 -215.667 -95 -315zM1324 122.999h569l-35 -123h-572z" />
    <glyph glyph-name="trademark" unicode="&#x2122;" horiz-adv-x="2005" 
d="M271 1382h727.998l22 -201h-34c-3.33301 33.333 -17.166 65.166 -41.499 95.499s-75.166 45.5 -152.499 45.5h-75v-580c0 -66 9 -104.167 27 -114.5s44.333 -15.833 79 -16.5v-36h-374v36c36.667 2.66699 62.5 9.33398 77.5 20.001s22.5 47.667 22.5 111v580h-76
c-66 0 -111.833 -11 -137.5 -33s-43.167 -58 -52.5 -108h-34zM1370 1382l273 -572l265 572h279v-36c-47.333 -1.33301 -77.666 -9.83301 -91 -25.5c-13.333 -15.667 -20 -52.167 -20 -109.5v-469c0 -56 6.33301 -91.167 19 -105.5s43.334 -22.833 92 -25.5v-36h-398v36
c49.333 1.33301 81.5 10 96.5 26s22.5 50.667 22.5 104v493l-307 -659h-32l-309 649v-482c0 -51.333 6 -86 18 -104s37.333 -27 76 -27h36v-36h-306v36c46.667 0 77.167 7.83301 91.5 23.5s21.5 51.5 21.5 107.5v466c0 60 -6.5 98 -19.5 114s-44.167 24 -93.5 24v36h286z
" />
    <glyph glyph-name="glyph1" horiz-adv-x="0" 
 />
    <glyph glyph-name="glyph2" horiz-adv-x="512" 
 />
  </font>
</defs>
</svg>
